<svg xmlns="http://www.w3.org/2000/svg" xmlns:xlink="http://www.w3.org/1999/xlink" width="108" height="108" viewBox="0 0 108 108">
  <defs>
    <filter id="Trazado_904820" x="0" y="0" width="108" height="108" filterUnits="userSpaceOnUse">
      <feOffset dy="3" input="SourceAlpha"/>
      <feGaussianBlur stdDeviation="3" result="blur"/>
      <feFlood flood-opacity="0.161"/>
      <feComposite operator="in" in2="blur"/>
      <feComposite in="SourceGraphic"/>
    </filter>
  </defs>
  <g id="Grupo_1173878" data-name="Grupo 1173878" transform="translate(-200 -5921)">
    <g id="Grupo_1173193" data-name="Grupo 1173193" transform="translate(209 5927)">
      <g id="Grupo_1171910" data-name="Grupo 1171910" transform="translate(0)">
        <g id="Grupo_1167341" data-name="Grupo 1167341">
          <g id="Grupo_1166792" data-name="Grupo 1166792">
            <g transform="matrix(1, 0, 0, 1, -9, -6)" filter="url(#Trazado_904820)">
              <g id="Trazado_904820-2" data-name="Trazado 904820" transform="translate(9 6)" fill="#e9f9fd">
                <path d="M 44.99999618530273 88.50003051757812 C 39.12687301635742 88.50003051757812 33.43022155761719 87.35010528564453 28.06829643249512 85.08219909667969 C 22.88852119445801 82.89134216308594 18.23629570007324 79.75461578369141 14.24084663391113 75.75916290283203 C 10.24540901184082 71.76371765136719 7.108683586120605 67.11150360107422 4.917821407318115 61.93172836303711 C 2.649921178817749 56.56978988647461 1.499996185302734 50.87313842773438 1.499996185302734 45.00001525878906 C 1.499996185302734 39.12689208984375 2.649921178817749 33.43024063110352 4.917821407318115 28.06830215454102 C 7.108683586120605 22.88852691650391 10.24540901184082 18.23631477355957 14.24084663391113 14.24086570739746 C 18.23629570007324 10.24541568756104 22.88852119445801 7.10869026184082 28.06829643249512 4.917827606201172 C 33.43022155761719 2.649927854537964 39.12687301635742 1.50000274181366 44.99999618530273 1.50000274181366 C 50.87311935424805 1.50000274181366 56.56977081298828 2.649927854537964 61.93169784545898 4.917827606201172 C 67.11147308349609 7.10869026184082 71.76369476318359 10.24541568756104 75.75914764404297 14.24086570739746 C 79.75458526611328 18.23631477355957 82.89131164550781 22.88852691650391 85.08216857910156 28.06830215454102 C 87.35007476806641 33.43024063110352 88.5 39.12689208984375 88.5 45.00001525878906 C 88.5 50.87313842773438 87.35007476806641 56.56978988647461 85.08216857910156 61.93172836303711 C 82.89131164550781 67.11150360107422 79.75458526611328 71.76371765136719 75.75914764404297 75.75916290283203 C 71.76369476318359 79.75461578369141 67.11147308349609 82.89134216308594 61.93169784545898 85.08219909667969 C 56.56977081298828 87.35010528564453 50.87311935424805 88.50003051757812 44.99999618530273 88.50003051757812 Z" stroke="none"/>
                <path d="M 44.99999618530273 3 C 39.32870864868164 3 33.82865142822266 4.110061645507812 28.65262603759766 6.299346923828125 C 23.65165710449219 8.414573669433594 19.15968322753906 11.44334411621094 15.301513671875 15.301513671875 C 11.44333648681641 19.15968322753906 8.414566040039062 23.65165710449219 6.299339294433594 28.65262985229492 C 4.110054016113281 33.82867050170898 2.999992370605469 39.32872772216797 2.999992370605469 45.00001525878906 C 2.999992370605469 50.67130279541016 4.110054016113281 56.17136001586914 6.299339294433594 61.34738922119141 C 8.414566040039062 66.34837341308594 11.44333648681641 70.84033203125 15.301513671875 74.69850158691406 C 19.15968322753906 78.55668640136719 23.65165710449219 81.58545684814453 28.65262603759766 83.70068359375 C 33.82865142822266 85.88996887207031 39.32870864868164 87.00003051757812 44.99999618530273 87.00003051757812 C 50.67128372192383 87.00003051757812 56.17134094238281 85.88996887207031 61.34736633300781 83.70068359375 C 66.34834289550781 81.58545684814453 70.84030914306641 78.55668640136719 74.69847869873047 74.69850158691406 C 78.55665588378906 70.84033203125 81.58542633056641 66.34837341308594 83.70065307617188 61.34738922119141 C 85.88993835449219 56.17136001586914 87 50.67130279541016 87 45.00001525878906 C 87 39.32872772216797 85.88993835449219 33.82867050170898 83.70065307617188 28.65262985229492 C 81.58542633056641 23.65165710449219 78.55665588378906 19.15968322753906 74.69847869873047 15.301513671875 C 70.84030914306641 11.44334411621094 66.34834289550781 8.414573669433594 61.34736633300781 6.299346923828125 C 56.17134094238281 4.110061645507812 50.67128372192383 3 44.99999618530273 3 M 44.99999618530273 0 C 69.85281372070312 0 90 20.14718627929688 90 45.00001525878906 C 90 69.85282897949219 69.85281372070312 90.00003051757812 44.99999618530273 90.00003051757812 C 20.14717864990234 90.00003051757812 -7.62939453125e-06 69.85282897949219 -7.62939453125e-06 45.00001525878906 C -7.62939453125e-06 20.14718627929688 20.14717864990234 0 44.99999618530273 0 Z" stroke="none" fill="#36ceef"/>
              </g>
            </g>
          </g>
        </g>
      </g>
    </g>
    <g id="contract_11357455" transform="translate(226.715 5933.84)">
      <g id="Grupo_1173879" data-name="Grupo 1173879" transform="translate(0.5 60.395)">
        <path id="Trazado_1030768" data-name="Trazado 1030768" d="M8.229,446.73l-3.866,6.481L.5,446.73Z" transform="translate(-0.5 -446.73)" fill="#fed9a8" fill-rule="evenodd"/>
      </g>
      <g id="Grupo_1173880" data-name="Grupo 1173880" transform="translate(3.517 60.395)">
        <path id="Trazado_1030769" data-name="Trazado 1030769" d="M31.089,446.73l-2.753,4.615-1.113,1.865-.846-1.425,3.013-5.056Z" transform="translate(-26.377 -446.73)" fill="#f4c892" fill-rule="evenodd"/>
      </g>
      <g id="Grupo_1173885" data-name="Grupo 1173885" transform="translate(1.199 41.768)">
        <g id="Grupo_1173881" data-name="Grupo 1173881" transform="translate(0 0)">
          <path id="Trazado_1030770" data-name="Trazado 1030770" d="M6.5,290.809a3.864,3.864,0,0,1,7.729,0v14.764l-3.866,6.481L6.5,305.573Z" transform="translate(-6.5 -286.946)" fill="#ffb123" fill-rule="evenodd"/>
        </g>
        <g id="Grupo_1173882" data-name="Grupo 1173882" transform="translate(3.017 0)">
          <path id="Trazado_1030771" data-name="Trazado 1030771" d="M32.377,287.04a4,4,0,0,1,.846-.094,3.876,3.876,0,0,1,3.866,3.863v14.764l-3.866,6.481-.846-1.425,3.013-5.056V290.809A3.879,3.879,0,0,0,32.377,287.04Z" transform="translate(-32.377 -286.946)" fill="#ff901d" fill-rule="evenodd"/>
        </g>
        <g id="Grupo_1173883" data-name="Grupo 1173883" transform="translate(0 0)">
          <path id="Trazado_1030772" data-name="Trazado 1030772" d="M8.955,287.213a3.881,3.881,0,0,0-2.455,3.6v1.2h7.729v-1.2a3.876,3.876,0,0,0-3.866-3.863,3.808,3.808,0,0,0-1.408.267Z" transform="translate(-6.5 -286.946)" fill="#ef5350" fill-rule="evenodd"/>
        </g>
        <g id="Grupo_1173884" data-name="Grupo 1173884" transform="translate(3.017)">
          <path id="Trazado_1030773" data-name="Trazado 1030773" d="M35.389,292h1.7v-1.2a.9.9,0,0,0,0-.1.969.969,0,0,0,0-.1.908.908,0,0,0-.007-.1.938.938,0,0,0-.007-.1c0-.035-.007-.066-.01-.1s-.01-.066-.014-.1-.01-.062-.017-.094a.88.88,0,0,0-.017-.094v0l-.021-.094c-.007-.028-.014-.059-.024-.09a.924.924,0,0,0-.024-.094,302672400431.549,302672400431.549,0,0,1-.055-.18c-.01-.031-.021-.059-.031-.09s-.024-.059-.035-.087-.024-.059-.035-.087-.024-.059-.038-.087-.028-.059-.042-.087l-.042-.083-.042-.083c-.017-.028-.031-.052-.045-.08s-.035-.056-.048-.08-.035-.055-.048-.08-.035-.052-.052-.08l-.055-.076-.052-.073c-.021-.024-.038-.052-.059-.076a.569.569,0,0,0-.059-.069c-.017-.024-.038-.049-.059-.073-.042-.045-.083-.094-.125-.135-.021-.024-.042-.045-.066-.069s-.042-.042-.066-.062l-.066-.066-.069-.059-.073-.062c-.024-.017-.048-.038-.073-.059s-.048-.035-.073-.055l-.076-.055c-.024-.017-.048-.035-.076-.052l-.076-.052-.08-.048-.08-.048c-.028-.014-.055-.031-.083-.045s-.052-.028-.08-.045-.055-.028-.087-.042-.055-.024-.083-.038a1.877,1.877,0,0,0-.173-.073.9.9,0,0,0-.087-.035l-.09-.031-.09-.031c-.031-.007-.062-.017-.09-.024s-.062-.017-.094-.028l-.094-.021L34,287.024a13028.471,13028.471,0,0,0-.187-.035c-.035,0-.066-.01-.1-.014l-.1-.01-.1-.01c-.035,0-.066,0-.1,0v0a.965.965,0,0,1-.1,0h-.208l-.007,0h-.073l-.014,0h-.042a4.282,4.282,0,0,0-.6.087,3.879,3.879,0,0,1,3.013,3.769V292Z" transform="translate(-32.376 -286.944)" fill="#d90d17" fill-rule="evenodd"/>
        </g>
      </g>
      <g id="Grupo_1173886" data-name="Grupo 1173886" transform="translate(2.953 10.299)">
        <path id="Trazado_1030774" data-name="Trazado 1030774" d="M22.5,29.816q13.229-6.334,26.457-12.665a2.047,2.047,0,0,1,2.6,1.19q9,18.806,18.011,37.62a2.045,2.045,0,0,1-.706,2.77L42.4,71.4a2.043,2.043,0,0,1-2.6-1.187L21.791,32.59a2.05,2.05,0,0,1,.706-2.774Z" transform="translate(-21.54 -17)" fill="#d4c4b0" fill-rule="evenodd"/>
      </g>
      <g id="Grupo_1173889" data-name="Grupo 1173889" transform="translate(12.933 14.461)">
        <g id="Grupo_1173887" data-name="Grupo 1173887" transform="translate(0 0)">
          <path id="Trazado_1030775" data-name="Trazado 1030775" d="M109.041,52.7h23.465l8.607,8.607V95.546a1.894,1.894,0,0,1-1.886,1.886H109.041a1.892,1.892,0,0,1-1.886-1.886V54.587a1.892,1.892,0,0,1,1.886-1.886Z" transform="translate(-107.155 -52.701)" fill="#fdf6ec" fill-rule="evenodd"/>
        </g>
        <g id="Grupo_1173888" data-name="Grupo 1173888" transform="translate(25.351 0)">
          <path id="Trazado_1030776" data-name="Trazado 1030776" d="M333.226,61.308h-8.607V52.7Z" transform="translate(-324.619 -52.701)" fill="#d4c4b0" fill-rule="evenodd"/>
        </g>
      </g>
      <g id="Grupo_1173894" data-name="Grupo 1173894" transform="translate(24.113 27.413)">
        <g id="Grupo_1173890" data-name="Grupo 1173890" transform="translate(3.942 2.568)">
          <path id="Trazado_1030777" data-name="Trazado 1030777" d="M249.519,188.52l-1.944-1.655a4.134,4.134,0,0,0-3.027-1.022l-4.566.261-3.109,9.47,1.4.122c2.616,2.524,4.244,5.907,8.22,7.249.83.282,1.666.515,2.242-.153a1.634,1.634,0,0,0-.154-2.274l-.878-.779,2.646,2.34a1.577,1.577,0,0,0,2.242-.153,1.635,1.635,0,0,0-.154-2.274l1.484,1.311a1.577,1.577,0,0,0,2.242-.153,1.635,1.635,0,0,0-.154-2.274l1.68,1.484a1.615,1.615,0,0,0,2.242-.156,1.6,1.6,0,0,0-.154-2.274Z" transform="translate(-236.873 -185.835)" fill="#ffcebf" fill-rule="evenodd"/>
        </g>
        <g id="Grupo_1173891" data-name="Grupo 1173891" transform="translate(10.482 1.509)">
          <path id="Trazado_1030778" data-name="Trazado 1030778" d="M297.138,178.19l-3.689,4.29a2,2,0,0,0,.185,2.781,1.93,1.93,0,0,0,2.742-.188l2.17-2.527a3.17,3.17,0,0,1,3.49.567l7.3,6.452,3.977-.615L313,181.59l-3.02-1.978s-4.717-.174-6.486-1.964c-.97-.987-2.681-1.026-4.134-.747a3.739,3.739,0,0,0-2.221,1.29Z" transform="translate(-292.972 -176.751)" fill="#f5c2b3" fill-rule="evenodd"/>
        </g>
        <g id="Grupo_1173892" data-name="Grupo 1173892" transform="translate(27.102 1.526)">
          <path id="Trazado_1030779" data-name="Trazado 1030779" d="M440.623,176.9l3.366,11.98-5.077,1.467-3.37-11.98Z" transform="translate(-435.543 -176.898)" fill="#464e6e" fill-rule="evenodd"/>
        </g>
        <g id="Grupo_1173893" data-name="Grupo 1173893">
          <path id="Trazado_1030780" data-name="Trazado 1030780" d="M206.426,163.806l-3.37,11.98,5.08,1.467,3.366-11.977Z" transform="translate(-203.056 -163.806)" fill="#464e6e" fill-rule="evenodd"/>
        </g>
      </g>
      <g id="Grupo_1173895" data-name="Grupo 1173895" transform="translate(12.49 13.737)">
        <path id="Trazado_1030781" data-name="Trazado 1030781" d="M105.3,46.5h1.65a1.953,1.953,0,0,0-1.945,1.945v42.24a1.953,1.953,0,0,0,1.945,1.945H105.3a1.951,1.951,0,0,1-1.945-1.945V48.441A1.951,1.951,0,0,1,105.3,46.5Z" transform="translate(-103.355 -46.496)" fill="#f5eada" fill-rule="evenodd"/>
      </g>
      <path id="Trazado_1030782" data-name="Trazado 1030782" d="M30.706,21.509H16.813a.833.833,0,0,1,0-1.665H30.706a.833.833,0,0,1,0,1.665Zm-6.114,3.4a.833.833,0,0,0-.832-.833H16.813a.833.833,0,0,0,0,1.665H23.76A.833.833,0,0,0,24.592,24.907Zm-.246,8.457a.833.833,0,0,0-.832-.833h-6.7a.833.833,0,0,0,0,1.665h6.7A.833.833,0,0,0,24.346,33.363Zm-2.268,3.394H16.813a.833.833,0,0,0,0,1.665h5.265a.833.833,0,0,0,0-1.665Zm2.272,4.23H16.813a.833.833,0,0,0,0,1.665H24.35a.833.833,0,0,0,0-1.665Zm7.7,4.227H16.813a.833.833,0,0,0,0,1.665H32.048a.833.833,0,0,0,0-1.665ZM43.2,49.44H16.813a.833.833,0,0,0,0,1.665H43.2a.833.833,0,0,0,0-1.665Zm-.57,4.456c-1.237,1.163-2.417.607-4.238-.4-1.729-.953-4.1-2.257-5.938.546a.832.832,0,1,0,1.392.914c.913-1.391,1.707-1.123,3.743,0a7.78,7.78,0,0,0,3.586,1.252,3.685,3.685,0,0,0,2.6-1.1.832.832,0,1,0-1.14-1.213ZM59.466,41.606l-4.992,1.426a.833.833,0,0,1-1.029-.572l-.12-.42-1.331.2a2.427,2.427,0,0,1,.068.493,2.214,2.214,0,0,1-.642,1.659,2.589,2.589,0,0,1-1.373.727l1.832,3.825a3.252,3.252,0,0,1,.239,2.2,2.538,2.538,0,0,1-1.339,1.688l-2.917,1.4v3.136a2.727,2.727,0,0,1-2.723,2.724H35.617l-11.36,5.439a2.4,2.4,0,0,1-1.041.234,2.638,2.638,0,0,1-.877-.153,3.226,3.226,0,0,1-1.8-1.663l-1.846-3.858H14.878a2.727,2.727,0,0,1-2.723-2.724V20.087L4.3,23.847a.891.891,0,0,0-.444.6,1.608,1.608,0,0,0,.128,1.07l7.6,15.881a.832.832,0,1,1-1.5.719l-7.6-15.882a3.252,3.252,0,0,1-.239-2.2,2.538,2.538,0,0,1,1.339-1.688l8.573-4.1V16.312a2.727,2.727,0,0,1,2.723-2.723h7L30.1,9.649a2.493,2.493,0,0,1,1.918-.081,3.225,3.225,0,0,1,1.8,1.663l1.128,2.358H38.4a.833.833,0,0,1,.589.244l8.628,8.628a.833.833,0,0,1,.244.589V28.56a.832.832,0,1,1-1.665,0V23.882H38.4a.832.832,0,0,1-.832-.833v-7.8H14.878a1.06,1.06,0,0,0-1.058,1.058V57.368a1.06,1.06,0,0,0,1.058,1.058h30.26A1.06,1.06,0,0,0,46.2,57.368V47.913a.832.832,0,1,1,1.665,0v4.472l2.2-1.053a.891.891,0,0,0,.444-.6,1.608,1.608,0,0,0-.128-1.07l-2.318-4.841a2.4,2.4,0,0,1-3.414.877,2.395,2.395,0,0,1-3.782.877l-.019-.016a2.382,2.382,0,0,1-.392.624,2.01,2.01,0,0,1-1.588.707,4.811,4.811,0,0,1-1.508-.312c-2.974-.99-4.687-3.01-6.344-4.965-.379-.447-.747-.88-1.124-1.3a.829.829,0,0,1-.835.232l-5-1.422a.833.833,0,0,1-.573-1.029L26.8,27.486a.833.833,0,0,1,1.029-.572l4.992,1.422a.833.833,0,0,1,.573,1.029l-.042.146,2.312-.13a4.958,4.958,0,0,1,2.528.5A4.493,4.493,0,0,1,40.719,28.5c1.211-.228,3.447-.409,4.806.951.944.944,3.139,1.391,4.658,1.569l-.051-.179a.833.833,0,0,1,.573-1.029l5-1.422a.833.833,0,0,1,1.029.573l3.31,11.611a.833.833,0,0,1-.572,1.029ZM39.234,22.217H45.02l-5.786-5.786Zm-13.5-8.629h7.375l-.784-1.639a1.552,1.552,0,0,0-.852-.811.843.843,0,0,0-.646.012Zm6.03,46.5H20.538l1.5,3.139a1.553,1.553,0,0,0,.852.811.842.842,0,0,0,.646-.012ZM28.708,39.723l.044-.156,0-.014,2.805-9.844-3.391-.966L25.314,38.756ZM50.4,42.79a.8.8,0,0,0-.266-.563l-7.175-6.258c-.015-.014-.03-.027-.045-.042a2.151,2.151,0,0,0-2.371-.4L38.567,37.79a2.742,2.742,0,0,1-4.133-3.605l2.6-2.981a3.4,3.4,0,0,0-1.278-.16l-2.888.162-2.374,8.33c.638.648,1.222,1.335,1.789,2,1.578,1.861,3.068,3.619,5.6,4.462.912.305,1.158.27,1.314.092a.733.733,0,0,0-.055-1.015l-.879-.766-.01-.01-2.029-1.77a.833.833,0,0,1,1.095-1.255l2.9,2.531h0l.03.026,1.709,1.49a.731.731,0,0,0,1.029-.071.731.731,0,0,0-.071-1.027h0L39.128,40.92a.833.833,0,0,1,1.095-1.254l3.788,3.306h0l1.458,1.269a.716.716,0,0,0,.528.176.731.731,0,0,0,.5-.249.732.732,0,0,0-.069-1.022l0,0c-.013-.011-.025-.024-.037-.036l-4.571-3.986a.833.833,0,0,1,1.094-1.255l4.607,4.018c.013.012.026.024.038.037l1.173,1.022a.83.83,0,0,1,.462.4.8.8,0,0,0,1.047-.129.564.564,0,0,0,.155-.426Zm2.467-2.365-2.191-7.681c-1.407-.116-4.766-.552-6.326-2.112-.849-.849-2.606-.627-3.322-.492a2.87,2.87,0,0,0-1.712.981l-3.626,4.158A1.077,1.077,0,0,0,37.312,36.7l2.133-2.447A.833.833,0,0,1,39.823,34a3.949,3.949,0,0,1,4.25.732l6.863,5.986Zm5.344-.192L55.355,30.223l-3.394.966.147.517,0,.007,2.612,9.155c0,.012.008.025.011.038l.085.3ZM9.678,45.423V59.774a.832.832,0,0,1-.118.427L5.8,66.5a.832.832,0,0,1-.715.406h0a.833.833,0,0,1-.715-.406L.617,60.2A.833.833,0,0,1,.5,59.774V45.423a4.589,4.589,0,0,1,9.178,0Zm-7.513,0v.327H8.013v-.327a2.924,2.924,0,0,0-5.848,0ZM8.013,58.942V47.415H2.165V58.942Zm-.634,1.665H2.8l2.29,3.841Z" transform="translate(0 0)"/>
    </g>
  </g>
</svg>
