<svg xmlns="http://www.w3.org/2000/svg" xmlns:xlink="http://www.w3.org/1999/xlink" width="110" height="110" viewBox="0 0 110 110">
  <defs>
    <filter id="Trazado_982547" x="0" y="0" width="110" height="110" filterUnits="userSpaceOnUse">
      <feOffset dy="3" input="SourceAlpha"/>
      <feGaussianBlur stdDeviation="3" result="blur"/>
      <feFlood flood-opacity="0.161"/>
      <feComposite operator="in" in2="blur"/>
      <feComposite in="SourceGraphic"/>
    </filter>
  </defs>
  <g id="Grupo_1173897" data-name="Grupo 1173897" transform="translate(-798.804 -6347.663)">
    <g id="Grupo_1173196" data-name="Grupo 1173196" transform="translate(807.804 6353.663)">
      <g id="Grupo_1171898" data-name="Grupo 1171898" transform="translate(0 0)">
        <g id="Grupo_1164700" data-name="Grupo 1164700" transform="translate(0 0)">
          <g id="Grupo_1160931" data-name="Grupo 1160931" transform="translate(0 0)">
            <g id="Grupo_1160749" data-name="Grupo 1160749" transform="translate(0 0)">
              <g id="Grupo_1158891" data-name="Grupo 1158891" transform="translate(0 0)">
                <g id="Grupo_1157406" data-name="Grupo 1157406" transform="translate(0 0)">
                  <g id="Grupo_1155793" data-name="Grupo 1155793">
                    <g id="Grupo_1154704" data-name="Grupo 1154704">
                      <g id="Grupo_1150790" data-name="Grupo 1150790">
                        <g id="Grupo_1154214" data-name="Grupo 1154214">
                          <g id="Grupo_1152583" data-name="Grupo 1152583">
                            <g id="Grupo_1146973" data-name="Grupo 1146973">
                              <g id="Grupo_1146954" data-name="Grupo 1146954">
                                <g transform="matrix(1, 0, 0, 1, -9, -6)" filter="url(#Trazado_982547)">
                                  <g id="Trazado_982547-2" data-name="Trazado 982547" transform="translate(9 6)" fill="#e9f9fd">
                                    <path d="M 46.0000114440918 90.49988555908203 C 39.99188995361328 90.49988555908203 34.16427993774414 89.32352447509766 28.6790657043457 87.00347137451172 C 23.38021087646484 84.76226043701172 18.62105178833008 81.55342864990234 14.53375816345215 77.46615600585938 C 10.44647789001465 73.37887573242188 7.237651348114014 68.61971282958984 4.996424674987793 63.32085800170898 C 2.676371335983276 57.83565902709961 1.500011444091797 52.00806045532227 1.500011444091797 45.99993896484375 C 1.500011444091797 39.99181747436523 2.676371335983276 34.16421890258789 4.996424674987793 28.67901802062988 C 7.237651348114014 23.38017845153809 10.44647789001465 18.62101936340332 14.53375816345215 14.53373908996582 C 18.62105178833008 10.44645881652832 23.38021087646484 7.237632274627686 28.6790657043457 4.996418952941895 C 34.16427993774414 2.676365613937378 39.99188995361328 1.500005602836609 46.0000114440918 1.500005602836609 C 52.00813293457031 1.500005602836609 57.83574295043945 2.676365613937378 63.32095718383789 4.996418952941895 C 68.61981201171875 7.237632274627686 73.37898254394531 10.44645881652832 77.46626281738281 14.53373908996582 C 81.55355834960938 18.62101936340332 84.76237487792969 23.38017845153809 87.00360107421875 28.67901802062988 C 89.32365417480469 34.16421890258789 90.50001525878906 39.99181747436523 90.50001525878906 45.99993896484375 C 90.50001525878906 52.00806045532227 89.32365417480469 57.83565902709961 87.00360107421875 63.32085800170898 C 84.76237487792969 68.61971282958984 81.55355834960938 73.37887573242188 77.46626281738281 77.46615600585938 C 73.37898254394531 81.55342864990234 68.61981201171875 84.76226043701172 63.32095718383789 87.00347137451172 C 57.83574295043945 89.32352447509766 52.00813293457031 90.49988555908203 46.0000114440918 90.49988555908203 Z" stroke="none"/>
                                    <path d="M 46.0000114440918 2.999992370605469 C 40.1937255859375 2.999992370605469 34.56270980834961 4.136497497558594 29.26339721679688 6.377906799316406 C 24.14334106445312 8.543510437011719 19.54442596435547 11.64437866210938 15.59441375732422 15.59439849853516 C 11.6444091796875 19.54439544677734 8.543525695800781 24.14329528808594 6.377922058105469 29.26335144042969 C 4.136512756347656 34.56266784667969 3.000007629394531 40.19366836547852 3.000007629394531 45.99993896484375 C 3.000007629394531 51.80620956420898 4.136512756347656 57.43722534179688 6.377922058105469 62.73654174804688 C 8.543525695800781 67.85658264160156 11.6444091796875 72.45548248291016 15.59441375732422 76.40549468994141 C 19.54442596435547 80.35549926757812 24.14334106445312 83.45636749267578 29.26338195800781 85.62196350097656 C 34.56270980834961 87.86338043212891 40.1937255859375 88.9998779296875 46.0000114440918 88.9998779296875 C 51.80629730224609 88.9998779296875 57.43731307983398 87.86338043212891 62.73664093017578 85.62196350097656 C 67.85668182373047 83.45636749267578 72.45559692382812 80.35549926757812 76.40560913085938 76.40549468994141 C 80.35561370849609 72.45548248291016 83.45649719238281 67.85658264160156 85.62210083007812 62.73654174804688 C 87.86351013183594 57.43722534179688 89.00001525878906 51.80620956420898 89.00001525878906 45.99993896484375 C 89.00001525878906 40.19366836547852 87.86351013183594 34.56266784667969 85.62210083007812 29.26335144042969 C 83.45649719238281 24.14329528808594 80.35561370849609 19.54439544677734 76.40560913085938 15.59439849853516 C 72.45559692382812 11.64437866210938 67.85668182373047 8.543510437011719 62.73662567138672 6.377906799316406 C 57.43731307983398 4.136497497558594 51.80629730224609 2.999992370605469 46.0000114440918 2.999992370605469 M 46.0000114440918 -7.62939453125e-06 C 71.40511322021484 -7.62939453125e-06 92.00001525878906 20.59487915039062 92.00001525878906 45.99993896484375 C 92.00001525878906 71.40501403808594 71.40511322021484 91.99988555908203 46.0000114440918 91.99988555908203 C 20.59490966796875 91.99988555908203 7.62939453125e-06 71.40501403808594 7.62939453125e-06 45.99993896484375 C 7.62939453125e-06 20.59487915039062 20.59490966796875 -7.62939453125e-06 46.0000114440918 -7.62939453125e-06 Z" stroke="none" fill="#36ceef"/>
                                  </g>
                                </g>
                              </g>
                            </g>
                          </g>
                        </g>
                      </g>
                    </g>
                  </g>
                </g>
              </g>
            </g>
          </g>
        </g>
      </g>
    </g>
    <g id="salary_3135706" transform="translate(817.45 6370.725)">
      <g id="Grupo_1173780" data-name="Grupo 1173780" transform="translate(8.645 0.854)">
        <g id="Grupo_1173764" data-name="Grupo 1173764" transform="translate(11.211)">
          <g id="Grupo_1173763" data-name="Grupo 1173763" transform="translate(0)">
            <g id="Grupo_1173762" data-name="Grupo 1173762">
              <g id="Grupo_1173759" data-name="Grupo 1173759">
                <g id="Grupo_1173758" data-name="Grupo 1173758">
                  <path id="Trazado_1030495" data-name="Trazado 1030495" d="M137.005,17.434s5.546-7.2,3.951-9.263c-.544-.7-1.007.252-2.131.252-1.321,0-1.321-.864-2.641-.864s-1.321.864-2.641.864-1.32-.864-2.641-.864-1.32.864-2.641.864c-1.125,0-1.587-.968-2.134-.264-1.6,2.054,3.869,9.275,3.869,9.275-24.135,15.866-16.353,37.444-2.1,37.444h11.3c14.293,0,22.026-21.525-2.189-37.444Z" transform="translate(-114.473 -7.559)" fill="#eabc6b"/>
                </g>
              </g>
              <g id="Grupo_1173760" data-name="Grupo 1173760" transform="translate(14.576)">
                <path id="Trazado_1030496" data-name="Trazado 1030496" d="M251.372,17.434s5.546-7.2,3.951-9.263c-.544-.7-1.007.252-2.131.252-1.321,0-1.321-.864-2.641-.864s-1.321.864-2.641.864c-.065,0-.124,0-.183-.008-.531,2.274-2.922,5.818-4.29,7.715.539.791.927,1.3.927,1.3q-.483.317-.948.638c23.059,15.85,15.344,36.806,1.241,36.806h8.9c14.293,0,22.026-21.525-2.189-37.444Z" transform="translate(-243.415 -7.559)" fill="#e8ae4d"/>
              </g>
              <g id="Grupo_1173761" data-name="Grupo 1173761" transform="translate(12.458 8.385)">
                <path id="Trazado_1030497" data-name="Trazado 1030497" d="M235.788,85.788a19.294,19.294,0,0,1-9.629,0,2.056,2.056,0,0,1-1.354-2.691l.014-.038a1.9,1.9,0,0,1,2.239-1.265,15.677,15.677,0,0,0,7.832,0,1.9,1.9,0,0,1,2.239,1.265l.014.038A2.056,2.056,0,0,1,235.788,85.788Z" transform="translate(-224.683 -81.738)" fill="#ffe07d"/>
              </g>
            </g>
          </g>
        </g>
        <g id="Grupo_1173779" data-name="Grupo 1173779" transform="translate(0 32.111)">
          <g id="Grupo_1173778" data-name="Grupo 1173778">
            <g id="Grupo_1173777" data-name="Grupo 1173777">
              <g id="Grupo_1173776" data-name="Grupo 1173776">
                <g id="Grupo_1173775" data-name="Grupo 1173775">
                  <g id="Grupo_1173774" data-name="Grupo 1173774">
                    <g id="Grupo_1173773" data-name="Grupo 1173773">
                      <g id="Grupo_1173772" data-name="Grupo 1173772">
                        <g id="Grupo_1173771" data-name="Grupo 1173771">
                          <g id="Grupo_1173770" data-name="Grupo 1173770">
                            <g id="Grupo_1173769" data-name="Grupo 1173769" transform="translate(4.475 2.97)">
                              <g id="Grupo_1173768" data-name="Grupo 1173768">
                                <g id="Grupo_1173765" data-name="Grupo 1173765">
                                  <path id="Trazado_1030498" data-name="Trazado 1030498" d="M54.883,333.836,67.156,338.4a9.339,9.339,0,0,0,3.258.587H83.061a9.34,9.34,0,0,0,5-1.45L103.9,327.505a2.779,2.779,0,0,0,.452-3.642c-.86-1.264-2.283-1.484-3.848-.743l-15.418,6.789.018-2.5a4.477,4.477,0,0,0-3.828-3.99l-9.389-1.081a12.387,12.387,0,0,1-5.136-2.137,16.828,16.828,0,0,0-8.5-2.3H54.883v15.94Z" transform="translate(-54.883 -317.896)" fill="#ffddce"/>
                                </g>
                                <g id="Grupo_1173766" data-name="Grupo 1173766">
                                  <path id="Trazado_1030499" data-name="Trazado 1030499" d="M54.883,333.836,67.156,338.4a9.339,9.339,0,0,0,3.258.587H83.061a9.34,9.34,0,0,0,5-1.45L103.9,327.505a2.779,2.779,0,0,0,.452-3.642c-.86-1.264-2.283-1.484-3.848-.743l-15.418,6.789.018-2.5a4.477,4.477,0,0,0-3.828-3.99l-9.389-1.081a12.387,12.387,0,0,1-5.136-2.137,16.828,16.828,0,0,0-8.5-2.3H54.883v15.94Z" transform="translate(-54.883 -317.896)" fill="#ffddce"/>
                                </g>
                                <path id="Trazado_1030500" data-name="Trazado 1030500" d="M104.349,361.527c-.86-1.264-2.283-1.484-3.848-.743l-4.241,1.867.369.585a2.78,2.78,0,0,1-.452,3.642l-9.228,5.847a9.338,9.338,0,0,1-3.887.848H70.414a9.338,9.338,0,0,1-3.258-.587l-12.273-4.568V371.5l12.273,4.568a9.339,9.339,0,0,0,3.258.587H83.062a9.34,9.34,0,0,0,5-1.45L103.9,365.169a2.78,2.78,0,0,0,.452-3.642Z" transform="translate(-54.884 -355.56)" fill="#ffcbbe"/>
                                <g id="Grupo_1173767" data-name="Grupo 1173767" transform="translate(29.065 6.934)">
                                  <path id="Trazado_1030501" data-name="Trazado 1030501" d="M312,379.236v.06l.04-.018Z" transform="translate(-312.004 -379.236)" fill="#f5dbcc"/>
                                </g>
                              </g>
                            </g>
                            <path id="Trazado_1030502" data-name="Trazado 1030502" d="M22.411,312.974a1.612,1.612,0,0,1-1.612,1.612H16.907a1.612,1.612,0,0,1-1.612-1.612V293.232a1.612,1.612,0,0,1,1.612-1.612H20.8a1.612,1.612,0,0,1,1.612,1.612Z" transform="translate(-15.295 -291.62)" fill="#407093"/>
                          </g>
                        </g>
                      </g>
                    </g>
                  </g>
                </g>
              </g>
            </g>
          </g>
        </g>
      </g>
      <g id="Grupo_1173781" data-name="Grupo 1173781" transform="translate(7.797 -0.001)">
        <path id="Trazado_1030503" data-name="Trazado 1030503" d="M63.286,41.425c-1.08-1.587-2.911-1.974-4.9-1.038l-1.054.464a17.436,17.436,0,0,0,1.041-11.226,27.082,27.082,0,0,0-6.824-12.34.848.848,0,1,0-1.25,1.146,25.42,25.42,0,0,1,6.419,11.561A15.2,15.2,0,0,1,54.728,42L44.176,46.643l.009-1.192a.828.828,0,0,0,0-.09,5.312,5.312,0,0,0-4.553-4.746l-.022,0-9.378-1.08c-3.606-.513-4.535-2.674-9.419-3.907a18.249,18.249,0,0,1,1.345-8.968c1.857-4.6,5.489-9.075,10.525-12.967,1.877,1.331,10.25,1.5,12.124-.22.96.729,1.876,1.48,2.73,2.241a.848.848,0,1,0,1.128-1.266c-.936-.833-1.942-1.656-3-2.451a3.017,3.017,0,0,0-1.012-3.007C47.3,4.963,48.077,2.328,47.01.947A1.482,1.482,0,0,0,44.978.634,1.36,1.36,0,0,1,43.352.576a3.047,3.047,0,0,0-3.569,0,1.367,1.367,0,0,1-1.713,0,3.047,3.047,0,0,0-3.569,0A1.349,1.349,0,0,1,32.877.63a1.479,1.479,0,0,0-2.036.3C29.8,2.275,30.5,4.827,32.971,8.715A2.761,2.761,0,0,0,32.54,9,5.723,5.723,0,0,0,27.611,7.14a6.212,6.212,0,0,1-4.217-1,.848.848,0,0,0-.944,1.408A7.894,7.894,0,0,0,27.8,8.825a4.142,4.142,0,0,1,3.786,1.656q-.016.054-.029.109a14.548,14.548,0,0,0-2.688.293,7.96,7.96,0,0,0-5.516,3.532.848.848,0,1,0,1.463.856c1.546-2.642,5.319-2.965,6.817-2.985.006.019.014.037.021.056-5.348,4.125-9.071,8.726-11.07,13.683a20.119,20.119,0,0,0-1.512,9.255,17.64,17.64,0,0,0-2.461-.19v-.513a2.463,2.463,0,0,0-2.46-2.46H10.257a2.463,2.463,0,0,0-2.46,2.46V54.318a2.463,2.463,0,0,0,2.46,2.46h3.891a2.463,2.463,0,0,0,2.46-2.46v-.241L25.1,57.236a10.156,10.156,0,0,0,3.553.64H41.3a10.172,10.172,0,0,0,5.452-1.582C63.623,45.6,62.6,46.264,62.7,46.177a3.635,3.635,0,0,0,.591-4.752ZM43.212,12.467a18.373,18.373,0,0,1-9.214,0c-1.33-.336-.945-2.709.485-2.35a16.53,16.53,0,0,0,8.245,0C44.132,9.763,44.564,12.125,43.212,12.467ZM32.1,2.139l.02.01A3.007,3.007,0,0,0,35.429,2c1.444-.945,1.6.57,3.5.57A2.944,2.944,0,0,0,40.711,2a1.367,1.367,0,0,1,1.713,0,3.023,3.023,0,0,0,3.321.152c.174.629-.22,2.5-2.734,6.245-1.248-.021-3.06,1.2-8.187.064-2.508-3.791-2.9-5.683-2.721-6.317ZM61.616,44.868,45.843,54.863A8.479,8.479,0,0,1,41.3,56.181H28.65a8.464,8.464,0,0,1-2.962-.533l-9.08-3.38V43.14a.848.848,0,1,0-1.7,0V54.319a.766.766,0,0,1-.765.765H10.257a.766.766,0,0,1-.765-.765V34.577a.765.765,0,0,1,.765-.765h3.891a.765.765,0,0,1,.765.765v4.6a.848.848,0,1,0,1.7,0V36.785c7.012.054,8.589,3.75,13.393,4.429l.022,0L39.4,42.3a3.621,3.621,0,0,1,3.089,3.191L42.477,47.1H33.732a.848.848,0,1,0,0,1.7h9.587a.878.878,0,0,0,.338-.071l15.421-6.79c1.109-.493,2.12-.563,2.806.444A1.936,1.936,0,0,1,61.616,44.868Z" transform="translate(-7.797 0.001)"/>
        <path id="Trazado_1030504" data-name="Trazado 1030504" d="M244.677,176.232a.848.848,0,0,0,.848-.848v-1.405a4.966,4.966,0,0,0,4.07-4.109,4.348,4.348,0,0,0-3-4.973c-.388-.137-.745-.268-1.075-.4v-5.4a3.486,3.486,0,0,1,1.649.724.848.848,0,0,0,1.145-1.25,5.254,5.254,0,0,0-2.794-1.185V156.18a.848.848,0,1,0-1.7,0v1.274a6.243,6.243,0,0,0-.629.154,4.1,4.1,0,0,0-2.805,3.218,3.585,3.585,0,0,0,1.165,3.534,10.27,10.27,0,0,0,2.269,1.282v6.7a4.5,4.5,0,0,1-2.636-.914.848.848,0,1,0-.928,1.419,6.209,6.209,0,0,0,3.564,1.19v1.346a.848.848,0,0,0,.848.848Zm-2.07-13.208a1.911,1.911,0,0,1-.545-1.886,2.425,2.425,0,0,1,1.628-1.908c.047-.014.093-.026.14-.039v4.579A7.15,7.15,0,0,1,242.607,163.025Zm3.428,3.471a2.668,2.668,0,0,1,1.888,3.094,3.3,3.3,0,0,1-2.4,2.658v-5.935C245.69,166.372,245.859,166.433,246.035,166.5Z" transform="translate(-213.646 -137.773)"/>
      </g>
    </g>
  </g>
</svg>
