<svg xmlns="http://www.w3.org/2000/svg" xmlns:xlink="http://www.w3.org/1999/xlink" width="110" height="110" viewBox="0 0 110 110">
  <defs>
    <filter id="Trazado_982547" x="0" y="0" width="110" height="110" filterUnits="userSpaceOnUse">
      <feOffset dy="3" input="SourceAlpha"/>
      <feGaussianBlur stdDeviation="3" result="blur"/>
      <feFlood flood-opacity="0.161"/>
      <feComposite operator="in" in2="blur"/>
      <feComposite in="SourceGraphic"/>
    </filter>
  </defs>
  <g id="Grupo_1173912" data-name="Grupo 1173912" transform="translate(-1658.196 -6249.5)">
    <g id="Grupo_1173199" data-name="Grupo 1173199" transform="translate(1667.196 6255.5)">
      <g id="Grupo_1171901" data-name="Grupo 1171901" transform="translate(0 0)">
        <g id="Grupo_1164700" data-name="Grupo 1164700" transform="translate(0)">
          <g id="Grupo_1160931" data-name="Grupo 1160931" transform="translate(0 0)">
            <g id="Grupo_1160749" data-name="Grupo 1160749" transform="translate(0 0)">
              <g id="Grupo_1158891" data-name="Grupo 1158891" transform="translate(0 0)">
                <g id="Grupo_1157406" data-name="Grupo 1157406" transform="translate(0 0)">
                  <g id="Grupo_1155793" data-name="Grupo 1155793">
                    <g id="Grupo_1154704" data-name="Grupo 1154704">
                      <g id="Grupo_1150790" data-name="Grupo 1150790">
                        <g id="Grupo_1154214" data-name="Grupo 1154214">
                          <g id="Grupo_1152583" data-name="Grupo 1152583">
                            <g id="Grupo_1146973" data-name="Grupo 1146973">
                              <g id="Grupo_1146954" data-name="Grupo 1146954">
                                <g transform="matrix(1, 0, 0, 1, -9, -6)" filter="url(#Trazado_982547)">
                                  <g id="Trazado_982547-2" data-name="Trazado 982547" transform="translate(9 6)" fill="#e9f9fd">
                                    <path d="M 46.0000114440918 90.49989318847656 C 39.99188995361328 90.49989318847656 34.16427993774414 89.32353210449219 28.6790657043457 87.00347900390625 C 23.38021087646484 84.76226043701172 18.62105178833008 81.55343627929688 14.53375816345215 77.46615600585938 C 10.44647789001465 73.37887573242188 7.237651348114014 68.61971282958984 4.996424674987793 63.32086181640625 C 2.676371335983276 57.83566284179688 1.500011444091797 52.00806427001953 1.500011444091797 45.99994277954102 C 1.500011444091797 39.9918212890625 2.676371335983276 34.16422271728516 4.996424674987793 28.67902183532715 C 7.237651348114014 23.38016891479492 10.44647789001465 18.62100982666016 14.53375816345215 14.53372955322266 C 18.62105178833008 10.44644927978516 23.38021087646484 7.237622737884521 28.6790657043457 4.99640941619873 C 34.16427993774414 2.676356077194214 39.99188995361328 1.499996066093445 46.0000114440918 1.499996066093445 C 52.00813293457031 1.499996066093445 57.83574295043945 2.676356077194214 63.32095718383789 4.99640941619873 C 68.61981201171875 7.237622737884521 73.37898254394531 10.44644927978516 77.46626281738281 14.53372955322266 C 81.55355834960938 18.62100982666016 84.76237487792969 23.38016891479492 87.00360107421875 28.67902183532715 C 89.32365417480469 34.16422271728516 90.50001525878906 39.9918212890625 90.50001525878906 45.99994277954102 C 90.50001525878906 52.00806427001953 89.32365417480469 57.83566284179688 87.00360107421875 63.32086181640625 C 84.76237487792969 68.61971282958984 81.55355834960938 73.37887573242188 77.46626281738281 77.46615600585938 C 73.37898254394531 81.55343627929688 68.61981201171875 84.76226043701172 63.32095718383789 87.00347900390625 C 57.83574295043945 89.32353210449219 52.00813293457031 90.49989318847656 46.0000114440918 90.49989318847656 Z" stroke="none"/>
                                    <path d="M 46.0000114440918 3 C 40.1937255859375 3 34.56270980834961 4.136497497558594 29.26338195800781 6.377914428710938 C 24.14334106445312 8.543510437011719 19.54442596435547 11.64438629150391 15.59441375732422 15.59438323974609 C 11.6444091796875 19.54440307617188 8.543525695800781 24.14330291748047 6.377922058105469 29.26334381103516 C 4.136512756347656 34.56265640258789 3.000007629394531 40.19367218017578 3.000007629394531 45.99994277954102 C 3.000007629394531 51.80621337890625 4.136512756347656 57.43722915649414 6.377922058105469 62.73654174804688 C 8.543525695800781 67.85658264160156 11.6444091796875 72.45549011230469 15.59441375732422 76.40550231933594 C 19.54442596435547 80.35549926757812 24.14334106445312 83.45637512207031 29.26338195800781 85.62197113037109 C 34.56270980834961 87.86338806152344 40.1937255859375 88.99988555908203 46.0000114440918 88.99988555908203 C 51.80629730224609 88.99988555908203 57.43731307983398 87.86338806152344 62.73664093017578 85.62197113037109 C 67.85668182373047 83.45637512207031 72.45559692382812 80.35549926757812 76.40560913085938 76.40550231933594 C 80.35561370849609 72.45549011230469 83.45649719238281 67.85658264160156 85.62210083007812 62.73654174804688 C 87.86351013183594 57.43722915649414 89.00001525878906 51.80621337890625 89.00001525878906 45.99994277954102 C 89.00001525878906 40.19367218017578 87.86351013183594 34.56265640258789 85.62210083007812 29.26334381103516 C 83.45649719238281 24.14330291748047 80.35561370849609 19.54440307617188 76.40560913085938 15.59438323974609 C 72.45559692382812 11.64438629150391 67.85668182373047 8.543510437011719 62.73664093017578 6.377914428710938 C 57.43731307983398 4.136497497558594 51.80629730224609 3 46.0000114440918 3 M 46.0000114440918 0 C 71.40511322021484 0 92.00001525878906 20.59487152099609 92.00001525878906 45.99994277954102 C 92.00001525878906 71.40501403808594 71.40511322021484 91.99988555908203 46.0000114440918 91.99988555908203 C 20.59490966796875 91.99988555908203 7.62939453125e-06 71.40501403808594 7.62939453125e-06 45.99994277954102 C 7.62939453125e-06 20.59487152099609 20.59490966796875 0 46.0000114440918 0 Z" stroke="none" fill="#36ceef"/>
                                  </g>
                                </g>
                              </g>
                            </g>
                          </g>
                        </g>
                      </g>
                    </g>
                  </g>
                </g>
              </g>
            </g>
          </g>
        </g>
      </g>
    </g>
    <g id="sun-bed_17386796" transform="translate(1684.414 6270.79)">
      <g id="Grupo_1173920" data-name="Grupo 1173920" transform="translate(0.898 0.899)">
        <g id="Grupo_1173915" data-name="Grupo 1173915">
          <path id="Trazado_1031024" data-name="Trazado 1031024" d="M140.291,76.312,122.076,27.423a.9.9,0,0,0-1.687.628L138.6,76.941a.9.9,0,0,0,.843.585.918.918,0,0,0,.314-.056.9.9,0,0,0,.529-1.158Z" transform="translate(-107.702 -24.719)" fill="#303030"/>
          <g id="Grupo_1173914" data-name="Grupo 1173914">
            <path id="Trazado_1031025" data-name="Trazado 1031025" d="M20.894,19.681C10.924,23.4,5.616,33.853,9.038,43.039c-.209-.561,1.777-1.82,4.435-2.81s4.984-1.339,5.193-.777c-3.422-9.185-2.425-18.037,2.228-19.77Z" transform="translate(-7.999 -18.368)" fill="#ffca9d"/>
            <path id="Trazado_1031026" data-name="Trazado 1031026" d="M137.3,22.787c-.156-.571,1.811-1.81,4.44-2.79,2.66-.991,4.986-1.34,5.2-.778C143.517,10.034,132.66,5.6,122.69,9.314c4.649-1.732,11.189,4.3,14.614,13.473Z" transform="translate(-109.795 -8)" fill="#ffca9d"/>
            <path id="Trazado_1031027" data-name="Trazado 1031027" d="M94.862,32.955c4.631-1.725,8.554-2.674,8.8-2.129,0,0,0-.009,0-.013-3.424-9.174-9.964-15.206-14.614-13.473s-5.65,10.585-2.228,19.77c-.209-.561,3.393-2.422,8.046-4.155Z" transform="translate(-76.148 -16.026)" fill="#ff0c38"/>
          </g>
        </g>
        <path id="Trazado_1031028" data-name="Trazado 1031028" d="M8,438.488H63.768v-8.136S25.909,428.846,8,434.988Z" transform="translate(-8 -382.72)" fill="#ff9800"/>
        <g id="Grupo_1173918" data-name="Grupo 1173918" transform="translate(2.904 20.189)">
          <path id="Trazado_1031029" data-name="Trazado 1031029" d="M80.492,373.6l-8.552-8.552H42.777L34.225,373.6a1.349,1.349,0,1,0,1.908,1.908l7.762-7.762H70.823l7.762,7.762h1.908A1.349,1.349,0,0,0,80.492,373.6Z" transform="translate(-33.829 -345.097)" fill="#7e522d"/>
          <path id="Trazado_1031030" data-name="Trazado 1031030" d="M85.377,207.521H48.942a1.8,1.8,0,1,1,0-3.6H84.434l10.8-15.583a1.8,1.8,0,1,1,2.957,2.048L86.855,206.746a1.8,1.8,0,0,1-1.478.775Z" transform="translate(-45.646 -187.565)" fill="#7bc4ff"/>
          <path id="Trazado_1031031" data-name="Trazado 1031031" d="M408.842,187.89a1.869,1.869,0,0,0-2.4.637l-2.579,3.721a5.361,5.361,0,0,0-.928,3.583l.354,3.562,6.168-8.9A1.8,1.8,0,0,0,408.842,187.89Z" transform="translate(-361.408 -187.667)" fill="#ffca9d"/>
          <g id="Grupo_1173917" data-name="Grupo 1173917" transform="translate(8.733 14.559)">
            <path id="Trazado_1031032" data-name="Trazado 1031032" d="M111.5,317.053H122.3v9.894H111.5Z" transform="translate(-111.504 -317.053)" fill="#0043aa"/>
            <path id="Trazado_1031033" data-name="Trazado 1031033" d="M143.5,317.053h3.6v9.894h-3.6Z" transform="translate(-139.906 -317.053)" fill="#fff"/>
            <g id="Grupo_1173916" data-name="Grupo 1173916" transform="translate(0 9.895)">
              <path id="Trazado_1031034" data-name="Trazado 1031034" d="M111.5,405.055h.9v2.7h-.9Z" transform="translate(-111.504 -405.055)" fill="#0043aa"/>
              <path id="Trazado_1031035" data-name="Trazado 1031035" d="M139.5,405.055h.9v2.7h-.9Z" transform="translate(-136.352 -405.055)" fill="#0043aa"/>
              <path id="Trazado_1031036" data-name="Trazado 1031036" d="M171.5,405.055h.9v2.7h-.9Z" transform="translate(-164.754 -405.055)" fill="#0043aa"/>
              <path id="Trazado_1031037" data-name="Trazado 1031037" d="M199.5,405.055h.9v2.7h-.9Z" transform="translate(-189.61 -405.055)" fill="#0043aa"/>
            </g>
          </g>
        </g>
        <circle id="Elipse_11846" data-name="Elipse 11846" cx="3.314" cy="3.314" r="3.314" transform="translate(44.762 5.278)" fill="#ff9800"/>
        <g id="Grupo_1173919" data-name="Grupo 1173919" transform="translate(19.149 49.395)">
          <circle id="Elipse_11847" data-name="Elipse 11847" cx="0.899" cy="0.899" r="0.899" transform="translate(16.58 0.128)" fill="#7e522d"/>
          <circle id="Elipse_11848" data-name="Elipse 11848" cx="0.899" cy="0.899" r="0.899" transform="translate(13.394 1.927)" fill="#7e522d"/>
          <circle id="Elipse_11849" data-name="Elipse 11849" cx="0.899" cy="0.899" r="0.899" transform="translate(10.285)" fill="#7e522d"/>
          <circle id="Elipse_11850" data-name="Elipse 11850" cx="0.899" cy="0.899" r="0.899" transform="translate(6.131 1.799)" fill="#7e522d"/>
          <circle id="Elipse_11851" data-name="Elipse 11851" cx="0.899" cy="0.899" r="0.899" transform="translate(0 0.899)" fill="#7e522d"/>
        </g>
      </g>
      <g id="Grupo_1173921" data-name="Grupo 1173921" transform="translate(-0.001 -0.001)">
        <path id="Trazado_1031038" data-name="Trazado 1031038" d="M424.584,496h-9.161a.9.9,0,0,0,0,1.8h9.161a.9.9,0,0,0,0-1.8Z" transform="translate(-367.917 -440.231)"/>
        <path id="Trazado_1031039" data-name="Trazado 1031039" d="M346.7,496h-1.077a.9.9,0,0,0,0,1.8H346.7a.9.9,0,0,0,0-1.8Z" transform="translate(-305.968 -440.231)"/>
        <path id="Trazado_1031040" data-name="Trazado 1031040" d="M35.619,496H.9a.9.9,0,0,0,0,1.8H35.619a.9.9,0,0,0,0-1.8Z" transform="translate(-0.003 -440.231)"/>
        <path id="Trazado_1031041" data-name="Trazado 1031041" d="M402.323,55.342a4.214,4.214,0,1,0-4.213-4.214A4.219,4.219,0,0,0,402.323,55.342Zm0-6.628a2.415,2.415,0,1,1-2.414,2.414A2.417,2.417,0,0,1,402.323,48.713Z" transform="translate(-353.349 -41.639)"/>
        <path id="Trazado_1031042" data-name="Trazado 1031042" d="M428.479,18.989a.9.9,0,0,0,.9-.9V16.87a.9.9,0,1,0-1.8,0v1.219A.9.9,0,0,0,428.479,18.989Z" transform="translate(-379.504 -14.175)"/>
        <path id="Trazado_1031043" data-name="Trazado 1031043" d="M427.579,126.869v1.218a.9.9,0,1,0,1.8,0v-1.218a.9.9,0,1,0-1.8,0Z" transform="translate(-379.504 -111.806)"/>
        <path id="Trazado_1031044" data-name="Trazado 1031044" d="M477.156,77.288a.9.9,0,0,0,.9.9h1.219a.9.9,0,0,0,0-1.8h-1.219A.9.9,0,0,0,477.156,77.288Z" transform="translate(-423.507 -67.8)"/>
        <path id="Trazado_1031045" data-name="Trazado 1031045" d="M368.065,78.187h1.219a.9.9,0,0,0,0-1.8h-1.219a.9.9,0,0,0,0,1.8Z" transform="translate(-325.883 -67.8)"/>
        <path id="Trazado_1031046" data-name="Trazado 1031046" d="M463.533,36.328a.9.9,0,0,0,.636-.263l.863-.862a.9.9,0,0,0-1.272-1.273l-.863.862a.9.9,0,0,0,.636,1.536Z" transform="translate(-410.617 -29.882)"/>
        <path id="Trazado_1031047" data-name="Trazado 1031047" d="M385.985,111.709l-.862.862a.9.9,0,1,0,1.272,1.272l.862-.862a.9.9,0,1,0-1.272-1.272Z" transform="translate(-341.588 -98.915)"/>
        <path id="Trazado_1031048" data-name="Trazado 1031048" d="M464.168,111.708a.9.9,0,0,0-1.272,1.273l.863.862a.9.9,0,0,0,1.272-1.273Z" transform="translate(-410.617 -98.915)"/>
        <path id="Trazado_1031049" data-name="Trazado 1031049" d="M385.985,36.064a.9.9,0,0,0,1.272-1.272l-.862-.862a.9.9,0,1,0-1.272,1.272Z" transform="translate(-341.588 -29.882)"/>
        <path id="Trazado_1031050" data-name="Trazado 1031050" d="M50.465,52.4h2.876a.9.9,0,0,0,0-1.8H51.753a2.242,2.242,0,0,0-.372-1.3c3.231.047,5.226.125,5.249.126h.037a.9.9,0,0,0,.035-1.8c-.028,0-2.787-.109-7.078-.149l-5.6-5.6a2.682,2.682,0,0,0,1.726-1.1L57.083,24.423a2.7,2.7,0,1,0-4.435-3.074l-.039.056a2.707,2.707,0,0,0-.938-.883,2.78,2.78,0,0,0-3.579.912.9.9,0,0,0,1.479,1.024A.98.98,0,0,1,50.8,22.1a.894.894,0,0,1,.445.586.883.883,0,0,1-.137.716L46.333,30.29l-.112-1.128a4.469,4.469,0,0,1,.773-2.982.9.9,0,1,0-1.479-1.024A6.272,6.272,0,0,0,44.43,29.34l.336,3.385-2.647,3.821H27.546L20.772,18.363a30.865,30.865,0,0,1,7.13-1.924A.888.888,0,0,0,29.29,15.8a11.655,11.655,0,0,1,3.872-2.061,12.4,12.4,0,0,1,4.244-.986.9.9,0,0,0,1.48-.949,17.579,17.579,0,0,0-5.865-7.858.9.9,0,0,0-1.087,1.433,15.854,15.854,0,0,1,4.643,5.609c-.134.016-.251.033-.345.047a19.341,19.341,0,0,0-3.7,1.018,18.457,18.457,0,0,0-3.844,1.91C26.217,8.088,22.55,3.706,18.932,1.91a18.87,18.87,0,0,1,8.039.852.9.9,0,1,0,.574-1.705,21.123,21.123,0,0,0-14.061.307l-.005,0A20.622,20.622,0,0,0,.389,16.094a.9.9,0,1,0,1.76.372A18.326,18.326,0,0,1,9.711,5.354c-1.557,3.727-1.463,9.439.508,15.491a19.147,19.147,0,0,0-4.16,1.069A17.426,17.426,0,0,0,2.3,23.746a15.563,15.563,0,0,1-.5-3.393.9.9,0,1,0-1.8.062A17.366,17.366,0,0,0,1.094,25.88h0a.9.9,0,0,0,1.741-.25A12.334,12.334,0,0,1,6.686,23.6a11.807,11.807,0,0,1,4.263-.978.89.89,0,0,0,1.489-.426,30.368,30.368,0,0,1,6.647-3.206l6.541,17.554h-1.4v-.9a.9.9,0,0,0-.9-.9H12.536a.9.9,0,0,0-.9.9v.9H7.1a2.7,2.7,0,0,0,0,5.4h3.48L3.562,48.959a2.245,2.245,0,0,0-.42,2.576c-.878.247-1.73.5-2.535.78a.9.9,0,1,0,.583,1.7c1.354-.465,2.834-.883,4.4-1.262l.013,0c11.969-2.9,29.289-3.441,39.448-3.483L46.385,50.6H44.519a.9.9,0,0,0,0,1.8h5.946ZM11.955,20.338C9.33,12.269,10.239,4.493,14.108,3.052h0C17.978,1.606,23.755,6.9,27.051,14.73A36.743,36.743,0,0,0,19.3,16.982a37.651,37.651,0,0,0-7.342,3.356ZM42.59,38.344a.9.9,0,0,0,.74-.387l10.8-15.583A.9.9,0,1,1,55.605,23.4L44.27,39.757a.9.9,0,0,1-.738.387h-19.3v-1.8H42.59ZM12.536,49.139a.9.9,0,0,0,.9-.9v-1.8h1.8v1.8a.887.887,0,0,0,.671.853c-2.528.322-4.966.709-7.277,1.161l3.009-3.009v.995a.9.9,0,0,0,.9.9Zm4.5-.9v-1.8h1.8v1.8a.876.876,0,0,0,.165.49c-.818.087-1.626.184-2.43.282a.888.888,0,0,0,.466-.773Zm3.6,0v-1.8h1.8v1.8a.853.853,0,0,0,.032.159c-.636.055-1.267.117-1.9.178a.894.894,0,0,0,.068-.337Zm1.8-3.6h-1.8v-8.1h1.8Zm-3.6-8.1v8.1h-1.8v-8.1Zm-5.4,0h1.8v8.1h-1.8ZM6.2,39.244a.9.9,0,0,1,.9-.9h4.538v1.8H7.1a.9.9,0,0,1-.9-.9ZM5.152,51a.45.45,0,0,1-.318-.768l6.8-6.8V44.7L5.47,50.868a.428.428,0,0,1-.16.1l-.1.024C5.19,50.992,5.166,51,5.152,51Zm36.279-7.894a.9.9,0,0,0-.636-.264H27.078a.9.9,0,0,0,0,1.8H40.423l2.842,2.842c-5.9.052-12.523.262-19.039.77,0-.005,0-.009,0-.014v-6.3H41.54l8.289,8.289a.451.451,0,0,1,.128.372H48.929l-7.5-7.5Z" transform="translate(0.001 0.001)"/>
      </g>
    </g>
  </g>
</svg>
