<svg xmlns="http://www.w3.org/2000/svg" xmlns:xlink="http://www.w3.org/1999/xlink" width="108" height="108" viewBox="0 0 108 108">
  <defs>
    <filter id="Trazado_904820" x="0" y="0" width="108" height="108" filterUnits="userSpaceOnUse">
      <feOffset dy="3" input="SourceAlpha"/>
      <feGaussianBlur stdDeviation="3" result="blur"/>
      <feFlood flood-opacity="0.161"/>
      <feComposite operator="in" in2="blur"/>
      <feComposite in="SourceGraphic"/>
    </filter>
  </defs>
  <g id="Grupo_1172093" data-name="Grupo 1172093" transform="translate(9 6)">
    <g id="Grupo_1171910" data-name="Grupo 1171910" transform="translate(0)">
      <g id="Grupo_1167341" data-name="Grupo 1167341" transform="translate(0)">
        <g id="Grupo_1166792" data-name="Grupo 1166792" transform="translate(0)">
          <g transform="matrix(1, 0, 0, 1, -9, -6)" filter="url(#Trazado_904820)">
            <g id="Trazado_904820-2" data-name="Trazado 904820" transform="translate(9 6)" fill="#fff4e6">
              <path d="M 44.99999618530273 88.50003051757812 C 39.12687301635742 88.50003051757812 33.43022155761719 87.35010528564453 28.06829643249512 85.08219909667969 C 22.88852119445801 82.89134216308594 18.23629570007324 79.75461578369141 14.24084663391113 75.75916290283203 C 10.24540901184082 71.76371765136719 7.108683586120605 67.11150360107422 4.917821407318115 61.93172836303711 C 2.649921178817749 56.56978988647461 1.499996185302734 50.87313842773438 1.499996185302734 45.00001525878906 C 1.499996185302734 39.12689208984375 2.649921178817749 33.43024063110352 4.917821407318115 28.06831550598145 C 7.108683586120605 22.88854026794434 10.24540901184082 18.23631477355957 14.24084663391113 14.24086570739746 C 18.23629570007324 10.24541568756104 22.88852119445801 7.10869026184082 28.06829643249512 4.917840480804443 C 33.43022155761719 2.649927854537964 39.12687301635742 1.50000274181366 44.99999618530273 1.50000274181366 C 50.87311935424805 1.50000274181366 56.56977081298828 2.649927854537964 61.93169784545898 4.917840480804443 C 67.11147308349609 7.10869026184082 71.76369476318359 10.24541568756104 75.75914764404297 14.24086570739746 C 79.75458526611328 18.23631477355957 82.89131164550781 22.88854026794434 85.08216857910156 28.06831550598145 C 87.35007476806641 33.43024063110352 88.5 39.12689208984375 88.5 45.00001525878906 C 88.5 50.87313842773438 87.35007476806641 56.56978988647461 85.08216857910156 61.93172836303711 C 82.89131164550781 67.11150360107422 79.75458526611328 71.76371765136719 75.75914764404297 75.75916290283203 C 71.76369476318359 79.75461578369141 67.11147308349609 82.89134216308594 61.93169784545898 85.08219909667969 C 56.56977081298828 87.35010528564453 50.87311935424805 88.50003051757812 44.99999618530273 88.50003051757812 Z" stroke="none"/>
              <path d="M 44.99999618530273 3 C 39.32870864868164 3 33.82865142822266 4.110061645507812 28.65262603759766 6.299346923828125 C 23.65165710449219 8.414573669433594 19.15968322753906 11.44334411621094 15.301513671875 15.301513671875 C 11.44333648681641 19.15968322753906 8.414566040039062 23.65165710449219 6.299339294433594 28.65262985229492 C 4.110054016113281 33.82867050170898 2.999992370605469 39.32872772216797 2.999992370605469 45.00001525878906 C 2.999992370605469 50.67130279541016 4.110054016113281 56.17136001586914 6.299339294433594 61.34738922119141 C 8.414566040039062 66.34837341308594 11.44333648681641 70.84033203125 15.301513671875 74.69850158691406 C 19.15968322753906 78.55668640136719 23.65165710449219 81.58545684814453 28.65262603759766 83.70068359375 C 33.82865142822266 85.88996887207031 39.32870864868164 87.00003051757812 44.99999618530273 87.00003051757812 C 50.67128372192383 87.00003051757812 56.17134094238281 85.88996887207031 61.34736633300781 83.70068359375 C 66.34834289550781 81.58545684814453 70.84030914306641 78.55668640136719 74.69847869873047 74.69850158691406 C 78.55665588378906 70.84033203125 81.58542633056641 66.34837341308594 83.70065307617188 61.34738922119141 C 85.88993835449219 56.17136001586914 87 50.67130279541016 87 45.00001525878906 C 87 39.32872772216797 85.88993835449219 33.82867050170898 83.70065307617188 28.65262985229492 C 81.58542633056641 23.65165710449219 78.55665588378906 19.15968322753906 74.69847869873047 15.301513671875 C 70.84030914306641 11.44334411621094 66.34834289550781 8.414573669433594 61.34736633300781 6.299346923828125 C 56.17134094238281 4.110061645507812 50.67128372192383 3 44.99999618530273 3 M 44.99999618530273 0 C 69.85281372070312 0 90 20.14718627929688 90 45.00001525878906 C 90 69.85282897949219 69.85281372070312 90.00003051757812 44.99999618530273 90.00003051757812 C 20.14717864990234 90.00003051757812 -7.62939453125e-06 69.85282897949219 -7.62939453125e-06 45.00001525878906 C -7.62939453125e-06 20.14718627929688 20.14717864990234 0 44.99999618530273 0 Z" stroke="none" fill="#ff9d1c"/>
            </g>
          </g>
        </g>
      </g>
    </g>
    <g id="compliant_4252360" transform="translate(4.138 17.602)">
      <g id="Grupo_1172108" data-name="Grupo 1172108" transform="translate(25.913 0.803)">
        <path id="Trazado_1026125" data-name="Trazado 1026125" d="M150.931,7.5H116.85a.535.535,0,0,0-.535.535V22.871h3.51a2.623,2.623,0,0,1,.183,5.239v3.254h0a1.069,1.069,0,0,1,.907,1.057v6.643a1.069,1.069,0,0,1-.907,1.057h0v3.254a2.623,2.623,0,0,1-.183,5.239h-3.51V53H123.7a1.07,1.07,0,0,1,1.07,1.07v2.132h.815a1.07,1.07,0,0,1,1.07,1.07V60.69h24.81V8.035A.535.535,0,0,0,150.931,7.5Z" transform="translate(-116.315 -7.5)" fill="#fff3de"/>
      </g>
      <g id="Grupo_1172109" data-name="Grupo 1172109" transform="translate(25.913 0.803)">
        <path id="Trazado_1026126" data-name="Trazado 1026126" d="M119.825,22.871l.1,0V8.035a.535.535,0,0,1,.535-.535H116.85a.535.535,0,0,0-.535.535V22.871Z" transform="translate(-116.315 -7.5)" fill="#ffe5c2"/>
        <path id="Trazado_1026127" data-name="Trazado 1026127" d="M119.825,391.629h-3.51v4.392h3.605v-4.394Z" transform="translate(-116.315 -350.517)" fill="#ffe5c2"/>
      </g>
      <g id="Grupo_1172127" data-name="Grupo 1172127" transform="translate(15.881 16.174)">
        <g id="Grupo_1172110" data-name="Grupo 1172110" transform="translate(14.632 11.041)">
          <path id="Trazado_1026128" data-name="Trazado 1026128" d="M159.3,254.29h4.954v3.66H159.3Z" transform="translate(-159.296 -254.29)" fill="#883f2e"/>
          <path id="Trazado_1026129" data-name="Trazado 1026129" d="M237.5,254.29h7.076v3.66H237.5Z" transform="translate(-229.132 -254.29)" fill="#883f2e"/>
        </g>
        <g id="Grupo_1172111" data-name="Grupo 1172111" transform="translate(14.632 12.936)">
          <path id="Trazado_1026130" data-name="Trazado 1026130" d="M159.3,272h4.954v1.764H159.3Z" transform="translate(-159.296 -272)" fill="#6d3326"/>
          <path id="Trazado_1026131" data-name="Trazado 1026131" d="M237.5,272h7.076v1.764H237.5Z" transform="translate(-229.132 -272)" fill="#6d3326"/>
        </g>
        <g id="Grupo_1172112" data-name="Grupo 1172112" transform="translate(30.077 10.187)">
          <path id="Trazado_1026132" data-name="Trazado 1026132" d="M323.5,248.994a2.684,2.684,0,0,1-2.684,2.684H304.226a.61.61,0,0,1-.61-.61V246.92a.61.61,0,0,1,.61-.61h16.591A2.684,2.684,0,0,1,323.5,248.994Z" transform="translate(-303.616 -246.31)" fill="#ca6e59"/>
        </g>
        <g id="Grupo_1172113" data-name="Grupo 1172113" transform="translate(30.077 10.187)">
          <path id="Trazado_1026133" data-name="Trazado 1026133" d="M307.264,249.38a.61.61,0,0,1-.61-.61v-2.46h-2.428a.61.61,0,0,0-.61.61v4.148a.61.61,0,0,0,.61.61h16.591a2.684,2.684,0,0,0,2.656-2.3Z" transform="translate(-303.616 -246.31)" fill="#bb5d4c"/>
        </g>
        <g id="Grupo_1172114" data-name="Grupo 1172114" transform="translate(19.586 10.187)">
          <path id="Trazado_1026134" data-name="Trazado 1026134" d="M209,246.846v4.3a.535.535,0,0,1-.535.535H206.12a.535.535,0,0,1-.535-.535v-4.3a.535.535,0,0,1,.535-.535h2.346a.535.535,0,0,1,.535.535Z" transform="translate(-205.585 -246.311)" fill="#ca6e59"/>
        </g>
        <g id="Grupo_1172115" data-name="Grupo 1172115" transform="translate(19.586 10.187)">
          <path id="Trazado_1026135" data-name="Trazado 1026135" d="M207.137,251.144v-4.3a.535.535,0,0,1,.535-.535H206.12a.535.535,0,0,0-.535.535v4.3a.535.535,0,0,0,.535.535h1.552A.535.535,0,0,1,207.137,251.144Z" transform="translate(-205.585 -246.311)" fill="#bb5d4c"/>
        </g>
        <g id="Grupo_1172116" data-name="Grupo 1172116" transform="translate(6.649 5.239)">
          <path id="Trazado_1026136" data-name="Trazado 1026136" d="M91.616,312.311h-6.75a1.074,1.074,0,0,1-.163-.014v3.254c.061,0,.121-.007.183-.007H91.6c.062,0,.122,0,.183.007V312.3A1.062,1.062,0,0,1,91.616,312.311Z" transform="translate(-84.703 -300.287)" fill="#883f2e"/>
          <path id="Trazado_1026137" data-name="Trazado 1026137" d="M84.866,312.311a1.074,1.074,0,0,1-.163-.014v3.254c.061,0,.121-.007.183-.007H87.4v-3.233H84.866Z" transform="translate(-84.703 -300.287)" fill="#6d3326"/>
          <path id="Trazado_1026138" data-name="Trazado 1026138" d="M84.866,203.319h6.75a1.078,1.078,0,0,1,.163.014v-3.254c-.061,0-.121.007-.183.007h-6.71c-.062,0-.122,0-.183-.007v3.254A1.078,1.078,0,0,1,84.866,203.319Z" transform="translate(-84.703 -200.079)" fill="#883f2e"/>
          <path id="Trazado_1026139" data-name="Trazado 1026139" d="M84.866,203.318H87.4v-3.233H84.886c-.062,0-.122,0-.183-.007v3.254A1.09,1.09,0,0,1,84.866,203.318Z" transform="translate(-84.703 -200.078)" fill="#6d3326"/>
        </g>
        <g id="Grupo_1172117" data-name="Grupo 1172117" transform="translate(5.741 8.479)">
          <path id="Trazado_1026140" data-name="Trazado 1026140" d="M85.115,231.422v6.643a1.07,1.07,0,0,1-1.07,1.07H77.3a1.07,1.07,0,0,1-1.07-1.07v-6.643a1.07,1.07,0,0,1,1.07-1.07h6.75A1.07,1.07,0,0,1,85.115,231.422Z" transform="translate(-76.225 -230.352)" fill="#ca6e59"/>
        </g>
        <g id="Grupo_1172118" data-name="Grupo 1172118" transform="translate(5.741 8.479)">
          <path id="Trazado_1026141" data-name="Trazado 1026141" d="M79.84,238.065v-6.643a1.07,1.07,0,0,1,1.07-1.07H77.3a1.07,1.07,0,0,0-1.07,1.07v6.643a1.07,1.07,0,0,0,1.07,1.07H80.91A1.07,1.07,0,0,1,79.84,238.065Z" transform="translate(-76.225 -230.352)" fill="#bb5d4c"/>
        </g>
        <g id="Grupo_1172121" data-name="Grupo 1172121" transform="translate(0 30.133)">
          <path id="Trazado_1026142" data-name="Trazado 1026142" d="M56.792,435.994a1.093,1.093,0,0,0,.006-.11v-2.129a1.07,1.07,0,0,0-1.07-1.07H41.265a1.07,1.07,0,0,0-1.07,1.07v2.129a1.1,1.1,0,0,0,.006.11Z" transform="translate(-38.31 -432.685)" fill="#ca6e59"/>
          <path id="Trazado_1026143" data-name="Trazado 1026143" d="M43.818,435.994a1.1,1.1,0,0,1-.006-.11v-2.129a1.07,1.07,0,0,1,1.07-1.07H41.265a1.07,1.07,0,0,0-1.07,1.07v2.129a1.094,1.094,0,0,0,.006.11Z" transform="translate(-38.31 -432.685)" fill="#bb5d4c"/>
          <g id="Grupo_1172119" data-name="Grupo 1172119" transform="translate(0 3.202)">
            <path id="Trazado_1026144" data-name="Trazado 1026144" d="M42.951,467.091H23.113a.535.535,0,0,1-.535-.535v-2.878a1.07,1.07,0,0,1,1.07-1.07H41.881a1.07,1.07,0,0,1,1.07,1.07Z" transform="translate(-22.578 -462.608)" fill="#883f2e"/>
          </g>
          <g id="Grupo_1172120" data-name="Grupo 1172120" transform="translate(0 3.202)">
            <path id="Trazado_1026145" data-name="Trazado 1026145" d="M26.155,466.556v-2.878a1.07,1.07,0,0,1,1.07-1.07H23.648a1.07,1.07,0,0,0-1.07,1.07v2.878a.535.535,0,0,0,.535.535H26.69A.535.535,0,0,1,26.155,466.556Z" transform="translate(-22.578 -462.608)" fill="#6d3326"/>
          </g>
        </g>
        <g id="Grupo_1172126" data-name="Grupo 1172126" transform="translate(4.209)">
          <g id="Grupo_1172122" data-name="Grupo 1172122" transform="translate(0 20.495)">
            <path id="Trazado_1026146" data-name="Trazado 1026146" d="M73.86,345.256a2.623,2.623,0,0,1-2.623,2.623h-6.71a2.623,2.623,0,1,1,0-5.246h6.71A2.623,2.623,0,0,1,73.86,345.256Z" transform="translate(-61.905 -342.633)" fill="#ca6e59"/>
          </g>
          <g id="Grupo_1172123" data-name="Grupo 1172123" transform="translate(0 20.495)">
            <path id="Trazado_1026147" data-name="Trazado 1026147" d="M65.478,345.256a2.623,2.623,0,0,1,2.623-2.623H64.528a2.623,2.623,0,1,0,0,5.246H68.1A2.623,2.623,0,0,1,65.478,345.256Z" transform="translate(-61.905 -342.633)" fill="#bb5d4c"/>
          </g>
          <g id="Grupo_1172124" data-name="Grupo 1172124" transform="translate(0)">
            <path id="Trazado_1026148" data-name="Trazado 1026148" d="M73.86,153.751a2.623,2.623,0,0,1-2.623,2.623h-6.71a2.623,2.623,0,1,1,0-5.246h6.71A2.623,2.623,0,0,1,73.86,153.751Z" transform="translate(-61.905 -151.128)" fill="#ca6e59"/>
          </g>
          <g id="Grupo_1172125" data-name="Grupo 1172125">
            <path id="Trazado_1026149" data-name="Trazado 1026149" d="M65.478,153.751a2.623,2.623,0,0,1,2.623-2.623H64.528a2.623,2.623,0,1,0,0,5.246H68.1A2.623,2.623,0,0,1,65.478,153.751Z" transform="translate(-61.905 -151.128)" fill="#bb5d4c"/>
          </g>
        </g>
      </g>
      <g id="Grupo_1172130" data-name="Grupo 1172130" transform="translate(35.979 5.791)">
        <g id="Grupo_1172128" data-name="Grupo 1172128" transform="translate(0)">
          <circle id="Elipse_11791" data-name="Elipse 11791" cx="7.51" cy="7.51" r="7.51" fill="#4fc123"/>
        </g>
        <g id="Grupo_1172129" data-name="Grupo 1172129" transform="translate(0)">
          <path id="Trazado_1026150" data-name="Trazado 1026150" d="M213.971,61.617a7.512,7.512,0,0,1,5.71-7.291,7.51,7.51,0,1,0,0,14.582A7.512,7.512,0,0,1,213.971,61.617Z" transform="translate(-210.372 -54.107)" fill="#47a920"/>
        </g>
      </g>
      <g id="Grupo_1172131" data-name="Grupo 1172131" transform="translate(15.078 0)">
        <path id="Trazado_1026151" data-name="Trazado 1026151" d="M63.159,25.558H61.867V11.665a.8.8,0,0,0-.827-.8.825.825,0,0,0-.778.836V25.558h-5.38a.8.8,0,1,0,0,1.605h8.277a1.881,1.881,0,1,1,0,3.762h-16.4V27.163h4.375a.8.8,0,1,0,0-1.605H46.568a1.414,1.414,0,0,0-1.3.854H39.593a1.339,1.339,0,0,0-1.246-.854H36a1.339,1.339,0,0,0-1.246.854H31.315v-.689a1.872,1.872,0,0,0-.907-1.6V22.077a3.425,3.425,0,0,0-.986-6.706H26.715V1.605H60.261V7.92a.8.8,0,0,0,.827.8.825.825,0,0,0,.778-.836V1.338A1.338,1.338,0,0,0,60.529,0H26.448A1.338,1.338,0,0,0,25.11,1.338V15.371h-2.4a3.425,3.425,0,0,0-.986,6.706v2.044a1.872,1.872,0,0,0-.907,1.6v6.643a1.872,1.872,0,0,0,.907,1.6v2.044a3.425,3.425,0,0,0,.986,6.706h2.4V45.5H18.836a1.875,1.875,0,0,0-1.873,1.873v1.33h-.013a1.875,1.875,0,0,0-1.873,1.873v2.878A1.339,1.339,0,0,0,16.416,54.8H60.529a1.338,1.338,0,0,0,1.338-1.338V32.531h1.292a3.487,3.487,0,0,0,0-6.973ZM39.685,28.017h5.47v2.054h-5.47Zm-3.416-.854h1.81v3.762h-1.81Zm-4.954.854h3.349v2.054H31.315ZM20.892,18.8a1.822,1.822,0,0,1,1.82-1.82h6.71a1.82,1.82,0,1,1,0,3.64h-6.71A1.822,1.822,0,0,1,20.892,18.8Zm1.8,13.837a.268.268,0,0,1-.268-.268V25.723a.268.268,0,0,1,.268-.268h6.75a.268.268,0,0,1,.268.268v6.643a.268.268,0,0,1-.268.268Zm6.11,1.605v1.628h-5.47V34.239ZM23.332,23.85V22.222H28.8V23.85Zm-.62,17.262a1.82,1.82,0,0,1,0-3.64h6.71a1.82,1.82,0,0,1,0,3.64ZM35.451,53.19H16.683v-2.61a.268.268,0,0,1,.268-.268h4.968a.8.8,0,1,0,0-1.605h-3.35v-1.33a.268.268,0,0,1,.268-.268H33.3a.268.268,0,0,1,.268.268v1.33h-7.9a.8.8,0,1,0,0,1.605h9.519a.268.268,0,0,1,.268.268Zm24.81,0h-23.2v-2.61a1.875,1.875,0,0,0-1.873-1.873h-.013v-1.33A1.875,1.875,0,0,0,33.3,45.5H26.715V42.717h2.707a3.425,3.425,0,0,0,.986-6.706V33.968a1.872,1.872,0,0,0,.907-1.6v-.689h3.441A1.339,1.339,0,0,0,36,32.531h2.346a1.339,1.339,0,0,0,1.246-.854h5.678a1.414,1.414,0,0,0,1.3.854H60.261V53.19Z" transform="translate(-15.078 0)"/>
        <path id="Trazado_1026152" data-name="Trazado 1026152" d="M202.872,54.919a8.312,8.312,0,1,0,8.312-8.312A8.322,8.322,0,0,0,202.872,54.919Zm15.019,0a6.707,6.707,0,1,1-6.707-6.707A6.714,6.714,0,0,1,217.891,54.919Z" transform="translate(-182.774 -41.619)"/>
        <path id="Trazado_1026153" data-name="Trazado 1026153" d="M247.714,102.752a.8.8,0,0,0-1.135,1.135l2.469,2.469a.8.8,0,0,0,1.135,0l3.827-3.827a.8.8,0,0,0-1.135-1.135l-3.259,3.259Z" transform="translate(-221.593 -90.333)"/>
        <path id="Trazado_1026154" data-name="Trazado 1026154" d="M243.681,327.872a.8.8,0,0,0,.8.8h14.762a.8.8,0,0,0,0-1.605H244.484A.8.8,0,0,0,243.681,327.872Z" transform="translate(-219.216 -292.066)"/>
        <path id="Trazado_1026155" data-name="Trazado 1026155" d="M318.913,363.546H311.3a.8.8,0,0,0,0,1.605h7.61a.8.8,0,0,0,0-1.605Z" transform="translate(-278.883 -324.639)"/>
        <path id="Trazado_1026156" data-name="Trazado 1026156" d="M244.484,365.151h4.369a.8.8,0,1,0,0-1.605h-4.369a.8.8,0,0,0,0,1.605Z" transform="translate(-219.216 -324.639)"/>
        <path id="Trazado_1026157" data-name="Trazado 1026157" d="M259.244,400.023H244.483a.8.8,0,0,0,0,1.605h14.762a.8.8,0,0,0,0-1.605Z" transform="translate(-219.215 -357.212)"/>
        <path id="Trazado_1026158" data-name="Trazado 1026158" d="M350.167,436.5H346.3a.8.8,0,0,0,0,1.605h3.865a.8.8,0,1,0,0-1.605Z" transform="translate(-310.138 -389.785)"/>
        <path id="Trazado_1026159" data-name="Trazado 1026159" d="M252.919,436.5h-8.435a.8.8,0,0,0,0,1.605h8.435a.8.8,0,1,0,0-1.605Z" transform="translate(-219.216 -389.785)"/>
      </g>
    </g>
  </g>
</svg>
