<svg xmlns="http://www.w3.org/2000/svg" xmlns:xlink="http://www.w3.org/1999/xlink" width="110" height="110" viewBox="0 0 110 110">
  <defs>
    <filter id="Trazado_982547" x="0" y="0" width="110" height="110" filterUnits="userSpaceOnUse">
      <feOffset dy="3" input="SourceAlpha"/>
      <feGaussianBlur stdDeviation="3" result="blur"/>
      <feFlood flood-opacity="0.161"/>
      <feComposite operator="in" in2="blur"/>
      <feComposite in="SourceGraphic"/>
    </filter>
  </defs>
  <g id="Grupo_1173922" data-name="Grupo 1173922" transform="translate(-1342.196 -6651.5)">
    <g id="Grupo_1173200" data-name="Grupo 1173200" transform="translate(1351.196 6657.5)">
      <g id="Grupo_1171898" data-name="Grupo 1171898" transform="translate(0 0)">
        <g id="Grupo_1164700" data-name="Grupo 1164700" transform="translate(0)">
          <g id="Grupo_1160931" data-name="Grupo 1160931" transform="translate(0 0)">
            <g id="Grupo_1160749" data-name="Grupo 1160749" transform="translate(0 0)">
              <g id="Grupo_1158891" data-name="Grupo 1158891" transform="translate(0 0)">
                <g id="Grupo_1157406" data-name="Grupo 1157406" transform="translate(0 0)">
                  <g id="Grupo_1155793" data-name="Grupo 1155793">
                    <g id="Grupo_1154704" data-name="Grupo 1154704">
                      <g id="Grupo_1150790" data-name="Grupo 1150790">
                        <g id="Grupo_1154214" data-name="Grupo 1154214">
                          <g id="Grupo_1152583" data-name="Grupo 1152583">
                            <g id="Grupo_1146973" data-name="Grupo 1146973">
                              <g id="Grupo_1146954" data-name="Grupo 1146954">
                                <g transform="matrix(1, 0, 0, 1, -9, -6)" filter="url(#Trazado_982547)">
                                  <g id="Trazado_982547-2" data-name="Trazado 982547" transform="translate(9 6)" fill="#e9f9fd">
                                    <path d="M 46.0000114440918 90.49989318847656 C 39.99188995361328 90.49989318847656 34.16427993774414 89.32353210449219 28.6790657043457 87.00347900390625 C 23.38021087646484 84.76226043701172 18.62105178833008 81.55343627929688 14.53375816345215 77.46615600585938 C 10.44647789001465 73.37887573242188 7.237651348114014 68.61971282958984 4.996424674987793 63.32086181640625 C 2.676371335983276 57.83566284179688 1.500011444091797 52.00806427001953 1.500011444091797 45.99994277954102 C 1.500011444091797 39.9918212890625 2.676371335983276 34.16422271728516 4.996424674987793 28.67902183532715 C 7.237651348114014 23.38016891479492 10.44647789001465 18.62100982666016 14.53375816345215 14.53372955322266 C 18.62105178833008 10.44644927978516 23.38021087646484 7.237622737884521 28.6790657043457 4.99640941619873 C 34.16427993774414 2.676356077194214 39.99188995361328 1.499996066093445 46.0000114440918 1.499996066093445 C 52.00813293457031 1.499996066093445 57.83574295043945 2.676356077194214 63.32095718383789 4.99640941619873 C 68.61981201171875 7.237622737884521 73.37898254394531 10.44644927978516 77.46626281738281 14.53372955322266 C 81.55355834960938 18.62100982666016 84.76237487792969 23.38016891479492 87.00360107421875 28.67902183532715 C 89.32365417480469 34.16422271728516 90.50001525878906 39.9918212890625 90.50001525878906 45.99994277954102 C 90.50001525878906 52.00806427001953 89.32365417480469 57.83566284179688 87.00360107421875 63.32086181640625 C 84.76237487792969 68.61971282958984 81.55355834960938 73.37887573242188 77.46626281738281 77.46615600585938 C 73.37898254394531 81.55343627929688 68.61981201171875 84.76226043701172 63.32095718383789 87.00347900390625 C 57.83574295043945 89.32353210449219 52.00813293457031 90.49989318847656 46.0000114440918 90.49989318847656 Z" stroke="none"/>
                                    <path d="M 46.0000114440918 3 C 40.1937255859375 3 34.56270980834961 4.136497497558594 29.26338195800781 6.377914428710938 C 24.14334106445312 8.543510437011719 19.54442596435547 11.64438629150391 15.59441375732422 15.59438323974609 C 11.6444091796875 19.54440307617188 8.543525695800781 24.14330291748047 6.377922058105469 29.26334381103516 C 4.136512756347656 34.56265640258789 3.000007629394531 40.19367218017578 3.000007629394531 45.99994277954102 C 3.000007629394531 51.80621337890625 4.136512756347656 57.43722915649414 6.377922058105469 62.73654174804688 C 8.543525695800781 67.85658264160156 11.6444091796875 72.45549011230469 15.59441375732422 76.40550231933594 C 19.54442596435547 80.35549926757812 24.14334106445312 83.45637512207031 29.26338195800781 85.62197113037109 C 34.56270980834961 87.86338806152344 40.1937255859375 88.99988555908203 46.0000114440918 88.99988555908203 C 51.80629730224609 88.99988555908203 57.43731307983398 87.86338806152344 62.73664093017578 85.62197113037109 C 67.85668182373047 83.45637512207031 72.45559692382812 80.35549926757812 76.40560913085938 76.40550231933594 C 80.35561370849609 72.45549011230469 83.45649719238281 67.85658264160156 85.62210083007812 62.73654174804688 C 87.86351013183594 57.43722915649414 89.00001525878906 51.80621337890625 89.00001525878906 45.99994277954102 C 89.00001525878906 40.19367218017578 87.86351013183594 34.56265640258789 85.62210083007812 29.26334381103516 C 83.45649719238281 24.14330291748047 80.35561370849609 19.54440307617188 76.40560913085938 15.59438323974609 C 72.45559692382812 11.64438629150391 67.85668182373047 8.543510437011719 62.73664093017578 6.377914428710938 C 57.43731307983398 4.136497497558594 51.80629730224609 3 46.0000114440918 3 M 46.0000114440918 0 C 71.40511322021484 0 92.00001525878906 20.59487152099609 92.00001525878906 45.99994277954102 C 92.00001525878906 71.40501403808594 71.40511322021484 91.99988555908203 46.0000114440918 91.99988555908203 C 20.59490966796875 91.99988555908203 7.62939453125e-06 71.40501403808594 7.62939453125e-06 45.99994277954102 C 7.62939453125e-06 20.59487152099609 20.59490966796875 0 46.0000114440918 0 Z" stroke="none" fill="#36ceef"/>
                                  </g>
                                </g>
                              </g>
                            </g>
                          </g>
                        </g>
                      </g>
                    </g>
                  </g>
                </g>
              </g>
            </g>
          </g>
        </g>
      </g>
    </g>
    <g id="charity_10126416" transform="translate(1365.867 6672.808)">
      <path id="Trazado_1031051" data-name="Trazado 1031051" d="M22.432,15H10.468L4,25.146V56.714H58.326V25.146L51.858,15H39.894" transform="translate(-0.03 -0.299)" fill="none" stroke="#e7e8e9" stroke-linecap="square" stroke-miterlimit="2" stroke-width="2" fill-rule="evenodd"/>
      <path id="Trazado_1031052" data-name="Trazado 1031052" d="M22.432,15H10.468L4,25.146V56.714H58.326V25.146L51.858,15H39.894" transform="translate(-0.03 -0.299)" fill="#576172" fill-rule="evenodd"/>
      <path id="Trazado_1031053" data-name="Trazado 1031053" d="M31.731,6A8.731,8.731,0,1,1,23,14.731,8.735,8.735,0,0,1,31.731,6Z" transform="translate(-0.598 -0.03)" fill="#9fcd51" fill-rule="evenodd"/>
      <path id="Trazado_1031054" data-name="Trazado 1031054" d="M4,33H58.326V57.252H4Z" transform="translate(-0.03 -0.837)" fill="#e7e8e9" fill-rule="evenodd"/>
      <path id="Trazado_1031055" data-name="Trazado 1031055" d="M34.821,10v1.94H30.94v1.94h3.88V19.7H32.88v-3.88H29V10Z" transform="translate(-0.777 -0.15)" fill="#f7ef6d" fill-rule="evenodd"/>
      <path id="Trazado_1031056" data-name="Trazado 1031056" d="M29,18h5.821v1.94H29Z" transform="translate(-0.777 -0.389)" fill="#f7ef6d" fill-rule="evenodd"/>
      <path id="Trazado_1031057" data-name="Trazado 1031057" d="M31.737,37.867c1.8-1.213,5.392-1.213,7.189.373s1.8,4.76,0,7.934c-1.258,2.38-4.494,4.76-7.189,6.346-2.7-1.586-5.931-3.967-7.189-6.346-1.8-3.174-1.8-6.347,0-7.934S29.939,36.655,31.737,37.867Z" transform="translate(-0.604 -0.957)" fill="#f16472" fill-rule="evenodd"/>
      <path id="Trazado_1031058" data-name="Trazado 1031058" d="M40.786,13.731H52.361l6.905,10.834v32.82H3V24.565L9.905,13.731H21.479A9.7,9.7,0,0,1,35.7,6.142l.856.457L35.64,8.31l-.856-.458a7.767,7.767,0,1,0,2.557,2.193l-.583-.775L38.31,8.1l.582.776a9.655,9.655,0,0,1,1.895,4.85Zm-19.307,1.94H10.969L4.94,25.131v5.092H57.326V25.131L51.3,15.671H40.786a9.7,9.7,0,0,1-19.307,0ZM4.94,32.163V55.445H57.326V32.163Zm26.193,3.629a7.749,7.749,0,0,1,3.628-.714,6.8,6.8,0,0,1,4.2,1.479c2.068,1.826,2.272,5.474.211,9.123-1.33,2.508-4.709,5.048-7.55,6.721l-.492.29-.492-.29C27.8,50.73,24.425,48.191,23.1,45.69c-2.066-3.654-1.864-7.306.206-9.133a6.8,6.8,0,0,1,4.2-1.479,7.749,7.749,0,0,1,3.628.714Zm-.543,1.923a5.273,5.273,0,0,0-3.018-.7,4.818,4.818,0,0,0-2.986.994,3.408,3.408,0,0,0-1.02,2.644,8.509,8.509,0,0,0,1.229,4.1l.006.013c1.114,2.106,3.891,4.183,6.332,5.67,2.441-1.487,5.218-3.564,6.338-5.683l.008-.012A8.5,8.5,0,0,0,38.7,40.656a3.406,3.406,0,0,0-1.02-2.644,4.818,4.818,0,0,0-2.986-.994,5.284,5.284,0,0,0-3.02.7l-.541.367Zm-3.337-9.432v-1.94h7.761v1.94ZM32.1,17.611v-1.94h-3.88V9.85h5.821v1.94h-3.88v1.94h3.88v5.821H28.223v-1.94Z" transform="translate(0)" fill-rule="evenodd"/>
    </g>
  </g>
</svg>
