<svg xmlns="http://www.w3.org/2000/svg" xmlns:xlink="http://www.w3.org/1999/xlink" width="110" height="110" viewBox="0 0 110 110">
  <defs>
    <filter id="Trazado_982547" x="0" y="0" width="110" height="110" filterUnits="userSpaceOnUse">
      <feOffset dy="3" input="SourceAlpha"/>
      <feGaussianBlur stdDeviation="3" result="blur"/>
      <feFlood flood-opacity="0.161"/>
      <feComposite operator="in" in2="blur"/>
      <feComposite in="SourceGraphic"/>
    </filter>
  </defs>
  <g id="Grupo_1173924" data-name="Grupo 1173924" transform="translate(-1342.196 -7062.5)">
    <g id="Grupo_1173202" data-name="Grupo 1173202" transform="translate(1351.196 7068.5)">
      <g id="Grupo_1171898" data-name="Grupo 1171898" transform="translate(0 0)">
        <g id="Grupo_1164700" data-name="Grupo 1164700" transform="translate(0)">
          <g id="Grupo_1160931" data-name="Grupo 1160931" transform="translate(0 0)">
            <g id="Grupo_1160749" data-name="Grupo 1160749" transform="translate(0 0)">
              <g id="Grupo_1158891" data-name="Grupo 1158891" transform="translate(0 0)">
                <g id="Grupo_1157406" data-name="Grupo 1157406" transform="translate(0 0)">
                  <g id="Grupo_1155793" data-name="Grupo 1155793">
                    <g id="Grupo_1154704" data-name="Grupo 1154704">
                      <g id="Grupo_1150790" data-name="Grupo 1150790">
                        <g id="Grupo_1154214" data-name="Grupo 1154214">
                          <g id="Grupo_1152583" data-name="Grupo 1152583">
                            <g id="Grupo_1146973" data-name="Grupo 1146973">
                              <g id="Grupo_1146954" data-name="Grupo 1146954">
                                <g transform="matrix(1, 0, 0, 1, -9, -6)" filter="url(#Trazado_982547)">
                                  <g id="Trazado_982547-2" data-name="Trazado 982547" transform="translate(9 6)" fill="#e9f9fd">
                                    <path d="M 46.0000114440918 90.49989318847656 C 39.99188995361328 90.49989318847656 34.16427993774414 89.32353210449219 28.6790657043457 87.00347900390625 C 23.38021087646484 84.76226043701172 18.62105178833008 81.55343627929688 14.53375816345215 77.46615600585938 C 10.44647789001465 73.37887573242188 7.237651348114014 68.61971282958984 4.996424674987793 63.32086181640625 C 2.676371335983276 57.83566284179688 1.500011444091797 52.00806427001953 1.500011444091797 45.99994277954102 C 1.500011444091797 39.9918212890625 2.676371335983276 34.16422271728516 4.996424674987793 28.67902183532715 C 7.237651348114014 23.38016891479492 10.44647789001465 18.62100982666016 14.53375816345215 14.53372955322266 C 18.62105178833008 10.44644927978516 23.38021087646484 7.237622737884521 28.6790657043457 4.99640941619873 C 34.16427993774414 2.676356077194214 39.99188995361328 1.499996066093445 46.0000114440918 1.499996066093445 C 52.00813293457031 1.499996066093445 57.83574295043945 2.676356077194214 63.32095718383789 4.99640941619873 C 68.61981201171875 7.237622737884521 73.37898254394531 10.44644927978516 77.46626281738281 14.53372955322266 C 81.55355834960938 18.62100982666016 84.76237487792969 23.38016891479492 87.00360107421875 28.67902183532715 C 89.32365417480469 34.16422271728516 90.50001525878906 39.9918212890625 90.50001525878906 45.99994277954102 C 90.50001525878906 52.00806427001953 89.32365417480469 57.83566284179688 87.00360107421875 63.32086181640625 C 84.76237487792969 68.61971282958984 81.55355834960938 73.37887573242188 77.46626281738281 77.46615600585938 C 73.37898254394531 81.55343627929688 68.61981201171875 84.76226043701172 63.32095718383789 87.00347900390625 C 57.83574295043945 89.32353210449219 52.00813293457031 90.49989318847656 46.0000114440918 90.49989318847656 Z" stroke="none"/>
                                    <path d="M 46.0000114440918 3 C 40.1937255859375 3 34.56270980834961 4.136497497558594 29.26338195800781 6.377914428710938 C 24.14334106445312 8.543510437011719 19.54442596435547 11.64438629150391 15.59441375732422 15.59438323974609 C 11.6444091796875 19.54440307617188 8.543525695800781 24.14330291748047 6.377922058105469 29.26334381103516 C 4.136512756347656 34.56265640258789 3.000007629394531 40.19367218017578 3.000007629394531 45.99994277954102 C 3.000007629394531 51.80621337890625 4.136512756347656 57.43722915649414 6.377922058105469 62.73654174804688 C 8.543525695800781 67.85658264160156 11.6444091796875 72.45549011230469 15.59441375732422 76.40550231933594 C 19.54442596435547 80.35549926757812 24.14334106445312 83.45637512207031 29.26338195800781 85.62197113037109 C 34.56270980834961 87.86338806152344 40.1937255859375 88.99988555908203 46.0000114440918 88.99988555908203 C 51.80629730224609 88.99988555908203 57.43731307983398 87.86338806152344 62.73664093017578 85.62197113037109 C 67.85668182373047 83.45637512207031 72.45559692382812 80.35549926757812 76.40560913085938 76.40550231933594 C 80.35561370849609 72.45549011230469 83.45649719238281 67.85658264160156 85.62210083007812 62.73654174804688 C 87.86351013183594 57.43722915649414 89.00001525878906 51.80621337890625 89.00001525878906 45.99994277954102 C 89.00001525878906 40.19367218017578 87.86351013183594 34.56265640258789 85.62210083007812 29.26334381103516 C 83.45649719238281 24.14330291748047 80.35561370849609 19.54440307617188 76.40560913085938 15.59438323974609 C 72.45559692382812 11.64438629150391 67.85668182373047 8.543510437011719 62.73664093017578 6.377914428710938 C 57.43731307983398 4.136497497558594 51.80629730224609 3 46.0000114440918 3 M 46.0000114440918 0 C 71.40511322021484 0 92.00001525878906 20.59487152099609 92.00001525878906 45.99994277954102 C 92.00001525878906 71.40501403808594 71.40511322021484 91.99988555908203 46.0000114440918 91.99988555908203 C 20.59490966796875 91.99988555908203 7.62939453125e-06 71.40501403808594 7.62939453125e-06 45.99994277954102 C 7.62939453125e-06 20.59487152099609 20.59490966796875 0 46.0000114440918 0 Z" stroke="none" fill="#36ceef"/>
                                  </g>
                                </g>
                              </g>
                            </g>
                          </g>
                        </g>
                      </g>
                    </g>
                  </g>
                </g>
              </g>
            </g>
          </g>
        </g>
      </g>
    </g>
    <g id="chronometer_793483" transform="translate(1322.759 7082.578)">
      <path id="Trazado_1031059" data-name="Trazado 1031059" d="M133.908,178.954a18.974,18.974,0,1,1-5.068-12.889A18.856,18.856,0,0,1,133.908,178.954Z" transform="translate(-42.014 -140.048)" fill="#00b4d7"/>
      <g id="Grupo_1173925" data-name="Grupo 1173925" transform="translate(63.961 0.998)">
        <path id="Trazado_1031060" data-name="Trazado 1031060" d="M378.423,60.08l7.053,7.063-2.823,2.813-2.115-2.115-2.823-2.823L375.6,62.9Z" transform="translate(-350.71 -53.586)" fill="#7e8488"/>
        <path id="Trazado_1031061" data-name="Trazado 1031061" d="M193.957,8v4.988H176V8Z" transform="translate(-176 -8)" fill="#7e8488"/>
      </g>
      <path id="Trazado_1031062" data-name="Trazado 1031062" d="M79.942,48h3.99v9.317A23.786,23.786,0,0,1,92.1,60.31l5.866-5.866,2.823,2.823L95.4,62.655a23.935,23.935,0,1,1-19.453-5.337V48ZM93.828,93.809a18.929,18.929,0,1,0-13.886,6.065A18.856,18.856,0,0,0,93.828,93.809Z" transform="translate(-7.002 -42.014)" fill="#afb6bb"/>
      <ellipse id="Elipse_11852" data-name="Elipse 11852" cx="12.206" cy="11.77" rx="12.206" ry="11.77" transform="translate(74.809 38.898)" fill="#e7eced"/>
      <path id="Trazado_1031063" data-name="Trazado 1031063" d="M50,38.906a22.858,22.858,0,0,1,19.12-22.62,1,1,0,0,0,.832-.985V6.983h2v8.978h2V6.983h2V15.3a1,1,0,0,0,.832.984,22.73,22.73,0,0,1,7.83,2.872A1,1,0,0,0,85.807,19l5.16-5.16.705.705.705.705L87.7,19.936a1,1,0,0,0,.061,1.467,22.9,22.9,0,0,1,8.127,17.5h2A24.882,24.882,0,0,0,89.857,20.6l3.932-3.932L95.2,18.076a1,1,0,0,0,1.411,0l2.821-2.821a1,1,0,0,0,0-1.411L92.378,6.791a1.027,1.027,0,0,0-1.411,0L88.145,9.613a1,1,0,0,0,0,1.411l1.411,1.411-4.621,4.621a24.682,24.682,0,0,0-7.008-2.583V6.983h3.99a1,1,0,0,0,1-1V1a1,1,0,0,0-1-1H63.961a1,1,0,0,0-1,1V5.986a1,1,0,0,0,1,1h3.99v7.488A24.939,24.939,0,0,0,72.94,63.845v-2A22.971,22.971,0,0,1,50,38.906Zm41.677-30,5.643,5.643-1.411,1.411-2.822-2.7-1.411-1.29h0l-1.41-1.531ZM64.959,2H80.92V4.988H64.959Z"/>
      <path id="Trazado_1031064" data-name="Trazado 1031064" d="M99.679,180.638l-1.411-1.411-4.154,4.154a17.86,17.86,0,0,1-4.068-10.432h5.935v-2H90.046a17.867,17.867,0,0,1,4.068-10.432l4.154,4.154,1.411-1.411-4.2-4.2a17.882,17.882,0,0,1,11.477-5.018v5.935h2V154.04a17.87,17.87,0,0,1,11.5,5l-4.229,4.229,1.411,1.411,4.182-4.182a17.926,17.926,0,0,1,3.869,8.62l1.971-.312a19.953,19.953,0,1,0-19.705,23.1v-2a17.886,17.886,0,0,1-12.475-5.069Z" transform="translate(-35.012 -133.046)"/>
      <path id="Trazado_1031065" data-name="Trazado 1031065" d="M244.988,247.981H242V240h-2v8.978a1,1,0,0,0,1,1h3.99Z" transform="translate(-168.058 -210.072)"/>
      <path id="Trazado_1031066" data-name="Trazado 1031066" d="M268.969,304a12.969,12.969,0,1,0,12.969,12.969A12.984,12.984,0,0,0,268.969,304Zm0,23.942a10.973,10.973,0,1,1,10.973-10.973A10.986,10.986,0,0,1,268.969,327.942Z" transform="translate(-182.063 -266.092)"/>
      <path id="Trazado_1031067" data-name="Trazado 1031067" d="M311.981,352h-2v5.986H304v2h5.986v5.986h2v-5.986h5.986v-2h-5.986Z" transform="translate(-224.077 -308.106)"/>
    </g>
  </g>
</svg>
