<svg xmlns="http://www.w3.org/2000/svg" xmlns:xlink="http://www.w3.org/1999/xlink" width="110" height="110" viewBox="0 0 110 110">
  <defs>
    <filter id="Trazado_982547" x="0" y="0" width="110" height="110" filterUnits="userSpaceOnUse">
      <feOffset dy="3" input="SourceAlpha"/>
      <feGaussianBlur stdDeviation="3" result="blur"/>
      <feFlood flood-opacity="0.161"/>
      <feComposite operator="in" in2="blur"/>
      <feComposite in="SourceGraphic"/>
    </filter>
  </defs>
  <g id="Grupo_1173932" data-name="Grupo 1173932" transform="translate(-1658.196 -7062.5)">
    <g id="Grupo_1173203" data-name="Grupo 1173203" transform="translate(1667.196 7068.5)">
      <g id="Grupo_1171901" data-name="Grupo 1171901" transform="translate(0 0)">
        <g id="Grupo_1164700" data-name="Grupo 1164700" transform="translate(0)">
          <g id="Grupo_1160931" data-name="Grupo 1160931" transform="translate(0 0)">
            <g id="Grupo_1160749" data-name="Grupo 1160749" transform="translate(0 0)">
              <g id="Grupo_1158891" data-name="Grupo 1158891" transform="translate(0 0)">
                <g id="Grupo_1157406" data-name="Grupo 1157406" transform="translate(0 0)">
                  <g id="Grupo_1155793" data-name="Grupo 1155793">
                    <g id="Grupo_1154704" data-name="Grupo 1154704">
                      <g id="Grupo_1150790" data-name="Grupo 1150790">
                        <g id="Grupo_1154214" data-name="Grupo 1154214">
                          <g id="Grupo_1152583" data-name="Grupo 1152583">
                            <g id="Grupo_1146973" data-name="Grupo 1146973">
                              <g id="Grupo_1146954" data-name="Grupo 1146954">
                                <g transform="matrix(1, 0, 0, 1, -9, -6)" filter="url(#Trazado_982547)">
                                  <g id="Trazado_982547-2" data-name="Trazado 982547" transform="translate(9 6)" fill="#e9f9fd">
                                    <path d="M 46.0000114440918 90.49989318847656 C 39.99188995361328 90.49989318847656 34.16427993774414 89.32353210449219 28.6790657043457 87.00347900390625 C 23.38021087646484 84.76226043701172 18.62105178833008 81.55343627929688 14.53375816345215 77.46615600585938 C 10.44647789001465 73.37887573242188 7.237651348114014 68.61971282958984 4.996424674987793 63.32086181640625 C 2.676371335983276 57.83566284179688 1.500011444091797 52.00806427001953 1.500011444091797 45.99994277954102 C 1.500011444091797 39.9918212890625 2.676371335983276 34.16422271728516 4.996424674987793 28.67902183532715 C 7.237651348114014 23.38016891479492 10.44647789001465 18.62100982666016 14.53375816345215 14.53372955322266 C 18.62105178833008 10.44644927978516 23.38021087646484 7.237622737884521 28.6790657043457 4.99640941619873 C 34.16427993774414 2.676356077194214 39.99188995361328 1.499996066093445 46.0000114440918 1.499996066093445 C 52.00813293457031 1.499996066093445 57.83574295043945 2.676356077194214 63.32095718383789 4.99640941619873 C 68.61981201171875 7.237622737884521 73.37898254394531 10.44644927978516 77.46626281738281 14.53372955322266 C 81.55355834960938 18.62100982666016 84.76237487792969 23.38016891479492 87.00360107421875 28.67902183532715 C 89.32365417480469 34.16422271728516 90.50001525878906 39.9918212890625 90.50001525878906 45.99994277954102 C 90.50001525878906 52.00806427001953 89.32365417480469 57.83566284179688 87.00360107421875 63.32086181640625 C 84.76237487792969 68.61971282958984 81.55355834960938 73.37887573242188 77.46626281738281 77.46615600585938 C 73.37898254394531 81.55343627929688 68.61981201171875 84.76226043701172 63.32095718383789 87.00347900390625 C 57.83574295043945 89.32353210449219 52.00813293457031 90.49989318847656 46.0000114440918 90.49989318847656 Z" stroke="none"/>
                                    <path d="M 46.0000114440918 3 C 40.1937255859375 3 34.56270980834961 4.136497497558594 29.26338195800781 6.377914428710938 C 24.14334106445312 8.543510437011719 19.54442596435547 11.64438629150391 15.59441375732422 15.59438323974609 C 11.6444091796875 19.54440307617188 8.543525695800781 24.14330291748047 6.377922058105469 29.26334381103516 C 4.136512756347656 34.56265640258789 3.000007629394531 40.19367218017578 3.000007629394531 45.99994277954102 C 3.000007629394531 51.80621337890625 4.136512756347656 57.43722915649414 6.377922058105469 62.73654174804688 C 8.543525695800781 67.85658264160156 11.6444091796875 72.45549011230469 15.59441375732422 76.40550231933594 C 19.54442596435547 80.35549926757812 24.14334106445312 83.45637512207031 29.26338195800781 85.62197113037109 C 34.56270980834961 87.86338806152344 40.1937255859375 88.99988555908203 46.0000114440918 88.99988555908203 C 51.80629730224609 88.99988555908203 57.43731307983398 87.86338806152344 62.73664093017578 85.62197113037109 C 67.85668182373047 83.45637512207031 72.45559692382812 80.35549926757812 76.40560913085938 76.40550231933594 C 80.35561370849609 72.45549011230469 83.45649719238281 67.85658264160156 85.62210083007812 62.73654174804688 C 87.86351013183594 57.43722915649414 89.00001525878906 51.80621337890625 89.00001525878906 45.99994277954102 C 89.00001525878906 40.19367218017578 87.86351013183594 34.56265640258789 85.62210083007812 29.26334381103516 C 83.45649719238281 24.14330291748047 80.35561370849609 19.54440307617188 76.40560913085938 15.59438323974609 C 72.45559692382812 11.64438629150391 67.85668182373047 8.543510437011719 62.73664093017578 6.377914428710938 C 57.43731307983398 4.136497497558594 51.80629730224609 3 46.0000114440918 3 M 46.0000114440918 0 C 71.40511322021484 0 92.00001525878906 20.59487152099609 92.00001525878906 45.99994277954102 C 92.00001525878906 71.40501403808594 71.40511322021484 91.99988555908203 46.0000114440918 91.99988555908203 C 20.59490966796875 91.99988555908203 7.62939453125e-06 71.40501403808594 7.62939453125e-06 45.99994277954102 C 7.62939453125e-06 20.59487152099609 20.59490966796875 0 46.0000114440918 0 Z" stroke="none" fill="#36ceef"/>
                                  </g>
                                </g>
                              </g>
                            </g>
                          </g>
                        </g>
                      </g>
                    </g>
                  </g>
                </g>
              </g>
            </g>
          </g>
        </g>
      </g>
    </g>
    <g id="retirement_14598026_1_" data-name="retirement_14598026 (1)" transform="translate(1665.172 7083.438)">
      <g id="Grupo_1173931" data-name="Grupo 1173931" transform="translate(23.266 1.918)">
        <g id="Grupo_1173927" data-name="Grupo 1173927" transform="translate(0 3.282)">
          <path id="Trazado_1031068" data-name="Trazado 1031068" d="M93.443,60.4a68.367,68.367,0,0,1-2.684,12.717,42.175,42.175,0,0,1-4.726,10.236L80.47,79.71a35.561,35.561,0,0,0,3.973-8.624,61.644,61.644,0,0,0,2.4-11.444Zm17.741-22.4a3.316,3.316,0,0,1,6.289,2.105l-7.1,21.017a54.264,54.264,0,0,0,2.785,10.6,25.226,25.226,0,0,0,4.193,7.511l-4.99,4.366a31.624,31.624,0,0,1-5.414-9.512,61.155,61.155,0,0,1-3.243-12.751,3.3,3.3,0,0,1,.13-1.58Z" transform="translate(-74.404 -35.73)" fill="#b06328" fill-rule="evenodd"/>
          <path id="Trazado_1031069" data-name="Trazado 1031069" d="M119.166,60.4a68.366,68.366,0,0,1-2.684,12.717,42.175,42.175,0,0,1-4.726,10.236l-2.023-1.324a43.955,43.955,0,0,0,3.9-8.912A68.368,68.368,0,0,0,116.319,60.4l-3.793-.433q.02-.161.039-.321Zm19.463-24.344A3.316,3.316,0,0,1,143.2,40.1l-7.1,21.017a54.265,54.265,0,0,0,2.785,10.6,25.226,25.226,0,0,0,4.193,7.511l-4.99,4.366q-.613-.7-1.175-1.463l3.318-2.9a25.229,25.229,0,0,1-4.193-7.511,54.256,54.256,0,0,1-2.785-10.6l7.1-21.017A3.317,3.317,0,0,0,138.629,36.052Z" transform="translate(-100.128 -35.73)" fill="#a35425" fill-rule="evenodd"/>
          <path id="Trazado_1031070" data-name="Trazado 1031070" d="M32.175,374.135a3.4,3.4,0,1,1,3.061-6.068c5.206,2.642,12.824,3.441,18.6,3.441s13.4-.8,18.6-3.441a3.4,3.4,0,0,1,3.061,6.068c-6.189,3.142-14.782,4.186-21.662,4.186S38.364,377.277,32.175,374.135Z" transform="translate(-30.307 -327.559)" fill="#da8c36" fill-rule="evenodd"/>
          <path id="Trazado_1031071" data-name="Trazado 1031071" d="M32.177,390.29a3.4,3.4,0,0,1-1.658-4.211,3.386,3.386,0,0,0,1.658,1.858c6.189,3.142,14.782,4.186,21.662,4.186s15.473-1.045,21.662-4.186a3.386,3.386,0,0,0,1.658-1.858A3.4,3.4,0,0,1,75.5,390.29c-6.189,3.142-14.782,4.186-21.662,4.186S38.365,393.432,32.177,390.29Z" transform="translate(-30.308 -343.715)" fill="#c97629" fill-rule="evenodd"/>
          <path id="Trazado_1031072" data-name="Trazado 1031072" d="M95.248,212.319a3.407,3.407,0,1,1,0,6.814H68.841a3.407,3.407,0,1,1,0-6.814Z" transform="translate(-61.186 -190.966)" fill="#da8c36" fill-rule="evenodd"/>
          <path id="Trazado_1031073" data-name="Trazado 1031073" d="M98.5,231.995a3.409,3.409,0,0,1-3.249,4.434H68.841a3.409,3.409,0,0,1-3.249-4.434,3.408,3.408,0,0,0,3.249,2.379H95.248A3.408,3.408,0,0,0,98.5,231.995Z" transform="translate(-61.186 -208.262)" fill="#c97629" fill-rule="evenodd"/>
        </g>
        <g id="Grupo_1173928" data-name="Grupo 1173928" transform="translate(13.268)">
          <path id="Trazado_1031074" data-name="Trazado 1031074" d="M142.89,20.961h-2.119a.739.739,0,0,0-.586,1.193l5.511,7.131a.74.74,0,0,0,1.171,0l5.511-7.131a.739.739,0,0,0-.586-1.193h-2.119V9.554a.972.972,0,0,0-.97-.97H143.86a.972.972,0,0,0-.97.97V20.961Z" transform="translate(-140.028 -8.584)" fill="#72d561" fill-rule="evenodd"/>
          <path id="Trazado_1031075" data-name="Trazado 1031075" d="M184.769,28.951l.258.334a.74.74,0,0,0,1.171,0l5.511-7.131a.739.739,0,0,0-.586-1.193h-1.688a.739.739,0,0,1,.586,1.193ZM189,20.961h-1.688V9.554a.972.972,0,0,0-.97-.97h1.688a.972.972,0,0,1,.97.97Z" transform="translate(-179.359 -8.584)" fill="#57ca5a" fill-rule="evenodd"/>
        </g>
        <g id="Grupo_1173930" data-name="Grupo 1173930" transform="translate(22.901 28.063)">
          <circle id="Elipse_11853" data-name="Elipse 11853" cx="13.12" cy="13.12" r="13.12" transform="translate(0 18.552) rotate(-45)" fill="#fdb800"/>
          <path id="Trazado_1031076" data-name="Trazado 1031076" d="M309.077,311.471a13.119,13.119,0,1,1-18.494,18.494,13.119,13.119,0,0,0,18.494-18.494Z" transform="translate(-282.011 -302.909)" fill="#f4a40e" fill-rule="evenodd"/>
          <ellipse id="Elipse_11854" data-name="Elipse 11854" cx="9.158" cy="9.157" rx="9.158" ry="9.157" transform="translate(9.19 9.637) rotate(-1.432)" fill="#ffda2d"/>
          <g id="Grupo_1173929" data-name="Grupo 1173929" transform="translate(9.404 9.394)">
            <path id="Trazado_1031077" data-name="Trazado 1031077" d="M306.623,318.355a9.132,9.132,0,0,1,6.7,2.921A9.157,9.157,0,0,0,301.2,334.889a9.158,9.158,0,0,1,5.426-16.534Z" transform="translate(-297.466 -318.355)" fill="#ffc700" fill-rule="evenodd"/>
            <path id="Trazado_1031078" data-name="Trazado 1031078" d="M361.986,347.643a.967.967,0,0,1,1.935,0v.723a2.918,2.918,0,0,1,1.748,1.134.966.966,0,1,1-1.564,1.134.961.961,0,0,0-.337-.294.933.933,0,0,0-.427-.1h-.6a.939.939,0,0,0,0,1.879h.426a2.875,2.875,0,0,1,.754,5.648v.763a.967.967,0,0,1-1.935,0v-.723a2.918,2.918,0,0,1-1.748-1.134.966.966,0,1,1,1.564-1.134.962.962,0,0,0,.337.294.93.93,0,0,0,.427.1h.6a.939.939,0,0,0,0-1.879h-.426a2.875,2.875,0,0,1-.754-5.648v-.763Z" transform="translate(-352.321 -343.251)" fill="#ffc700" fill-rule="evenodd"/>
          </g>
        </g>
      </g>
      <path id="Trazado_1031079" data-name="Trazado 1031079" d="M39.4,15.313a.967.967,0,0,0,.967-.968l0-11.409,4.845,0V14.345a.968.968,0,0,0,.967.967h1.656l-5.047,6.532L37.74,15.313Zm2.041,7.948a1.706,1.706,0,0,0,2.7,0l5.51-7.131A1.706,1.706,0,0,0,48.3,13.378H47.146V2.938A1.939,1.939,0,0,0,45.209,1H40.366a1.94,1.94,0,0,0-1.938,1.937v10.44H37.277a1.707,1.707,0,0,0-1.351,2.752ZM67.816,50.49A2.88,2.88,0,0,1,65.7,53.264v.761a.967.967,0,1,1-1.935,0v-.72a2.894,2.894,0,0,1-1.749-1.136.967.967,0,1,1,1.567-1.133.948.948,0,0,0,.762.393h.6a.94.94,0,0,0,0-1.879h-.427a2.875,2.875,0,0,1-.753-5.648v-.762a.967.967,0,0,1,1.935,0v.722A2.9,2.9,0,0,1,67.446,45a.968.968,0,0,1-1.569,1.134.945.945,0,0,0-.762-.394h-.6a.939.939,0,0,0,0,1.879h.427A2.877,2.877,0,0,1,67.816,50.49Zm-3.087,6.283a8.19,8.19,0,1,0-8.19-8.19A8.2,8.2,0,0,0,64.729,56.773Zm0-18.315A10.125,10.125,0,1,0,74.854,48.583,10.136,10.136,0,0,0,64.729,38.458Zm0,22.277A12.152,12.152,0,1,0,52.577,48.583,12.166,12.166,0,0,0,64.729,60.736ZM46.8,55.045c-3.964,0-13.968-.4-21.227-4.082a2.431,2.431,0,0,1,2.188-4.342c6.3,3.2,15.415,3.546,19.039,3.546,1.3,0,2.619-.042,3.92-.12a14.009,14.009,0,0,0,1.391,4.791C50.353,54.975,48.573,55.045,46.8,55.045ZM34.225,40.9a41.107,41.107,0,0,1-2.13,5.382A36.533,36.533,0,0,0,36.767,47.4,47.878,47.878,0,0,0,38.7,42.339a63.309,63.309,0,0,0,1.961-7.954H35.873A56.941,56.941,0,0,1,34.225,40.9Zm-5.744-10.89a2.442,2.442,0,0,1,2.44-2.439H57.328a2.439,2.439,0,0,1,0,4.879H30.921A2.442,2.442,0,0,1,28.481,30.011ZM60.962,7.822a2.349,2.349,0,0,1,4.456,1.489L59.672,26.321a4.343,4.343,0,0,0-2.344-.685H54.945ZM55.106,38.3c-.4-1.473-.715-2.818-.943-3.92h3.165a4.346,4.346,0,0,0,1.578-.3q.167.758.353,1.513a14.123,14.123,0,0,0-4.153,2.7ZM50.65,48.112c-1.279.079-2.571.12-3.854.12a62.483,62.483,0,0,1-8.05-.524,50.23,50.23,0,0,0,1.794-4.779,65.471,65.471,0,0,0,2.082-8.544H52.19c.295,1.474.745,3.442,1.385,5.605a14.02,14.02,0,0,0-2.924,8.121ZM64.729,34.5a14.04,14.04,0,0,0-3.634.476q-.256-1.045-.471-2.093a4.365,4.365,0,0,0,.548-4.952l6.08-18a4.284,4.284,0,0,0-8.124-2.722L52.9,25.637H30.921a4.374,4.374,0,1,0,0,8.748H33.9a54.362,54.362,0,0,1-1.517,5.926,39.2,39.2,0,0,1-2.12,5.319q-.844-.339-1.633-.736A4.365,4.365,0,1,0,24.7,52.689c7.629,3.873,18,4.292,22.1,4.292,2.148,0,4.3-.1,6.413-.3A14.085,14.085,0,1,0,64.729,34.5Z" transform="translate(0)" fill-rule="evenodd"/>
    </g>
  </g>
</svg>
