<svg xmlns="http://www.w3.org/2000/svg" xmlns:xlink="http://www.w3.org/1999/xlink" width="110" height="110" viewBox="0 0 110 110">
  <defs>
    <filter id="Trazado_982547" x="0" y="0" width="110" height="110" filterUnits="userSpaceOnUse">
      <feOffset dy="3" input="SourceAlpha"/>
      <feGaussianBlur stdDeviation="3" result="blur"/>
      <feFlood flood-opacity="0.161"/>
      <feComposite operator="in" in2="blur"/>
      <feComposite in="SourceGraphic"/>
    </filter>
  </defs>
  <g id="Grupo_1173965" data-name="Grupo 1173965" transform="translate(1064 -7100.89)">
    <g id="Grupo_1173213" data-name="Grupo 1173213" transform="translate(-1055 7106.89)">
      <g id="Grupo_1171898" data-name="Grupo 1171898" transform="translate(0 0)">
        <g id="Grupo_1164700" data-name="Grupo 1164700" transform="translate(0 0)">
          <g id="Grupo_1160931" data-name="Grupo 1160931" transform="translate(0 0)">
            <g id="Grupo_1160749" data-name="Grupo 1160749" transform="translate(0 0)">
              <g id="Grupo_1158891" data-name="Grupo 1158891" transform="translate(0 0)">
                <g id="Grupo_1157406" data-name="Grupo 1157406" transform="translate(0 0)">
                  <g id="Grupo_1155793" data-name="Grupo 1155793">
                    <g id="Grupo_1154704" data-name="Grupo 1154704">
                      <g id="Grupo_1150790" data-name="Grupo 1150790">
                        <g id="Grupo_1154214" data-name="Grupo 1154214">
                          <g id="Grupo_1152583" data-name="Grupo 1152583">
                            <g id="Grupo_1146973" data-name="Grupo 1146973">
                              <g id="Grupo_1146954" data-name="Grupo 1146954">
                                <g transform="matrix(1, 0, 0, 1, -9, -6)" filter="url(#Trazado_982547)">
                                  <g id="Trazado_982547-2" data-name="Trazado 982547" transform="translate(9 6)" fill="#e9f9fd">
                                    <path d="M 46.0000114440918 90.49988555908203 C 39.99188995361328 90.49988555908203 34.16427993774414 89.32352447509766 28.6790657043457 87.00347137451172 C 23.38021087646484 84.76226043701172 18.62105178833008 81.55342864990234 14.53375816345215 77.46615600585938 C 10.44647789001465 73.37887573242188 7.237651348114014 68.61971282958984 4.996424674987793 63.32085800170898 C 2.676371335983276 57.83565902709961 1.500011444091797 52.00806045532227 1.500011444091797 45.99993896484375 C 1.500011444091797 39.99181747436523 2.676371335983276 34.16421890258789 4.996424674987793 28.67901802062988 C 7.237651348114014 23.38017845153809 10.44647789001465 18.62101936340332 14.53375816345215 14.53373908996582 C 18.62105178833008 10.44645881652832 23.38021087646484 7.237632274627686 28.6790657043457 4.996418952941895 C 34.16427993774414 2.676365613937378 39.99188995361328 1.500005602836609 46.0000114440918 1.500005602836609 C 52.00813293457031 1.500005602836609 57.83574295043945 2.676365613937378 63.32095718383789 4.996418952941895 C 68.61981201171875 7.237632274627686 73.37898254394531 10.44645881652832 77.46626281738281 14.53373908996582 C 81.55355834960938 18.62101936340332 84.76237487792969 23.38017845153809 87.00360107421875 28.67901802062988 C 89.32365417480469 34.16421890258789 90.50001525878906 39.99181747436523 90.50001525878906 45.99993896484375 C 90.50001525878906 52.00806045532227 89.32365417480469 57.83565902709961 87.00360107421875 63.32085800170898 C 84.76237487792969 68.61971282958984 81.55355834960938 73.37887573242188 77.46626281738281 77.46615600585938 C 73.37898254394531 81.55342864990234 68.61981201171875 84.76226043701172 63.32095718383789 87.00347137451172 C 57.83574295043945 89.32352447509766 52.00813293457031 90.49988555908203 46.0000114440918 90.49988555908203 Z" stroke="none"/>
                                    <path d="M 46.0000114440918 2.999992370605469 C 40.1937255859375 2.999992370605469 34.56270980834961 4.136497497558594 29.26339721679688 6.377906799316406 C 24.14334106445312 8.543510437011719 19.54442596435547 11.64437866210938 15.59441375732422 15.59439849853516 C 11.6444091796875 19.54439544677734 8.543525695800781 24.14329528808594 6.377922058105469 29.26335144042969 C 4.136512756347656 34.56266784667969 3.000007629394531 40.19366836547852 3.000007629394531 45.99993896484375 C 3.000007629394531 51.80620956420898 4.136512756347656 57.43722534179688 6.377922058105469 62.73654174804688 C 8.543525695800781 67.85658264160156 11.6444091796875 72.45548248291016 15.59441375732422 76.40549468994141 C 19.54442596435547 80.35549926757812 24.14334106445312 83.45636749267578 29.26338195800781 85.62196350097656 C 34.56270980834961 87.86338043212891 40.1937255859375 88.9998779296875 46.0000114440918 88.9998779296875 C 51.80629730224609 88.9998779296875 57.43731307983398 87.86338043212891 62.73664093017578 85.62196350097656 C 67.85668182373047 83.45636749267578 72.45559692382812 80.35549926757812 76.40560913085938 76.40549468994141 C 80.35561370849609 72.45548248291016 83.45649719238281 67.85658264160156 85.62210083007812 62.73654174804688 C 87.86351013183594 57.43722534179688 89.00001525878906 51.80620956420898 89.00001525878906 45.99993896484375 C 89.00001525878906 40.19366836547852 87.86351013183594 34.56266784667969 85.62210083007812 29.26335144042969 C 83.45649719238281 24.14329528808594 80.35561370849609 19.54439544677734 76.40560913085938 15.59439849853516 C 72.45559692382812 11.64437866210938 67.85668182373047 8.543510437011719 62.73662567138672 6.377906799316406 C 57.43731307983398 4.136497497558594 51.80629730224609 2.999992370605469 46.0000114440918 2.999992370605469 M 46.0000114440918 -7.62939453125e-06 C 71.40511322021484 -7.62939453125e-06 92.00001525878906 20.59487915039062 92.00001525878906 45.99993896484375 C 92.00001525878906 71.40501403808594 71.40511322021484 91.99988555908203 46.0000114440918 91.99988555908203 C 20.59490966796875 91.99988555908203 7.62939453125e-06 71.40501403808594 7.62939453125e-06 45.99993896484375 C 7.62939453125e-06 20.59487915039062 20.59490966796875 -7.62939453125e-06 46.0000114440918 -7.62939453125e-06 Z" stroke="none" fill="#36ceef"/>
                                  </g>
                                </g>
                              </g>
                            </g>
                          </g>
                        </g>
                      </g>
                    </g>
                  </g>
                </g>
              </g>
            </g>
          </g>
        </g>
      </g>
    </g>
    <g id="employee_5120726" transform="translate(-1040 7126)">
      <g id="Grupo_1173963" data-name="Grupo 1173963">
        <g id="Grupo_1173954" data-name="Grupo 1173954">
          <path id="Trazado_1031158" data-name="Trazado 1031158" d="M61,1V35H57V5H39V1Z" fill="#f0d0b4"/>
        </g>
        <g id="Grupo_1173955" data-name="Grupo 1173955">
          <path id="Trazado_1031159" data-name="Trazado 1031159" d="M39,5H35V22.58l-.01.01a13.727,13.727,0,0,1,1.28,1.14A16.082,16.082,0,0,1,41,35.14,14.216,14.216,0,0,1,40.47,39H57V5Z" fill="#e6e9ed"/>
        </g>
        <g id="Grupo_1173956" data-name="Grupo 1173956">
          <path id="Trazado_1031160" data-name="Trazado 1031160" d="M45,29h8v6H45Z" fill="#ef7385"/>
        </g>
        <g id="Grupo_1173957" data-name="Grupo 1173957">
          <path id="Trazado_1031161" data-name="Trazado 1031161" d="M35,39l-3.36-3.36A9.007,9.007,0,0,0,25.27,33H12a5,5,0,0,0-5,5v2H5a3.953,3.953,0,0,0-2.7,1.06l-.01-.01A14.187,14.187,0,0,1,1,35.14,16.141,16.141,0,0,1,17,19v2.68a1.325,1.325,0,0,0,2.4.77l2.48-3.44h3.4a15.966,15.966,0,0,1,9.71,3.58,13.727,13.727,0,0,1,1.28,1.14A16.082,16.082,0,0,1,41,35.14,14.216,14.216,0,0,1,40.47,39h-.01a13.592,13.592,0,0,1-.75,2.05l-.01.01A3.953,3.953,0,0,0,37,40H35Z" fill="#656d78"/>
        </g>
        <g id="Grupo_1173958" data-name="Grupo 1173958">
          <path id="Trazado_1031162" data-name="Trazado 1031162" d="M25.28,19.01h-3.4L19.4,22.45a1.325,1.325,0,0,1-2.4-.77V19H14.13a3.685,3.685,0,0,1-3.64-3.09L9.05,7.3A4.071,4.071,0,0,1,9,6.69,3.687,3.687,0,0,1,12.69,3H27.31A3.687,3.687,0,0,1,31,6.69a4.071,4.071,0,0,1-.05.61l-1.44,8.62a3.685,3.685,0,0,1-3.64,3.09Z" fill="#ffeaa7"/>
        </g>
        <g id="Grupo_1173959" data-name="Grupo 1173959">
          <path id="Trazado_1031163" data-name="Trazado 1031163" d="M39.7,41.06A3.94,3.94,0,0,1,41,44a3.995,3.995,0,0,1-4,4H35V40h2A3.953,3.953,0,0,1,39.7,41.06Z" fill="#f0d0b4"/>
        </g>
        <g id="Grupo_1173960" data-name="Grupo 1173960">
          <path id="Trazado_1031164" data-name="Trazado 1031164" d="M35,40v9A12,12,0,0,1,23,61H19A12,12,0,0,1,7,49V38a5,5,0,0,1,5-5H25.27a9.007,9.007,0,0,1,6.37,2.64L35,39Z" fill="#f0d0b4"/>
        </g>
        <g id="Grupo_1173961" data-name="Grupo 1173961">
          <path id="Trazado_1031165" data-name="Trazado 1031165" d="M7,40v8H5a3.995,3.995,0,0,1-4-4,3.94,3.94,0,0,1,1.3-2.94A3.953,3.953,0,0,1,5,40Z" fill="#f0d0b4"/>
        </g>
        <g id="Grupo_1173962" data-name="Grupo 1173962">
          <path id="Trazado_1031166" data-name="Trazado 1031166" d="M27,47v6a4,4,0,0,1-4,4H19a4,4,0,0,1-4-4V47a2.006,2.006,0,0,1,2-2h8A2.006,2.006,0,0,1,27,47Z" fill="#b4dd7f"/>
        </g>
      </g>
      <g id="Grupo_1173964" data-name="Grupo 1173964">
        <path id="Trazado_1031167" data-name="Trazado 1031167" d="M26,44.184V41a5,5,0,0,0-10,0v3.184A3,3,0,0,0,14,47v6a5.006,5.006,0,0,0,5,5h4a5.006,5.006,0,0,0,5-5V47A3,3,0,0,0,26,44.184ZM21,38a3,3,0,0,1,3,3v3H18V41A3,3,0,0,1,21,38Zm5,15a3,3,0,0,1-3,3H19a3,3,0,0,1-3-3V47a1,1,0,0,1,1-1h8a1,1,0,0,1,1,1Z"/>
        <path id="Trazado_1031168" data-name="Trazado 1031168" d="M18,50h2v4h2V50h2V48H18Z"/>
        <circle id="Elipse_11855" data-name="Elipse 11855" cx="1" cy="1" r="1" transform="translate(19 6)"/>
        <path id="Trazado_1031169" data-name="Trazado 1031169" d="M19,10h2v6H19Z"/>
        <path id="Trazado_1031170" data-name="Trazado 1031170" d="M62,0H38V4H34V20.667a17.043,17.043,0,0,0-4.779-2.083,4.667,4.667,0,0,0,1.279-2.5l1.436-8.62A4.631,4.631,0,0,0,32,6.694,4.7,4.7,0,0,0,27.306,2H12.694A4.7,4.7,0,0,0,8,6.694a4.631,4.631,0,0,0,.064.772L9.5,16.077a4.664,4.664,0,0,0,1.813,2.969A17.2,17.2,0,0,0,0,35.143a15.007,15.007,0,0,0,1.143,5.715A4.951,4.951,0,0,0,0,44a5.006,5.006,0,0,0,5,5H6A13.015,13.015,0,0,0,19,62h4A13.015,13.015,0,0,0,36,49h1a5.006,5.006,0,0,0,5-5,4.951,4.951,0,0,0-1.143-3.142c.117-.285.242-.568.341-.858H58V36h4ZM10.037,7.136A2.62,2.62,0,0,1,10,6.694,2.7,2.7,0,0,1,12.694,4H27.305A2.7,2.7,0,0,1,30,6.694a2.649,2.649,0,0,1-.037.443l-1.436,8.621a2.686,2.686,0,0,1-2.658,2.252H25.05c-.064,0-.127-.01-.192-.01h-.847v.01H21.366l-2.781,3.856A.336.336,0,0,1,18,21.677V18H14.129a2.686,2.686,0,0,1-2.658-2.251ZM5,47a3,3,0,0,1,0-6H6v6Zm1-9v1H5a4.934,4.934,0,0,0-2.228.548A13.016,13.016,0,0,1,2,35.143,15.179,15.179,0,0,1,16,20.061v1.617a2.323,2.323,0,0,0,4.207,1.358l2.182-3.026h2.662A15.154,15.154,0,0,1,40,35.143a13.046,13.046,0,0,1-.771,4.406A4.926,4.926,0,0,0,37,39H36V36A10.011,10.011,0,0,0,26,26v2a8.009,8.009,0,0,1,8,8v.586l-1.657-1.657A9.934,9.934,0,0,0,25.272,32H14a2,2,0,0,1,0-4h2V26H14a3.988,3.988,0,0,0-3.357,6.16A6.008,6.008,0,0,0,6,38ZM23,60H19A11.013,11.013,0,0,1,8,49V38a4,4,0,0,1,4-4H25.272a7.948,7.948,0,0,1,5.657,2.343L34,39.414V49A11.013,11.013,0,0,1,23,60ZM37,47H36V41h1a3,3,0,0,1,0,6Zm19-9H41.714A15.1,15.1,0,0,0,42,35.143a17.1,17.1,0,0,0-6-13V6H56Zm4-4H58V4H40V2H60Z"/>
        <path id="Trazado_1031171" data-name="Trazado 1031171" d="M44,36H54V28H44Zm2-6h6v4H46Z"/>
        <path id="Trazado_1031172" data-name="Trazado 1031172" d="M38,8h4v2H38Z"/>
        <path id="Trazado_1031173" data-name="Trazado 1031173" d="M44,8H54v2H44Z"/>
        <path id="Trazado_1031174" data-name="Trazado 1031174" d="M38,12H54v2H38Z"/>
        <path id="Trazado_1031175" data-name="Trazado 1031175" d="M38,16h2v2H38Z"/>
        <path id="Trazado_1031176" data-name="Trazado 1031176" d="M42,16h4v2H42Z"/>
        <path id="Trazado_1031177" data-name="Trazado 1031177" d="M48,16h6v2H48Z"/>
        <path id="Trazado_1031178" data-name="Trazado 1031178" d="M38,20H54v2H38Z"/>
        <path id="Trazado_1031179" data-name="Trazado 1031179" d="M52,24h2v2H52Z"/>
        <path id="Trazado_1031180" data-name="Trazado 1031180" d="M48,24h2v2H48Z"/>
        <path id="Trazado_1031181" data-name="Trazado 1031181" d="M44,24h2v2H44Z"/>
      </g>
    </g>
  </g>
</svg>
