<svg xmlns="http://www.w3.org/2000/svg" xmlns:xlink="http://www.w3.org/1999/xlink" width="110" height="110" viewBox="0 0 110 110">
  <defs>
    <filter id="Trazado_982547" x="0" y="0" width="110" height="110" filterUnits="userSpaceOnUse">
      <feOffset dy="3" input="SourceAlpha"/>
      <feGaussianBlur stdDeviation="3" result="blur"/>
      <feFlood flood-opacity="0.161"/>
      <feComposite operator="in" in2="blur"/>
      <feComposite in="SourceGraphic"/>
    </filter>
  </defs>
  <g id="Grupo_1173966" data-name="Grupo 1173966" transform="translate(740 -7100.89)">
    <g id="Grupo_1173214" data-name="Grupo 1173214" transform="translate(-731 7106.89)">
      <g id="Grupo_1171898" data-name="Grupo 1171898" transform="translate(0 0)">
        <g id="Grupo_1164700" data-name="Grupo 1164700" transform="translate(0 0)">
          <g id="Grupo_1160931" data-name="Grupo 1160931" transform="translate(0 0)">
            <g id="Grupo_1160749" data-name="Grupo 1160749" transform="translate(0 0)">
              <g id="Grupo_1158891" data-name="Grupo 1158891" transform="translate(0 0)">
                <g id="Grupo_1157406" data-name="Grupo 1157406" transform="translate(0 0)">
                  <g id="Grupo_1155793" data-name="Grupo 1155793">
                    <g id="Grupo_1154704" data-name="Grupo 1154704">
                      <g id="Grupo_1150790" data-name="Grupo 1150790">
                        <g id="Grupo_1154214" data-name="Grupo 1154214">
                          <g id="Grupo_1152583" data-name="Grupo 1152583">
                            <g id="Grupo_1146973" data-name="Grupo 1146973">
                              <g id="Grupo_1146954" data-name="Grupo 1146954">
                                <g transform="matrix(1, 0, 0, 1, -9, -6)" filter="url(#Trazado_982547)">
                                  <g id="Trazado_982547-2" data-name="Trazado 982547" transform="translate(9 6)" fill="#e9f9fd">
                                    <path d="M 46.0000114440918 90.49988555908203 C 39.99188995361328 90.49988555908203 34.16427993774414 89.32352447509766 28.6790657043457 87.00347137451172 C 23.38021087646484 84.76226043701172 18.62105178833008 81.55342864990234 14.53375816345215 77.46615600585938 C 10.44647789001465 73.37887573242188 7.237651348114014 68.61971282958984 4.996424674987793 63.32085800170898 C 2.676371335983276 57.83565902709961 1.500011444091797 52.00806045532227 1.500011444091797 45.99993896484375 C 1.500011444091797 39.99181747436523 2.676371335983276 34.16421890258789 4.996424674987793 28.67901802062988 C 7.237651348114014 23.38017845153809 10.44647789001465 18.62101936340332 14.53375816345215 14.53373908996582 C 18.62105178833008 10.44645881652832 23.38021087646484 7.237632274627686 28.6790657043457 4.996418952941895 C 34.16427993774414 2.676365613937378 39.99188995361328 1.500005602836609 46.0000114440918 1.500005602836609 C 52.00813293457031 1.500005602836609 57.83574295043945 2.676365613937378 63.32095718383789 4.996418952941895 C 68.61981201171875 7.237632274627686 73.37898254394531 10.44645881652832 77.46626281738281 14.53373908996582 C 81.55355834960938 18.62101936340332 84.76237487792969 23.38017845153809 87.00360107421875 28.67901802062988 C 89.32365417480469 34.16421890258789 90.50001525878906 39.99181747436523 90.50001525878906 45.99993896484375 C 90.50001525878906 52.00806045532227 89.32365417480469 57.83565902709961 87.00360107421875 63.32085800170898 C 84.76237487792969 68.61971282958984 81.55355834960938 73.37887573242188 77.46626281738281 77.46615600585938 C 73.37898254394531 81.55342864990234 68.61981201171875 84.76226043701172 63.32095718383789 87.00347137451172 C 57.83574295043945 89.32352447509766 52.00813293457031 90.49988555908203 46.0000114440918 90.49988555908203 Z" stroke="none"/>
                                    <path d="M 46.0000114440918 2.999992370605469 C 40.1937255859375 2.999992370605469 34.56270980834961 4.136497497558594 29.26339721679688 6.377906799316406 C 24.14334106445312 8.543510437011719 19.54442596435547 11.64437866210938 15.59441375732422 15.59439849853516 C 11.6444091796875 19.54439544677734 8.543525695800781 24.14329528808594 6.377922058105469 29.26335144042969 C 4.136512756347656 34.56266784667969 3.000007629394531 40.19366836547852 3.000007629394531 45.99993896484375 C 3.000007629394531 51.80620956420898 4.136512756347656 57.43722534179688 6.377922058105469 62.73654174804688 C 8.543525695800781 67.85658264160156 11.6444091796875 72.45548248291016 15.59441375732422 76.40549468994141 C 19.54442596435547 80.35549926757812 24.14334106445312 83.45636749267578 29.26338195800781 85.62196350097656 C 34.56270980834961 87.86338043212891 40.1937255859375 88.9998779296875 46.0000114440918 88.9998779296875 C 51.80629730224609 88.9998779296875 57.43731307983398 87.86338043212891 62.73664093017578 85.62196350097656 C 67.85668182373047 83.45636749267578 72.45559692382812 80.35549926757812 76.40560913085938 76.40549468994141 C 80.35561370849609 72.45548248291016 83.45649719238281 67.85658264160156 85.62210083007812 62.73654174804688 C 87.86351013183594 57.43722534179688 89.00001525878906 51.80620956420898 89.00001525878906 45.99993896484375 C 89.00001525878906 40.19366836547852 87.86351013183594 34.56266784667969 85.62210083007812 29.26335144042969 C 83.45649719238281 24.14329528808594 80.35561370849609 19.54439544677734 76.40560913085938 15.59439849853516 C 72.45559692382812 11.64437866210938 67.85668182373047 8.543510437011719 62.73662567138672 6.377906799316406 C 57.43731307983398 4.136497497558594 51.80629730224609 2.999992370605469 46.0000114440918 2.999992370605469 M 46.0000114440918 -7.62939453125e-06 C 71.40511322021484 -7.62939453125e-06 92.00001525878906 20.59487915039062 92.00001525878906 45.99993896484375 C 92.00001525878906 71.40501403808594 71.40511322021484 91.99988555908203 46.0000114440918 91.99988555908203 C 20.59490966796875 91.99988555908203 7.62939453125e-06 71.40501403808594 7.62939453125e-06 45.99993896484375 C 7.62939453125e-06 20.59487915039062 20.59490966796875 -7.62939453125e-06 46.0000114440918 -7.62939453125e-06 Z" stroke="none" fill="#36ceef"/>
                                  </g>
                                </g>
                              </g>
                            </g>
                          </g>
                        </g>
                      </g>
                    </g>
                  </g>
                </g>
              </g>
            </g>
          </g>
        </g>
      </g>
    </g>
    <g id="maintenance_6900549" transform="translate(-1103.799 7023.436)">
      <g id="Layer2" transform="translate(385.45 97.578)">
        <path id="Trazado_1031182" data-name="Trazado 1031182" d="M440.636,134.463a23.842,23.842,0,1,1-2.148-15.984c.277.535.537,1.083.775,1.639a1.211,1.211,0,1,0,2.227-.951c-.262-.614-.548-1.215-.854-1.8a26.257,26.257,0,1,0,2.647,16.072v-.2a1.2,1.2,0,0,0-1.195-1.195h-1.276l3.752-5.523,4.115,5.413-1.063.117a1.211,1.211,0,0,0-1.069,1.056,29.422,29.422,0,1,1-1.307-13.075,1.21,1.21,0,1,0,2.293-.775,31.9,31.9,0,1,0,1.285,15.1l2.251-.246a1.21,1.21,0,0,0,.832-1.936l-6.43-8.454a1.21,1.21,0,0,0-1.965.053l-5.979,8.8a1.211,1.211,0,0,0,1,1.89Zm-23.869,2.286,1.083,1.083a.928.928,0,0,0,.7.315,1.8,1.8,0,0,0,.449-.132c.187-.077.713-.33.915-.125.264.264-.059.962-.086,1A1.007,1.007,0,0,0,420.02,140c6.588,6.529,6.591,6.533,6.67,6.6a4.629,4.629,0,0,0,6.3-6.778l-6.414-6.414a1.344,1.344,0,0,0-.565-.414.812.812,0,0,0-.607.163c-.268.185-.654.436-.935.156-.233-.235-.156-.634.158-.948a.561.561,0,0,0,.176-.515,1.521,1.521,0,0,0-.427-.643l-1.034-1.034,3.384-3.384a7.107,7.107,0,0,0,7.37-8.965,1.1,1.1,0,0,0-1.833-.5l-3.653,3.582-1.829-.524-.464-1.857,3.758-3.688a1.1,1.1,0,0,0-.394-1.818,7.11,7.11,0,0,0-9.469,7.757L407.4,133.6a7.108,7.108,0,1,0,6.01,6.514Zm-6.978.4a4.908,4.908,0,1,1-6.94,0A4.91,4.91,0,0,1,409.79,137.15Zm22.234,5.2a2.428,2.428,0,0,1-3.048,3.065Zm-29.454-3.081a1.1,1.1,0,0,0-.227,1.076l.931,2.847a1.1,1.1,0,0,0,.819.735l2.931.618a1.1,1.1,0,0,0,1.045-.341l2-2.231a1.1,1.1,0,0,0,.229-1.076l-.931-2.847a1.1,1.1,0,0,0-.819-.735l-2.933-.618a1.1,1.1,0,0,0-1.045.343Zm19.213-7.535.678.678-.053.121a2.139,2.139,0,0,0,2.867,2.834l.1-.044,5.283,5.286-3.459,3.457-5.272-5.272.044-.095a2.138,2.138,0,0,0-2.832-2.867l-.123.053-.689-.691Zm-17.151,8.531,1.153-1.285,1.688.357.535,1.639-1.151,1.285-1.688-.357Zm19.129-1.732,2.845,2.843a1.1,1.1,0,1,0,1.556-1.556l-2.845-2.845a1.1,1.1,0,1,0-1.556,1.558Zm-1.551-13.8a7.1,7.1,0,0,1-1.215-1.617l-11.267,11.267a7.135,7.135,0,0,1,3.043,3.252l11.476-11.476A7.07,7.07,0,0,1,422.209,124.732Zm-2.143.689-7.783,7.781a1.1,1.1,0,1,0,1.556,1.556l7.783-7.781a1.1,1.1,0,1,0-1.556-1.556Zm-15.238-3.156,5.673,5.673a1.1,1.1,0,0,0,1.558,0l2.493-2.5a1.1,1.1,0,0,0,0-1.556l-5.673-5.673-1.589-2.957a1.113,1.113,0,0,0-.427-.436l-3.655-2.079a1.1,1.1,0,0,0-1.32.178l-2.352,2.352a1.1,1.1,0,0,0-.178,1.323l2.077,3.655a1.093,1.093,0,0,0,.436.425Zm2.22-.893.94-.937,4.232,4.232-.94.937Zm19.923-6.566-2.647,2.6a1.1,1.1,0,0,0-.3,1.052l.768,3.085a1.109,1.109,0,0,0,.766.792l3.056.876a1.1,1.1,0,0,0,1.072-.273l2.37-2.322a4.908,4.908,0,1,1-5.088-5.809Zm-25.288,1.43,1.166-1.166,2.652,1.507,1.129,2.1-1.338,1.338-2.1-1.129Z" transform="translate(-385.45 -97.578)" fill-rule="evenodd"/>
        <path id="Trazado_1031183" data-name="Trazado 1031183" d="M440.266,118.322h3.519a29.482,29.482,0,1,0,1.441,13.463,1.211,1.211,0,0,1,1.069-1.056l1.063-.117-4.115-5.413-3.752,5.523h1.276a1.2,1.2,0,0,1,1.195,1.195v.2a26.26,26.26,0,1,1-2.647-16.072c.306.59.592,1.19.854,1.8A1.216,1.216,0,0,1,440.266,118.322Z" transform="translate(-384.129 -96.257)" fill="#0377bc" fill-rule="evenodd"/>
        <path id="Trazado_1031184" data-name="Trazado 1031184" d="M414.089,123.715a2.428,2.428,0,0,1-3.048,3.065ZM403.848,113.1l.678.678-.053.121a2.139,2.139,0,0,0,2.867,2.834l.1-.044,5.283,5.286-3.459,3.457-5.272-5.272.044-.095A2.138,2.138,0,0,0,401.2,117.2l-.123.053-.689-.691Zm1.978,6.8,2.845,2.843a1.1,1.1,0,1,0,1.556-1.556l-2.845-2.845a1.1,1.1,0,0,0-1.556,1.558Z" transform="translate(-367.516 -78.944)" fill="#ff9801" fill-rule="evenodd"/>
        <path id="Trazado_1031185" data-name="Trazado 1031185" d="M401.081,127.751a4.908,4.908,0,1,1-6.94,0A4.91,4.91,0,0,1,401.081,127.751Zm-7.22,2.119a1.1,1.1,0,0,0-.227,1.076l.931,2.847a1.1,1.1,0,0,0,.819.735l2.931.618a1.1,1.1,0,0,0,1.045-.341l2-2.231a1.1,1.1,0,0,0,.229-1.076l-.931-2.847a1.1,1.1,0,0,0-.819-.735l-2.933-.618a1.1,1.1,0,0,0-1.045.343ZM413.5,115.333a7.1,7.1,0,0,1-1.215-1.617l-11.267,11.267a7.135,7.135,0,0,1,3.043,3.252l11.476-11.476A7.07,7.07,0,0,1,413.5,115.333Zm-2.143.689-7.783,7.781a1.1,1.1,0,1,0,1.556,1.556l7.783-7.781a1.1,1.1,0,0,0-1.556-1.556Zm-13.018-4.049.94-.937,4.232,4.232-.94.937Zm19.923-6.566-2.647,2.6a1.1,1.1,0,0,0-.3,1.052l.768,3.085a1.109,1.109,0,0,0,.766.792l3.056.876a1.1,1.1,0,0,0,1.072-.273l2.37-2.322a4.908,4.908,0,1,1-5.088-5.809Zm-25.288,1.43,1.166-1.166,2.652,1.507,1.129,2.1-1.338,1.338-2.1-1.129Z" transform="translate(-376.741 -88.179)" fill="#9e9e9e" fill-rule="evenodd"/>
      </g>
    </g>
  </g>
</svg>
