<svg xmlns="http://www.w3.org/2000/svg" xmlns:xlink="http://www.w3.org/1999/xlink" width="110" height="110" viewBox="0 0 110 110">
  <defs>
    <filter id="Trazado_982547" x="0" y="0" width="110" height="110" filterUnits="userSpaceOnUse">
      <feOffset dy="3" input="SourceAlpha"/>
      <feGaussianBlur stdDeviation="3" result="blur"/>
      <feFlood flood-opacity="0.161"/>
      <feComposite operator="in" in2="blur"/>
      <feComposite in="SourceGraphic"/>
    </filter>
  </defs>
  <g id="Grupo_1173968" data-name="Grupo 1173968" transform="translate(1393 -7515.89)">
    <g id="Grupo_1173215" data-name="Grupo 1173215" transform="translate(-1384 7521.89)">
      <g id="Grupo_1171898" data-name="Grupo 1171898" transform="translate(0 0)">
        <g id="Grupo_1164700" data-name="Grupo 1164700" transform="translate(0 0)">
          <g id="Grupo_1160931" data-name="Grupo 1160931" transform="translate(0 0)">
            <g id="Grupo_1160749" data-name="Grupo 1160749" transform="translate(0 0)">
              <g id="Grupo_1158891" data-name="Grupo 1158891" transform="translate(0 0)">
                <g id="Grupo_1157406" data-name="Grupo 1157406" transform="translate(0 0)">
                  <g id="Grupo_1155793" data-name="Grupo 1155793">
                    <g id="Grupo_1154704" data-name="Grupo 1154704">
                      <g id="Grupo_1150790" data-name="Grupo 1150790">
                        <g id="Grupo_1154214" data-name="Grupo 1154214">
                          <g id="Grupo_1152583" data-name="Grupo 1152583">
                            <g id="Grupo_1146973" data-name="Grupo 1146973">
                              <g id="Grupo_1146954" data-name="Grupo 1146954">
                                <g transform="matrix(1, 0, 0, 1, -9, -6)" filter="url(#Trazado_982547)">
                                  <g id="Trazado_982547-2" data-name="Trazado 982547" transform="translate(9 6)" fill="#e9f9fd">
                                    <path d="M 46.0000114440918 90.49988555908203 C 39.99188995361328 90.49988555908203 34.16427993774414 89.32352447509766 28.6790657043457 87.00347137451172 C 23.38021087646484 84.76226043701172 18.62105178833008 81.55342864990234 14.53375816345215 77.46615600585938 C 10.44647789001465 73.37887573242188 7.237651348114014 68.61971282958984 4.996424674987793 63.32085800170898 C 2.676371335983276 57.83565902709961 1.500011444091797 52.00806045532227 1.500011444091797 45.99993896484375 C 1.500011444091797 39.99181747436523 2.676371335983276 34.16421890258789 4.996424674987793 28.67901802062988 C 7.237651348114014 23.38017845153809 10.44647789001465 18.62101936340332 14.53375816345215 14.53373908996582 C 18.62105178833008 10.44645881652832 23.38021087646484 7.237632274627686 28.6790657043457 4.996418952941895 C 34.16427993774414 2.676365613937378 39.99188995361328 1.500005602836609 46.0000114440918 1.500005602836609 C 52.00813293457031 1.500005602836609 57.83574295043945 2.676365613937378 63.32095718383789 4.996418952941895 C 68.61981201171875 7.237632274627686 73.37898254394531 10.44645881652832 77.46626281738281 14.53373908996582 C 81.55355834960938 18.62101936340332 84.76237487792969 23.38017845153809 87.00360107421875 28.67901802062988 C 89.32365417480469 34.16421890258789 90.50001525878906 39.99181747436523 90.50001525878906 45.99993896484375 C 90.50001525878906 52.00806045532227 89.32365417480469 57.83565902709961 87.00360107421875 63.32085800170898 C 84.76237487792969 68.61971282958984 81.55355834960938 73.37887573242188 77.46626281738281 77.46615600585938 C 73.37898254394531 81.55342864990234 68.61981201171875 84.76226043701172 63.32095718383789 87.00347137451172 C 57.83574295043945 89.32352447509766 52.00813293457031 90.49988555908203 46.0000114440918 90.49988555908203 Z" stroke="none"/>
                                    <path d="M 46.0000114440918 2.999992370605469 C 40.1937255859375 2.999992370605469 34.56270980834961 4.136497497558594 29.26339721679688 6.377906799316406 C 24.14334106445312 8.543510437011719 19.54442596435547 11.64437866210938 15.59441375732422 15.59439849853516 C 11.6444091796875 19.54439544677734 8.543525695800781 24.14329528808594 6.377922058105469 29.26335144042969 C 4.136512756347656 34.56266784667969 3.000007629394531 40.19366836547852 3.000007629394531 45.99993896484375 C 3.000007629394531 51.80620956420898 4.136512756347656 57.43722534179688 6.377922058105469 62.73654174804688 C 8.543525695800781 67.85658264160156 11.6444091796875 72.45548248291016 15.59441375732422 76.40549468994141 C 19.54442596435547 80.35549926757812 24.14334106445312 83.45636749267578 29.26338195800781 85.62196350097656 C 34.56270980834961 87.86338043212891 40.1937255859375 88.9998779296875 46.0000114440918 88.9998779296875 C 51.80629730224609 88.9998779296875 57.43731307983398 87.86338043212891 62.73664093017578 85.62196350097656 C 67.85668182373047 83.45636749267578 72.45559692382812 80.35549926757812 76.40560913085938 76.40549468994141 C 80.35561370849609 72.45548248291016 83.45649719238281 67.85658264160156 85.62210083007812 62.73654174804688 C 87.86351013183594 57.43722534179688 89.00001525878906 51.80620956420898 89.00001525878906 45.99993896484375 C 89.00001525878906 40.19366836547852 87.86351013183594 34.56266784667969 85.62210083007812 29.26335144042969 C 83.45649719238281 24.14329528808594 80.35561370849609 19.54439544677734 76.40560913085938 15.59439849853516 C 72.45559692382812 11.64437866210938 67.85668182373047 8.543510437011719 62.73662567138672 6.377906799316406 C 57.43731307983398 4.136497497558594 51.80629730224609 2.999992370605469 46.0000114440918 2.999992370605469 M 46.0000114440918 -7.62939453125e-06 C 71.40511322021484 -7.62939453125e-06 92.00001525878906 20.59487915039062 92.00001525878906 45.99993896484375 C 92.00001525878906 71.40501403808594 71.40511322021484 91.99988555908203 46.0000114440918 91.99988555908203 C 20.59490966796875 91.99988555908203 7.62939453125e-06 71.40501403808594 7.62939453125e-06 45.99993896484375 C 7.62939453125e-06 20.59487915039062 20.59490966796875 -7.62939453125e-06 46.0000114440918 -7.62939453125e-06 Z" stroke="none" fill="#36ceef"/>
                                  </g>
                                </g>
                              </g>
                            </g>
                          </g>
                        </g>
                      </g>
                    </g>
                  </g>
                </g>
              </g>
            </g>
          </g>
        </g>
      </g>
    </g>
    <g id="human-resources_3186915" transform="translate(-1370 7536)">
      <path id="Trazado_1031186" data-name="Trazado 1031186" d="M24,42H20l-3,5-3-5H10a8,8,0,0,0-8,8v6H8v6H26V56h6V50A8,8,0,0,0,24,42Z" fill="#50bcf7"/>
      <path id="Trazado_1031187" data-name="Trazado 1031187" d="M24,42H20l-3,5-3-5H10a8,8,0,0,0-8,8v6H8v3.95c.333.016.662.05,1,.05A19.991,19.991,0,0,0,28.672,43.515,7.956,7.956,0,0,0,24,42Z" fill="#6dc8f8"/>
      <path id="Trazado_1031188" data-name="Trazado 1031188" d="M25,27v4.24A7.76,7.76,0,0,1,17.24,39h-.2A8.011,8.011,0,0,1,9,31V27h1.528A7.237,7.237,0,0,0,17,23a7.237,7.237,0,0,0,6.472,4Z" fill="#f9dab0"/>
      <path id="Trazado_1031189" data-name="Trazado 1031189" d="M20.292,15H13.708A6.707,6.707,0,0,0,7.48,24.2L9,28V27h1.528A7.237,7.237,0,0,0,17,23a7.237,7.237,0,0,0,6.472,4H25v1l1.52-3.8A6.707,6.707,0,0,0,20.292,15Z" fill="#b3b3b3"/>
      <g id="Grupo_1173967" data-name="Grupo 1173967">
        <path id="Trazado_1031190" data-name="Trazado 1031190" d="M4,56H8v6H4Z" fill="#f9dab0"/>
        <path id="Trazado_1031191" data-name="Trazado 1031191" d="M26,56h4v6H26Z" fill="#f9dab0"/>
        <path id="Trazado_1031192" data-name="Trazado 1031192" d="M17.24,39h-.2A8.069,8.069,0,0,1,14,38.405L14,42l3,5,3-5V38.486A7.733,7.733,0,0,1,17.24,39Z" fill="#f9dab0"/>
        <path id="Trazado_1031193" data-name="Trazado 1031193" d="M9,31V28H7a2,2,0,0,0,0,4H9.07A7.893,7.893,0,0,1,9,31Z" fill="#f9dab0"/>
        <path id="Trazado_1031194" data-name="Trazado 1031194" d="M27,28H25v3.24c0,.256-.014.51-.038.76H27a2,2,0,0,0,0-4Z" fill="#f9dab0"/>
      </g>
      <path id="Trazado_1031195" data-name="Trazado 1031195" d="M54,42H50l-3,5-3-5H40a8,8,0,0,0-8,8v6h6v6H56V56h6V50A8,8,0,0,0,54,42Z" fill="#50bcf7"/>
      <path id="Trazado_1031196" data-name="Trazado 1031196" d="M54,42H50l-3,5-3-5H40a8,8,0,0,0-8,8v6h6v3.95c.333.016.662.05,1,.05A19.991,19.991,0,0,0,58.672,43.515,7.956,7.956,0,0,0,54,42Z" fill="#6dc8f8"/>
      <path id="Trazado_1031197" data-name="Trazado 1031197" d="M55,27v4.24A7.76,7.76,0,0,1,47.24,39h-.2A8.011,8.011,0,0,1,39,31V27h1.528A7.237,7.237,0,0,0,47,23a7.237,7.237,0,0,0,6.472,4Z" fill="#f9dab0"/>
      <path id="Trazado_1031198" data-name="Trazado 1031198" d="M50.292,15H43.708a6.707,6.707,0,0,0-6.228,9.2L39,28V27h1.528A7.237,7.237,0,0,0,47,23a7.237,7.237,0,0,0,6.472,4H55v1l1.52-3.8A6.707,6.707,0,0,0,50.292,15Z" fill="#b3b3b3"/>
      <path id="Trazado_1031199" data-name="Trazado 1031199" d="M34,56h4v6H34Z" fill="#f9dab0"/>
      <path id="Trazado_1031200" data-name="Trazado 1031200" d="M56,56h4v6H56Z" fill="#f9dab0"/>
      <circle id="Elipse_11856" data-name="Elipse 11856" cx="11" cy="11" r="11" transform="translate(21 2)" fill="#a3d165"/>
      <path id="Trazado_1031201" data-name="Trazado 1031201" d="M41,8a11.479,11.479,0,0,0-.1-1.443A10.992,10.992,0,1,0,24.379,20.921c.533.05,1.073.079,1.621.079,8.284,0,15-5.82,15-13Z" fill="#b5da84"/>
      <path id="Trazado_1031202" data-name="Trazado 1031202" d="M47.24,39h-.2A8.069,8.069,0,0,1,44,38.405L44,42l3,5,3-5V38.486A7.733,7.733,0,0,1,47.24,39Z" fill="#f9dab0"/>
      <path id="Trazado_1031203" data-name="Trazado 1031203" d="M39,31V28H37a2,2,0,0,0,0,4h2.07A7.893,7.893,0,0,1,39,31Z" fill="#f9dab0"/>
      <path id="Trazado_1031204" data-name="Trazado 1031204" d="M57,28H55v3.24c0,.256-.014.51-.038.76H57a2,2,0,0,0,0-4Z" fill="#f9dab0"/>
      <path id="Trazado_1031205" data-name="Trazado 1031205" d="M54,41H51V39.14A8.783,8.783,0,0,0,55.822,33H57a3,3,0,0,0,0-6h-.523l.971-2.429A7.707,7.707,0,0,0,50.292,14H43.949c.028-.331.051-.662.051-1a12,12,0,1,0-24,0c0,.338.023.669.051,1H13.708A7.709,7.709,0,0,0,6.551,24.571L7.523,27H7a3,3,0,0,0,0,6H8.233A9.032,9.032,0,0,0,13,39.04V41H10a9.011,9.011,0,0,0-9,9v6a1,1,0,0,0,1,1H3v5a1,1,0,0,0,1,1H30a1,1,0,0,0,1-1V57h2v5a1,1,0,0,0,1,1H60a1,1,0,0,0,1-1V57h1a1,1,0,0,0,1-1V50a9.011,9.011,0,0,0-9-9ZM43,41H40a9,9,0,0,0-8,4.9A9,9,0,0,0,24,41H21V39.14A8.783,8.783,0,0,0,25.822,33H27a3,3,0,0,0,0-6h-.523l.971-2.429c.055-.137.1-.279.146-.42a11.859,11.859,0,0,0,8.815,0c.047.14.087.284.142.421L37.523,27H37a3,3,0,0,0,0,6h1.233A9.032,9.032,0,0,0,43,39.04ZM27,29a1,1,0,0,1,0,2H26V29Zm11,2H37a1,1,0,0,1,0-2h1Zm7,8.76a9.016,9.016,0,0,0,2.039.24h.2A8.727,8.727,0,0,0,49,39.822v1.9l-2,3.333-2-3.333Zm9-8.52A6.768,6.768,0,0,1,47.24,38h-.2A7.03,7.03,0,0,1,40,31V28h.528A8.182,8.182,0,0,0,47,24.862,8.182,8.182,0,0,0,53.472,28H54ZM57,29a1,1,0,0,1,0,2H56V29ZM43.708,16h6.584a5.707,5.707,0,0,1,5.3,7.828L54.723,26H53.472A6.2,6.2,0,0,1,47.9,22.553a1.042,1.042,0,0,0-1.79,0A6.2,6.2,0,0,1,40.528,26H39.277l-.869-2.172a5.58,5.58,0,0,1-.2-.581A12.027,12.027,0,0,0,43.6,16.005c.039,0,.073,0,.108,0ZM32,3A10,10,0,1,1,22,13,10,10,0,0,1,32,3ZM13.708,16h6.584c.035,0,.069.006.1.007a12.023,12.023,0,0,0,5.37,7.227,5.642,5.642,0,0,1-.176.594L24.723,26H23.472A6.2,6.2,0,0,1,17.9,22.553a1.042,1.042,0,0,0-1.79,0A6.2,6.2,0,0,1,10.528,26H9.277l-.869-2.172A5.709,5.709,0,0,1,13.708,16ZM7,31a1,1,0,0,1,0-2H8v2Zm3,0V28h.528A8.182,8.182,0,0,0,17,24.862,8.182,8.182,0,0,0,23.472,28H24v3.24A6.768,6.768,0,0,1,17.24,38h-.2A7.03,7.03,0,0,1,10,31Zm7.039,9h.2A8.727,8.727,0,0,0,19,39.822v1.9l-2,3.333-2-3.333V39.76a9.016,9.016,0,0,0,2.039.24ZM3,50a7.008,7.008,0,0,1,7-7h3.434l2.709,4.515a1,1,0,0,0,1.714,0L20.566,43H24a7.008,7.008,0,0,1,7,7v5H27V50H25V61H9V50H7v5H3Zm2,7H7v4H5Zm24,4H27V57h2Zm6-4h2v4H35Zm24,4H57V57h2Zm2-6H57V50H55V61H39V50H37v5H33V50a7.008,7.008,0,0,1,7-7h3.434l2.709,4.515a1,1,0,0,0,1.714,0L50.566,43H54a7.008,7.008,0,0,1,7,7Z"/>
      <path id="Trazado_1031206" data-name="Trazado 1031206" d="M31,18h.052a1,1,0,0,0,.8-.484l6-10-1.714-1.03-5.23,8.724L28.8,12.4l-1.6,1.2,3,4a1,1,0,0,0,.8.4Z"/>
    </g>
  </g>
</svg>
