<svg xmlns="http://www.w3.org/2000/svg" xmlns:xlink="http://www.w3.org/1999/xlink" width="110" height="110" viewBox="0 0 110 110">
  <defs>
    <filter id="Trazado_982547" x="0" y="0" width="110" height="110" filterUnits="userSpaceOnUse">
      <feOffset dy="3" input="SourceAlpha"/>
      <feGaussianBlur stdDeviation="3" result="blur"/>
      <feFlood flood-opacity="0.161"/>
      <feComposite operator="in" in2="blur"/>
      <feComposite in="SourceGraphic"/>
    </filter>
  </defs>
  <g id="Grupo_1173986" data-name="Grupo 1173986" transform="translate(-798.608 -8548.391)">
    <g id="Grupo_1173222" data-name="Grupo 1173222" transform="translate(807.608 8554.391)">
      <g id="Grupo_1171898" data-name="Grupo 1171898" transform="translate(0 0)">
        <g id="Grupo_1164700" data-name="Grupo 1164700" transform="translate(0 0)">
          <g id="Grupo_1160931" data-name="Grupo 1160931">
            <g id="Grupo_1160749" data-name="Grupo 1160749">
              <g id="Grupo_1158891" data-name="Grupo 1158891">
                <g id="Grupo_1157406" data-name="Grupo 1157406">
                  <g id="Grupo_1155793" data-name="Grupo 1155793">
                    <g id="Grupo_1154704" data-name="Grupo 1154704">
                      <g id="Grupo_1150790" data-name="Grupo 1150790">
                        <g id="Grupo_1154214" data-name="Grupo 1154214">
                          <g id="Grupo_1152583" data-name="Grupo 1152583">
                            <g id="Grupo_1146973" data-name="Grupo 1146973">
                              <g id="Grupo_1146954" data-name="Grupo 1146954">
                                <g transform="matrix(1, 0, 0, 1, -9, -6)" filter="url(#Trazado_982547)">
                                  <g id="Trazado_982547-2" data-name="Trazado 982547" transform="translate(9 6)" fill="#e9f9fd">
                                    <path d="M 46.0000114440918 90.49988555908203 C 39.99188995361328 90.49988555908203 34.16427993774414 89.32352447509766 28.6790657043457 87.00347137451172 C 23.38021087646484 84.76226043701172 18.62105178833008 81.55342864990234 14.53375816345215 77.46615600585938 C 10.44647789001465 73.37887573242188 7.237651348114014 68.61971282958984 4.996424674987793 63.32085800170898 C 2.676371335983276 57.83565902709961 1.500011444091797 52.00806045532227 1.500011444091797 45.99993896484375 C 1.500011444091797 39.99181747436523 2.676371335983276 34.16421890258789 4.996424674987793 28.67901802062988 C 7.237651348114014 23.38017845153809 10.44647789001465 18.62101936340332 14.53375816345215 14.53373908996582 C 18.62105178833008 10.44645881652832 23.38021087646484 7.237632274627686 28.6790657043457 4.996418952941895 C 34.16427993774414 2.676365613937378 39.99188995361328 1.500005602836609 46.0000114440918 1.500005602836609 C 52.00813293457031 1.500005602836609 57.83574295043945 2.676365613937378 63.32095718383789 4.996418952941895 C 68.61981201171875 7.237632274627686 73.37898254394531 10.44645881652832 77.46626281738281 14.53373908996582 C 81.55355834960938 18.62101936340332 84.76237487792969 23.38017845153809 87.00360107421875 28.67901802062988 C 89.32365417480469 34.16421890258789 90.50001525878906 39.99181747436523 90.50001525878906 45.99993896484375 C 90.50001525878906 52.00806045532227 89.32365417480469 57.83565902709961 87.00360107421875 63.32085800170898 C 84.76237487792969 68.61971282958984 81.55355834960938 73.37887573242188 77.46626281738281 77.46615600585938 C 73.37898254394531 81.55342864990234 68.61981201171875 84.76226043701172 63.32095718383789 87.00347137451172 C 57.83574295043945 89.32352447509766 52.00813293457031 90.49988555908203 46.0000114440918 90.49988555908203 Z" stroke="none"/>
                                    <path d="M 46.0000114440918 2.999992370605469 C 40.1937255859375 2.999992370605469 34.56270980834961 4.136497497558594 29.26339721679688 6.377906799316406 C 24.14334106445312 8.543510437011719 19.54442596435547 11.64437866210938 15.59441375732422 15.59439849853516 C 11.6444091796875 19.54439544677734 8.543525695800781 24.14329528808594 6.377922058105469 29.26335144042969 C 4.136512756347656 34.56266784667969 3.000007629394531 40.19366836547852 3.000007629394531 45.99993896484375 C 3.000007629394531 51.80620956420898 4.136512756347656 57.43722534179688 6.377922058105469 62.73654174804688 C 8.543525695800781 67.85658264160156 11.6444091796875 72.45548248291016 15.59441375732422 76.40549468994141 C 19.54442596435547 80.35549926757812 24.14334106445312 83.45636749267578 29.26338195800781 85.62196350097656 C 34.56270980834961 87.86338043212891 40.1937255859375 88.9998779296875 46.0000114440918 88.9998779296875 C 51.80629730224609 88.9998779296875 57.43731307983398 87.86338043212891 62.73664093017578 85.62196350097656 C 67.85668182373047 83.45636749267578 72.45559692382812 80.35549926757812 76.40560913085938 76.40549468994141 C 80.35561370849609 72.45548248291016 83.45649719238281 67.85658264160156 85.62210083007812 62.73654174804688 C 87.86351013183594 57.43722534179688 89.00001525878906 51.80620956420898 89.00001525878906 45.99993896484375 C 89.00001525878906 40.19366836547852 87.86351013183594 34.56266784667969 85.62210083007812 29.26335144042969 C 83.45649719238281 24.14329528808594 80.35561370849609 19.54439544677734 76.40560913085938 15.59439849853516 C 72.45559692382812 11.64437866210938 67.85668182373047 8.543510437011719 62.73662567138672 6.377906799316406 C 57.43731307983398 4.136497497558594 51.80629730224609 2.999992370605469 46.0000114440918 2.999992370605469 M 46.0000114440918 -7.62939453125e-06 C 71.40511322021484 -7.62939453125e-06 92.00001525878906 20.59487915039062 92.00001525878906 45.99993896484375 C 92.00001525878906 71.40501403808594 71.40511322021484 91.99988555908203 46.0000114440918 91.99988555908203 C 20.59490966796875 91.99988555908203 7.62939453125e-06 71.40501403808594 7.62939453125e-06 45.99993896484375 C 7.62939453125e-06 20.59487915039062 20.59490966796875 -7.62939453125e-06 46.0000114440918 -7.62939453125e-06 Z" stroke="none" fill="#36ceef"/>
                                  </g>
                                </g>
                              </g>
                            </g>
                          </g>
                        </g>
                      </g>
                    </g>
                  </g>
                </g>
              </g>
            </g>
          </g>
        </g>
      </g>
    </g>
    <g id="Layer_16" data-name="Layer 16" transform="translate(824.685 8570.442)">
      <rect id="Rect치ngulo_415065" data-name="Rect치ngulo 415065" width="24.769" height="17.692" transform="translate(8.961 16.038)" fill="#4d8c28"/>
      <path id="Trazado_1031236" data-name="Trazado 1031236" d="M48.577,14H39.731l-4.257,4.257A18.69,18.69,0,0,0,30,31.472h0a18.692,18.692,0,0,0,3.936,11.474h0a7.514,7.514,0,0,0,5.93,2.9h8.575a7.514,7.514,0,0,0,5.927-2.9h0a18.693,18.693,0,0,0,3.939-11.474h0a18.69,18.69,0,0,0-5.474-13.215Z" transform="translate(-3.346 -1.5)" fill="#f4a93c"/>
      <path id="Trazado_1031237" data-name="Trazado 1031237" d="M30,57.269l17.692-.885h0a5.957,5.957,0,0,0,4.43-1.973l5.561-6.178a2.437,2.437,0,0,0,.625-1.629v-.171A2.434,2.434,0,0,0,55.874,44h0a2.434,2.434,0,0,0-1.832.832l-5.47,4.616h0c0-.046.005-.093.005-.14h0a1.769,1.769,0,0,0-1.769-1.769H40.615a3.2,3.2,0,0,0-2.863-1.769H36.608a7.411,7.411,0,0,0-5.24,2.171h0A21.209,21.209,0,0,0,30,50.192Z" transform="translate(-3.346 -4.962)" fill="#fbe1ca"/>
      <path id="Trazado_1031238" data-name="Trazado 1031238" d="M29.637,39.692H14V22H31.312a18.686,18.686,0,0,0-3.158,10.4h0a18.681,18.681,0,0,0,1.484,7.3Z" transform="translate(-1.5 -2.423)" fill="#6bc13b"/>
      <path id="Trazado_1031239" data-name="Trazado 1031239" d="M29,36.615H20.654A2.654,2.654,0,0,0,18,33.961V28.654A2.654,2.654,0,0,0,20.654,26h9.264a18.691,18.691,0,0,0-1.3,6.857h0A18.654,18.654,0,0,0,29,36.618Z" transform="translate(-1.962 -2.885)" fill="#559b2d"/>
      <path id="Trazado_1031240" data-name="Trazado 1031240" d="M48.923,12.615,53.5,8.04A8.542,8.542,0,0,0,56,2H33a8.542,8.542,0,0,0,2.5,6.04l4.575,4.575Z" transform="translate(-3.693 -0.115)" fill="#f6b940"/>
      <circle id="Elipse_11859" data-name="Elipse 11859" cx="9.731" cy="9.731" r="9.731" transform="translate(31.077 19.577)" fill="#f9d266"/>
      <path id="Trazado_1031241" data-name="Trazado 1031241" d="M52.692,30.846a9.714,9.714,0,0,0-4.518-8.207,9.721,9.721,0,0,0-8.656,17.3,9.71,9.71,0,0,0,13.174-9.092Z" transform="translate(-3.923 -2.424)" fill="#fce797"/>
      <path id="Trazado_1031242" data-name="Trazado 1031242" d="M49.077,30.308v-.885a2.654,2.654,0,0,0-2.654-2.654V25H44.654v1.769A2.654,2.654,0,0,0,42,29.423v.885a2.654,2.654,0,0,0,2.654,2.654v2.654a.885.885,0,0,1-.885-.885v-.885H42v.885a2.654,2.654,0,0,0,2.654,2.654v1.769h1.769V37.385a2.654,2.654,0,0,0,2.654-2.654v-.885a2.654,2.654,0,0,0-2.654-2.654V28.538a.885.885,0,0,1,.885.885v.885Zm-1.769,3.538v.885a.885.885,0,0,1-.885.885V32.961A.885.885,0,0,1,47.308,33.846Zm-2.654-2.654a.885.885,0,0,1-.885-.885v-.885a.885.885,0,0,1,.885-.885Z" transform="translate(-4.731 -2.769)" fill="#f4a93c"/>
      <path id="Trazado_1031243" data-name="Trazado 1031243" d="M44.259,12.307A14.16,14.16,0,0,1,42.769,6H41a15.956,15.956,0,0,0,1.666,7.077h1.977Z" transform="translate(-4.616 -0.577)" fill="#f9d266"/>
      <path id="Trazado_1031244" data-name="Trazado 1031244" d="M46.882,13.077h1.977A15.956,15.956,0,0,0,50.525,6H48.756a14.16,14.16,0,0,1-1.49,6.307Z" transform="translate(-5.294 -0.577)" fill="#f9d266"/>
      <rect id="Rect치ngulo_415066" data-name="Rect치ngulo 415066" width="24.769" height="14.154" transform="translate(1.885 41.25)" fill="#3b5892"/>
      <path id="Trazado_1031245" data-name="Trazado 1031245" d="M23.231,54.9V46.5H2V56.673H21.461A1.769,1.769,0,0,0,23.231,54.9Z" transform="translate(-0.115 -5.25)" fill="#4c6cb5"/>
      <path id="Trazado_1031246" data-name="Trazado 1031246" d="M53.9,38.462a19.563,19.563,0,0,0-3.792-22.335L46.486,12.5l3.949-3.95a9.362,9.362,0,0,0,2.757-6.666A.885.885,0,0,0,52.307,1h-23a.885.885,0,0,0-.885.885A9.362,9.362,0,0,0,31.185,8.55l3.949,3.95L32.48,15.154H8.961a.885.885,0,0,0-.885.885V33.73a.885.885,0,0,0,.885.885h2.654v2.654a.885.885,0,0,0,.885.885H27.581A19.566,19.566,0,0,0,29.188,41a8.315,8.315,0,0,0-1.65,1.226V40.807a.885.885,0,0,0-.885-.885H1.885A.885.885,0,0,0,1,40.807V54.961a.885.885,0,0,0,.885.885H26.654a.885.885,0,0,0,.885-.885V53.149l16.808-.841a6.85,6.85,0,0,0,5.086-2.266l5.561-6.178a3.308,3.308,0,0,0,.853-2.221v-.17A3.316,3.316,0,0,0,53.9,38.462ZM32.435,7.3a7.6,7.6,0,0,1-2.193-4.53h21.13A7.6,7.6,0,0,1,49.179,7.3l-4.315,4.316H43.97A15.965,15.965,0,0,0,45.23,5.423H43.461a14.179,14.179,0,0,1-1.439,6.192H39.594a14.167,14.167,0,0,1-1.44-6.192H36.384a15.964,15.964,0,0,0,1.261,6.192h-.894ZM11.615,19.577V32.846H9.846V16.923H30.784a19.428,19.428,0,0,0-1.421,1.769H12.5A.885.885,0,0,0,11.615,19.577Zm1.769,16.808V20.461H28.241a19.55,19.55,0,0,0-.875,1.769H18.692a.885.885,0,0,0-.885.885,1.769,1.769,0,0,1-1.769,1.769.885.885,0,0,0-.885.885v5.308a.885.885,0,0,0,.885.885,1.769,1.769,0,0,1,1.769,1.769.885.885,0,0,0,.885.885h7.646c.146.6.322,1.188.524,1.769Zm12.61-3.538H19.465A3.552,3.552,0,0,0,16.923,30.3V26.541A3.553,3.553,0,0,0,19.465,24H26.7a19.606,19.606,0,0,0-.936,5.972,19.387,19.387,0,0,0,.226,2.874Zm1.544-2.874a17.692,17.692,0,0,1,5.219-12.59l3.993-4h8.114l4,4A17.775,17.775,0,0,1,52.046,38.2a3.3,3.3,0,0,0-1.972,1.03L45.7,42.93a2.654,2.654,0,0,0-2.236-1.238H37.772a4.06,4.06,0,0,0-3.362-1.769H33.262a8.3,8.3,0,0,0-2.418.354,17.9,17.9,0,0,1-3.306-10.3Zm-1.769,24.1h-23V41.692h23ZM54.076,41.642a1.546,1.546,0,0,1-.4,1.037l-5.562,6.179A5.106,5.106,0,0,1,44.3,50.538l-16.763.839v-5.92A20.283,20.283,0,0,1,28.647,43.6a6.49,6.49,0,0,1,4.615-1.907h1.145a2.3,2.3,0,0,1,2.071,1.28.885.885,0,0,0,.792.489h6.192a.885.885,0,1,1,0,1.769H37.269V47h6.192a2.654,2.654,0,0,0,2.575-2.041l5.23-4.417a1.063,1.063,0,0,0,.1-.094,1.549,1.549,0,0,1,2.715,1.023Z"/>
      <path id="Trazado_1031247" data-name="Trazado 1031247" d="M44.615,42.231A10.615,10.615,0,1,0,34,31.615,10.615,10.615,0,0,0,44.615,42.231Zm0-19.461a8.846,8.846,0,1,1-8.846,8.846,8.846,8.846,0,0,1,8.846-8.846Z" transform="translate(-3.808 -2.308)"/>
      <path id="Trazado_1031248" data-name="Trazado 1031248" d="M44.654,37.385v1.769h1.769V37.385a2.654,2.654,0,0,0,2.654-2.654v-.885a2.654,2.654,0,0,0-2.654-2.654V28.538a.885.885,0,0,1,.885.885v.885h1.769v-.885a2.654,2.654,0,0,0-2.654-2.654V25H44.654v1.769A2.654,2.654,0,0,0,42,29.423v.885a2.654,2.654,0,0,0,2.654,2.654v2.654a.885.885,0,0,1-.885-.885v-.885H42v.885A2.654,2.654,0,0,0,44.654,37.385Zm-.885-7.077v-.885a.885.885,0,0,1,.885-.885v2.654A.885.885,0,0,1,43.769,30.308Zm2.654,2.654a.885.885,0,0,1,.885.885v.885a.885.885,0,0,1-.885.885Z" transform="translate(-4.731 -2.769)"/>
    </g>
  </g>
</svg>
