<svg xmlns="http://www.w3.org/2000/svg" xmlns:xlink="http://www.w3.org/1999/xlink" width="110" height="110" viewBox="0 0 110 110">
  <defs>
    <filter id="Trazado_982547" x="0" y="0" width="110" height="110" filterUnits="userSpaceOnUse">
      <feOffset dy="3" input="SourceAlpha"/>
      <feGaussianBlur stdDeviation="3" result="blur"/>
      <feFlood flood-opacity="0.161"/>
      <feComposite operator="in" in2="blur"/>
      <feComposite in="SourceGraphic"/>
    </filter>
  </defs>
  <g id="Grupo_1174024" data-name="Grupo 1174024" transform="translate(1392 -8548.391)">
    <g id="Grupo_1173225" data-name="Grupo 1173225" transform="translate(-1383 8554.391)">
      <g id="Grupo_1171898" data-name="Grupo 1171898" transform="translate(0 0)">
        <g id="Grupo_1164700" data-name="Grupo 1164700" transform="translate(0 0)">
          <g id="Grupo_1160931" data-name="Grupo 1160931" transform="translate(0 0)">
            <g id="Grupo_1160749" data-name="Grupo 1160749" transform="translate(0 0)">
              <g id="Grupo_1158891" data-name="Grupo 1158891" transform="translate(0 0)">
                <g id="Grupo_1157406" data-name="Grupo 1157406" transform="translate(0 0)">
                  <g id="Grupo_1155793" data-name="Grupo 1155793">
                    <g id="Grupo_1154704" data-name="Grupo 1154704">
                      <g id="Grupo_1150790" data-name="Grupo 1150790">
                        <g id="Grupo_1154214" data-name="Grupo 1154214">
                          <g id="Grupo_1152583" data-name="Grupo 1152583">
                            <g id="Grupo_1146973" data-name="Grupo 1146973">
                              <g id="Grupo_1146954" data-name="Grupo 1146954">
                                <g transform="matrix(1, 0, 0, 1, -9, -6)" filter="url(#Trazado_982547)">
                                  <g id="Trazado_982547-2" data-name="Trazado 982547" transform="translate(9 6)" fill="#e9f9fd">
                                    <path d="M 46.0000114440918 90.49988555908203 C 39.99188995361328 90.49988555908203 34.16427993774414 89.32352447509766 28.6790657043457 87.00347137451172 C 23.38021087646484 84.76226043701172 18.62105178833008 81.55342864990234 14.53375816345215 77.46615600585938 C 10.44647789001465 73.37887573242188 7.237651348114014 68.61971282958984 4.996424674987793 63.32085800170898 C 2.676371335983276 57.83565902709961 1.500011444091797 52.00806045532227 1.500011444091797 45.99993896484375 C 1.500011444091797 39.99181747436523 2.676371335983276 34.16421890258789 4.996424674987793 28.67901802062988 C 7.237651348114014 23.38017845153809 10.44647789001465 18.62101936340332 14.53375816345215 14.53373908996582 C 18.62105178833008 10.44645881652832 23.38021087646484 7.237632274627686 28.6790657043457 4.996418952941895 C 34.16427993774414 2.676365613937378 39.99188995361328 1.500005602836609 46.0000114440918 1.500005602836609 C 52.00813293457031 1.500005602836609 57.83574295043945 2.676365613937378 63.32095718383789 4.996418952941895 C 68.61981201171875 7.237632274627686 73.37898254394531 10.44645881652832 77.46626281738281 14.53373908996582 C 81.55355834960938 18.62101936340332 84.76237487792969 23.38017845153809 87.00360107421875 28.67901802062988 C 89.32365417480469 34.16421890258789 90.50001525878906 39.99181747436523 90.50001525878906 45.99993896484375 C 90.50001525878906 52.00806045532227 89.32365417480469 57.83565902709961 87.00360107421875 63.32085800170898 C 84.76237487792969 68.61971282958984 81.55355834960938 73.37887573242188 77.46626281738281 77.46615600585938 C 73.37898254394531 81.55342864990234 68.61981201171875 84.76226043701172 63.32095718383789 87.00347137451172 C 57.83574295043945 89.32352447509766 52.00813293457031 90.49988555908203 46.0000114440918 90.49988555908203 Z" stroke="none"/>
                                    <path d="M 46.0000114440918 2.999992370605469 C 40.1937255859375 2.999992370605469 34.56270980834961 4.136497497558594 29.26339721679688 6.377906799316406 C 24.14334106445312 8.543510437011719 19.54442596435547 11.64437866210938 15.59441375732422 15.59439849853516 C 11.6444091796875 19.54439544677734 8.543525695800781 24.14329528808594 6.377922058105469 29.26335144042969 C 4.136512756347656 34.56266784667969 3.000007629394531 40.19366836547852 3.000007629394531 45.99993896484375 C 3.000007629394531 51.80620956420898 4.136512756347656 57.43722534179688 6.377922058105469 62.73654174804688 C 8.543525695800781 67.85658264160156 11.6444091796875 72.45548248291016 15.59441375732422 76.40549468994141 C 19.54442596435547 80.35549926757812 24.14334106445312 83.45636749267578 29.26338195800781 85.62196350097656 C 34.56270980834961 87.86338043212891 40.1937255859375 88.9998779296875 46.0000114440918 88.9998779296875 C 51.80629730224609 88.9998779296875 57.43731307983398 87.86338043212891 62.73664093017578 85.62196350097656 C 67.85668182373047 83.45636749267578 72.45559692382812 80.35549926757812 76.40560913085938 76.40549468994141 C 80.35561370849609 72.45548248291016 83.45649719238281 67.85658264160156 85.62210083007812 62.73654174804688 C 87.86351013183594 57.43722534179688 89.00001525878906 51.80620956420898 89.00001525878906 45.99993896484375 C 89.00001525878906 40.19366836547852 87.86351013183594 34.56266784667969 85.62210083007812 29.26335144042969 C 83.45649719238281 24.14329528808594 80.35561370849609 19.54439544677734 76.40560913085938 15.59439849853516 C 72.45559692382812 11.64437866210938 67.85668182373047 8.543510437011719 62.73662567138672 6.377906799316406 C 57.43731307983398 4.136497497558594 51.80629730224609 2.999992370605469 46.0000114440918 2.999992370605469 M 46.0000114440918 -7.62939453125e-06 C 71.40511322021484 -7.62939453125e-06 92.00001525878906 20.59487915039062 92.00001525878906 45.99993896484375 C 92.00001525878906 71.40501403808594 71.40511322021484 91.99988555908203 46.0000114440918 91.99988555908203 C 20.59490966796875 91.99988555908203 7.62939453125e-06 71.40501403808594 7.62939453125e-06 45.99993896484375 C 7.62939453125e-06 20.59487915039062 20.59490966796875 -7.62939453125e-06 46.0000114440918 -7.62939453125e-06 Z" stroke="none" fill="#36ceef"/>
                                  </g>
                                </g>
                              </g>
                            </g>
                          </g>
                        </g>
                      </g>
                    </g>
                  </g>
                </g>
              </g>
            </g>
          </g>
        </g>
      </g>
    </g>
    <g id="clipboard_890926" transform="translate(-1363.663 8571.961)">
      <path id="Trazado_1031285" data-name="Trazado 1031285" d="M131.92,96.019a6.5,6.5,0,0,1,9.307-5.879V59.723A3.723,3.723,0,0,0,137.5,56H107.723A3.723,3.723,0,0,0,104,59.723V96.95a3.723,3.723,0,0,0,3.723,3.723H133.88A6.492,6.492,0,0,1,131.92,96.019Z" transform="translate(-91.901 -49.485)" fill="#eabd8c"/>
      <path id="Trazado_1031286" data-name="Trazado 1031286" d="M160.2,124.3a6.509,6.509,0,0,1,5.584-6.44V88H136v37.227h24.272A6.527,6.527,0,0,1,160.2,124.3Z" transform="translate(-120.178 -77.763)" fill="#ececec"/>
      <path id="Trazado_1031287" data-name="Trazado 1031287" d="M332.475,324.1v-3.723l-2.219-.555a8.362,8.362,0,0,0-.639-1.547l1.175-1.96-2.632-2.632-1.96,1.175a8.364,8.364,0,0,0-1.547-.639L324.1,312h-3.723l-.555,2.219a8.362,8.362,0,0,0-1.547.639l-1.96-1.175-2.632,2.632,1.175,1.96a8.363,8.363,0,0,0-.639,1.547l-2.219.555V324.1l2.219.555a8.364,8.364,0,0,0,.639,1.547l-1.175,1.96,2.632,2.632,1.96-1.175a8.363,8.363,0,0,0,1.547.639l.555,2.219H324.1l.555-2.219a8.364,8.364,0,0,0,1.547-.639l1.96,1.175,2.632-2.632-1.175-1.96a8.364,8.364,0,0,0,.639-1.547Zm-10.237,2.792a4.653,4.653,0,1,1,4.653-4.653A4.654,4.654,0,0,1,322.237,326.891Z" transform="translate(-275.703 -275.703)" fill="#fea82f"/>
      <path id="Trazado_1031288" data-name="Trazado 1031288" d="M343.445,336a7.445,7.445,0,1,0,7.445,7.445A7.446,7.446,0,0,0,343.445,336Zm0,12.1a4.653,4.653,0,1,1,4.653-4.653A4.654,4.654,0,0,1,343.445,348.1Z" transform="translate(-296.911 -296.911)" fill="#ffc729"/>
      <path id="Trazado_1031289" data-name="Trazado 1031289" d="M20.653,8H16.931L16,16.376l.931.931V35.92h3.723V17.307l.931-.931Z" transform="translate(-14.139 -7.069)" fill="#ececec"/>
      <rect id="Rectángulo_415067" data-name="Rectángulo 415067" width="3" height="3" transform="translate(2.663 26.039)" fill="#b6c1ce"/>
      <path id="Trazado_1031290" data-name="Trazado 1031290" d="M11.723,275.92h0A3.723,3.723,0,0,1,8,272.2V248h7.445v24.2A3.723,3.723,0,0,1,11.723,275.92Z" transform="translate(-7.069 -219.149)" fill="#fea82f"/>
      <rect id="Rectángulo_415068" data-name="Rectángulo 415068" width="21" height="10" transform="translate(20.663 16.039)" fill="#fcd770"/>
      <rect id="Rectángulo_415069" data-name="Rectángulo 415069" width="21" height="4" transform="translate(20.663 22.039)" fill="#ffc729"/>
      <path id="Trazado_1031291" data-name="Trazado 1031291" d="M188.475,19.168h1.861V11.723h-5.909a5.576,5.576,0,0,0-10.519,0H168v7.445h20.475Z" transform="translate(-148.456 -7.069)" fill="#fea82f"/>
      <path id="Trazado_1031292" data-name="Trazado 1031292" d="M142.534,49.122V43.946l-2.427-.606q-.135-.371-.3-.727l1.287-2.146-3.66-3.659-2.145,1.287c-.065-.03-.133-.054-.2-.083V10.237a4.659,4.659,0,0,0-4.653-4.653h-2.792V3.723h-6.218a6.507,6.507,0,0,0-11.762,0h-6.218V5.584h-2.792A4.659,4.659,0,0,0,96,10.237V47.465a4.659,4.659,0,0,0,4.653,4.653h21.275l-.29.484,3.66,3.659,2.145-1.287q.356.165.727.3l.607,2.427h5.176l.607-2.427c.248-.091.49-.191.727-.3l2.145,1.287,3.66-3.659-1.287-2.146c.11-.237.21-.48.3-.727ZM105.307,5.584h5.635l.22-.62a4.646,4.646,0,0,1,8.764,0l.221.62h5.635v5.584H123.92V13.03h3.723V11.168H129.5V30.712h1.861V9.307h-3.723V7.445h2.792a2.8,2.8,0,0,1,2.792,2.792V35.366h-1.861V32.574H129.5v2.792h-.727l-.607,2.427c-.248.091-.49.191-.727.3L125.3,36.807l-3.66,3.659,1.287,2.146c-.11.237-.21.48-.3.727l-2.427.607v2.588H101.584V11.168h1.861V13.03h18.614V11.168H105.307ZM97.861,47.465V10.237a2.8,2.8,0,0,1,2.792-2.792h2.792V9.307H99.723V48.4H120.2v.727l2.427.606c.066.18.142.354.219.528h-22.19A2.794,2.794,0,0,1,97.861,47.465Zm40.888,4.848-1.6,1.605-1.79-1.075-.466.251a7.33,7.33,0,0,1-1.375.568l-.506.153-.507,2.026h-2.269l-.506-2.027-.506-.153a7.356,7.356,0,0,1-1.375-.568l-.466-.251-1.79,1.075-1.6-1.605,1.075-1.792-.251-.466a7.316,7.316,0,0,1-.568-1.374l-.153-.506-2.028-.505V45.4l2.027-.507.153-.506a7.38,7.38,0,0,1,.568-1.374l.251-.466-1.075-1.792,1.6-1.605,1.79,1.075.466-.251a7.329,7.329,0,0,1,1.375-.568l.506-.153.507-2.025H132.5l.506,2.027.506.153a7.354,7.354,0,0,1,1.375.568l.466.251,1.79-1.075,1.6,1.605-1.075,1.792.251.466a7.316,7.316,0,0,1,.568,1.374l.153.506,2.028.505v2.269l-2.027.507-.153.506a7.378,7.378,0,0,1-.568,1.374l-.251.466Z" transform="translate(-84.832 0)"/>
      <path id="Trazado_1031293" data-name="Trazado 1031293" d="M357.584,352a5.584,5.584,0,1,0,5.584,5.584A5.59,5.59,0,0,0,357.584,352Zm0,9.307a3.723,3.723,0,1,1,3.723-3.723A3.727,3.727,0,0,1,357.584,361.307Z" transform="translate(-311.05 -311.05)"/>
      <path id="Trazado_1031294" data-name="Trazado 1031294" d="M7.445,10.623l.974-.974L7.348,0H1.959L.887,9.648l.974.974v17.3H0V53.049a4.653,4.653,0,1,0,9.307,0V27.92H7.445ZM2.836,8.965l.789-7.1H5.682l.789,7.1-.887.887V27.92H3.723V9.852Zm4.61,44.083A2.788,2.788,0,0,1,5.584,55.67v-8.2H3.723v8.2a2.788,2.788,0,0,1-1.861-2.621V29.782H3.723v8.376H5.584V29.782H7.445Z" transform="translate(0 0)"/>
      <path id="Trazado_1031295" data-name="Trazado 1031295" d="M164.863,327.27l-1.2-1.2-1.316,1.316,2.519,2.519,6.242-6.242-1.316-1.316Z" transform="translate(-143.458 -284.844)"/>
      <rect id="Rectángulo_415070" data-name="Rectángulo 415070" width="4" height="3" transform="translate(30.663 37.039)"/>
      <rect id="Rectángulo_415071" data-name="Rectángulo 415071" width="4" height="2" transform="translate(30.663 42.039)"/>
      <path id="Trazado_1031296" data-name="Trazado 1031296" d="M164.863,247.27l-1.2-1.2-1.316,1.316,2.519,2.519,6.242-6.242-1.316-1.316Z" transform="translate(-143.458 -214.151)"/>
      <rect id="Rectángulo_415072" data-name="Rectángulo 415072" width="7" height="2" transform="translate(30.663 29.039)"/>
      <rect id="Rectángulo_415073" data-name="Rectángulo 415073" width="7" height="2" transform="translate(30.663 32.039)"/>
      <path id="Trazado_1031297" data-name="Trazado 1031297" d="M160,139.168h24.2V128H160Zm1.861-9.307h20.475v7.445H161.861Z" transform="translate(-141.386 -113.109)"/>
    </g>
  </g>
</svg>
