<svg xmlns="http://www.w3.org/2000/svg" xmlns:xlink="http://www.w3.org/1999/xlink" width="110" height="110" viewBox="0 0 110 110">
  <defs>
    <filter id="Trazado_982547" x="0" y="0" width="110" height="110" filterUnits="userSpaceOnUse">
      <feOffset dy="3" input="SourceAlpha"/>
      <feGaussianBlur stdDeviation="3" result="blur"/>
      <feFlood flood-opacity="0.161"/>
      <feComposite operator="in" in2="blur"/>
      <feComposite in="SourceGraphic"/>
    </filter>
  </defs>
  <g id="Grupo_1174057" data-name="Grupo 1174057" transform="translate(1069 -8548.391)">
    <g id="Grupo_1173226" data-name="Grupo 1173226" transform="translate(-1060 8554.391)">
      <g id="Grupo_1171898" data-name="Grupo 1171898" transform="translate(0 0)">
        <g id="Grupo_1164700" data-name="Grupo 1164700" transform="translate(0 0)">
          <g id="Grupo_1160931" data-name="Grupo 1160931" transform="translate(0 0)">
            <g id="Grupo_1160749" data-name="Grupo 1160749" transform="translate(0 0)">
              <g id="Grupo_1158891" data-name="Grupo 1158891" transform="translate(0 0)">
                <g id="Grupo_1157406" data-name="Grupo 1157406" transform="translate(0 0)">
                  <g id="Grupo_1155793" data-name="Grupo 1155793">
                    <g id="Grupo_1154704" data-name="Grupo 1154704">
                      <g id="Grupo_1150790" data-name="Grupo 1150790">
                        <g id="Grupo_1154214" data-name="Grupo 1154214">
                          <g id="Grupo_1152583" data-name="Grupo 1152583">
                            <g id="Grupo_1146973" data-name="Grupo 1146973">
                              <g id="Grupo_1146954" data-name="Grupo 1146954">
                                <g transform="matrix(1, 0, 0, 1, -9, -6)" filter="url(#Trazado_982547)">
                                  <g id="Trazado_982547-2" data-name="Trazado 982547" transform="translate(9 6)" fill="#e9f9fd">
                                    <path d="M 46.0000114440918 90.49988555908203 C 39.99188995361328 90.49988555908203 34.16427993774414 89.32352447509766 28.6790657043457 87.00347137451172 C 23.38021087646484 84.76226043701172 18.62105178833008 81.55342864990234 14.53375816345215 77.46615600585938 C 10.44647789001465 73.37887573242188 7.237651348114014 68.61971282958984 4.996424674987793 63.32085800170898 C 2.676371335983276 57.83565902709961 1.500011444091797 52.00806045532227 1.500011444091797 45.99993896484375 C 1.500011444091797 39.99181747436523 2.676371335983276 34.16421890258789 4.996424674987793 28.67901802062988 C 7.237651348114014 23.38017845153809 10.44647789001465 18.62101936340332 14.53375816345215 14.53373908996582 C 18.62105178833008 10.44645881652832 23.38021087646484 7.237632274627686 28.6790657043457 4.996418952941895 C 34.16427993774414 2.676365613937378 39.99188995361328 1.500005602836609 46.0000114440918 1.500005602836609 C 52.00813293457031 1.500005602836609 57.83574295043945 2.676365613937378 63.32095718383789 4.996418952941895 C 68.61981201171875 7.237632274627686 73.37898254394531 10.44645881652832 77.46626281738281 14.53373908996582 C 81.55355834960938 18.62101936340332 84.76237487792969 23.38017845153809 87.00360107421875 28.67901802062988 C 89.32365417480469 34.16421890258789 90.50001525878906 39.99181747436523 90.50001525878906 45.99993896484375 C 90.50001525878906 52.00806045532227 89.32365417480469 57.83565902709961 87.00360107421875 63.32085800170898 C 84.76237487792969 68.61971282958984 81.55355834960938 73.37887573242188 77.46626281738281 77.46615600585938 C 73.37898254394531 81.55342864990234 68.61981201171875 84.76226043701172 63.32095718383789 87.00347137451172 C 57.83574295043945 89.32352447509766 52.00813293457031 90.49988555908203 46.0000114440918 90.49988555908203 Z" stroke="none"/>
                                    <path d="M 46.0000114440918 2.999992370605469 C 40.1937255859375 2.999992370605469 34.56270980834961 4.136497497558594 29.26339721679688 6.377906799316406 C 24.14334106445312 8.543510437011719 19.54442596435547 11.64437866210938 15.59441375732422 15.59439849853516 C 11.6444091796875 19.54439544677734 8.543525695800781 24.14329528808594 6.377922058105469 29.26335144042969 C 4.136512756347656 34.56266784667969 3.000007629394531 40.19366836547852 3.000007629394531 45.99993896484375 C 3.000007629394531 51.80620956420898 4.136512756347656 57.43722534179688 6.377922058105469 62.73654174804688 C 8.543525695800781 67.85658264160156 11.6444091796875 72.45548248291016 15.59441375732422 76.40549468994141 C 19.54442596435547 80.35549926757812 24.14334106445312 83.45636749267578 29.26338195800781 85.62196350097656 C 34.56270980834961 87.86338043212891 40.1937255859375 88.9998779296875 46.0000114440918 88.9998779296875 C 51.80629730224609 88.9998779296875 57.43731307983398 87.86338043212891 62.73664093017578 85.62196350097656 C 67.85668182373047 83.45636749267578 72.45559692382812 80.35549926757812 76.40560913085938 76.40549468994141 C 80.35561370849609 72.45548248291016 83.45649719238281 67.85658264160156 85.62210083007812 62.73654174804688 C 87.86351013183594 57.43722534179688 89.00001525878906 51.80620956420898 89.00001525878906 45.99993896484375 C 89.00001525878906 40.19366836547852 87.86351013183594 34.56266784667969 85.62210083007812 29.26335144042969 C 83.45649719238281 24.14329528808594 80.35561370849609 19.54439544677734 76.40560913085938 15.59439849853516 C 72.45559692382812 11.64437866210938 67.85668182373047 8.543510437011719 62.73662567138672 6.377906799316406 C 57.43731307983398 4.136497497558594 51.80629730224609 2.999992370605469 46.0000114440918 2.999992370605469 M 46.0000114440918 -7.62939453125e-06 C 71.40511322021484 -7.62939453125e-06 92.00001525878906 20.59487915039062 92.00001525878906 45.99993896484375 C 92.00001525878906 71.40501403808594 71.40511322021484 91.99988555908203 46.0000114440918 91.99988555908203 C 20.59490966796875 91.99988555908203 7.62939453125e-06 71.40501403808594 7.62939453125e-06 45.99993896484375 C 7.62939453125e-06 20.59487915039062 20.59490966796875 -7.62939453125e-06 46.0000114440918 -7.62939453125e-06 Z" stroke="none" fill="#36ceef"/>
                                  </g>
                                </g>
                              </g>
                            </g>
                          </g>
                        </g>
                      </g>
                    </g>
                  </g>
                </g>
              </g>
            </g>
          </g>
        </g>
      </g>
    </g>
    <g id="collaborate_2849102" transform="translate(-1045.5 8568)">
      <g id="Grupo_1174055" data-name="Grupo 1174055">
        <g id="Grupo_1174025" data-name="Grupo 1174025">
          <path id="Trazado_1031298" data-name="Trazado 1031298" d="M16,54h8v8H16Z" fill="#969faa"/>
        </g>
        <g id="Grupo_1174026" data-name="Grupo 1174026">
          <path id="Trazado_1031299" data-name="Trazado 1031299" d="M8,54h8v8H8Z" fill="#969faa"/>
        </g>
        <g id="Grupo_1174027" data-name="Grupo 1174027">
          <path id="Trazado_1031300" data-name="Trazado 1031300" d="M18,34l2,8H12l2-8Z" fill="#ff826e"/>
        </g>
        <g id="Grupo_1174028" data-name="Grupo 1174028">
          <path id="Trazado_1031301" data-name="Trazado 1031301" d="M16,28l3.04,1.83L18,34H14l-1.04-4.17Z" fill="#fc6e51"/>
        </g>
        <g id="Grupo_1174029" data-name="Grupo 1174029">
          <path id="Trazado_1031302" data-name="Trazado 1031302" d="M29.87,32.37a2.291,2.291,0,0,1-1.29,1.3c-.01.01-.02.01-.04.02a2.233,2.233,0,0,1-2.46-.43L24.93,32.1,22.1,34.93l1.16,1.15a2.233,2.233,0,0,1,.43,2.46c-.01.02-.01.03-.02.04A2.206,2.206,0,0,1,21.64,40H20v2l-2-8,1.04-4.17L21,31l.94-4.61,2.43.48A7.012,7.012,0,0,1,29.87,32.37Z" fill="#e6e9ed"/>
        </g>
        <g id="Grupo_1174030" data-name="Grupo 1174030">
          <path id="Trazado_1031303" data-name="Trazado 1031303" d="M24,50.98V54H8V48H23.16L22,49Z" fill="#e6e9ed"/>
        </g>
        <g id="Grupo_1174031" data-name="Grupo 1174031">
          <path id="Trazado_1031304" data-name="Trazado 1031304" d="M12,42h8v2h1.64a2.206,2.206,0,0,1,2.03,1.42c.01.01.01.02.02.04a2.233,2.233,0,0,1-.43,2.46l-.1.08H7a5,5,0,0,1-5-5V33.74a7.013,7.013,0,0,1,5.63-6.87l2.43-.48L11,31l1.96-1.17L14,34Z" fill="#e6e9ed"/>
        </g>
        <g id="Grupo_1174032" data-name="Grupo 1174032">
          <path id="Trazado_1031305" data-name="Trazado 1031305" d="M16,28l-3.04,1.83L11,31l-.94-4.61L12,26Z" fill="#ccd1d9"/>
        </g>
        <g id="Grupo_1174033" data-name="Grupo 1174033">
          <path id="Trazado_1031306" data-name="Trazado 1031306" d="M21.94,26.39,21,31l-1.96-1.17L16,28l4-2Z" fill="#ccd1d9"/>
        </g>
        <g id="Grupo_1174034" data-name="Grupo 1174034">
          <path id="Trazado_1031307" data-name="Trazado 1031307" d="M26,8.88a7,7,0,0,1-.35,2.18l-.59,1.76A3.008,3.008,0,0,0,23,12H22a2.006,2.006,0,0,0-2-2H18.36a3.293,3.293,0,0,1-2.32-.96A3.536,3.536,0,0,0,10,11.54V12H9a3.008,3.008,0,0,0-2.06.82l-.59-1.76A7,7,0,0,1,6,8.88,6.9,6.9,0,0,1,12.88,2h6.24A6.88,6.88,0,0,1,26,8.88Z" fill="#b27946"/>
        </g>
        <g id="Grupo_1174035" data-name="Grupo 1174035">
          <path id="Trazado_1031308" data-name="Trazado 1031308" d="M50,8a2.015,2.015,0,0,1-2,2H44a2.006,2.006,0,0,0-2,2H41a3.008,3.008,0,0,0-2.06.82l-.59-1.76A7,7,0,0,1,38,8.88,6.9,6.9,0,0,1,44.88,2h6.24A6.88,6.88,0,0,1,58,8.88a7,7,0,0,1-.35,2.18l-.59,1.76A3.008,3.008,0,0,0,55,12H54a4.02,4.02,0,0,0-3.03-3.76Z" fill="#656d78"/>
        </g>
        <g id="Grupo_1174036" data-name="Grupo 1174036">
          <path id="Trazado_1031309" data-name="Trazado 1031309" d="M48,54h8v8H48Z" fill="#969faa"/>
        </g>
        <g id="Grupo_1174037" data-name="Grupo 1174037">
          <path id="Trazado_1031310" data-name="Trazado 1031310" d="M40,54h8v8H40Z" fill="#969faa"/>
        </g>
        <g id="Grupo_1174038" data-name="Grupo 1174038">
          <path id="Trazado_1031311" data-name="Trazado 1031311" d="M56,48v6H40V50.98L42,49l-1.16-1Z" fill="#4fc1e9"/>
        </g>
        <g id="Grupo_1174039" data-name="Grupo 1174039">
          <path id="Trazado_1031312" data-name="Trazado 1031312" d="M50,34l2,8H44l2-8Z" fill="#e6e9ed"/>
        </g>
        <g id="Grupo_1174040" data-name="Grupo 1174040">
          <path id="Trazado_1031313" data-name="Trazado 1031313" d="M48,28l3.04,1.83L50,34H46l-1.04-4.17Z" fill="#ccd1d9"/>
        </g>
        <g id="Grupo_1174041" data-name="Grupo 1174041">
          <path id="Trazado_1031314" data-name="Trazado 1031314" d="M44.96,29.83,46,34l-2,8V40H42.36a2.206,2.206,0,0,1-2.03-1.42c-.01-.01-.01-.02-.02-.04a2.233,2.233,0,0,1,.43-2.46l1.16-1.15L39.07,32.1l-1.15,1.16a2.233,2.233,0,0,1-2.46.43c-.02-.01-.03-.01-.04-.02a2.291,2.291,0,0,1-1.29-1.3,7.012,7.012,0,0,1,5.5-5.5l2.43-.48L43,31Z" fill="#4fc1e9"/>
        </g>
        <g id="Grupo_1174042" data-name="Grupo 1174042">
          <path id="Trazado_1031315" data-name="Trazado 1031315" d="M52,42l-2-8,1.04-4.17L53,31l.94-4.61,2.43.48A7.013,7.013,0,0,1,62,33.74V43a5,5,0,0,1-5,5H40.84l-.1-.08a2.223,2.223,0,0,1-.48-2.33,1.833,1.833,0,0,1,.07-.17A2.206,2.206,0,0,1,42.36,44H44V42Z" fill="#4fc1e9"/>
        </g>
        <g id="Grupo_1174043" data-name="Grupo 1174043">
          <path id="Trazado_1031316" data-name="Trazado 1031316" d="M48,28l-3.04,1.83L43,31l-.94-4.61L44,26Z" fill="#3bafda"/>
        </g>
        <g id="Grupo_1174044" data-name="Grupo 1174044">
          <path id="Trazado_1031317" data-name="Trazado 1031317" d="M57.06,12.82A3,3,0,0,1,55,18H53.66A6.043,6.043,0,0,0,54,16V12h1a3.008,3.008,0,0,1,2.06.82Z" fill="#f0d0b4"/>
        </g>
        <g id="Grupo_1174045" data-name="Grupo 1174045">
          <path id="Trazado_1031318" data-name="Trazado 1031318" d="M54,12.12V16a6.043,6.043,0,0,1-.34,2,5.91,5.91,0,0,1-1.42,2.24,5.491,5.491,0,0,1-1.21.93,5.946,5.946,0,0,1-6.06,0A5.956,5.956,0,0,1,42,16V12a2.006,2.006,0,0,1,2-2h4a2.015,2.015,0,0,0,2-2l.97.24A4.02,4.02,0,0,1,54,12Z" fill="#f0d0b4"/>
        </g>
        <g id="Grupo_1174046" data-name="Grupo 1174046">
          <path id="Trazado_1031319" data-name="Trazado 1031319" d="M53.94,26.39,53,31l-1.96-1.17L48,28l4-2Z" fill="#3bafda"/>
        </g>
        <g id="Grupo_1174047" data-name="Grupo 1174047">
          <path id="Trazado_1031320" data-name="Trazado 1031320" d="M51.04,21.18,52,26l-4,2-4-2,.96-4.82.01-.01a5.946,5.946,0,0,0,6.06,0Z" fill="#f0d0b4"/>
        </g>
        <g id="Grupo_1174048" data-name="Grupo 1174048">
          <path id="Trazado_1031321" data-name="Trazado 1031321" d="M34.13,32.37a2.291,2.291,0,0,0,1.29,1.3c.01.01.02.01.04.02a2.233,2.233,0,0,0,2.46-.43l1.15-1.16,2.83,2.83-1.16,1.15a2.233,2.233,0,0,0-.43,2.46c.01.02.01.03.02.04A2.206,2.206,0,0,0,42.36,40H44v4H42.36a2.206,2.206,0,0,0-2.03,1.42,1.833,1.833,0,0,0-.07.17,2.223,2.223,0,0,0,.48,2.33l.1.08L42,49l-2,1.98-.93.92-1.15-1.16a2.233,2.233,0,0,0-2.46-.43c-.02.01-.03.01-.04.02A2.206,2.206,0,0,0,34,52.36V54H30V52.36a2.206,2.206,0,0,0-1.42-2.03c-.01-.01-.02-.01-.04-.02a2.233,2.233,0,0,0-2.46.43L24.93,51.9,24,50.98,22,49l1.16-1,.1-.08a2.233,2.233,0,0,0,.43-2.46c-.01-.02-.01-.03-.02-.04A2.206,2.206,0,0,0,21.64,44H20V40h1.64a2.206,2.206,0,0,0,2.03-1.42c.01-.01.01-.02.02-.04a2.233,2.233,0,0,0-.43-2.46L22.1,34.93l2.83-2.83,1.15,1.16a2.233,2.233,0,0,0,2.46.43c.02-.01.03-.01.04-.02a2.291,2.291,0,0,0,1.29-1.3,2.2,2.2,0,0,0,.13-.73V30h4v1.64A2.2,2.2,0,0,0,34.13,32.37ZM38,42a6,6,0,1,0-6,6A6,6,0,0,0,38,42Z" fill="#ffc729"/>
        </g>
        <g id="Grupo_1174049" data-name="Grupo 1174049">
          <path id="Trazado_1031322" data-name="Trazado 1031322" d="M42.34,18H41a3,3,0,0,1,0-6h1v4A6.043,6.043,0,0,0,42.34,18Z" fill="#f0d0b4"/>
        </g>
        <g id="Grupo_1174050" data-name="Grupo 1174050">
          <path id="Trazado_1031323" data-name="Trazado 1031323" d="M32,36a6,6,0,1,1-6,6A6,6,0,0,1,32,36Zm2,6a2,2,0,1,0-2,2A2.006,2.006,0,0,0,34,42Z" fill="#fcd770"/>
        </g>
        <g id="Grupo_1174051" data-name="Grupo 1174051">
          <path id="Trazado_1031324" data-name="Trazado 1031324" d="M25.06,12.82A3,3,0,0,1,23,18H21.66A6.043,6.043,0,0,0,22,16V12h1a3.008,3.008,0,0,1,2.06.82Z" fill="#f0d0b4"/>
        </g>
        <g id="Grupo_1174052" data-name="Grupo 1174052">
          <path id="Trazado_1031325" data-name="Trazado 1031325" d="M22,12v4a5.956,5.956,0,0,1-2.97,5.17,5.946,5.946,0,0,1-6.06,0,5.491,5.491,0,0,1-1.21-.93A5.91,5.91,0,0,1,10.34,18,6.043,6.043,0,0,1,10,16V11.54a3.536,3.536,0,0,1,6.04-2.5,3.293,3.293,0,0,0,2.32.96H20a2.006,2.006,0,0,1,2,2Z" fill="#f0d0b4"/>
        </g>
        <g id="Grupo_1174053" data-name="Grupo 1174053">
          <path id="Trazado_1031326" data-name="Trazado 1031326" d="M19.04,21.18,20,26l-4,2-4-2,.96-4.82.01-.01a5.946,5.946,0,0,0,6.06,0Z" fill="#f0d0b4"/>
        </g>
        <g id="Grupo_1174054" data-name="Grupo 1174054">
          <path id="Trazado_1031327" data-name="Trazado 1031327" d="M10.34,18H9a3,3,0,0,1,0-6h1v4A6.043,6.043,0,0,0,10.34,18Z" fill="#f0d0b4"/>
        </g>
      </g>
      <g id="Grupo_1174056" data-name="Grupo 1174056">
        <path id="Trazado_1031328" data-name="Trazado 1031328" d="M56.569,25.894l-3.72-.744-.705-3.522A7.042,7.042,0,0,0,54.314,19H55a4,4,0,0,0,4-4,3.956,3.956,0,0,0-.815-2.393l.411-1.231A7.885,7.885,0,0,0,51.117,1H44.883A7.885,7.885,0,0,0,37.4,11.376l.411,1.231A3.956,3.956,0,0,0,37,15a4,4,0,0,0,4,4h.685a7.042,7.042,0,0,0,2.17,2.628L43.15,25.15l-3.72.744A7.98,7.98,0,0,0,34.551,29h-5.1a7.977,7.977,0,0,0-4.879-3.106l-3.72-.744-.7-3.522A7.042,7.042,0,0,0,22.313,19H23a4,4,0,0,0,4-4,3.956,3.956,0,0,0-.815-2.393l.41-1.231A7.882,7.882,0,0,0,19.117,1H12.883A7.885,7.885,0,0,0,5.4,11.376l.411,1.231A3.956,3.956,0,0,0,5,15a4,4,0,0,0,4,4h.685a7.042,7.042,0,0,0,2.17,2.628l-.7,3.522-3.72.744A8.022,8.022,0,0,0,1,33.739V43a6.006,6.006,0,0,0,6,6V63H25V53.247l1.79-1.8a1.261,1.261,0,0,1,1.41-.2,1.215,1.215,0,0,1,.8,1.11V55h6V52.361a1.35,1.35,0,0,1,2.209-.912L39,53.247V63H57V49a6.006,6.006,0,0,0,6-6V33.739a8.021,8.021,0,0,0-6.431-7.845ZM45.923,28.08,43.7,29.415l-.455-2.243.616-.123ZM46.781,35h2.438l1.5,6H45.281Zm2.438-2H46.781l-.674-2.7L48,29.166,49.894,30.3Zm.858-4.92,2.064-1.032.616.123L52.3,29.414ZM55,17h-.08A7.026,7.026,0,0,0,55,16V13a2,2,0,0,1,0,4ZM44.883,3h6.234A5.882,5.882,0,0,1,56.7,10.743l-.186.558A3.986,3.986,0,0,0,55,11h-.143a4.981,4.981,0,0,0-3.644-3.728l-.324-.081A3,3,0,0,0,48,5H47V7h1a1,1,0,0,1,0,2H44a3,3,0,0,0-2.816,2H41a3.986,3.986,0,0,0-1.512.3l-.186-.558A5.882,5.882,0,0,1,44.883,3ZM41,17a2,2,0,0,1,0-4v3a7.026,7.026,0,0,0,.08,1Zm2-1V12a1,1,0,0,1,1-1h4a3.005,3.005,0,0,0,2.742-1.784A3,3,0,0,1,53,12.123V16a5,5,0,1,1-10,0Zm5,7a6.963,6.963,0,0,0,2.3-.4l.569,2.843L48,26.882l-2.87-1.435L45.7,22.6A6.963,6.963,0,0,0,48,23Zm-8.177,4.855,1.459-.292L42.3,32.585l2.012-1.207L44.969,34l-1.25,5H42.361a1.35,1.35,0,0,1-.912-2.209l1.867-1.859-4.248-4.248L37.21,32.551a1.26,1.26,0,0,1-1.41.2,1.331,1.331,0,0,1-.6-.484,5.968,5.968,0,0,1,4.624-4.41ZM28.8,32.261a1.428,1.428,0,0,1-.643.507,1.24,1.24,0,0,1-1.367-.216l-1.859-1.867-4.248,4.248,1.867,1.858a1.261,1.261,0,0,1,.2,1.41,1.216,1.216,0,0,1-1.11.8H20.28l-1.25-5,.656-2.622L21.7,32.586l1.019-5.022,1.459.292A5.965,5.965,0,0,1,28.8,32.261ZM13.923,28.08,11.7,29.415l-.455-2.243.616-.123Zm6.217-1.032.616.123L20.3,29.414l-2.225-1.335ZM16,29.166,17.894,30.3,17.219,33H14.781l-.674-2.7ZM14.781,35h2.438l1.5,6H13.281ZM23,17h-.08A7.026,7.026,0,0,0,23,16V13a2,2,0,0,1,0,4ZM12.883,3h6.234A5.882,5.882,0,0,1,24.7,10.743l-.186.558A3.986,3.986,0,0,0,23,11h-.184A3,3,0,0,0,20,9H18.364a2.311,2.311,0,0,1-1.621-.671A4.518,4.518,0,0,0,9.054,11H9a3.986,3.986,0,0,0-1.512.3L7.3,10.743A5.882,5.882,0,0,1,12.883,3ZM9,17a2,2,0,0,1,0-4v3a7.026,7.026,0,0,0,.08,1Zm2-1V11.536a2.536,2.536,0,0,1,4.329-1.793A4.32,4.32,0,0,0,18.364,11H20a1,1,0,0,1,1,1v4a5,5,0,1,1-10,0Zm5,7a6.964,6.964,0,0,0,2.3-.4l.569,2.843L16,26.882l-2.87-1.435L13.7,22.6A6.964,6.964,0,0,0,16,23ZM3,43V33.739a6.016,6.016,0,0,1,4.823-5.884l1.459-.292L10.3,32.585l2.012-1.207L12.969,34l-1.75,7H9V35H7v6.586L5.293,43.293l1.414,1.414L8.414,43H19v2h2.639a1.24,1.24,0,0,1,1.128.842A1.289,1.289,0,0,1,22.713,47H7a4,4,0,0,1-4-4Zm17.578,6L23,51.4V53H9V49ZM9,55h6v6H9Zm8,6V55h6v6ZM35.035,49.4A3.223,3.223,0,0,0,33,52.361V53H31v-.639a3.346,3.346,0,0,0-5.628-2.324l-.448.45-1.453-1.438.49-.423A3.345,3.345,0,0,0,21.639,43H21V41h.639a3.346,3.346,0,0,0,2.324-5.628l-.446-.444,1.413-1.413.444.446A3.345,3.345,0,0,0,31,31.639V31h2v.639a3.346,3.346,0,0,0,5.628,2.324l.444-.446,1.413,1.413-.446.444A3.345,3.345,0,0,0,42.361,41H43v2h-.639A3.223,3.223,0,0,0,39.4,45.035c-.014.035-.066.162-.086.219a3.22,3.22,0,0,0,.773,3.422l.436.375-1.451,1.437-.448-.45a3.243,3.243,0,0,0-3.592-.635ZM41,55h6v6H41Zm8,6V55h6v6Zm6-8H41V51.4L43.422,49H55Zm6-10a4,4,0,0,1-4,4H41.3a1.25,1.25,0,0,1-.094-1.073l.05-.127a1.216,1.216,0,0,1,1.11-.8H45V43H55.586l1.707,1.707,1.414-1.414L57,41.586V35H55v6H52.781l-1.75-7,.656-2.622L53.7,32.585l1.019-5.022,1.459.292A6.016,6.016,0,0,1,61,33.739Z"/>
        <path id="Trazado_1031329" data-name="Trazado 1031329" d="M32,39a3,3,0,1,0,3,3A3,3,0,0,0,32,39Zm0,4a1,1,0,1,1,1-1A1,1,0,0,1,32,43Z"/>
        <path id="Trazado_1031330" data-name="Trazado 1031330" d="M32,35a7,7,0,1,0,7,7A7.008,7.008,0,0,0,32,35Zm0,12a5,5,0,1,1,5-5A5.006,5.006,0,0,1,32,47Z"/>
      </g>
    </g>
  </g>
</svg>
