<svg xmlns="http://www.w3.org/2000/svg" xmlns:xlink="http://www.w3.org/1999/xlink" width="110" height="110" viewBox="0 0 110 110">
  <defs>
    <filter id="Trazado_982547" x="0" y="0" width="110" height="110" filterUnits="userSpaceOnUse">
      <feOffset dy="3" input="SourceAlpha"/>
      <feGaussianBlur stdDeviation="3" result="blur"/>
      <feFlood flood-opacity="0.161"/>
      <feComposite operator="in" in2="blur"/>
      <feComposite in="SourceGraphic"/>
    </filter>
  </defs>
  <g id="Grupo_1174092" data-name="Grupo 1174092" transform="translate(748.5 -8974.391)">
    <g id="Grupo_1173230" data-name="Grupo 1173230" transform="translate(-739.5 8980.391)">
      <g id="Grupo_1171898" data-name="Grupo 1171898" transform="translate(0 0)">
        <g id="Grupo_1164700" data-name="Grupo 1164700" transform="translate(0 0)">
          <g id="Grupo_1160931" data-name="Grupo 1160931" transform="translate(0 0)">
            <g id="Grupo_1160749" data-name="Grupo 1160749" transform="translate(0 0)">
              <g id="Grupo_1158891" data-name="Grupo 1158891" transform="translate(0 0)">
                <g id="Grupo_1157406" data-name="Grupo 1157406" transform="translate(0 0)">
                  <g id="Grupo_1155793" data-name="Grupo 1155793">
                    <g id="Grupo_1154704" data-name="Grupo 1154704">
                      <g id="Grupo_1150790" data-name="Grupo 1150790">
                        <g id="Grupo_1154214" data-name="Grupo 1154214">
                          <g id="Grupo_1152583" data-name="Grupo 1152583">
                            <g id="Grupo_1146973" data-name="Grupo 1146973">
                              <g id="Grupo_1146954" data-name="Grupo 1146954">
                                <g transform="matrix(1, 0, 0, 1, -9, -6)" filter="url(#Trazado_982547)">
                                  <g id="Trazado_982547-2" data-name="Trazado 982547" transform="translate(9 6)" fill="#e9f9fd">
                                    <path d="M 46.0000114440918 90.49988555908203 C 39.99188995361328 90.49988555908203 34.16427993774414 89.32352447509766 28.6790657043457 87.00347137451172 C 23.38021087646484 84.76226043701172 18.62105178833008 81.55342864990234 14.53375816345215 77.46615600585938 C 10.44647789001465 73.37887573242188 7.237651348114014 68.61971282958984 4.996424674987793 63.32085800170898 C 2.676371335983276 57.83565902709961 1.500011444091797 52.00806045532227 1.500011444091797 45.99993896484375 C 1.500011444091797 39.99181747436523 2.676371335983276 34.16421890258789 4.996424674987793 28.67901802062988 C 7.237651348114014 23.38017845153809 10.44647789001465 18.62101936340332 14.53375816345215 14.53373908996582 C 18.62105178833008 10.44645881652832 23.38021087646484 7.237632274627686 28.6790657043457 4.996418952941895 C 34.16427993774414 2.676365613937378 39.99188995361328 1.500005602836609 46.0000114440918 1.500005602836609 C 52.00813293457031 1.500005602836609 57.83574295043945 2.676365613937378 63.32095718383789 4.996418952941895 C 68.61981201171875 7.237632274627686 73.37898254394531 10.44645881652832 77.46626281738281 14.53373908996582 C 81.55355834960938 18.62101936340332 84.76237487792969 23.38017845153809 87.00360107421875 28.67901802062988 C 89.32365417480469 34.16421890258789 90.50001525878906 39.99181747436523 90.50001525878906 45.99993896484375 C 90.50001525878906 52.00806045532227 89.32365417480469 57.83565902709961 87.00360107421875 63.32085800170898 C 84.76237487792969 68.61971282958984 81.55355834960938 73.37887573242188 77.46626281738281 77.46615600585938 C 73.37898254394531 81.55342864990234 68.61981201171875 84.76226043701172 63.32095718383789 87.00347137451172 C 57.83574295043945 89.32352447509766 52.00813293457031 90.49988555908203 46.0000114440918 90.49988555908203 Z" stroke="none"/>
                                    <path d="M 46.0000114440918 2.999992370605469 C 40.1937255859375 2.999992370605469 34.56270980834961 4.136497497558594 29.26339721679688 6.377906799316406 C 24.14334106445312 8.543510437011719 19.54442596435547 11.64437866210938 15.59441375732422 15.59439849853516 C 11.6444091796875 19.54439544677734 8.543525695800781 24.14329528808594 6.377922058105469 29.26335144042969 C 4.136512756347656 34.56266784667969 3.000007629394531 40.19366836547852 3.000007629394531 45.99993896484375 C 3.000007629394531 51.80620956420898 4.136512756347656 57.43722534179688 6.377922058105469 62.73654174804688 C 8.543525695800781 67.85658264160156 11.6444091796875 72.45548248291016 15.59441375732422 76.40549468994141 C 19.54442596435547 80.35549926757812 24.14334106445312 83.45636749267578 29.26338195800781 85.62196350097656 C 34.56270980834961 87.86338043212891 40.1937255859375 88.9998779296875 46.0000114440918 88.9998779296875 C 51.80629730224609 88.9998779296875 57.43731307983398 87.86338043212891 62.73664093017578 85.62196350097656 C 67.85668182373047 83.45636749267578 72.45559692382812 80.35549926757812 76.40560913085938 76.40549468994141 C 80.35561370849609 72.45548248291016 83.45649719238281 67.85658264160156 85.62210083007812 62.73654174804688 C 87.86351013183594 57.43722534179688 89.00001525878906 51.80620956420898 89.00001525878906 45.99993896484375 C 89.00001525878906 40.19366836547852 87.86351013183594 34.56266784667969 85.62210083007812 29.26335144042969 C 83.45649719238281 24.14329528808594 80.35561370849609 19.54439544677734 76.40560913085938 15.59439849853516 C 72.45559692382812 11.64437866210938 67.85668182373047 8.543510437011719 62.73662567138672 6.377906799316406 C 57.43731307983398 4.136497497558594 51.80629730224609 2.999992370605469 46.0000114440918 2.999992370605469 M 46.0000114440918 -7.62939453125e-06 C 71.40511322021484 -7.62939453125e-06 92.00001525878906 20.59487915039062 92.00001525878906 45.99993896484375 C 92.00001525878906 71.40501403808594 71.40511322021484 91.99988555908203 46.0000114440918 91.99988555908203 C 20.59490966796875 91.99988555908203 7.62939453125e-06 71.40501403808594 7.62939453125e-06 45.99993896484375 C 7.62939453125e-06 20.59487915039062 20.59490966796875 -7.62939453125e-06 46.0000114440918 -7.62939453125e-06 Z" stroke="none" fill="#36ceef"/>
                                  </g>
                                </g>
                              </g>
                            </g>
                          </g>
                        </g>
                      </g>
                    </g>
                  </g>
                </g>
              </g>
            </g>
          </g>
        </g>
      </g>
    </g>
    <g id="entrega" transform="translate(-719.474 8998.462)">
      <g id="Grupo_1174090" data-name="Grupo 1174090" transform="translate(0.833 0.834)">
        <path id="Trazado_1031388" data-name="Trazado 1031388" d="M7.5,38.59H51.136V90.37H7.5Z" transform="translate(-7.499 -35.135)" fill="#56788b"/>
        <path id="Trazado_1031389" data-name="Trazado 1031389" d="M51.136,38.59V90.37H7.5V87.062H47.9V38.59Z" transform="translate(-7.499 -35.135)" fill="#415e6f"/>
        <path id="Trazado_1031390" data-name="Trazado 1031390" d="M36.647,68.36H73.805v45.163H36.647Z" transform="translate(-33.408 -61.596)" fill="#fdeda5"/>
        <path id="Trazado_1031391" data-name="Trazado 1031391" d="M73.805,68.36v45.163H36.647v-3H70.694V68.36Z" transform="translate(-33.408 -61.596)" fill="#fbdf63"/>
        <path id="Trazado_1031392" data-name="Trazado 1031392" d="M137.035,10.955,135.924,7.5h-6.417L128.4,10.955h-4.571v4.919h17.781V10.955Z" transform="translate(-110.897 -7.5)" fill="#f9d11f"/>
        <path id="Trazado_1031393" data-name="Trazado 1031393" d="M320.778,309.276a11.486,11.486,0,1,1-11.486-11.486A11.486,11.486,0,0,1,320.778,309.276Z" transform="translate(-265.543 -265.528)" fill="#2bbb66"/>
        <path id="Trazado_1031394" data-name="Trazado 1031394" d="M412.635,309.276a11.486,11.486,0,0,1-11.486,11.487c4.911,0,8.89-5.142,8.89-11.487s-3.979-11.486-8.89-11.486A11.486,11.486,0,0,1,412.635,309.276Z" transform="translate(-357.4 -265.528)" fill="#249e55"/>
        <path id="Trazado_1031395" data-name="Trazado 1031395" d="M344.459,336.342a8.1,8.1,0,1,1-8.1-8.1A8.1,8.1,0,0,1,344.459,336.342Z" transform="translate(-292.607 -292.594)" fill="#249e55"/>
        <path id="Trazado_1031396" data-name="Trazado 1031396" d="M409.251,336.342a8.1,8.1,0,0,1-8.1,8.1c3.008,0,5.445-3.628,5.445-8.1s-2.437-8.1-5.445-8.1A8.1,8.1,0,0,1,409.251,336.342Z" transform="translate(-357.4 -292.594)" fill="#208e4d"/>
        <g id="Grupo_1174089" data-name="Grupo 1174089" transform="translate(8.515 12.721)">
          <circle id="Elipse_11862" data-name="Elipse 11862" cx="1.667" cy="1.667" r="1.667" fill="#ff4656"/>
          <circle id="Elipse_11863" data-name="Elipse 11863" cx="1.667" cy="1.667" r="1.667" transform="translate(0 7.641)" fill="#ff4656"/>
          <circle id="Elipse_11864" data-name="Elipse 11864" cx="1.667" cy="1.667" r="1.667" transform="translate(0 15.281)" fill="#2bbb66"/>
          <circle id="Elipse_11865" data-name="Elipse 11865" cx="1.667" cy="1.667" r="1.667" transform="translate(0 22.922)" fill="#ff4656"/>
          <circle id="Elipse_11866" data-name="Elipse 11866" cx="1.667" cy="1.667" r="1.667" transform="translate(0 30.563)" fill="#2bbb66"/>
        </g>
      </g>
      <g id="Grupo_1174091" data-name="Grupo 1174091" transform="translate(0 0)">
        <path id="Trazado_1031397" data-name="Trazado 1031397" d="M35.176,55.235H1.667V5.122H12.928V6.764H4.073a.833.833,0,0,0-.833.834V52.76a.834.834,0,0,0,.833.834H7.624a.834.834,0,0,0,0-1.667H4.906V8.431h8.022v.777a.834.834,0,0,0,.833.834H31.542a.833.833,0,0,0,.833-.834V8.431H40.4V30.29a.833.833,0,1,0,1.667,0V7.6a.833.833,0,0,0-.833-.834H32.375V5.122H43.637V19.943a.833.833,0,1,0,1.667,0V4.289a.833.833,0,0,0-.833-.834H27.579L26.654.578A.833.833,0,0,0,25.86,0H19.444a.833.833,0,0,0-.793.578l-.925,2.877H.833A.834.834,0,0,0,0,4.289v51.78a.834.834,0,0,0,.833.834H35.176a.834.834,0,0,0,0-1.667ZM18.332,5.122a.833.833,0,0,0,.793-.578l.925-2.877h5.2l.925,2.877a.833.833,0,0,0,.793.578h3.737V8.374H14.6V5.122Z" transform="translate(0 0)"/>
        <path id="Trazado_1031398" data-name="Trazado 1031398" d="M393.472,206.917a.833.833,0,0,0-.833.834v5.955a.833.833,0,1,0,1.667,0v-5.955A.833.833,0,0,0,393.472,206.917Z" transform="translate(-349.002 -183.921)"/>
        <path id="Trazado_1031399" data-name="Trazado 1031399" d="M96.261,468.9h20.881a.834.834,0,0,0,0-1.667H96.261a.834.834,0,0,0,0,1.667Z" transform="translate(-84.822 -415.303)"/>
        <path id="Trazado_1031400" data-name="Trazado 1031400" d="M302.624,290.288a12.324,12.324,0,0,0-10.832,18.193.833.833,0,1,0,1.465-.8,10.665,10.665,0,1,1,2.013,2.629.834.834,0,1,0-1.151,1.206,12.32,12.32,0,1,0,8.506-21.233Z" transform="translate(-258.041 -258.026)"/>
        <path id="Trazado_1031401" data-name="Trazado 1031401" d="M335.485,323.952a.834.834,0,0,0-.112-1.173,8.918,8.918,0,1,0,2.513,3.333.833.833,0,1,0-1.528.665,7.275,7.275,0,1,1-2.046-2.713.833.833,0,0,0,1.173-.112Z" transform="translate(-285.105 -285.092)"/>
        <path id="Trazado_1031402" data-name="Trazado 1031402" d="M368.756,375.773l-4.02,4.02-1.987-1.987a.834.834,0,0,0-1.179,1.179l2.576,2.576a.833.833,0,0,0,1.179,0l4.609-4.61a.833.833,0,0,0-1.178-1.179Z" transform="translate(-321.169 -333.794)"/>
        <path id="Trazado_1031403" data-name="Trazado 1031403" d="M79.115,119.459a2.5,2.5,0,1,0-2.5-2.5A2.5,2.5,0,0,0,79.115,119.459Zm0-3.334a.834.834,0,1,1-.833.834A.834.834,0,0,1,79.115,116.125Z" transform="translate(-68.1 -101.737)"/>
        <path id="Trazado_1031404" data-name="Trazado 1031404" d="M161.012,128.366H141.526a.834.834,0,0,0,0,1.667h19.486a.834.834,0,0,0,0-1.667Z" transform="translate(-125.057 -114.1)"/>
        <path id="Trazado_1031405" data-name="Trazado 1031405" d="M79.115,188.209a2.5,2.5,0,1,0-2.5-2.5A2.5,2.5,0,0,0,79.115,188.209Zm0-3.334a.834.834,0,1,1-.833.834A.834.834,0,0,1,79.115,184.875Z" transform="translate(-68.1 -162.847)"/>
        <path id="Trazado_1031406" data-name="Trazado 1031406" d="M161.012,197.116H141.526a.834.834,0,0,0,0,1.667h19.486a.834.834,0,0,0,0-1.667Z" transform="translate(-125.057 -175.209)"/>
        <path id="Trazado_1031407" data-name="Trazado 1031407" d="M79.115,256.959a2.5,2.5,0,1,0-2.5-2.5A2.5,2.5,0,0,0,79.115,256.959Zm0-3.334a.834.834,0,1,1-.833.834A.834.834,0,0,1,79.115,253.625Z" transform="translate(-68.1 -223.956)"/>
        <path id="Trazado_1031408" data-name="Trazado 1031408" d="M161.846,266.7a.833.833,0,0,0-.833-.834H141.526a.834.834,0,0,0,0,1.667h19.486A.833.833,0,0,0,161.846,266.7Z" transform="translate(-125.057 -236.318)"/>
        <path id="Trazado_1031409" data-name="Trazado 1031409" d="M79.115,325.709a2.5,2.5,0,1,0-2.5-2.5A2.5,2.5,0,0,0,79.115,325.709Zm0-3.334a.834.834,0,1,1-.833.834A.834.834,0,0,1,79.115,322.375Z" transform="translate(-68.1 -285.065)"/>
        <path id="Trazado_1031410" data-name="Trazado 1031410" d="M155.456,334.616H141.526a.834.834,0,0,0,0,1.667h13.929a.834.834,0,0,0,0-1.667Z" transform="translate(-125.057 -297.428)"/>
        <path id="Trazado_1031411" data-name="Trazado 1031411" d="M79.115,394.459a2.5,2.5,0,1,0-2.5-2.5A2.5,2.5,0,0,0,79.115,394.459Zm0-3.334a.834.834,0,1,1-.833.834A.834.834,0,0,1,79.115,391.125Z" transform="translate(-68.1 -346.175)"/>
        <path id="Trazado_1031412" data-name="Trazado 1031412" d="M154.344,405.033a.834.834,0,0,0,0-1.667H141.526a.834.834,0,0,0,0,1.667Z" transform="translate(-125.057 -358.537)"/>
      </g>
    </g>
  </g>
</svg>
