<svg xmlns="http://www.w3.org/2000/svg" xmlns:xlink="http://www.w3.org/1999/xlink" width="110" height="110" viewBox="0 0 110 110">
  <defs>
    <filter id="Trazado_982547" x="0" y="0" width="110" height="110" filterUnits="userSpaceOnUse">
      <feOffset dy="3" input="SourceAlpha"/>
      <feGaussianBlur stdDeviation="3" result="blur"/>
      <feFlood flood-opacity="0.161"/>
      <feComposite operator="in" in2="blur"/>
      <feComposite in="SourceGraphic"/>
    </filter>
  </defs>
  <g id="Grupo_1174094" data-name="Grupo 1174094" transform="translate(1393 -9403.391)">
    <g id="Grupo_1173231" data-name="Grupo 1173231" transform="translate(-1384 9409.391)">
      <g id="Grupo_1171898" data-name="Grupo 1171898" transform="translate(0 0)">
        <g id="Grupo_1164700" data-name="Grupo 1164700" transform="translate(0 0)">
          <g id="Grupo_1160931" data-name="Grupo 1160931" transform="translate(0 0)">
            <g id="Grupo_1160749" data-name="Grupo 1160749" transform="translate(0 0)">
              <g id="Grupo_1158891" data-name="Grupo 1158891" transform="translate(0 0)">
                <g id="Grupo_1157406" data-name="Grupo 1157406" transform="translate(0 0)">
                  <g id="Grupo_1155793" data-name="Grupo 1155793">
                    <g id="Grupo_1154704" data-name="Grupo 1154704">
                      <g id="Grupo_1150790" data-name="Grupo 1150790">
                        <g id="Grupo_1154214" data-name="Grupo 1154214">
                          <g id="Grupo_1152583" data-name="Grupo 1152583">
                            <g id="Grupo_1146973" data-name="Grupo 1146973">
                              <g id="Grupo_1146954" data-name="Grupo 1146954">
                                <g transform="matrix(1, 0, 0, 1, -9, -6)" filter="url(#Trazado_982547)">
                                  <g id="Trazado_982547-2" data-name="Trazado 982547" transform="translate(9 6)" fill="#e9f9fd">
                                    <path d="M 46.0000114440918 90.49988555908203 C 39.99188995361328 90.49988555908203 34.16427993774414 89.32352447509766 28.6790657043457 87.00347137451172 C 23.38021087646484 84.76226043701172 18.62105178833008 81.55342864990234 14.53375816345215 77.46615600585938 C 10.44647789001465 73.37887573242188 7.237651348114014 68.61971282958984 4.996424674987793 63.32085800170898 C 2.676371335983276 57.83565902709961 1.500011444091797 52.00806045532227 1.500011444091797 45.99993896484375 C 1.500011444091797 39.99181747436523 2.676371335983276 34.16421890258789 4.996424674987793 28.67901802062988 C 7.237651348114014 23.38017845153809 10.44647789001465 18.62101936340332 14.53375816345215 14.53373908996582 C 18.62105178833008 10.44645881652832 23.38021087646484 7.237632274627686 28.6790657043457 4.996418952941895 C 34.16427993774414 2.676365613937378 39.99188995361328 1.500005602836609 46.0000114440918 1.500005602836609 C 52.00813293457031 1.500005602836609 57.83574295043945 2.676365613937378 63.32095718383789 4.996418952941895 C 68.61981201171875 7.237632274627686 73.37898254394531 10.44645881652832 77.46626281738281 14.53373908996582 C 81.55355834960938 18.62101936340332 84.76237487792969 23.38017845153809 87.00360107421875 28.67901802062988 C 89.32365417480469 34.16421890258789 90.50001525878906 39.99181747436523 90.50001525878906 45.99993896484375 C 90.50001525878906 52.00806045532227 89.32365417480469 57.83565902709961 87.00360107421875 63.32085800170898 C 84.76237487792969 68.61971282958984 81.55355834960938 73.37887573242188 77.46626281738281 77.46615600585938 C 73.37898254394531 81.55342864990234 68.61981201171875 84.76226043701172 63.32095718383789 87.00347137451172 C 57.83574295043945 89.32352447509766 52.00813293457031 90.49988555908203 46.0000114440918 90.49988555908203 Z" stroke="none"/>
                                    <path d="M 46.0000114440918 2.999992370605469 C 40.1937255859375 2.999992370605469 34.56270980834961 4.136497497558594 29.26339721679688 6.377906799316406 C 24.14334106445312 8.543510437011719 19.54442596435547 11.64437866210938 15.59441375732422 15.59439849853516 C 11.6444091796875 19.54439544677734 8.543525695800781 24.14329528808594 6.377922058105469 29.26335144042969 C 4.136512756347656 34.56266784667969 3.000007629394531 40.19366836547852 3.000007629394531 45.99993896484375 C 3.000007629394531 51.80620956420898 4.136512756347656 57.43722534179688 6.377922058105469 62.73654174804688 C 8.543525695800781 67.85658264160156 11.6444091796875 72.45548248291016 15.59441375732422 76.40549468994141 C 19.54442596435547 80.35549926757812 24.14334106445312 83.45636749267578 29.26338195800781 85.62196350097656 C 34.56270980834961 87.86338043212891 40.1937255859375 88.9998779296875 46.0000114440918 88.9998779296875 C 51.80629730224609 88.9998779296875 57.43731307983398 87.86338043212891 62.73664093017578 85.62196350097656 C 67.85668182373047 83.45636749267578 72.45559692382812 80.35549926757812 76.40560913085938 76.40549468994141 C 80.35561370849609 72.45548248291016 83.45649719238281 67.85658264160156 85.62210083007812 62.73654174804688 C 87.86351013183594 57.43722534179688 89.00001525878906 51.80620956420898 89.00001525878906 45.99993896484375 C 89.00001525878906 40.19366836547852 87.86351013183594 34.56266784667969 85.62210083007812 29.26335144042969 C 83.45649719238281 24.14329528808594 80.35561370849609 19.54439544677734 76.40560913085938 15.59439849853516 C 72.45559692382812 11.64437866210938 67.85668182373047 8.543510437011719 62.73662567138672 6.377906799316406 C 57.43731307983398 4.136497497558594 51.80629730224609 2.999992370605469 46.0000114440918 2.999992370605469 M 46.0000114440918 -7.62939453125e-06 C 71.40511322021484 -7.62939453125e-06 92.00001525878906 20.59487915039062 92.00001525878906 45.99993896484375 C 92.00001525878906 71.40501403808594 71.40511322021484 91.99988555908203 46.0000114440918 91.99988555908203 C 20.59490966796875 91.99988555908203 7.62939453125e-06 71.40501403808594 7.62939453125e-06 45.99993896484375 C 7.62939453125e-06 20.59487915039062 20.59490966796875 -7.62939453125e-06 46.0000114440918 -7.62939453125e-06 Z" stroke="none" fill="#36ceef"/>
                                  </g>
                                </g>
                              </g>
                            </g>
                          </g>
                        </g>
                      </g>
                    </g>
                  </g>
                </g>
              </g>
            </g>
          </g>
        </g>
      </g>
    </g>
    <g id="Filled_outline" data-name="Filled outline" transform="translate(-1365 9423)">
      <path id="Trazado_1031413" data-name="Trazado 1031413" d="M3,3H45V61H3Z" fill="#f4f4e6"/>
      <path id="Trazado_1031414" data-name="Trazado 1031414" d="M40,56h2v2H40Z" fill="#2d75bb"/>
      <path id="Trazado_1031415" data-name="Trazado 1031415" d="M36,56h2v2H36Z" fill="#2d75bb"/>
      <path id="Trazado_1031416" data-name="Trazado 1031416" d="M40,35,51,24l3,3-8,8Z" fill="#195c85"/>
      <path id="Trazado_1031417" data-name="Trazado 1031417" d="M37,39l-3,3,3,3,6-6Z" fill="#195c85"/>
      <path id="Trazado_1031418" data-name="Trazado 1031418" d="M34,42l-3,5,1,1,5-3Z" fill="#50b4f8"/>
      <path id="Trazado_1031419" data-name="Trazado 1031419" d="M51.879,21.879h4.243v4.243H51.879Z" transform="translate(-1.154 45.213) rotate(-45)" fill="#50b4f8"/>
      <path id="Trazado_1031420" data-name="Trazado 1031420" d="M47,28l-9,2-1,5h3Z" fill="#f9bb4b"/>
      <path id="Trazado_1031421" data-name="Trazado 1031421" d="M45,39h1l3,4v1a2,2,0,0,1-4,0Z" fill="#f4aa34"/>
      <path id="Trazado_1031422" data-name="Trazado 1031422" d="M45,39v5a2,2,0,0,1-4,0V41l2-2Z" fill="#f9bb4b"/>
      <path id="Trazado_1031423" data-name="Trazado 1031423" d="M58,36l-6-7-6,6H37a2,2,0,0,0,0,4h9l6,8h4l5,2V36Z" fill="#ffd782"/>
      <circle id="Elipse_11867" data-name="Elipse 11867" cx="6" cy="6" r="6" transform="translate(18 7)" fill="#f98c96"/>
      <g id="Grupo_1174093" data-name="Grupo 1174093">
        <path id="Trazado_1031424" data-name="Trazado 1031424" d="M11,22H41v2H11Z" fill="#394d5c"/>
        <path id="Trazado_1031425" data-name="Trazado 1031425" d="M7,26H25v2H7Z" fill="#394d5c"/>
        <path id="Trazado_1031426" data-name="Trazado 1031426" d="M27,26H41v2H27Z" fill="#394d5c"/>
        <path id="Trazado_1031427" data-name="Trazado 1031427" d="M7,30h8v2H7Z" fill="#394d5c"/>
        <path id="Trazado_1031428" data-name="Trazado 1031428" d="M17,30H35v2H17Z" fill="#394d5c"/>
        <path id="Trazado_1031429" data-name="Trazado 1031429" d="M7,34H21v2H7Z" fill="#394d5c"/>
        <path id="Trazado_1031430" data-name="Trazado 1031430" d="M23,34h9v2H23Z" fill="#394d5c"/>
      </g>
      <path id="Trazado_1031431" data-name="Trazado 1031431" d="M61,35H58.46l-5.1-5.948,4.345-4.345a1,1,0,0,0,0-1.414l-3-3a1,1,0,0,0-1.414,0L46.5,27.086,46,27.2V2H2V62H46V46.816a2.934,2.934,0,0,0,3.6-1.349L51.2,47.6a1,1,0,0,0,.8.4h3.808l4.82,1.929A1,1,0,0,0,62,49V36a1,1,0,0,0-1-1ZM54,22.414,55.586,24,54,25.586,52.414,24Zm-3,3L52.586,27l-7,7H42.414ZM39.586,34H38.22l.633-3.165,5.012-1.114ZM44,60H4V4H44V27.642l-6.217,1.381a1,1,0,0,0-.763.781l-.867,4.333a2.975,2.975,0,0,0-.952,5.248l-1.908,1.908a1.787,1.787,0,0,0-.15.192l-3,5a.993.993,0,0,0-.022.98l-.828.828a1.063,1.063,0,0,0-.125.152c-.216.325-.642.868-1.063.868-.486,0-1.064-.634-1.266-.937a1,1,0,0,0-.832-.455H26a1,1,0,0,0-.832.445c-.22.331-.655.886-1.091.888-.48,0-1.046-.6-1.242-.888a.994.994,0,0,0-1.148-.393,12.905,12.905,0,0,1-2.346.5,5.581,5.581,0,0,0,.884-1.524A4,4,0,0,0,19.86,43.4,4.25,4.25,0,0,0,15.7,41.017a5.3,5.3,0,0,0-4.25,3.483,3.811,3.811,0,0,0,.847,4.127,6.066,6.066,0,0,0,1.974,1.308,29.651,29.651,0,0,1-4.583,2.037l.632,1.9a28.616,28.616,0,0,0,6.748-3.318,15.228,15.228,0,0,0,4.582-.488,3.474,3.474,0,0,0,2.428,1.191,2.837,2.837,0,0,0,1.947-.813,3.219,3.219,0,0,0,2.068.872h.017a3.273,3.273,0,0,0,2.668-1.673l.768-.768A.984.984,0,0,0,32,49a1,1,0,0,0,.515-.143l5-3a1.786,1.786,0,0,0,.192-.15L40,43.414V44a3,3,0,0,0,3,3,2.966,2.966,0,0,0,1-.184ZM35.387,44.8l-2.971,1.784L34.2,43.613Zm-17.04,1.457a5.563,5.563,0,0,1-1.847,2.22,4.9,4.9,0,0,1-2.793-1.263,1.853,1.853,0,0,1-.377-2.039,3.333,3.333,0,0,1,2.56-2.165c.067-.006.133-.01.2-.01a2.455,2.455,0,0,1,2.054,1.436,1.984,1.984,0,0,1,.2,1.822ZM35.414,42l2-2h3.172L37,43.586ZM44,44a1,1,0,0,1-2,0V41.414L43.414,40H44Zm4,0a1,1,0,0,1-2,0V40.667l2,2.666Zm12,3.523-3.628-1.452A1.012,1.012,0,0,0,56,46H52.5l-5.7-7.6A1,1,0,0,0,46,38H37a1,1,0,0,1,0-2h9a1,1,0,0,0,.707-.293l5.236-5.236,5.3,6.179A1,1,0,0,0,58,37h2Z"/>
      <path id="Trazado_1031432" data-name="Trazado 1031432" d="M53.8,35.4l-1.6,1.2,3,4a1,1,0,0,0,.8.4h2V39H56.5Z"/>
      <path id="Trazado_1031433" data-name="Trazado 1031433" d="M40,56h2v2H40Z"/>
      <path id="Trazado_1031434" data-name="Trazado 1031434" d="M36,56h2v2H36Z"/>
      <path id="Trazado_1031435" data-name="Trazado 1031435" d="M24,20a7,7,0,1,0-7-7,7,7,0,0,0,7,7ZM24,8a5,5,0,1,1-5,5A5,5,0,0,1,24,8Z"/>
      <path id="Trazado_1031436" data-name="Trazado 1031436" d="M11,22H41v2H11Z"/>
      <path id="Trazado_1031437" data-name="Trazado 1031437" d="M7,26H25v2H7Z"/>
      <path id="Trazado_1031438" data-name="Trazado 1031438" d="M27,26H41v2H27Z"/>
      <path id="Trazado_1031439" data-name="Trazado 1031439" d="M7,30h8v2H7Z"/>
      <path id="Trazado_1031440" data-name="Trazado 1031440" d="M17,30H35v2H17Z"/>
      <path id="Trazado_1031441" data-name="Trazado 1031441" d="M7,34H21v2H7Z"/>
      <path id="Trazado_1031442" data-name="Trazado 1031442" d="M23,34h9v2H23Z"/>
    </g>
  </g>
</svg>
