<svg xmlns="http://www.w3.org/2000/svg" xmlns:xlink="http://www.w3.org/1999/xlink" width="106" height="106" viewBox="0 0 106 106">
  <defs>
    <filter id="Trazado_982547" x="0" y="0" width="106" height="106" filterUnits="userSpaceOnUse">
      <feOffset dy="3" input="SourceAlpha"/>
      <feGaussianBlur stdDeviation="3" result="blur"/>
      <feFlood flood-opacity="0.161"/>
      <feComposite operator="in" in2="blur"/>
      <feComposite in="SourceGraphic"/>
    </filter>
  </defs>
  <g id="Grupo_1174120" data-name="Grupo 1174120" transform="translate(-171 -1901)">
    <g id="Grupo_1173334" data-name="Grupo 1173334" transform="translate(0 -2077)">
      <g id="Grupo_1171932" data-name="Grupo 1171932" transform="translate(0 2921)">
        <g id="Grupo_1167337" data-name="Grupo 1167337" transform="translate(180 1063)">
          <g id="Grupo_1166720" data-name="Grupo 1166720" transform="translate(0)">
            <g id="Grupo_1164305" data-name="Grupo 1164305">
              <g id="Grupo_1163948" data-name="Grupo 1163948">
                <g id="Grupo_1158168" data-name="Grupo 1158168">
                  <g id="Grupo_1152576" data-name="Grupo 1152576">
                    <g id="Grupo_1148633" data-name="Grupo 1148633">
                      <g id="Grupo_1148525" data-name="Grupo 1148525">
                        <g transform="matrix(1, 0, 0, 1, -9, -6)" filter="url(#Trazado_982547)">
                          <g id="Trazado_982547-2" data-name="Trazado 982547" transform="translate(9 6)" fill="#e9f9fd">
                            <path d="M 44 86.5 C 38.26187515258789 86.5 32.69618606567383 85.37651062011719 27.45755004882812 83.16075897216797 C 22.3968505859375 81.020263671875 17.85157585144043 77.95565032958984 13.94796276092529 74.05204010009766 C 10.04434967041016 70.1484375 6.979737281799316 65.6031494140625 4.839250087738037 60.54246139526367 C 2.62348747253418 55.30381393432617 1.5 49.73812484741211 1.5 44 C 1.5 38.26187515258789 2.62348747253418 32.69618606567383 4.839250087738037 27.45755004882812 C 6.979737281799316 22.3968505859375 10.04434967041016 17.85157585144043 13.94796276092529 13.94796276092529 C 17.85157585144043 10.04434967041016 22.3968505859375 6.979737281799316 27.45755004882812 4.839250087738037 C 32.69618606567383 2.62348747253418 38.26187515258789 1.5 44 1.5 C 49.73812484741211 1.5 55.30381393432617 2.62348747253418 60.54246139526367 4.839250087738037 C 65.6031494140625 6.979737281799316 70.1484375 10.04434967041016 74.05204010009766 13.94796276092529 C 77.95565032958984 17.85157585144043 81.020263671875 22.3968505859375 83.16075897216797 27.45755004882812 C 85.37651062011719 32.69618606567383 86.5 38.26187515258789 86.5 44 C 86.5 49.73812484741211 85.37651062011719 55.30381393432617 83.16075897216797 60.54246139526367 C 81.020263671875 65.6031494140625 77.95565032958984 70.1484375 74.05204010009766 74.05204010009766 C 70.1484375 77.95565032958984 65.6031494140625 81.020263671875 60.54246139526367 83.16075897216797 C 55.30381393432617 85.37651062011719 49.73812484741211 86.5 44 86.5 Z" stroke="none"/>
                            <path d="M 44 3 C 38.46371459960938 3 33.09462738037109 4.083610534667969 28.0418701171875 6.220756530761719 C 23.15997314453125 8.285614013671875 18.77495574951172 11.24228668212891 15.00862884521484 15.00862884521484 C 11.24228668212891 18.77495574951172 8.285614013671875 23.15997314453125 6.220756530761719 28.0418701171875 C 4.083610534667969 33.09462738037109 3 38.46371459960938 3 44 C 3 49.53628540039062 4.083610534667969 54.9053840637207 6.220756530761719 59.9581298828125 C 8.285614013671875 64.84002685546875 11.24228668212891 69.22504425048828 15.00862884521484 72.99138641357422 C 18.77495574951172 76.75771331787109 23.15997314453125 79.71438598632812 28.0418701171875 81.77925872802734 C 33.09462738037109 83.9163818359375 38.46371459960938 85 44 85 C 49.53628540039062 85 54.9053840637207 83.9163818359375 59.95814514160156 81.77925872802734 C 64.84002685546875 79.71438598632812 69.22504425048828 76.75771331787109 72.99138641357422 72.99138641357422 C 76.75771331787109 69.22504425048828 79.71438598632812 64.84002685546875 81.77925872802734 59.95814514160156 C 83.9163818359375 54.9053840637207 85 49.53628540039062 85 44 C 85 38.46371459960938 83.9163818359375 33.09462738037109 81.77925872802734 28.0418701171875 C 79.71438598632812 23.15997314453125 76.75771331787109 18.77495574951172 72.99138641357422 15.00862884521484 C 69.22504425048828 11.24228668212891 64.84002685546875 8.285614013671875 59.9581298828125 6.220756530761719 C 54.9053840637207 4.083610534667969 49.53628540039062 3 44 3 M 44 0 C 68.30054473876953 0 88 19.69947052001953 88 44 C 88 68.30054473876953 68.30054473876953 88 44 88 C 19.69947052001953 88 0 68.30054473876953 0 44 C 0 19.69947052001953 19.69947052001953 0 44 0 Z" stroke="none" fill="#1d7083"/>
                          </g>
                        </g>
                      </g>
                    </g>
                  </g>
                </g>
              </g>
            </g>
          </g>
        </g>
      </g>
    </g>
    <g id="_29-Pay_Day" data-name="29-Pay Day" transform="translate(192 1921)">
      <rect id="Rectángulo_415109" data-name="Rectángulo 415109" width="48" height="46" rx="4" transform="translate(3 8)" fill="#eee"/>
      <path id="Trazado_1031486" data-name="Trazado 1031486" d="M51,12V50a4,4,0,0,1-4,4H7a4,4,0,0,1-4-4v-.36A3.984,3.984,0,0,0,6,51H42a4,4,0,0,0,4-4V11a3.984,3.984,0,0,0-1.36-3H47a4,4,0,0,1,4,4Z" fill="#e0e0e0"/>
      <path id="Trazado_1031487" data-name="Trazado 1031487" d="M51,12v4H3V12A4,4,0,0,1,7,8H47a4,4,0,0,1,4,4Z" fill="#ef5350"/>
      <path id="Trazado_1031488" data-name="Trazado 1031488" d="M51,12v4H46V11a3.984,3.984,0,0,0-1.36-3H47a4,4,0,0,1,4,4Z" fill="#e53935"/>
      <rect id="Rectángulo_415110" data-name="Rectángulo 415110" width="4" height="9" rx="2" transform="translate(11 3)" fill="#eee"/>
      <rect id="Rectángulo_415111" data-name="Rectángulo 415111" width="4" height="9" rx="2" transform="translate(25 3)" fill="#eee"/>
      <rect id="Rectángulo_415112" data-name="Rectángulo 415112" width="4" height="9" rx="2" transform="translate(39 3)" fill="#eee"/>
      <path id="Trazado_1031489" data-name="Trazado 1031489" d="M15,5v5a2,2,0,0,1-3,1.73A2,2,0,0,0,13,10V5a1.955,1.955,0,0,0-.59-1.41A1.813,1.813,0,0,0,12,3.27,2,2,0,0,1,15,5Z" fill="#e0e0e0"/>
      <path id="Trazado_1031490" data-name="Trazado 1031490" d="M29,5v5a2,2,0,0,1-3,1.73A2,2,0,0,0,27,10V5a1.955,1.955,0,0,0-.59-1.41A1.813,1.813,0,0,0,26,3.27,2,2,0,0,1,29,5Z" fill="#e0e0e0"/>
      <path id="Trazado_1031491" data-name="Trazado 1031491" d="M43,5v5a2,2,0,0,1-3,1.73A2,2,0,0,0,41,10V5a1.955,1.955,0,0,0-.59-1.41A1.813,1.813,0,0,0,40,3.27,2,2,0,0,1,43,5Z" fill="#e0e0e0"/>
      <path id="Trazado_1031492" data-name="Trazado 1031492" d="M19,22h6v6H19Z" fill="#64b5f6"/>
      <path id="Trazado_1031493" data-name="Trazado 1031493" d="M29,22h6v6H29Z" fill="#64b5f6"/>
      <path id="Trazado_1031494" data-name="Trazado 1031494" d="M29,32h6v6H29Z" fill="#64b5f6"/>
      <path id="Trazado_1031495" data-name="Trazado 1031495" d="M39,22h6v6H39Z" fill="#64b5f6"/>
      <path id="Trazado_1031496" data-name="Trazado 1031496" d="M9,32h6v6H9Z" fill="#64b5f6"/>
      <path id="Trazado_1031497" data-name="Trazado 1031497" d="M15,32v6H9V35a3,3,0,0,0,3-3Z" fill="#42a5f5"/>
      <path id="Trazado_1031498" data-name="Trazado 1031498" d="M19,32h6v6H19Z" fill="#64b5f6"/>
      <path id="Trazado_1031499" data-name="Trazado 1031499" d="M9,42h6v6H9Z" fill="#64b5f6"/>
      <path id="Trazado_1031500" data-name="Trazado 1031500" d="M19,42h6v6H19Z" fill="#64b5f6"/>
      <g id="Grupo_1174119" data-name="Grupo 1174119">
        <path id="Trazado_1031501" data-name="Trazado 1031501" d="M15,42v6H9V45a3,3,0,0,0,3-3Z" fill="#42a5f5"/>
        <path id="Trazado_1031502" data-name="Trazado 1031502" d="M25,32v6H19V35a3,3,0,0,0,3-3Z" fill="#42a5f5"/>
        <path id="Trazado_1031503" data-name="Trazado 1031503" d="M25,22v6H19V25a3,3,0,0,0,3-3Z" fill="#42a5f5"/>
        <path id="Trazado_1031504" data-name="Trazado 1031504" d="M35,32v6H29V35a3,3,0,0,0,3-3Z" fill="#42a5f5"/>
        <path id="Trazado_1031505" data-name="Trazado 1031505" d="M35,22v6H29V25a3,3,0,0,0,3-3Z" fill="#42a5f5"/>
        <path id="Trazado_1031506" data-name="Trazado 1031506" d="M45,22v6H39V25a3,3,0,0,0,3-3Z" fill="#42a5f5"/>
        <path id="Trazado_1031507" data-name="Trazado 1031507" d="M25,42v6H19V45a3,3,0,0,0,3-3Z" fill="#42a5f5"/>
      </g>
      <circle id="Elipse_11873" data-name="Elipse 11873" cx="15" cy="15" r="15" transform="translate(31 31)" fill="#ffd54f"/>
      <path id="Trazado_1031508" data-name="Trazado 1031508" d="M61,46A15.006,15.006,0,0,1,46,61a14.6,14.6,0,0,1-2-.14,14.993,14.993,0,0,0,0-29.72A14.6,14.6,0,0,1,46,31,15.006,15.006,0,0,1,61,46Z" fill="#ffca28"/>
      <circle id="Elipse_11874" data-name="Elipse 11874" cx="11" cy="11" r="11" transform="translate(35 35)" fill="#ffb74d"/>
      <path id="Trazado_1031509" data-name="Trazado 1031509" d="M48,56.82a11,11,0,1,1,0-21.64,11,11,0,0,0,0,21.64Z" fill="#ffa726"/>
      <path id="Trazado_1031510" data-name="Trazado 1031510" d="M26,22a1,1,0,0,0-1-1H19a1,1,0,0,0-1,1v6a1,1,0,0,0,1,1h6a1,1,0,0,0,1-1Zm-2,5H20V23h4Zm5-6a1,1,0,0,0-1,1v6a1,1,0,0,0,1,1h6a1,1,0,0,0,1-1V22a1,1,0,0,0-1-1Zm5,6H30V23h4Zm5-6a1,1,0,0,0-1,1v6a1,1,0,0,0,1,1h6a1,1,0,0,0,1-1V22a1,1,0,0,0-1-1Zm5,6H40V23h4ZM16,32a1,1,0,0,0-1-1H9a1,1,0,0,0-1,1v6a1,1,0,0,0,1,1h6a1,1,0,0,0,1-1Zm-2,5H10V33h4Zm12-5a1,1,0,0,0-1-1H19a1,1,0,0,0-1,1v6a1,1,0,0,0,1,1h6a1,1,0,0,0,1-1Zm-2,5H20V33h4Zm-9,4H9a1,1,0,0,0-1,1v6a1,1,0,0,0,1,1h6a1,1,0,0,0,1-1V42A1,1,0,0,0,15,41Zm-1,6H10V43h4Zm11-6H19a1,1,0,0,0-1,1v6a1,1,0,0,0,1,1h6a1,1,0,0,0,1-1V42A1,1,0,0,0,25,41Zm-1,6H20V43h4ZM46,30A16,16,0,1,0,62,46,16,16,0,0,0,46,30Zm0,30A14,14,0,1,1,60,46,14,14,0,0,1,46,60ZM30,38a1,1,0,0,1-2,0V32a1,1,0,0,1,1-1h4a1,1,0,0,1,0,2H30ZM28,53H7a3,3,0,0,1-3-3V17H50V27a1,1,0,0,0,2,0V12a5.006,5.006,0,0,0-5-5H44V5a3,3,0,0,0-6,0V7H30V5a3,3,0,0,0-6,0V7H16V5a3,3,0,0,0-6,0V7H7a5.006,5.006,0,0,0-5,5V50a5.006,5.006,0,0,0,5,5H28a1,1,0,0,0,0-2ZM40,5a1,1,0,0,1,2,0v5a1,1,0,0,1-2,0ZM26,5a1,1,0,0,1,2,0v5a1,1,0,0,1-2,0ZM12,5a1,1,0,0,1,2,0v5a1,1,0,0,1-2,0ZM7,9h3v1a3,3,0,0,0,6,0V9h8v1a3,3,0,0,0,6,0V9h8v1a3,3,0,0,0,6,0V9h3a3,3,0,0,1,3,3v3H4V12A3,3,0,0,1,7,9ZM46,34A12,12,0,1,0,58,46,12,12,0,0,0,46,34Zm0,22A10,10,0,1,1,56,46,10,10,0,0,1,46,56ZM44,43.5A1.5,1.5,0,0,0,45.5,45h1a3.492,3.492,0,0,1,.5,6.95V53a1,1,0,0,1-2,0V52H43a1,1,0,0,1,0-2h3.5a1.5,1.5,0,1,0,0-3h-1a3.492,3.492,0,0,1-.5-6.95V39a1,1,0,0,1,2,0v1h2a1,1,0,0,1,0,2H45.5A1.5,1.5,0,0,0,44,43.5Z"/>
    </g>
  </g>
</svg>
