<svg xmlns="http://www.w3.org/2000/svg" width="31.559" height="31.554" viewBox="0 0 31.559 31.554">
  <g id="legal-document_3207533" transform="translate(0 -0.044)">
    <path id="Trazado_1025804" data-name="Trazado 1025804" d="M68.723,133.329h7.094a.462.462,0,1,0,0-.925H68.723a.462.462,0,1,0,0,.925Z" transform="translate(-64.054 -124.202)"/>
    <path id="Trazado_1025805" data-name="Trazado 1025805" d="M68.723,312.4a.462.462,0,1,0,0,.925h7.711a.462.462,0,1,0,0-.925Z" transform="translate(-64.054 -293.107)"/>
    <path id="Trazado_1025806" data-name="Trazado 1025806" d="M216.033,193.329a.462.462,0,1,0,0-.925h-5.071a.462.462,0,0,0,0,.925Z" transform="translate(-197.525 -180.503)"/>
    <path id="Trazado_1025807" data-name="Trazado 1025807" d="M66.7,193.329h6.735a.462.462,0,0,0,0-.925H66.7a.462.462,0,0,0,0,.925Z" transform="translate(-62.155 -180.503)"/>
    <path id="Trazado_1025808" data-name="Trazado 1025808" d="M66.7,253.329H77.546a.462.462,0,0,0,0-.925H66.7a.462.462,0,0,0,0,.925Z" transform="translate(-62.155 -236.805)"/>
    <path id="Trazado_1025809" data-name="Trazado 1025809" d="M66.7,373.329h9a.462.462,0,1,0,0-.925h-9a.462.462,0,1,0,0,.925Z" transform="translate(-62.155 -349.408)"/>
    <path id="Trazado_1025810" data-name="Trazado 1025810" d="M31.554,26.584a2.227,2.227,0,0,0-.986-1.628L26.55,21.78l.914-.913a1.341,1.341,0,0,0,.58.13h0a1.755,1.755,0,0,0,1.224-.537l0,0a1.543,1.543,0,0,0,.164-2.148l-4.709-4.734a1.425,1.425,0,0,0-1.673-.181V9.38a2.285,2.285,0,0,0-.684-1.634L15.276.721A2.329,2.329,0,0,0,13.626.044H2.956A2.945,2.945,0,0,0,0,2.97V4.684a.462.462,0,1,0,.925,0V2.97a2.019,2.019,0,0,1,2.031-2l10.985.037V6.946a2.142,2.142,0,0,0,2.148,2.132h6.005l.035,5.4a1.47,1.47,0,0,0,.057,1.1l-4.174,4.172a1.627,1.627,0,0,0-1.816.4,1.538,1.538,0,0,0-.17,2.152l4.722,4.721a1.374,1.374,0,0,0,1.381.3,2.084,2.084,0,0,1-.589,1.666,2.022,2.022,0,0,1-1.458.592l-.947-.007a1.7,1.7,0,0,0-1.074-.877v-.391a1.7,1.7,0,0,0-1.7-1.7H10.673a1.7,1.7,0,0,0-1.7,1.7v.391a1.7,1.7,0,0,0-1.037.808H2.956a2.019,2.019,0,0,1-2.031-2V6.84A.462.462,0,0,0,0,6.84V27.491a2.945,2.945,0,0,0,2.956,2.927H7.724v.41a.771.771,0,0,0,.77.77H10.6a.462.462,0,0,0,0-.925H8.648v-.351a.771.771,0,0,1,.77-.77h8.2a.771.771,0,0,1,.77.77v.351H12.759a.462.462,0,0,0,0,.925h5.785a.771.771,0,0,0,.77-.77v-.339l.782.005a2.951,2.951,0,0,0,2.094-.861,2.892,2.892,0,0,0,.862-2.065v-.9a1.573,1.573,0,0,0,.244-1.638l.888-.887,3.171,4.031c1.137,1.382,2.294,1.243,3.429.217a2.354,2.354,0,0,0,.77-1.807Zm-20.881.939h5.692a.771.771,0,0,1,.77.77v.333H9.9v-.333A.771.771,0,0,1,10.673,27.523ZM23.235,14.393c.242-.223.563-.38.835-.167l4.709,4.734c.18.181.1.577-.166.847-.249.234-.614.4-.873.13L26,18.183a.462.462,0,0,0-.655.652l1.42,1.427c-1.224,1.222-2.845,2.843-4.068,4.066L18.712,20.35l4.079-4.077,1.015,1.02a.462.462,0,1,0,.655-.652l-1.342-1.35c-.245-.193-.173-.6.116-.9Zm-8.37-7.446V1.615l6.6,6.539H16.088a1.217,1.217,0,0,1-1.223-1.207ZM21.4,26.361l-4.722-4.721c-.212-.273-.057-.6.164-.838.294-.288.7-.364.889-.125l4.677,4.676c.213.273.056.6-.167.841C21.973,26.462,21.58,26.54,21.4,26.361Zm8.729,1.378a1.207,1.207,0,0,1-2.045-.131l-3.242-4.122,1.048-1.048L30,25.685a1.216,1.216,0,0,1,.131,2.053Z" transform="translate(0 0)"/>
  </g>
</svg>
