<svg xmlns="http://www.w3.org/2000/svg" xmlns:xlink="http://www.w3.org/1999/xlink" width="108" height="108" viewBox="0 0 108 108">
  <defs>
    <filter id="Trazado_904820" x="0" y="0" width="108" height="108" filterUnits="userSpaceOnUse">
      <feOffset dy="3" input="SourceAlpha"/>
      <feGaussianBlur stdDeviation="3" result="blur"/>
      <feFlood flood-opacity="0.161"/>
      <feComposite operator="in" in2="blur"/>
      <feComposite in="SourceGraphic"/>
    </filter>
  </defs>
  <g id="Grupo_1174121" data-name="Grupo 1174121" transform="translate(-620 -4220.212)">
    <g id="Grupo_1173352" data-name="Grupo 1173352" transform="translate(629 4226.212)">
      <g id="Grupo_1171910" data-name="Grupo 1171910" transform="translate(0)">
        <g id="Grupo_1167341" data-name="Grupo 1167341">
          <g id="Grupo_1166792" data-name="Grupo 1166792">
            <g transform="matrix(1, 0, 0, 1, -9, -6)" filter="url(#Trazado_904820)">
              <g id="Trazado_904820-2" data-name="Trazado 904820" transform="translate(9 6)" fill="#f2f7e5">
                <path d="M 44.99999618530273 88.50003051757812 C 39.12687301635742 88.50003051757812 33.43022155761719 87.35010528564453 28.06829643249512 85.08219909667969 C 22.88852119445801 82.89134216308594 18.23629570007324 79.75461578369141 14.24084663391113 75.75916290283203 C 10.24540901184082 71.76371765136719 7.108683586120605 67.11150360107422 4.917821407318115 61.93172836303711 C 2.649921178817749 56.56978988647461 1.499996185302734 50.87313842773438 1.499996185302734 45.00001525878906 C 1.499996185302734 39.12689208984375 2.649921178817749 33.43024063110352 4.917821407318115 28.06831550598145 C 7.108683586120605 22.88854026794434 10.24540901184082 18.23631477355957 14.24084663391113 14.24086570739746 C 18.23629570007324 10.24541568756104 22.88852119445801 7.10869026184082 28.06829643249512 4.917840480804443 C 33.43022155761719 2.649927854537964 39.12687301635742 1.50000274181366 44.99999618530273 1.50000274181366 C 50.87311935424805 1.50000274181366 56.56977081298828 2.649927854537964 61.93169784545898 4.917840480804443 C 67.11147308349609 7.10869026184082 71.76369476318359 10.24541568756104 75.75914764404297 14.24086570739746 C 79.75458526611328 18.23631477355957 82.89131164550781 22.88854026794434 85.08216857910156 28.06831550598145 C 87.35007476806641 33.43024063110352 88.5 39.12689208984375 88.5 45.00001525878906 C 88.5 50.87313842773438 87.35007476806641 56.56978988647461 85.08216857910156 61.93172836303711 C 82.89131164550781 67.11150360107422 79.75458526611328 71.76371765136719 75.75914764404297 75.75916290283203 C 71.76369476318359 79.75461578369141 67.11147308349609 82.89134216308594 61.93169784545898 85.08219909667969 C 56.56977081298828 87.35010528564453 50.87311935424805 88.50003051757812 44.99999618530273 88.50003051757812 Z" stroke="none"/>
                <path d="M 44.99999618530273 3 C 39.32870864868164 3 33.82865142822266 4.110061645507812 28.65262603759766 6.299346923828125 C 23.65165710449219 8.414573669433594 19.15968322753906 11.44334411621094 15.301513671875 15.301513671875 C 11.44333648681641 19.15968322753906 8.414566040039062 23.65165710449219 6.299339294433594 28.65262985229492 C 4.110054016113281 33.82867050170898 2.999992370605469 39.32872772216797 2.999992370605469 45.00001525878906 C 2.999992370605469 50.67130279541016 4.110054016113281 56.17136001586914 6.299339294433594 61.34738922119141 C 8.414566040039062 66.34837341308594 11.44333648681641 70.84033203125 15.301513671875 74.69850158691406 C 19.15968322753906 78.55668640136719 23.65165710449219 81.58545684814453 28.65262603759766 83.70068359375 C 33.82865142822266 85.88996887207031 39.32870864868164 87.00003051757812 44.99999618530273 87.00003051757812 C 50.67128372192383 87.00003051757812 56.17134094238281 85.88996887207031 61.34736633300781 83.70068359375 C 66.34834289550781 81.58545684814453 70.84030914306641 78.55668640136719 74.69847869873047 74.69850158691406 C 78.55665588378906 70.84033203125 81.58542633056641 66.34837341308594 83.70065307617188 61.34738922119141 C 85.88993835449219 56.17136001586914 87 50.67130279541016 87 45.00001525878906 C 87 39.32872772216797 85.88993835449219 33.82867050170898 83.70065307617188 28.65262985229492 C 81.58542633056641 23.65165710449219 78.55665588378906 19.15968322753906 74.69847869873047 15.301513671875 C 70.84030914306641 11.44334411621094 66.34834289550781 8.414573669433594 61.34736633300781 6.299346923828125 C 56.17134094238281 4.110061645507812 50.67128372192383 3 44.99999618530273 3 M 44.99999618530273 0 C 69.85281372070312 0 90 20.14718627929688 90 45.00001525878906 C 90 69.85282897949219 69.85281372070312 90.00003051757812 44.99999618530273 90.00003051757812 C 20.14717864990234 90.00003051757812 -7.62939453125e-06 69.85282897949219 -7.62939453125e-06 45.00001525878906 C -7.62939453125e-06 20.14718627929688 20.14717864990234 0 44.99999618530273 0 Z" stroke="none" fill="#86b60c"/>
              </g>
            </g>
          </g>
        </g>
      </g>
    </g>
    <g id="copyright" transform="translate(647.058 4241.241)">
      <path id="Trazado_1031512" data-name="Trazado 1031512" d="M44.024,9.527V55.213a1.87,1.87,0,0,1-1.865,1.865H4.865A1.87,1.87,0,0,1,3,55.213V4.865A1.87,1.87,0,0,1,4.865,3H37.5V9.527Z" transform="translate(-0.068 -0.068)" fill="#ebe5dd"/>
      <path id="Trazado_1031513" data-name="Trazado 1031513" d="M46.594,10V55.686a1.87,1.87,0,0,1-1.865,1.865H41a1.87,1.87,0,0,0,1.865-1.865V10Z" transform="translate(-2.637 -0.541)" fill="#c0ab91"/>
      <path id="Trazado_1031514" data-name="Trazado 1031514" d="M33.647,15.324c0,.606-.569,1.091-1.165,1.566a4.026,4.026,0,0,0-1.268,1.287c-.42,1.026.476,2.965-.3,3.739s-2.713-.121-3.739.3a4.026,4.026,0,0,0-1.287,1.268c-.476.6-.96,1.165-1.566,1.165s-1.091-.569-1.566-1.165a4.026,4.026,0,0,0-1.287-1.268c-1.026-.42-2.965.476-3.739-.3s.121-2.713-.3-3.739a4.026,4.026,0,0,0-1.268-1.287c-.6-.476-1.165-.96-1.165-1.566,0-1.137,2.023-1.865,2.433-2.853.42-1.026-.476-2.965.3-3.739s2.713.121,3.739-.3C22.459,8.023,23.186,6,24.324,6s1.865,2.023,2.853,2.433c1.026.42,2.965-.476,3.739.3s-.121,2.713.3,3.739C31.624,13.459,33.647,14.186,33.647,15.324Z" transform="translate(-0.879 -0.271)" fill="#ffde55"/>
      <ellipse id="Elipse_11875" data-name="Elipse 11875" cx="3.5" cy="4" rx="3.5" ry="4" transform="translate(19.942 10.942)" fill="#ff7956"/>
      <path id="Trazado_1031515" data-name="Trazado 1031515" d="M59.106,25.594v9.053a18.628,18.628,0,0,1-7.816,15.171l-5.237,3.746-5.24-3.748c-.4-.289-.793-.587-1.165-.914a18.327,18.327,0,0,1-3.385-3.729A17.833,17.833,0,0,1,34.3,41.445a17.013,17.013,0,0,1-1.035-3.729A17.694,17.694,0,0,1,33,34.648V25.594l1.977-.848h.009l3.935-1.688L46.053,20Z" transform="translate(-2.096 -1.217)" fill="#e0e0e2"/>
      <path id="Trazado_1031516" data-name="Trazado 1031516" d="M59.918,25.594v9.053A18.628,18.628,0,0,1,52.1,49.819l-5.237,3.746L45,52.232l3.375-2.415a18.627,18.627,0,0,0,7.813-15.17V25.594L45,20.8l1.865-.8Z" transform="translate(-2.908 -1.217)" fill="#c6c5ca"/>
      <path id="Trazado_1031517" data-name="Trazado 1031517" d="M55.647,28.729v5.883a14.918,14.918,0,0,1-5.594,11.645l-3.729,2.984-3.729-2.984A14.918,14.918,0,0,1,37,34.613V28.729L46.324,25Z" transform="translate(-2.367 -1.555)" fill="#57a4ff"/>
      <path id="Trazado_1031518" data-name="Trazado 1031518" d="M56.188,28.729v5.883a14.918,14.918,0,0,1-5.594,11.645l-3.729,2.984L45,47.75l1.865-1.492a14.918,14.918,0,0,0,5.594-11.645V28.729L45,25.746,46.865,25Z" transform="translate(-2.908 -1.555)" fill="#2488ff"/>
      <path id="Trazado_1031519" data-name="Trazado 1031519" d="M46.527,9.527H40V3Z" transform="translate(-2.57 -0.068)" fill="#a78966"/>
      <path id="Trazado_1031520" data-name="Trazado 1031520" d="M38.493,22.9l-3.935,1.688h-.009l-1.977.848v4.727L26.68,24.272A4.026,4.026,0,0,1,27.967,23c1.026-.42,2.965.476,3.739-.3s-.121-2.713.3-3.739a4.026,4.026,0,0,1,1.268-1.287Z" transform="translate(-1.669 -1.06)" fill="#ff7956"/>
      <path id="Trazado_1031521" data-name="Trazado 1031521" d="M22.381,24.272l-6.349,6.349-.653-5.939L9.44,24.029l6.349-6.349a4.026,4.026,0,0,1,1.268,1.287c.42,1.026-.476,2.965.3,3.739s2.713-.121,3.739.3a4.026,4.026,0,0,1,1.287,1.268Z" transform="translate(-0.503 -1.06)" fill="#ff7956"/>
      <path id="Trazado_1031522" data-name="Trazado 1031522" d="M57.374,23.519,44.889,18.167V9.459a.963.963,0,0,0-.27-.662L38.092,2.27A.963.963,0,0,0,37.43,2H4.8A2.806,2.806,0,0,0,2,4.8V55.145a2.806,2.806,0,0,0,2.8,2.8H42.092a2.806,2.806,0,0,0,2.8-2.8V52.824l4.858-3.459a19.639,19.639,0,0,0,8.2-15.934V24.377A.932.932,0,0,0,57.374,23.519ZM38.363,5.179,41.71,8.527H38.363Zm4.662,49.966a.932.932,0,0,1-.932.932H4.8a.932.932,0,0,1-.932-.932V4.8A.932.932,0,0,1,4.8,3.865H36.5V9.459a.932.932,0,0,0,.932.932h5.594v7.776l-5.986,2.564-4.074-4.074a2.314,2.314,0,0,0,.737-1.6c0-1.1-.914-1.818-1.641-2.4a3.646,3.646,0,0,1-.858-.811,3.372,3.372,0,0,1,.019-1.259A3.233,3.233,0,0,0,30.7,7.8a3.239,3.239,0,0,0-2.788-.522,3.321,3.321,0,0,1-1.249.019,3.474,3.474,0,0,1-.82-.858,3.284,3.284,0,0,0-2.4-1.641c-1.1,0-1.818.914-2.4,1.641a3.646,3.646,0,0,1-.811.858,3.372,3.372,0,0,1-1.259-.019,3.233,3.233,0,0,0-2.788.522,3.233,3.233,0,0,0-.522,2.788,3.321,3.321,0,0,1,.019,1.249,3.474,3.474,0,0,1-.858.82,3.284,3.284,0,0,0-1.641,2.4,2.314,2.314,0,0,0,.737,1.6l-5.65,5.65a.932.932,0,0,0-.214.97.919.919,0,0,0,.774.615l5.193.578.578,5.193a.919.919,0,0,0,.615.774.9.9,0,0,0,.308.056.939.939,0,0,0,.662-.27l5.65-5.65a2.114,2.114,0,0,0,3.207,0l4.923,4.914V33.43a20.341,20.341,0,0,0,.121,2.135H7.594V37.43h22.8c.14.634.3,1.249.485,1.865H7.594V41.16H31.575a20.365,20.365,0,0,0,.923,1.865H7.594v1.865h26.1a18.261,18.261,0,0,0,1.529,1.865H7.594v1.865H37.2c.317.252.643.5.97.746l4.858,3.459ZM16.191,22.307a3.233,3.233,0,0,0,2.788.522,3.529,3.529,0,0,1,1.249-.019,1.29,1.29,0,0,1,.392.336l-4.373,4.382L15.8,23.519a.932.932,0,0,0-.82-.82l-4.009-.448,4.382-4.373a1.278,1.278,0,0,1,.336.382,3.372,3.372,0,0,1-.019,1.259A3.233,3.233,0,0,0,16.191,22.307Zm3.646-1.417a10.2,10.2,0,0,0-1.063.084,3.58,3.58,0,0,1-1.259.019,3.384,3.384,0,0,1,.009-1.268,4.371,4.371,0,0,0-.112-2.172,4.237,4.237,0,0,0-1.427-1.566c-.308-.242-.932-.737-.932-.932s.625-.69.932-.932a4.237,4.237,0,0,0,1.427-1.566,4.371,4.371,0,0,0,.112-2.172,3.58,3.58,0,0,1-.019-1.259,3.384,3.384,0,0,1,1.268.009,4.371,4.371,0,0,0,2.172-.112,4.237,4.237,0,0,0,1.566-1.427c.242-.308.737-.932.932-.932s.69.625.932.932a4.237,4.237,0,0,0,1.566,1.427,4.371,4.371,0,0,0,2.172.112,3.58,3.58,0,0,1,1.259-.019,3.384,3.384,0,0,1-.009,1.268,4.371,4.371,0,0,0,.112,2.172A4.237,4.237,0,0,0,30.9,14.121c.308.242.932.737.932.932s-.625.69-.932.932a4.237,4.237,0,0,0-1.427,1.566,4.371,4.371,0,0,0-.112,2.172,3.58,3.58,0,0,1,.019,1.259,3.593,3.593,0,0,1-1.268-.009,4.371,4.371,0,0,0-2.172.112,4.237,4.237,0,0,0-1.566,1.427c-.242.308-.737.932-.932.932s-.69-.625-.932-.932a4.237,4.237,0,0,0-1.566-1.427,2.817,2.817,0,0,0-1.11-.2Zm6.816,1.921a3.372,3.372,0,0,1,1.259.019,3.239,3.239,0,0,0,2.788-.522,3.233,3.233,0,0,0,.522-2.788A3.321,3.321,0,0,1,31.2,18.27a1.29,1.29,0,0,1,.336-.392l3.655,3.646-4.653,2a.932.932,0,0,0-.569.858v2.48l-3.7-3.711a1.278,1.278,0,0,1,.382-.336ZM56.078,33.43a17.737,17.737,0,0,1-7.422,14.414l-4.7,3.357-4.7-3.357A17.737,17.737,0,0,1,31.836,33.43V24.992L43.957,19.8l12.121,5.193Z"/>
      <path id="Trazado_1031523" data-name="Trazado 1031523" d="M45.91,24.066,36.586,27.8a.932.932,0,0,0-.586.866v5.883a15.77,15.77,0,0,0,5.949,12.377l3.725,2.984a.932.932,0,0,0,1.165,0l3.725-2.984a15.77,15.77,0,0,0,5.949-12.377V28.662a.932.932,0,0,0-.586-.866L46.6,24.066A.932.932,0,0,0,45.91,24.066Zm8.737,5.227v5.252A13.913,13.913,0,0,1,49.4,45.465l-3.142,2.516-3.142-2.517a13.913,13.913,0,0,1-5.249-10.918V29.293l8.391-3.357Z" transform="translate(-2.299 -1.488)"/>
      <path id="Trazado_1031524" data-name="Trazado 1031524" d="M42.611,36.958l-1.318,1.318,2.8,2.8a.932.932,0,0,0,.659.273h.031a.932.932,0,0,0,.671-.318l6.527-7.459-1.4-1.227L44.7,39.056Z" transform="translate(-2.657 -2.052)"/>
      <path id="Trazado_1031525" data-name="Trazado 1031525" d="M29.324,15.662a4.662,4.662,0,1,0-4.662,4.662,4.662,4.662,0,0,0,4.662-4.662Zm-7.459,0a2.8,2.8,0,1,1,2.8,2.8,2.8,2.8,0,0,1-2.8-2.8Z" transform="translate(-1.217 -0.609)"/>
    </g>
  </g>
</svg>
