<svg xmlns="http://www.w3.org/2000/svg" xmlns:xlink="http://www.w3.org/1999/xlink" width="110" height="110" viewBox="0 0 110 110">
  <defs>
    <filter id="Trazado_982547" x="0" y="0" width="110" height="110" filterUnits="userSpaceOnUse">
      <feOffset dy="3" input="SourceAlpha"/>
      <feGaussianBlur stdDeviation="3" result="blur"/>
      <feFlood flood-opacity="0.161"/>
      <feComposite operator="in" in2="blur"/>
      <feComposite in="SourceGraphic"/>
    </filter>
  </defs>
  <g id="Grupo_1173899" data-name="Grupo 1173899" transform="translate(-1114.804 -6347.663)">
    <g id="Grupo_1173197" data-name="Grupo 1173197" transform="translate(1123.804 6353.663)">
      <g id="Grupo_1171901" data-name="Grupo 1171901" transform="translate(0 0)">
        <g id="Grupo_1164700" data-name="Grupo 1164700" transform="translate(0 0)">
          <g id="Grupo_1160931" data-name="Grupo 1160931" transform="translate(0 0)">
            <g id="Grupo_1160749" data-name="Grupo 1160749" transform="translate(0 0)">
              <g id="Grupo_1158891" data-name="Grupo 1158891" transform="translate(0 0)">
                <g id="Grupo_1157406" data-name="Grupo 1157406" transform="translate(0 0)">
                  <g id="Grupo_1155793" data-name="Grupo 1155793">
                    <g id="Grupo_1154704" data-name="Grupo 1154704">
                      <g id="Grupo_1150790" data-name="Grupo 1150790">
                        <g id="Grupo_1154214" data-name="Grupo 1154214">
                          <g id="Grupo_1152583" data-name="Grupo 1152583">
                            <g id="Grupo_1146973" data-name="Grupo 1146973">
                              <g id="Grupo_1146954" data-name="Grupo 1146954">
                                <g transform="matrix(1, 0, 0, 1, -9, -6)" filter="url(#Trazado_982547)">
                                  <g id="Trazado_982547-2" data-name="Trazado 982547" transform="translate(9 6)" fill="#e9f9fd">
                                    <path d="M 46.0000114440918 90.49988555908203 C 39.99188995361328 90.49988555908203 34.16427993774414 89.32352447509766 28.6790657043457 87.00347137451172 C 23.38021087646484 84.76226043701172 18.62105178833008 81.55342864990234 14.53375816345215 77.46615600585938 C 10.44647789001465 73.37887573242188 7.237651348114014 68.61971282958984 4.996424674987793 63.32085800170898 C 2.676371335983276 57.83565902709961 1.500011444091797 52.00806045532227 1.500011444091797 45.99993896484375 C 1.500011444091797 39.99181747436523 2.676371335983276 34.16421890258789 4.996424674987793 28.67901802062988 C 7.237651348114014 23.38017845153809 10.44647789001465 18.62101936340332 14.53375816345215 14.53373908996582 C 18.62105178833008 10.44645881652832 23.38021087646484 7.237632274627686 28.6790657043457 4.996418952941895 C 34.16427993774414 2.676365613937378 39.99188995361328 1.500005602836609 46.0000114440918 1.500005602836609 C 52.00813293457031 1.500005602836609 57.83574295043945 2.676365613937378 63.32095718383789 4.996418952941895 C 68.61981201171875 7.237632274627686 73.37898254394531 10.44645881652832 77.46626281738281 14.53373908996582 C 81.55355834960938 18.62101936340332 84.76237487792969 23.38017845153809 87.00360107421875 28.67901802062988 C 89.32365417480469 34.16421890258789 90.50001525878906 39.99181747436523 90.50001525878906 45.99993896484375 C 90.50001525878906 52.00806045532227 89.32365417480469 57.83565902709961 87.00360107421875 63.32085800170898 C 84.76237487792969 68.61971282958984 81.55355834960938 73.37887573242188 77.46626281738281 77.46615600585938 C 73.37898254394531 81.55342864990234 68.61981201171875 84.76226043701172 63.32095718383789 87.00347137451172 C 57.83574295043945 89.32352447509766 52.00813293457031 90.49988555908203 46.0000114440918 90.49988555908203 Z" stroke="none"/>
                                    <path d="M 46.0000114440918 2.999992370605469 C 40.1937255859375 2.999992370605469 34.56270980834961 4.136497497558594 29.26339721679688 6.377906799316406 C 24.14334106445312 8.543510437011719 19.54442596435547 11.64437866210938 15.59441375732422 15.59439849853516 C 11.6444091796875 19.54439544677734 8.543525695800781 24.14329528808594 6.377922058105469 29.26335144042969 C 4.136512756347656 34.56266784667969 3.000007629394531 40.19366836547852 3.000007629394531 45.99993896484375 C 3.000007629394531 51.80620956420898 4.136512756347656 57.43722534179688 6.377922058105469 62.73654174804688 C 8.543525695800781 67.85658264160156 11.6444091796875 72.45548248291016 15.59441375732422 76.40549468994141 C 19.54442596435547 80.35549926757812 24.14334106445312 83.45636749267578 29.26338195800781 85.62196350097656 C 34.56270980834961 87.86338043212891 40.1937255859375 88.9998779296875 46.0000114440918 88.9998779296875 C 51.80629730224609 88.9998779296875 57.43731307983398 87.86338043212891 62.73664093017578 85.62196350097656 C 67.85668182373047 83.45636749267578 72.45559692382812 80.35549926757812 76.40560913085938 76.40549468994141 C 80.35561370849609 72.45548248291016 83.45649719238281 67.85658264160156 85.62210083007812 62.73654174804688 C 87.86351013183594 57.43722534179688 89.00001525878906 51.80620956420898 89.00001525878906 45.99993896484375 C 89.00001525878906 40.19366836547852 87.86351013183594 34.56266784667969 85.62210083007812 29.26335144042969 C 83.45649719238281 24.14329528808594 80.35561370849609 19.54439544677734 76.40560913085938 15.59439849853516 C 72.45559692382812 11.64437866210938 67.85668182373047 8.543510437011719 62.73662567138672 6.377906799316406 C 57.43731307983398 4.136497497558594 51.80629730224609 2.999992370605469 46.0000114440918 2.999992370605469 M 46.0000114440918 -7.62939453125e-06 C 71.40511322021484 -7.62939453125e-06 92.00001525878906 20.59487915039062 92.00001525878906 45.99993896484375 C 92.00001525878906 71.40501403808594 71.40511322021484 91.99988555908203 46.0000114440918 91.99988555908203 C 20.59490966796875 91.99988555908203 7.62939453125e-06 71.40501403808594 7.62939453125e-06 45.99993896484375 C 7.62939453125e-06 20.59487915039062 20.59490966796875 -7.62939453125e-06 46.0000114440918 -7.62939453125e-06 Z" stroke="none" fill="#36ceef"/>
                                  </g>
                                </g>
                              </g>
                            </g>
                          </g>
                        </g>
                      </g>
                    </g>
                  </g>
                </g>
              </g>
            </g>
          </g>
        </g>
      </g>
    </g>
    <g id="icon" transform="translate(1131.181 6359.359)">
      <path id="Trazado_1030783" data-name="Trazado 1030783" d="M68.642,80.381V78.513a1.581,1.581,0,0,0-1.581-1.581H54.593a1.581,1.581,0,0,0-1.581,1.581v1.868a1.581,1.581,0,0,0,1.581,1.581,1.581,1.581,0,0,0-1.581,1.581v1.866a1.581,1.581,0,0,0,1.581,1.581,1.581,1.581,0,0,0-1.581,1.581V90.44a1.581,1.581,0,0,0,1.581,1.581A1.581,1.581,0,0,0,53.012,93.6v1.866a1.581,1.581,0,0,0,1.581,1.581H67.061a1.581,1.581,0,0,0,1.581-1.581V93.6a1.581,1.581,0,0,0-1.581-1.581,1.581,1.581,0,0,0,1.581-1.581V88.572a1.581,1.581,0,0,0-1.581-1.581,1.581,1.581,0,0,0,1.581-1.581V83.543a1.581,1.581,0,0,0-1.581-1.581A1.581,1.581,0,0,0,68.642,80.381Z" transform="translate(-21.63 -30.735)" fill="#ffd169"/>
      <path id="Trazado_1030784" data-name="Trazado 1030784" d="M10.2,24.24l8.628-8.982H41.149A2.046,2.046,0,0,1,43.2,17.3V59.19a2.046,2.046,0,0,1-2.046,2.046h-28.9A2.046,2.046,0,0,1,10.2,59.19Z" transform="translate(-0.965 -0.965)" fill="#f9f3f1"/>
      <path id="Trazado_1030785" data-name="Trazado 1030785" d="M107.279,41.491V39.624a1.582,1.582,0,0,0-1.582-1.581H93.229a1.581,1.581,0,0,0-1.579,1.581v1.866a1.581,1.581,0,0,0,1.581,1.581,1.581,1.581,0,0,0-1.581,1.581V46.52A1.581,1.581,0,0,0,93.231,48.1a1.581,1.581,0,0,0-1.581,1.581v1.866a1.581,1.581,0,0,0,1.581,1.581,1.581,1.581,0,0,0-1.581,1.581v1.866a1.581,1.581,0,0,0,1.581,1.581,1.581,1.581,0,0,0-1.581,1.581V61.61a1.581,1.581,0,0,0,1.581,1.581,1.581,1.581,0,0,0-1.581,1.581v1.866a1.581,1.581,0,0,0,1.581,1.581A1.581,1.581,0,0,0,91.65,69.8v1.866a1.581,1.581,0,0,0,1.581,1.581,1.581,1.581,0,0,0-1.581,1.581V76.7a1.581,1.581,0,0,0,1.581,1.581H105.7a1.582,1.582,0,0,0,1.582-1.581V74.832A1.582,1.582,0,0,0,105.7,73.25a1.582,1.582,0,0,0,1.582-1.581V69.8a1.582,1.582,0,0,0-1.582-1.581,1.582,1.582,0,0,0,1.582-1.581V64.771A1.582,1.582,0,0,0,105.7,63.19a1.582,1.582,0,0,0,1.582-1.581V59.742a1.582,1.582,0,0,0-1.582-1.581,1.582,1.582,0,0,0,1.582-1.581V54.713a1.582,1.582,0,0,0-1.582-1.581,1.582,1.582,0,0,0,1.582-1.581V49.684A1.582,1.582,0,0,0,105.7,48.1a1.582,1.582,0,0,0,1.582-1.581V44.654a1.582,1.582,0,0,0-1.582-1.581,1.582,1.582,0,0,0,1.583-1.581Z" transform="translate(-40.28 -11.963)" fill="#ffd169"/>
      <g id="Grupo_1173898" data-name="Grupo 1173898" transform="translate(25.012 26.08)">
        <path id="Trazado_1030786" data-name="Trazado 1030786" d="M115.436,38.044h-3.605V78.278h3.605a1.582,1.582,0,0,0,1.582-1.581V74.831a1.582,1.582,0,0,0-1.582-1.58,1.582,1.582,0,0,0,1.582-1.581V69.8a1.582,1.582,0,0,0-1.582-1.581,1.582,1.582,0,0,0,1.582-1.581V64.772a1.582,1.582,0,0,0-1.582-1.581,1.582,1.582,0,0,0,1.582-1.581V59.743a1.582,1.582,0,0,0-1.582-1.581,1.582,1.582,0,0,0,1.582-1.581V54.713a1.582,1.582,0,0,0-1.582-1.581,1.582,1.582,0,0,0,1.582-1.581V49.684a1.582,1.582,0,0,0-1.582-1.581,1.582,1.582,0,0,0,1.582-1.581V44.655a1.582,1.582,0,0,0-1.582-1.581,1.582,1.582,0,0,0,1.582-1.581V39.625A1.582,1.582,0,0,0,115.436,38.044Z" transform="translate(-75.034 -38.044)" fill="#fca14f"/>
        <path id="Trazado_1030787" data-name="Trazado 1030787" d="M77.632,76.932H74.913V97.049h2.719a1.581,1.581,0,0,0,1.581-1.581V93.6a1.581,1.581,0,0,0-1.581-1.581,1.581,1.581,0,0,0,1.581-1.581V88.572a1.581,1.581,0,0,0-1.581-1.581,1.581,1.581,0,0,0,1.581-1.581V83.543a1.581,1.581,0,0,0-1.581-1.581,1.581,1.581,0,0,0,1.581-1.58V78.513A1.581,1.581,0,0,0,77.632,76.932Z" transform="translate(-57.214 -56.815)" fill="#fca14f"/>
        <circle id="Elipse_11840" data-name="Elipse 11840" cx="9.15" cy="9.15" r="9.15" transform="translate(0 7.966)" fill="#fca14f"/>
      </g>
      <circle id="Elipse_11841" data-name="Elipse 11841" cx="6.635" cy="6.635" r="6.635" transform="translate(27.528 36.562)" fill="#ffd169"/>
      <path id="Trazado_1030788" data-name="Trazado 1030788" d="M10.2,24.24l8.628-8.982v7.035a1.946,1.946,0,0,1-1.946,1.946Z" transform="translate(-0.965 -0.965)" fill="#d3cecd"/>
      <path id="Trazado_1030789" data-name="Trazado 1030789" d="M50.263,28.04a1.035,1.035,0,0,0,0-2.069H39.735a1.035,1.035,0,1,0,0,2.069Z" transform="translate(-14.722 -6.136)"/>
      <path id="Trazado_1030790" data-name="Trazado 1030790" d="M42.868,42.067a1.035,1.035,0,0,0-1.035-1.035h-21.1a1.035,1.035,0,1,0,0,2.069h21.1A1.035,1.035,0,0,0,42.868,42.067Z" transform="translate(-5.551 -13.406)"/>
      <path id="Trazado_1030791" data-name="Trazado 1030791" d="M104.719,36.045H92.252a2.619,2.619,0,0,0-2.613,2.615c.035.994-.2,2.663.546,3.448a2.593,2.593,0,0,0-.546,1.581c.029,1-.2,2.661.546,3.448a2.593,2.593,0,0,0-.546,1.582c.029,1-.2,2.661.546,3.447a2.593,2.593,0,0,0-.546,1.581c.029,1-.2,2.661.546,3.448a2.593,2.593,0,0,0-.546,1.581c.029,1-.2,2.661.546,3.448a2.593,2.593,0,0,0-.546,1.582c.029,1-.2,2.661.546,3.447a2.592,2.592,0,0,0-.546,1.581c.029,1-.2,2.661.546,3.448-.753.782-.511,2.456-.546,3.447a2.62,2.62,0,0,0,2.617,2.617h12.467a2.619,2.619,0,0,0,2.616-2.617c-.048-.994.212-2.662-.546-3.447a2.59,2.59,0,0,0,.546-1.581c-.029-1,.2-2.661-.546-3.448a2.59,2.59,0,0,0,.546-1.581c-.029-1,.2-2.661-.546-3.448a2.587,2.587,0,0,0,.544-1.579c-.029-1,.2-2.661-.546-3.448a2.59,2.59,0,0,0,.546-1.581c-.029-1,.2-2.661-.546-3.448a2.586,2.586,0,0,0,.546-1.581c-.029-1,.2-2.661-.546-3.448a2.586,2.586,0,0,0,.546-1.581c-.029-1,.2-2.661-.546-3.448.744-.782.517-2.456.546-3.448A2.619,2.619,0,0,0,104.719,36.045ZM91.708,38.66a.547.547,0,0,1,.547-.546h12.467a.547.547,0,0,1,.545.546v1.867a.547.547,0,0,1-.546.546H92.254a.547.547,0,0,1-.547-.546Zm13.559,6.9a.547.547,0,0,1-.547.547H92.253a.548.548,0,0,1-.547-.547V43.69a.548.548,0,0,1,.547-.547h12.467a.547.547,0,0,1,.547.547Zm0,3.163v1.866a.548.548,0,0,1-.547.547H92.253a.548.548,0,0,1-.547-.547V48.72a.548.548,0,0,1,.547-.547h12.467a.547.547,0,0,1,.547.547Zm0,5.029v1.866a.547.547,0,0,1-.546.547H92.254a.548.548,0,0,1-.547-.547V53.748a.547.547,0,0,1,.547-.546h12.467a.547.547,0,0,1,.546.546Zm0,6.9a.547.547,0,0,1-.547.547H92.253a.548.548,0,0,1-.545-.545V58.778a.548.548,0,0,1,.547-.547h12.467a.547.547,0,0,1,.547.547Zm0,3.163v1.866a.547.547,0,0,1-.546.547H92.254a.548.548,0,0,1-.547-.547V63.808a.548.548,0,0,1,.547-.547h12.467a.548.548,0,0,1,.546.547Zm0,6.9a.547.547,0,0,1-.548.548H92.252A.548.548,0,0,1,91.7,70.7V68.836a.548.548,0,0,1,.547-.547h12.467a.547.547,0,0,1,.547.547Zm0,5.029a.548.548,0,0,1-.547.547H92.253a.548.548,0,0,1-.547-.547V73.865a.548.548,0,0,1,.547-.547h12.467a.547.547,0,0,1,.547.547Z" transform="translate(-39.304 -10.999)"/>
      <path id="Trazado_1030792" data-name="Trazado 1030792" d="M48.047,64.733c-.029-1,.2-2.659-.546-3.447a2.593,2.593,0,0,0,.546-1.581c-.029-1,.2-2.661-.546-3.448a2.593,2.593,0,0,0,.546-1.581c-.029-1,.2-2.661-.546-3.448.745-.782.517-2.457.546-3.448a2.619,2.619,0,0,0-2.616-2.616H44.153c1.924-9.736-10.046-16.253-17.19-9.168-9.089,9.82,4.2,23.42,14.232,14.556v7.674a1.013,1.013,0,0,1-1.011,1.012h-28.9a1.013,1.013,0,0,1-1.011-1.012V24.31h5.646a2.984,2.984,0,0,0,2.98-2.981v-6H40.184A1.012,1.012,0,0,1,41.2,16.34V31.928a1.035,1.035,0,1,0,2.069,0V16.339a3.084,3.084,0,0,0-3.081-3.081H17.862a1.08,1.08,0,0,0-.746.318L8.49,22.558a1.079,1.079,0,0,0-.29.717V58.224a3.084,3.084,0,0,0,3.081,3.081h19.6c-.731.776-.5,2.447-.53,3.427a2.62,2.62,0,0,0,2.616,2.617H45.432A2.62,2.62,0,0,0,48.047,64.733Zm-31.219-43.4a.912.912,0,0,1-.911.912H11.666l5.164-5.377Zm29.15,31.479v1.866a.548.548,0,0,1-.547.547H43.264v-2.96H45.43A.548.548,0,0,1,45.978,52.809Zm-2.713,5.416v-.931H45.43a.548.548,0,0,1,.547.547v1.866a.548.548,0,0,1-.547.547H42.5a3.064,3.064,0,0,0,.767-2.029ZM45.43,47.232a.548.548,0,0,1,.547.547v1.868a.548.548,0,0,1-.547.547H43.264V47.749q.128-.256.24-.517Zm-17.007,1.7A8.116,8.116,0,1,1,39.9,37.458C47.225,45.322,36.287,56.26,28.424,48.935Zm17.554,15.8a.548.548,0,0,1-.547.547H32.963a.548.548,0,0,1-.547-.547V62.867a.547.547,0,0,1,.547-.547H45.43a.548.548,0,0,1,.547.547Z"/>
      <path id="Trazado_1030793" data-name="Trazado 1030793" d="M24.134,66.313a1.035,1.035,0,0,0-.1-1.459c-.281-.167-3.8-3.5-4.1-3.347h0a1.035,1.035,0,0,0-.617.094h-.006c-.02-.214-3.3,3.861-3.371,3.907a1.035,1.035,0,1,0,1.588,1.327l1.424-1.7.69,8.885a1.035,1.035,0,0,0,.615.865L30.745,79.5a1.035,1.035,0,0,0,.833-1.893L21.653,73.24,21,64.963l1.675,1.452A1.035,1.035,0,0,0,24.134,66.313Z" transform="translate(-3.618 -23.283)"/>
      <path id="Trazado_1030794" data-name="Trazado 1030794" d="M55.139,62.385h2.4a1.035,1.035,0,1,0,0-2.069H56.519v-.729a1.035,1.035,0,0,0-1.035-1.035c-1.077.049-1.077,1.028-1.035,1.853a3.033,3.033,0,0,0,1.379,5.88.727.727,0,0,1,0,1.448h-2.4a1.035,1.035,0,0,0,0,2.069h1.018v.729a1.035,1.035,0,0,0,1.035,1.035c1.076-.049,1.077-1.027,1.035-1.852a2.8,2.8,0,0,0-.685-5.5c-.576.018-1.345.085-1.367-.724-.057-.492.1-1.108.678-1.105Z" transform="translate(-21.322 -21.863)"/>
    </g>
  </g>
</svg>
