<svg xmlns="http://www.w3.org/2000/svg" xmlns:xlink="http://www.w3.org/1999/xlink" width="110" height="110" viewBox="0 0 110 110">
  <defs>
    <filter id="Trazado_982547" x="0" y="0" width="110" height="110" filterUnits="userSpaceOnUse">
      <feOffset dy="3" input="SourceAlpha"/>
      <feGaussianBlur stdDeviation="3" result="blur"/>
      <feFlood flood-opacity="0.161"/>
      <feComposite operator="in" in2="blur"/>
      <feComposite in="SourceGraphic"/>
    </filter>
  </defs>
  <g id="Grupo_1173910" data-name="Grupo 1173910" transform="translate(-1342.196 -6249.5)">
    <g id="Grupo_1173198" data-name="Grupo 1173198" transform="translate(1351.196 6255.5)">
      <g id="Grupo_1171898" data-name="Grupo 1171898" transform="translate(0 0)">
        <g id="Grupo_1164700" data-name="Grupo 1164700" transform="translate(0)">
          <g id="Grupo_1160931" data-name="Grupo 1160931" transform="translate(0 0)">
            <g id="Grupo_1160749" data-name="Grupo 1160749" transform="translate(0 0)">
              <g id="Grupo_1158891" data-name="Grupo 1158891" transform="translate(0 0)">
                <g id="Grupo_1157406" data-name="Grupo 1157406" transform="translate(0 0)">
                  <g id="Grupo_1155793" data-name="Grupo 1155793">
                    <g id="Grupo_1154704" data-name="Grupo 1154704">
                      <g id="Grupo_1150790" data-name="Grupo 1150790">
                        <g id="Grupo_1154214" data-name="Grupo 1154214">
                          <g id="Grupo_1152583" data-name="Grupo 1152583">
                            <g id="Grupo_1146973" data-name="Grupo 1146973">
                              <g id="Grupo_1146954" data-name="Grupo 1146954">
                                <g transform="matrix(1, 0, 0, 1, -9, -6)" filter="url(#Trazado_982547)">
                                  <g id="Trazado_982547-2" data-name="Trazado 982547" transform="translate(9 6)" fill="#e9f9fd">
                                    <path d="M 46.0000114440918 90.49989318847656 C 39.99188995361328 90.49989318847656 34.16427993774414 89.32353210449219 28.6790657043457 87.00347900390625 C 23.38021087646484 84.76226043701172 18.62105178833008 81.55343627929688 14.53375816345215 77.46615600585938 C 10.44647789001465 73.37887573242188 7.237651348114014 68.61971282958984 4.996424674987793 63.32086181640625 C 2.676371335983276 57.83566284179688 1.500011444091797 52.00806427001953 1.500011444091797 45.99994277954102 C 1.500011444091797 39.9918212890625 2.676371335983276 34.16422271728516 4.996424674987793 28.67902183532715 C 7.237651348114014 23.38016891479492 10.44647789001465 18.62100982666016 14.53375816345215 14.53372955322266 C 18.62105178833008 10.44644927978516 23.38021087646484 7.237622737884521 28.6790657043457 4.99640941619873 C 34.16427993774414 2.676356077194214 39.99188995361328 1.499996066093445 46.0000114440918 1.499996066093445 C 52.00813293457031 1.499996066093445 57.83574295043945 2.676356077194214 63.32095718383789 4.99640941619873 C 68.61981201171875 7.237622737884521 73.37898254394531 10.44644927978516 77.46626281738281 14.53372955322266 C 81.55355834960938 18.62100982666016 84.76237487792969 23.38016891479492 87.00360107421875 28.67902183532715 C 89.32365417480469 34.16422271728516 90.50001525878906 39.9918212890625 90.50001525878906 45.99994277954102 C 90.50001525878906 52.00806427001953 89.32365417480469 57.83566284179688 87.00360107421875 63.32086181640625 C 84.76237487792969 68.61971282958984 81.55355834960938 73.37887573242188 77.46626281738281 77.46615600585938 C 73.37898254394531 81.55343627929688 68.61981201171875 84.76226043701172 63.32095718383789 87.00347900390625 C 57.83574295043945 89.32353210449219 52.00813293457031 90.49989318847656 46.0000114440918 90.49989318847656 Z" stroke="none"/>
                                    <path d="M 46.0000114440918 3 C 40.1937255859375 3 34.56270980834961 4.136497497558594 29.26338195800781 6.377914428710938 C 24.14334106445312 8.543510437011719 19.54442596435547 11.64438629150391 15.59441375732422 15.59438323974609 C 11.6444091796875 19.54440307617188 8.543525695800781 24.14330291748047 6.377922058105469 29.26334381103516 C 4.136512756347656 34.56265640258789 3.000007629394531 40.19367218017578 3.000007629394531 45.99994277954102 C 3.000007629394531 51.80621337890625 4.136512756347656 57.43722915649414 6.377922058105469 62.73654174804688 C 8.543525695800781 67.85658264160156 11.6444091796875 72.45549011230469 15.59441375732422 76.40550231933594 C 19.54442596435547 80.35549926757812 24.14334106445312 83.45637512207031 29.26338195800781 85.62197113037109 C 34.56270980834961 87.86338806152344 40.1937255859375 88.99988555908203 46.0000114440918 88.99988555908203 C 51.80629730224609 88.99988555908203 57.43731307983398 87.86338806152344 62.73664093017578 85.62197113037109 C 67.85668182373047 83.45637512207031 72.45559692382812 80.35549926757812 76.40560913085938 76.40550231933594 C 80.35561370849609 72.45549011230469 83.45649719238281 67.85658264160156 85.62210083007812 62.73654174804688 C 87.86351013183594 57.43722915649414 89.00001525878906 51.80621337890625 89.00001525878906 45.99994277954102 C 89.00001525878906 40.19367218017578 87.86351013183594 34.56265640258789 85.62210083007812 29.26334381103516 C 83.45649719238281 24.14330291748047 80.35561370849609 19.54440307617188 76.40560913085938 15.59438323974609 C 72.45559692382812 11.64438629150391 67.85668182373047 8.543510437011719 62.73664093017578 6.377914428710938 C 57.43731307983398 4.136497497558594 51.80629730224609 3 46.0000114440918 3 M 46.0000114440918 0 C 71.40511322021484 0 92.00001525878906 20.59487152099609 92.00001525878906 45.99994277954102 C 92.00001525878906 71.40501403808594 71.40511322021484 91.99988555908203 46.0000114440918 91.99988555908203 C 20.59490966796875 91.99988555908203 7.62939453125e-06 71.40501403808594 7.62939453125e-06 45.99994277954102 C 7.62939453125e-06 20.59487152099609 20.59490966796875 0 46.0000114440918 0 Z" stroke="none" fill="#36ceef"/>
                                  </g>
                                </g>
                              </g>
                            </g>
                          </g>
                        </g>
                      </g>
                    </g>
                  </g>
                </g>
              </g>
            </g>
          </g>
        </g>
      </g>
    </g>
    <g id="custodian_17640318_2_" data-name="custodian_17640318 (2)" transform="translate(1358.25 6264.033)">
      <g id="Grupo_1173909" data-name="Grupo 1173909" transform="translate(8.858 8.882)">
        <g id="Grupo_1173904" data-name="Grupo 1173904" transform="translate(0 16.271)">
          <path id="Trazado_1030966" data-name="Trazado 1030966" d="M24.321,144.817A9.321,9.321,0,1,1,15,154.139,9.322,9.322,0,0,1,24.321,144.817Z" transform="translate(-15 -144.817)" fill="#fdcd56" fill-rule="evenodd"/>
        </g>
        <g id="Grupo_1173905" data-name="Grupo 1173905" transform="translate(41.533 25.592)">
          <path id="Trazado_1030967" data-name="Trazado 1030967" d="M355.613,219.167a9.321,9.321,0,1,1-9.322,9.322A9.322,9.322,0,0,1,355.613,219.167Z" transform="translate(-346.291 -219.167)" fill="#fdcd56" fill-rule="evenodd"/>
        </g>
        <g id="Grupo_1173906" data-name="Grupo 1173906" transform="translate(16.274 16.271)">
          <path id="Trazado_1030968" data-name="Trazado 1030968" d="M158.625,144.817a13.813,13.813,0,1,1-13.812,13.814h0a13.814,13.814,0,0,1,13.814-13.814Z" transform="translate(-144.811 -144.817)" fill="#f4f6f8" fill-rule="evenodd"/>
          <path id="Trazado_1030969" data-name="Trazado 1030969" d="M186.842,281.438a10.619,10.619,0,0,0-9.77,6.453,13.817,13.817,0,0,0,19.539,0A10.618,10.618,0,0,0,186.842,281.438Z" transform="translate(-173.028 -264.31)" fill="#66d4f1" fill-rule="evenodd"/>
          <path id="Trazado_1030970" data-name="Trazado 1030970" d="M215.867,185.5a4.907,4.907,0,1,0,4.906-4.908A4.905,4.905,0,0,0,215.867,185.5Z" transform="translate(-206.959 -176.108)" fill="#d5a889" fill-rule="evenodd"/>
        </g>
        <g id="Grupo_1173907" data-name="Grupo 1173907" transform="translate(0 41.867)">
          <path id="Trazado_1030971" data-name="Trazado 1030971" d="M45.063,350.394c-2.915,1.43-5.861,2.8-8.794,4.19l4.142,9.924,6.092-2.966a3.662,3.662,0,0,1,2.72-.234l6.463,1.872c2.049.592,4.584-.5,6.491-1.234l12.121-4.68c3.192-1.234,3.962-7.641-3.578-5.427l-8.649,2.539a2.75,2.75,0,0,0-1.94-1.933l-5.858-1.567c-3.995-2.826-6.026-2.044-9.208-.485Z" transform="translate(-33.603 -348.99)" fill="#efc7a4" fill-rule="evenodd"/>
          <path id="Trazado_1030972" data-name="Trazado 1030972" d="M150.082,378.981l-13.1-3.5a2.755,2.755,0,0,0,1.948,3.365l7.786,2.082A2.761,2.761,0,0,0,150.082,378.981Z" transform="translate(-121.607 -372.161)" fill="#d5a889" fill-rule="evenodd"/>
          <path id="Trazado_1030973" data-name="Trazado 1030973" d="M25.2,377.966l-3.108,1.29a1.329,1.329,0,0,1-1.732-.714q-2.628-6.315-5.259-12.631a1.318,1.318,0,0,1,.716-1.734l3.106-1.29a1.328,1.328,0,0,1,1.732.714q2.632,6.316,5.259,12.631A1.319,1.319,0,0,1,25.2,377.966Z" transform="translate(-15 -361.057)" fill="#e4e8eb"/>
        </g>
        <g id="Grupo_1173908" data-name="Grupo 1173908" transform="translate(17.175)">
          <path id="Trazado_1030974" data-name="Trazado 1030974" d="M183.54,51.341c2.915-1.43,5.861-2.8,8.794-4.19l-4.142-9.924L182.1,40.193a3.662,3.662,0,0,1-2.72.234l-6.463-1.872c-2.049-.592-4.584.5-6.491,1.234l-12.121,4.68c-3.192,1.234-3.962,7.641,3.578,5.427l8.649-2.539a2.75,2.75,0,0,0,1.94,1.933l5.858,1.567C178.326,53.683,180.358,52.9,183.54,51.341Z" transform="translate(-152 -34.444)" fill="#efc7a4" fill-rule="evenodd"/>
          <path id="Trazado_1030975" data-name="Trazado 1030975" d="M267.867,92.373l13.1,3.5a2.755,2.755,0,0,0-1.948-3.365l-7.786-2.082a2.761,2.761,0,0,0-3.367,1.948Z" transform="translate(-253.341 -80.893)" fill="#d5a889" fill-rule="evenodd"/>
          <path id="Trazado_1030976" data-name="Trazado 1030976" d="M407.9,16.422l3.108-1.29a1.329,1.329,0,0,1,1.732.714q2.628,6.315,5.259,12.631a1.318,1.318,0,0,1-.716,1.734l-3.106,1.29a1.328,1.328,0,0,1-1.732-.714q-2.632-6.316-5.259-12.631A1.319,1.319,0,0,1,407.9,16.422Z" transform="translate(-375.108 -15.031)" fill="#e4e8eb"/>
        </g>
      </g>
      <path id="Trazado_1030977" data-name="Trazado 1030977" d="M20.326,64.965l.262.629h0a2.145,2.145,0,0,1,0,1.685l0,0a2.148,2.148,0,0,1-1.19,1.191h0l-3.105,1.287a2.206,2.206,0,0,1-2.879-1.187Q10.786,62.261,8.157,55.95a2.2,2.2,0,0,1,1.185-2.885l3.109-1.29a2.209,2.209,0,0,1,2.878,1.186h0l.21.506q2.2-1.043,4.4-2.11c2.091-1.023,3.741-1.693,5.661-1.434a9.92,9.92,0,0,1,4.307,1.907l5.708,1.529a3.618,3.618,0,0,1,2.217,1.723l7.9-2.317c3.559-1.044,5.522-.248,6.388.921a3.482,3.482,0,0,1,.524,2.837,4.7,4.7,0,0,1-2.773,3.333L37.741,64.53c-2.067.8-4.832,1.894-7.05,1.25l-6.46-1.874h0a2.81,2.81,0,0,0-2.092.178Zm-1.36,1.3L13.709,53.638a.45.45,0,0,0-.586-.242l-3.107,1.29a.435.435,0,0,0-.242.244.421.421,0,0,0,0,.338v0Q12.4,61.586,15.035,67.9h0a.446.446,0,0,0,.584.24l3.1-1.287h0a.446.446,0,0,0,.242-.588Zm.684-2.925,1.718-.836a4.5,4.5,0,0,1,3.351-.285l6.46,1.874a5.46,5.46,0,0,0,2.835-.123,28.2,28.2,0,0,0,3.1-1.08l12.125-4.672a2.9,2.9,0,0,0,1.69-2.066,1.74,1.74,0,0,0-.22-1.421,1.882,1.882,0,0,0-1.289-.658,7.6,7.6,0,0,0-3.193.378L38.3,56.775A3.592,3.592,0,0,1,38.18,57.8a3.635,3.635,0,0,1-4.442,2.563l-7.786-2.085a.878.878,0,0,1,.454-1.7l7.786,2.085h0a1.871,1.871,0,1,0,.966-3.614L29.3,53.487a.876.876,0,0,1-.281-.132,8.44,8.44,0,0,0-3.657-1.691c-1.586-.214-2.927.426-4.655,1.271q-2.239,1.1-4.494,2.155l3.436,8.251Zm42.7-38.877q-2.2,1.043-4.4,2.11c-2.091,1.023-3.741,1.693-5.661,1.434A9.921,9.921,0,0,1,47.985,26.1l-5.708-1.529a3.618,3.618,0,0,1-2.217-1.723l-7.9,2.317c-3.559,1.044-5.522.248-6.388-.921a3.482,3.482,0,0,1-.524-2.837,4.7,4.7,0,0,1,2.773-3.333L40.15,13.4c2.067-.8,4.832-1.894,7.05-1.25l6.46,1.874h0a2.81,2.81,0,0,0,2.092-.178l1.811-.881-.262-.629h0a2.145,2.145,0,0,1,0-1.685l0,0a2.148,2.148,0,0,1,1.19-1.191h0L61.6,8.17a2.206,2.206,0,0,1,2.879,1.187q2.628,6.314,5.257,12.625a2.2,2.2,0,0,1-1.185,2.885l-3.109,1.29a2.209,2.209,0,0,1-2.878-1.186h0l-.21-.506Zm-4.111-9.873-1.718.836a4.5,4.5,0,0,1-3.351.285l-6.46-1.874a5.46,5.46,0,0,0-2.835.123,28.2,28.2,0,0,0-3.1,1.08L28.656,19.713a2.9,2.9,0,0,0-1.69,2.066,1.74,1.74,0,0,0,.22,1.421,1.882,1.882,0,0,0,1.289.658,7.6,7.6,0,0,0,3.193-.378l7.922-2.324a3.592,3.592,0,0,1,.122-1.027,3.635,3.635,0,0,1,4.442-2.563l7.786,2.085a.878.878,0,0,1-.454,1.7L43.7,19.262h0a1.871,1.871,0,1,0-.966,3.614l5.858,1.569a.876.876,0,0,1,.281.132,8.44,8.44,0,0,0,3.657,1.691c1.586.214,2.927-.426,4.655-1.271q2.239-1.1,4.494-2.155l-3.436-8.251Zm.684-2.925,5.258,12.628a.45.45,0,0,0,.586.242l3.107-1.29A.435.435,0,0,0,68.118,23a.421.421,0,0,0,0-.338v0q-2.628-6.315-5.259-12.631h0a.446.446,0,0,0-.584-.24l-3.1,1.287h0a.446.446,0,0,0-.242.588ZM24.649,42.359a10.2,10.2,0,1,1,2.682-12.39,14.694,14.694,0,0,1,25.976,5.889A10.2,10.2,0,1,1,50.46,48.092a14.694,14.694,0,0,1-25.811-5.734Zm1.515-10.639a8.446,8.446,0,1,0-1.85,8.558q-.055-.62-.057-1.254c0-.018,0-.037,0-.056A14.624,14.624,0,0,1,26.164,31.719ZM53.6,37.966q.033.5.034,1a14.621,14.621,0,0,1-1.98,7.37A8.447,8.447,0,1,0,53.6,37.966Zm-27.594,1h0a12.882,12.882,0,0,0,2.953,8.227,11.5,11.5,0,0,1,19.965,0,12.936,12.936,0,1,0-22.919-8.227Zm6.664,11.315a12.945,12.945,0,0,0,14.982-1.75,9.744,9.744,0,0,0-17.418,0,12.97,12.97,0,0,0,2.436,1.751Zm.489-15.736a5.784,5.784,0,1,1,5.784,5.784,5.784,5.784,0,0,1-5.784-5.784Zm1.755,0a4.029,4.029,0,1,0,4.028-4.03,4.028,4.028,0,0,0-4.028,4.03Zm23.9,4.434-.012-.48a.878.878,0,1,1,1.755-.042l.013.543a4.61,4.61,0,0,1,.892.353,2.774,2.774,0,0,1,1.012.85.878.878,0,1,1-1.467.964.991.991,0,0,0-.365-.263,2.288,2.288,0,0,0-.935-.288,1.19,1.19,0,1,0,0,2.338,3.056,3.056,0,0,1,3.17,2.924,2.976,2.976,0,0,1-2.275,2.806l.01.4a.878.878,0,1,1-1.755.043l-.01-.425a3.653,3.653,0,0,1-1.659-1.023.878.878,0,1,1,1.2-1.277,1.743,1.743,0,0,0,1.316.641,1.19,1.19,0,1,0,0-2.338,3.056,3.056,0,0,1-3.17-2.924A2.975,2.975,0,0,1,58.819,38.98ZM17.286,29.659l-.012-.48a.878.878,0,1,1,1.755-.042l.013.543a4.61,4.61,0,0,1,.892.353,2.775,2.775,0,0,1,1.012.85.878.878,0,1,1-1.467.964.991.991,0,0,0-.365-.263,2.287,2.287,0,0,0-.935-.288,1.19,1.19,0,1,0,0,2.338,3.056,3.056,0,0,1,3.17,2.924,2.976,2.976,0,0,1-2.275,2.806l.01.4a.878.878,0,0,1-1.755.043l-.01-.425a3.653,3.653,0,0,1-1.659-1.023.878.878,0,0,1,1.2-1.278,1.743,1.743,0,0,0,1.316.641,1.19,1.19,0,1,0,0-2.338,3.056,3.056,0,0,1-3.17-2.924,2.975,2.975,0,0,1,2.277-2.807Z" transform="translate(0)" fill-rule="evenodd"/>
    </g>
  </g>
</svg>
