<svg xmlns="http://www.w3.org/2000/svg" xmlns:xlink="http://www.w3.org/1999/xlink" width="108" height="108" viewBox="0 0 108 108">
  <defs>
    <filter id="Trazado_904820" x="0" y="0" width="108" height="108" filterUnits="userSpaceOnUse">
      <feOffset dy="3" input="SourceAlpha"/>
      <feGaussianBlur stdDeviation="3" result="blur"/>
      <feFlood flood-opacity="0.161"/>
      <feComposite operator="in" in2="blur"/>
      <feComposite in="SourceGraphic"/>
    </filter>
  </defs>
  <g id="Grupo_1174118" data-name="Grupo 1174118" transform="translate(-620 -427)">
    <g id="Grupo_1172093" data-name="Grupo 1172093" transform="translate(629 433)">
      <g id="Grupo_1171910" data-name="Grupo 1171910">
        <g id="Grupo_1167341" data-name="Grupo 1167341">
          <g id="Grupo_1166792" data-name="Grupo 1166792" transform="translate(0)">
            <g transform="matrix(1, 0, 0, 1, -9, -6)" filter="url(#Trazado_904820)">
              <g id="Trazado_904820-2" data-name="Trazado 904820" transform="translate(9 6)" fill="#fff4e6">
                <path d="M 44.99999618530273 88.50003051757812 C 39.12687301635742 88.50003051757812 33.43022155761719 87.35010528564453 28.06829643249512 85.08219909667969 C 22.88852119445801 82.89134216308594 18.23629570007324 79.75461578369141 14.24084663391113 75.75916290283203 C 10.24540901184082 71.76371765136719 7.108683586120605 67.11150360107422 4.917821407318115 61.93172836303711 C 2.649921178817749 56.56978988647461 1.499996185302734 50.87313842773438 1.499996185302734 45.00001525878906 C 1.499996185302734 39.12689208984375 2.649921178817749 33.43024063110352 4.917821407318115 28.06831550598145 C 7.108683586120605 22.88854026794434 10.24540901184082 18.23631477355957 14.24084663391113 14.24086570739746 C 18.23629570007324 10.24541568756104 22.88852119445801 7.10869026184082 28.06829643249512 4.917840480804443 C 33.43022155761719 2.649927854537964 39.12687301635742 1.50000274181366 44.99999618530273 1.50000274181366 C 50.87311935424805 1.50000274181366 56.56977081298828 2.649927854537964 61.93169784545898 4.917840480804443 C 67.11147308349609 7.10869026184082 71.76369476318359 10.24541568756104 75.75914764404297 14.24086570739746 C 79.75458526611328 18.23631477355957 82.89131164550781 22.88854026794434 85.08216857910156 28.06831550598145 C 87.35007476806641 33.43024063110352 88.5 39.12689208984375 88.5 45.00001525878906 C 88.5 50.87313842773438 87.35007476806641 56.56978988647461 85.08216857910156 61.93172836303711 C 82.89131164550781 67.11150360107422 79.75458526611328 71.76371765136719 75.75914764404297 75.75916290283203 C 71.76369476318359 79.75461578369141 67.11147308349609 82.89134216308594 61.93169784545898 85.08219909667969 C 56.56977081298828 87.35010528564453 50.87311935424805 88.50003051757812 44.99999618530273 88.50003051757812 Z" stroke="none"/>
                <path d="M 44.99999618530273 3 C 39.32870864868164 3 33.82865142822266 4.110061645507812 28.65262603759766 6.299346923828125 C 23.65165710449219 8.414573669433594 19.15968322753906 11.44334411621094 15.301513671875 15.301513671875 C 11.44333648681641 19.15968322753906 8.414566040039062 23.65165710449219 6.299339294433594 28.65262985229492 C 4.110054016113281 33.82867050170898 2.999992370605469 39.32872772216797 2.999992370605469 45.00001525878906 C 2.999992370605469 50.67130279541016 4.110054016113281 56.17136001586914 6.299339294433594 61.34738922119141 C 8.414566040039062 66.34837341308594 11.44333648681641 70.84033203125 15.301513671875 74.69850158691406 C 19.15968322753906 78.55668640136719 23.65165710449219 81.58545684814453 28.65262603759766 83.70068359375 C 33.82865142822266 85.88996887207031 39.32870864868164 87.00003051757812 44.99999618530273 87.00003051757812 C 50.67128372192383 87.00003051757812 56.17134094238281 85.88996887207031 61.34736633300781 83.70068359375 C 66.34834289550781 81.58545684814453 70.84030914306641 78.55668640136719 74.69847869873047 74.69850158691406 C 78.55665588378906 70.84033203125 81.58542633056641 66.34837341308594 83.70065307617188 61.34738922119141 C 85.88993835449219 56.17136001586914 87 50.67130279541016 87 45.00001525878906 C 87 39.32872772216797 85.88993835449219 33.82867050170898 83.70065307617188 28.65262985229492 C 81.58542633056641 23.65165710449219 78.55665588378906 19.15968322753906 74.69847869873047 15.301513671875 C 70.84030914306641 11.44334411621094 66.34834289550781 8.414573669433594 61.34736633300781 6.299346923828125 C 56.17134094238281 4.110061645507812 50.67128372192383 3 44.99999618530273 3 M 44.99999618530273 0 C 69.85281372070312 0 90 20.14718627929688 90 45.00001525878906 C 90 69.85282897949219 69.85281372070312 90.00003051757812 44.99999618530273 90.00003051757812 C 20.14717864990234 90.00003051757812 -7.62939453125e-06 69.85282897949219 -7.62939453125e-06 45.00001525878906 C -7.62939453125e-06 20.14718627929688 20.14717864990234 0 44.99999618530273 0 Z" stroke="none" fill="#ff9d1c"/>
              </g>
            </g>
          </g>
        </g>
      </g>
    </g>
    <g id="sharing_6843585" transform="translate(644.922 448.922)">
      <g id="Grupo_1174116" data-name="Grupo 1174116" transform="translate(0.938 10.318)">
        <g id="Grupo_1174100" data-name="Grupo 1174100" transform="translate(18.76 35.644)">
          <path id="Trazado_1031462" data-name="Trazado 1031462" d="M168,392h18.76v5.628H168Z" transform="translate(-168 -392)" fill="#ffc729"/>
        </g>
        <g id="Grupo_1174101" data-name="Grupo 1174101" transform="translate(23.61 24.388)">
          <path id="Trazado_1031463" data-name="Trazado 1031463" d="M209.37,296h9.059a2.654,2.654,0,0,0-2.653,2.653v.321a2.653,2.653,0,0,0,2.653,2.653H209.37a2.653,2.653,0,0,0,2.653-2.653v-.321A2.653,2.653,0,0,0,209.37,296Z" transform="translate(-209.37 -296)" fill="#ffc729"/>
        </g>
        <g id="Grupo_1174102" data-name="Grupo 1174102" transform="translate(18.76 41.272)">
          <path id="Trazado_1031464" data-name="Trazado 1031464" d="M186.76,440v4.69a.938.938,0,0,1-.938.938H168.938a.938.938,0,0,1-.938-.938V440Z" transform="translate(-168 -440)" fill="#fcd770"/>
        </g>
        <g id="Grupo_1174103" data-name="Grupo 1174103" transform="translate(18.76 30.016)">
          <path id="Trazado_1031465" data-name="Trazado 1031465" d="M186.76,344v5.628H168v-3.752h1.876V344H186.76Z" transform="translate(-168 -344)" fill="#fcd770"/>
        </g>
        <g id="Grupo_1174104" data-name="Grupo 1174104" transform="translate(18.76 18.76)">
          <path id="Trazado_1031466" data-name="Trazado 1031466" d="M186.76,248.938V255.5c-.088,0-.176,0-.264,0h-1.612l-1.1-1.1a2.652,2.652,0,0,0-1.876-.777h-9.059a2.648,2.648,0,0,0-1.876.777l-1.1,1.1H168v-6.566a.938.938,0,0,1,.938-.938h16.884A.938.938,0,0,1,186.76,248.938Z" transform="translate(-168 -248)" fill="#fcd770"/>
        </g>
        <g id="Grupo_1174105" data-name="Grupo 1174105" transform="translate(5.628 35.644)">
          <path id="Trazado_1031467" data-name="Trazado 1031467" d="M65.38,392v11.256h-7.5v-3.937a5.581,5.581,0,0,0-.938-3.1,5.576,5.576,0,0,1-.938-3.1V392Z" transform="translate(-56 -392)" fill="#d3a06c"/>
        </g>
        <g id="Grupo_1174106" data-name="Grupo 1174106" transform="translate(5.628 20.636)">
          <path id="Trazado_1031468" data-name="Trazado 1031468" d="M65.38,275.256v3.752H56V267.666a3.666,3.666,0,0,1,5.4-3.233c.079.042.156.088.232.136a3.654,3.654,0,0,1,1.088,1.062l2.664,4h5.628v5.628H65.38Z" transform="translate(-56 -264)" fill="#4fc1e9"/>
        </g>
        <g id="Grupo_1174107" data-name="Grupo 1174107">
          <path id="Trazado_1031469" data-name="Trazado 1031469" d="M21.132,97.38H17.38A1.873,1.873,0,0,0,15.5,99.256a1.876,1.876,0,1,0,0,3.752v3.752l-.793-.4A12.139,12.139,0,0,1,8,95.5a3.751,3.751,0,0,1,3.752-3.752A3.751,3.751,0,0,1,15.5,88a6.684,6.684,0,0,1,1.84.258l2.057.587a26.817,26.817,0,0,0,7.36,1.031v1.433a6.789,6.789,0,0,1-3.752,6.071Z" transform="translate(-8 -88)" fill="#656d78"/>
        </g>
        <g id="Grupo_1174108" data-name="Grupo 1174108" transform="translate(47.679 0)">
          <path id="Trazado_1031470" data-name="Trazado 1031470" d="M423.25,92.69a4.685,4.685,0,0,1-2.1,3.91,8.711,8.711,0,0,0-6.5-6.5,4.69,4.69,0,0,1,8.6,2.59Z" transform="translate(-414.65 -88)" fill="#b27946"/>
        </g>
        <g id="Grupo_1174109" data-name="Grupo 1174109" transform="translate(37.52 1.876)">
          <path id="Trazado_1031471" data-name="Trazado 1031471" d="M333.628,111.5H328a7.925,7.925,0,0,1,.84-3.554l.1-.2-.1-.2A7.94,7.94,0,0,1,328,104h8.189a8.7,8.7,0,0,1,3.888,16.473l-.821.41v-3.752a1.876,1.876,0,1,0,0-3.752,1.873,1.873,0,0,0-1.876-1.876Z" transform="translate(-328 -104)" fill="#b27946"/>
        </g>
        <g id="Grupo_1174110" data-name="Grupo 1174110" transform="translate(43.148 33.768)">
          <path id="Trazado_1031472" data-name="Trazado 1031472" d="M385.38,382.2v6.936H376V377.876h2.975A6.407,6.407,0,0,0,383.5,376,11.173,11.173,0,0,1,385.38,382.2Z" transform="translate(-376 -376)" fill="#969faa"/>
        </g>
        <g id="Grupo_1174111" data-name="Grupo 1174111" transform="translate(41.694 20.636)">
          <path id="Trazado_1031473" data-name="Trazado 1031473" d="M370.682,264.465a3.667,3.667,0,0,1,1.876,3.2v9.465a6.407,6.407,0,0,1-4.529,1.876h-2.975v-6.7a10.359,10.359,0,0,0,1.653-1.025l-3.107-3.107a7.505,7.505,0,0,0,1.806-1.888l.436-.654a3.654,3.654,0,0,1,1.088-1.062c.076-.048.154-.094.232-.136a3.67,3.67,0,0,1,3.52.032Z" transform="translate(-363.6 -264)" fill="#b4dd7f"/>
        </g>
        <g id="Grupo_1174112" data-name="Grupo 1174112" transform="translate(41.272 9.38)">
          <path id="Trazado_1031474" data-name="Trazado 1031474" d="M363.984,179.69c-.079.042-.156.088-.232.136h0V177.38A3.751,3.751,0,0,1,360,173.628V168h5.628a1.873,1.873,0,0,1,1.876,1.876,1.876,1.876,0,1,1,0,3.752v6.093a3.67,3.67,0,0,0-3.52-.032Z" transform="translate(-360 -168)" fill="#f0d0b4"/>
        </g>
        <g id="Grupo_1174113" data-name="Grupo 1174113" transform="translate(30.016 24.388)">
          <path id="Trazado_1031475" data-name="Trazado 1031475" d="M271.5,297.871a7.5,7.5,0,0,0,4.174-1.449l3.107,3.107a10.313,10.313,0,0,1-6.238,2.1h-5.894A2.653,2.653,0,0,1,264,298.975v-.321a2.653,2.653,0,0,1,4.529-1.876l1.1,1.1h1.612C271.328,297.876,271.416,297.875,271.5,297.871Z" transform="translate(-264 -296)" fill="#f0d0b4"/>
        </g>
        <g id="Grupo_1174114" data-name="Grupo 1174114" transform="translate(20.636 24.388)">
          <path id="Trazado_1031476" data-name="Trazado 1031476" d="M189.628,298.653v.321a2.653,2.653,0,0,1-2.653,2.653H184v-3.752l1.1-1.1a2.653,2.653,0,0,1,4.529,1.876Z" transform="translate(-184 -296)" fill="#f0d0b4"/>
        </g>
        <g id="Grupo_1174115" data-name="Grupo 1174115" transform="translate(5.628 9.38)">
          <path id="Trazado_1031477" data-name="Trazado 1031477" d="M61.628,177.38v2.445h0c-.076-.048-.154-.094-.232-.136a3.67,3.67,0,0,0-3.52.032v-6.093a1.876,1.876,0,1,1,0-3.752A1.873,1.873,0,0,1,59.752,168H65.38v5.628a3.751,3.751,0,0,1-3.752,3.752Z" transform="translate(-56 -168)" fill="#f0d0b4"/>
        </g>
      </g>
      <g id="Grupo_1174117" data-name="Grupo 1174117" transform="translate(0)">
        <path id="Trazado_1031478" data-name="Trazado 1031478" d="M58.155,85.628a5.627,5.627,0,0,0-9.935-3.621,9.66,9.66,0,0,0-1.575-.131H37.52v.938a8.937,8.937,0,0,0,.831,3.752,8.935,8.935,0,0,0-.831,3.752v.938h3.752v4.69a4.7,4.7,0,0,0,3.752,4.6v1.122a4.614,4.614,0,0,0-.931,1.022l-.436.654a6.551,6.551,0,0,1-4.261,2.813v-5.517A1.878,1.878,0,0,0,37.52,98.76H20.636a1.878,1.878,0,0,0-1.876,1.876v5.628H16.448l-2.385-3.578a4.608,4.608,0,0,0-.931-1.022v-1.122a4.7,4.7,0,0,0,3.752-4.6V90.872a7.678,7.678,0,0,0,3.752-6.625V81.876H19.7a25.847,25.847,0,0,1-7.1-.995l-2.057-.588A7.638,7.638,0,0,0,8.442,80a4.7,4.7,0,0,0-4.611,3.831A4.7,4.7,0,0,0,0,88.442a13.08,13.08,0,0,0,7.23,11.7l.274.137v1.256a4.6,4.6,0,0,0-1.876,3.706V117.7a6.5,6.5,0,0,0,1.1,3.618A4.633,4.633,0,0,1,7.5,123.9v4.875h9.38V113.768H18.76V126.9a1.878,1.878,0,0,0,1.876,1.876H37.52A1.878,1.878,0,0,0,39.4,126.9V111.892H39.5a11.266,11.266,0,0,0,3.646-.605v17.489H54.4V120.9a12.067,12.067,0,0,0-1.876-6.474V105.24a4.6,4.6,0,0,0-1.876-3.706v-1.256l.3-.151a9.623,9.623,0,0,0,5.194-10.191,5.615,5.615,0,0,0,2.007-4.307Zm-37.52,15.008H37.52v5.628h-.55l-.824-.824a3.567,3.567,0,0,0-2.539-1.052H24.549a3.568,3.568,0,0,0-2.539,1.052l-.824.824h-.55Zm9.817,9.38H27.7a3.569,3.569,0,0,0,.437-1.715v-.322a3.569,3.569,0,0,0-.437-1.715h2.75a3.569,3.569,0,0,0-.437,1.715v.322A3.569,3.569,0,0,0,30.452,110.016Zm-7.941-2.426.824-.824a1.715,1.715,0,0,1,2.928,1.213v.322a1.717,1.717,0,0,1-1.715,1.715H22.512ZM1.876,88.442A2.817,2.817,0,0,1,4.69,85.628h.938V84.69a2.817,2.817,0,0,1,2.814-2.814,5.76,5.76,0,0,1,1.582.222l2.056.588a27.722,27.722,0,0,0,6.679,1.051v.511a5.814,5.814,0,0,1-1.879,4.3c0-.035,0-.069,0-.1a2.817,2.817,0,0,0-2.814-2.814h-.938V87.5h.938a.938.938,0,0,1,0,1.876H10.318a2.819,2.819,0,0,0-2.693,2A2.814,2.814,0,0,0,7.5,96.723V98.16A11.137,11.137,0,0,1,1.876,88.442Zm6.566,6.566a.938.938,0,0,1,0-1.876H9.38v-.938a.939.939,0,0,1,.938-.938h4.69v4.69a2.817,2.817,0,0,1-2.814,2.814h-.938v1.993a4.553,4.553,0,0,0-1.876-.036V95.008Zm1.79,7.5a2.723,2.723,0,0,1,2.27,1.215l2.942,4.413h5.192v3.752h-5.5a2.808,2.808,0,0,1-2.341-1.253l-2.638-3.957L8.6,107.722l2.638,3.957a4.678,4.678,0,0,0,3.77,2.084v1.88H7.5v-10.4A2.731,2.731,0,0,1,10.232,102.512ZM9.38,126.9v-3a6.5,6.5,0,0,0-1.1-3.618A4.633,4.633,0,0,1,7.5,117.7v-.185h7.5v9.38Zm11.256-9.38H37.52v3.752H20.636Zm0,9.38v-3.752H37.52V126.9ZM37.52,115.644H20.636v-1.876h1.876v-1.876H37.52Zm-3.913-5.628a1.717,1.717,0,0,1-1.715-1.715v-.322a1.715,1.715,0,0,1,2.928-1.213l1.374,1.374h2a8.431,8.431,0,0,0,4.317-1.186l1.76,1.76a9.368,9.368,0,0,1-4.77,1.3Zm15.26-3.136.689-1.033-1.561-1.041-.689,1.033a9.408,9.408,0,0,1-1.507,1.75l-1.78-1.78a8.472,8.472,0,0,0,1.2-1.428l.436-.654a2.728,2.728,0,0,1,5,1.513V114.3a5.426,5.426,0,0,1-3.591,1.346H45.024v-5.2A11.245,11.245,0,0,0,48.867,106.879Zm3.661,20.02h-7.5v-9.38h2.037a7.288,7.288,0,0,0,4.289-1.383,10.2,10.2,0,0,1,1.178,4.765ZM49.713,95.008h-.938v5.708a4.553,4.553,0,0,0-1.876.036V98.76h-.938a2.817,2.817,0,0,1-2.814-2.814v-4.69h4.69a.939.939,0,0,1,.938.938v.938h.938a.938.938,0,1,1,0,1.876Zm.938,3.146V96.723a2.814,2.814,0,0,0-.121-5.346,2.819,2.819,0,0,0-2.693-2H44.086a.938.938,0,1,1,0-1.876h.938V85.628h-.938a2.813,2.813,0,0,0-2.653,3.752H39.459a7.043,7.043,0,0,1,.676-2.2l.309-.618-.309-.618a7.044,7.044,0,0,1-.676-2.2h7.186a7.758,7.758,0,0,1,4.006,14.4Zm4.9-10.309A9.687,9.687,0,0,0,50.31,82.6a3.751,3.751,0,0,1,5.243,5.243Z" transform="translate(0 -70.62)"/>
        <path id="Trazado_1031479" data-name="Trazado 1031479" d="M208,49.876V55.5a3.756,3.756,0,0,0,3.752,3.752h1.876a1.878,1.878,0,0,1,1.876,1.876v3.752h-3.752a1.878,1.878,0,0,1-1.876-1.876V61.132H208v1.876a3.756,3.756,0,0,0,3.752,3.752v1.876h1.876V66.76h3.752V61.132a3.756,3.756,0,0,0-3.752-3.752h-1.876a1.878,1.878,0,0,1-1.876-1.876V51.752h3.752a1.878,1.878,0,0,1,1.876,1.876V55.5h1.876V53.628a3.756,3.756,0,0,0-3.752-3.752V48h-1.876v1.876Z" transform="translate(-183.612 -42.372)"/>
        <path id="Trazado_1031480" data-name="Trazado 1031480" d="M240,0h1.876V3.752H240Z" transform="translate(-211.86)"/>
        <path id="Trazado_1031481" data-name="Trazado 1031481" d="M0,0H1.876V3.98H0Z" transform="translate(23.722 2.542) rotate(-45)"/>
        <path id="Trazado_1031482" data-name="Trazado 1031482" d="M0,0H3.98V1.876H0Z" transform="translate(30.287 4.03) rotate(-45)"/>
      </g>
    </g>
  </g>
</svg>
