<svg xmlns="http://www.w3.org/2000/svg" xmlns:xlink="http://www.w3.org/1999/xlink" width="110" height="110" viewBox="0 0 110 110">
  <defs>
    <filter id="Trazado_982547" x="0" y="0" width="110" height="110" filterUnits="userSpaceOnUse">
      <feOffset dy="3" input="SourceAlpha"/>
      <feGaussianBlur stdDeviation="3" result="blur"/>
      <feFlood flood-opacity="0.161"/>
      <feComposite operator="in" in2="blur"/>
      <feComposite in="SourceGraphic"/>
    </filter>
  </defs>
  <g id="Grupo_1173923" data-name="Grupo 1173923" transform="translate(-1658.196 -6651.5)">
    <g id="Grupo_1173201" data-name="Grupo 1173201" transform="translate(1667.196 6657.5)">
      <g id="Grupo_1171901" data-name="Grupo 1171901" transform="translate(0 0)">
        <g id="Grupo_1164700" data-name="Grupo 1164700" transform="translate(0)">
          <g id="Grupo_1160931" data-name="Grupo 1160931" transform="translate(0 0)">
            <g id="Grupo_1160749" data-name="Grupo 1160749" transform="translate(0 0)">
              <g id="Grupo_1158891" data-name="Grupo 1158891" transform="translate(0 0)">
                <g id="Grupo_1157406" data-name="Grupo 1157406" transform="translate(0 0)">
                  <g id="Grupo_1155793" data-name="Grupo 1155793">
                    <g id="Grupo_1154704" data-name="Grupo 1154704">
                      <g id="Grupo_1150790" data-name="Grupo 1150790">
                        <g id="Grupo_1154214" data-name="Grupo 1154214">
                          <g id="Grupo_1152583" data-name="Grupo 1152583">
                            <g id="Grupo_1146973" data-name="Grupo 1146973">
                              <g id="Grupo_1146954" data-name="Grupo 1146954">
                                <g transform="matrix(1, 0, 0, 1, -9, -6)" filter="url(#Trazado_982547)">
                                  <g id="Trazado_982547-2" data-name="Trazado 982547" transform="translate(9 6)" fill="#e9f9fd">
                                    <path d="M 46.0000114440918 90.49989318847656 C 39.99188995361328 90.49989318847656 34.16427993774414 89.32353210449219 28.6790657043457 87.00347900390625 C 23.38021087646484 84.76226043701172 18.62105178833008 81.55343627929688 14.53375816345215 77.46615600585938 C 10.44647789001465 73.37887573242188 7.237651348114014 68.61971282958984 4.996424674987793 63.32086181640625 C 2.676371335983276 57.83566284179688 1.500011444091797 52.00806427001953 1.500011444091797 45.99994277954102 C 1.500011444091797 39.9918212890625 2.676371335983276 34.16422271728516 4.996424674987793 28.67902183532715 C 7.237651348114014 23.38016891479492 10.44647789001465 18.62100982666016 14.53375816345215 14.53372955322266 C 18.62105178833008 10.44644927978516 23.38021087646484 7.237622737884521 28.6790657043457 4.99640941619873 C 34.16427993774414 2.676356077194214 39.99188995361328 1.499996066093445 46.0000114440918 1.499996066093445 C 52.00813293457031 1.499996066093445 57.83574295043945 2.676356077194214 63.32095718383789 4.99640941619873 C 68.61981201171875 7.237622737884521 73.37898254394531 10.44644927978516 77.46626281738281 14.53372955322266 C 81.55355834960938 18.62100982666016 84.76237487792969 23.38016891479492 87.00360107421875 28.67902183532715 C 89.32365417480469 34.16422271728516 90.50001525878906 39.9918212890625 90.50001525878906 45.99994277954102 C 90.50001525878906 52.00806427001953 89.32365417480469 57.83566284179688 87.00360107421875 63.32086181640625 C 84.76237487792969 68.61971282958984 81.55355834960938 73.37887573242188 77.46626281738281 77.46615600585938 C 73.37898254394531 81.55343627929688 68.61981201171875 84.76226043701172 63.32095718383789 87.00347900390625 C 57.83574295043945 89.32353210449219 52.00813293457031 90.49989318847656 46.0000114440918 90.49989318847656 Z" stroke="none"/>
                                    <path d="M 46.0000114440918 3 C 40.1937255859375 3 34.56270980834961 4.136497497558594 29.26338195800781 6.377914428710938 C 24.14334106445312 8.543510437011719 19.54442596435547 11.64438629150391 15.59441375732422 15.59438323974609 C 11.6444091796875 19.54440307617188 8.543525695800781 24.14330291748047 6.377922058105469 29.26334381103516 C 4.136512756347656 34.56265640258789 3.000007629394531 40.19367218017578 3.000007629394531 45.99994277954102 C 3.000007629394531 51.80621337890625 4.136512756347656 57.43722915649414 6.377922058105469 62.73654174804688 C 8.543525695800781 67.85658264160156 11.6444091796875 72.45549011230469 15.59441375732422 76.40550231933594 C 19.54442596435547 80.35549926757812 24.14334106445312 83.45637512207031 29.26338195800781 85.62197113037109 C 34.56270980834961 87.86338806152344 40.1937255859375 88.99988555908203 46.0000114440918 88.99988555908203 C 51.80629730224609 88.99988555908203 57.43731307983398 87.86338806152344 62.73664093017578 85.62197113037109 C 67.85668182373047 83.45637512207031 72.45559692382812 80.35549926757812 76.40560913085938 76.40550231933594 C 80.35561370849609 72.45549011230469 83.45649719238281 67.85658264160156 85.62210083007812 62.73654174804688 C 87.86351013183594 57.43722915649414 89.00001525878906 51.80621337890625 89.00001525878906 45.99994277954102 C 89.00001525878906 40.19367218017578 87.86351013183594 34.56265640258789 85.62210083007812 29.26334381103516 C 83.45649719238281 24.14330291748047 80.35561370849609 19.54440307617188 76.40560913085938 15.59438323974609 C 72.45559692382812 11.64438629150391 67.85668182373047 8.543510437011719 62.73664093017578 6.377914428710938 C 57.43731307983398 4.136497497558594 51.80629730224609 3 46.0000114440918 3 M 46.0000114440918 0 C 71.40511322021484 0 92.00001525878906 20.59487152099609 92.00001525878906 45.99994277954102 C 92.00001525878906 71.40501403808594 71.40511322021484 91.99988555908203 46.0000114440918 91.99988555908203 C 20.59490966796875 91.99988555908203 7.62939453125e-06 71.40501403808594 7.62939453125e-06 45.99994277954102 C 7.62939453125e-06 20.59487152099609 20.59490966796875 0 46.0000114440918 0 Z" stroke="none" fill="#36ceef"/>
                                  </g>
                                </g>
                              </g>
                            </g>
                          </g>
                        </g>
                      </g>
                    </g>
                  </g>
                </g>
              </g>
            </g>
          </g>
        </g>
      </g>
    </g>
    <g id="car_2942079" transform="translate(1683.508 6673.813)">
      <g id="Grupo_1172928" data-name="Grupo 1172928" transform="translate(1.925 1.925)">
        <g id="Grupo_1172898" data-name="Grupo 1172898" transform="translate(0)">
          <path id="Trazado_1026640" data-name="Trazado 1026640" d="M49.168,12.4a3.644,3.644,0,0,1,1.471.75l-.009.009a3.06,3.06,0,0,0-.509-.056A3.7,3.7,0,1,0,51.972,20V24.21H44.254a5.582,5.582,0,0,0-3.387-3.387V13.1l-1.879-5A3.68,3.68,0,0,0,35.528,5.7H21.221A3.68,3.68,0,0,0,17.76,8.108L16.6,11.189,15.881,13.1v8.153a5.42,5.42,0,0,0-2.776-.75,5.556,5.556,0,0,0-5.238,3.7H2v-3.7a3.7,3.7,0,0,0,1.407-7.126,3.622,3.622,0,0,1,1.731-.759l7.042-1.37,1.842-4.6A7.4,7.4,0,0,1,20.9,2H35.852a7.4,7.4,0,0,1,6.876,4.655l1.842,4.6Z" transform="translate(-2 -2)" fill="#b4dd7f"/>
        </g>
        <g id="Grupo_1172899" data-name="Grupo 1172899" transform="translate(13.881 11.105)">
          <path id="Trazado_1026641" data-name="Trazado 1026641" d="M28.1,14V25.1H19.462A5.569,5.569,0,0,0,17,22.153v-6.3h2.776a2.77,2.77,0,0,0,1.962-.814A2.626,2.626,0,0,0,22.386,14H28.1Z" transform="translate(-17 -14)" fill="#a0d468"/>
        </g>
        <g id="Grupo_1172900" data-name="Grupo 1172900" transform="translate(24.986 11.105)">
          <path id="Trazado_1026642" data-name="Trazado 1026642" d="M42.881,14v7.718A5.565,5.565,0,0,0,35.793,25.1H29V14Z" transform="translate(-29 -14)" fill="#a0d468"/>
        </g>
        <g id="Grupo_1172901" data-name="Grupo 1172901" transform="translate(24.986 3.702)">
          <path id="Trazado_1026643" data-name="Trazado 1026643" d="M41,8.406l1.879,5H29V6h8.542A3.68,3.68,0,0,1,41,8.406Z" transform="translate(-29 -6)" fill="#69d6f4"/>
        </g>
        <g id="Grupo_1172902" data-name="Grupo 1172902" transform="translate(14.603 3.702)">
          <path id="Trazado_1026644" data-name="Trazado 1026644" d="M28.163,13.4H22.444a2.565,2.565,0,0,0,.167-.925.928.928,0,0,0-.925-.925H17.947l-.167-.065,1.157-3.082A3.68,3.68,0,0,1,22.4,6h5.765Z" transform="translate(-17.78 -6)" fill="#69d6f4"/>
        </g>
        <g id="Grupo_1172903" data-name="Grupo 1172903" transform="translate(13.881 9.189)">
          <path id="Trazado_1026645" data-name="Trazado 1026645" d="M17.888,11.995h3.739a.928.928,0,0,1,.925.925,2.565,2.565,0,0,1-.167.925,2.626,2.626,0,0,1-.648,1.036,2.77,2.77,0,0,1-1.962.814H17V13.846l.722-1.916Z" transform="translate(-17 -11.93)" fill="#ccd1d9"/>
        </g>
        <g id="Grupo_1172904" data-name="Grupo 1172904" transform="translate(0 11.383)">
          <path id="Trazado_1026646" data-name="Trazado 1026646" d="M3.407,14.3A3.7,3.7,0,0,1,2,21.426V17.2A3.681,3.681,0,0,1,3.407,14.3Z" transform="translate(-2 -14.3)" fill="#ff826e"/>
        </g>
        <g id="Grupo_1172905" data-name="Grupo 1172905" transform="translate(44.42 11.105)">
          <path id="Trazado_1026647" data-name="Trazado 1026647" d="M55.552,16.887v4.007A3.7,3.7,0,1,1,53.7,14a3.06,3.06,0,0,1,.509.056l.009-.009A3.716,3.716,0,0,1,55.552,16.887Z" transform="translate(-50 -14)" fill="#ff826e"/>
        </g>
        <g id="Grupo_1172906" data-name="Grupo 1172906" transform="translate(0 22.21)">
          <path id="Trazado_1026648" data-name="Trazado 1026648" d="M7.552,27.851A5.592,5.592,0,0,0,7.867,29.7H5.7A3.7,3.7,0,0,1,2,26H7.867A5.592,5.592,0,0,0,7.552,27.851Z" transform="translate(-2 -26)" fill="#aab2bd"/>
        </g>
        <g id="Grupo_1172907" data-name="Grupo 1172907" transform="translate(16.343 22.21)">
          <path id="Trazado_1026649" data-name="Trazado 1026649" d="M19.975,27.851A5.592,5.592,0,0,0,19.66,26H35.1a5.6,5.6,0,0,0,0,3.7H19.66A5.592,5.592,0,0,0,19.975,27.851Z" transform="translate(-19.66 -26)" fill="#aab2bd"/>
        </g>
        <g id="Grupo_1172908" data-name="Grupo 1172908" transform="translate(42.254 22.21)">
          <path id="Trazado_1026650" data-name="Trazado 1026650" d="M47.975,27.851A5.592,5.592,0,0,0,47.66,26h7.718a3.7,3.7,0,0,1-3.7,3.7H47.66A5.592,5.592,0,0,0,47.975,27.851Z" transform="translate(-47.66 -26)" fill="#aab2bd"/>
        </g>
        <g id="Grupo_1172909" data-name="Grupo 1172909" transform="translate(5.552 18.508)">
          <path id="Trazado_1026651" data-name="Trazado 1026651" d="M8.315,25.7A5.556,5.556,0,0,1,13.552,22a5.42,5.42,0,0,1,2.776.75A5.544,5.544,0,1,1,8.315,25.7Z" transform="translate(-8 -22)" fill="#838f9b"/>
        </g>
        <g id="Grupo_1172910" data-name="Grupo 1172910" transform="translate(31.464 18.508)">
          <path id="Trazado_1026652" data-name="Trazado 1026652" d="M46.79,25.7a5.6,5.6,0,0,1,0,3.7c-.065.167-.13.333-.2.49a7.425,7.425,0,0,0-2.647-.49H41.552A1.851,1.851,0,1,0,39.7,27.552,1.856,1.856,0,0,0,41.552,29.4H36.315A5.555,5.555,0,1,1,46.79,25.7Z" transform="translate(-36 -22)" fill="#838f9b"/>
        </g>
        <g id="Grupo_1172911" data-name="Grupo 1172911" transform="translate(34.296 22.568)">
          <ellipse id="Elipse_11800" data-name="Elipse 11800" cx="1.759" cy="1.173" rx="1.759" ry="1.173" transform="translate(0 0)" fill="#ccd1d9"/>
        </g>
        <g id="Grupo_1172912" data-name="Grupo 1172912" transform="translate(8.494 22.568)">
          <ellipse id="Elipse_11801" data-name="Elipse 11801" cx="2.932" cy="1.173" rx="2.932" ry="1.173" transform="translate(0 0)" fill="#ccd1d9"/>
        </g>
        <g id="Grupo_1172913" data-name="Grupo 1172913" transform="translate(5.552 37.294)">
          <path id="Trazado_1026653" data-name="Trazado 1026653" d="M9.407,42.3A3.7,3.7,0,0,1,8,49.426V45.2A3.681,3.681,0,0,1,9.407,42.3Z" transform="translate(-8 -42.3)" fill="#fcd770"/>
        </g>
        <g id="Grupo_1172914" data-name="Grupo 1172914" transform="translate(49.972 37.016)">
          <path id="Trazado_1026654" data-name="Trazado 1026654" d="M61.552,44.887v4.007A3.7,3.7,0,1,1,59.7,42a3.06,3.06,0,0,1,.509.056l.009-.009a3.716,3.716,0,0,1,1.333,2.841Z" transform="translate(-56 -42)" fill="#fcd770"/>
        </g>
        <g id="Grupo_1172915" data-name="Grupo 1172915" transform="translate(5.552 25.912)">
          <path id="Trazado_1026655" data-name="Trazado 1026655" d="M55.168,40.4a3.644,3.644,0,0,1,1.471.75l-.009.009a3.06,3.06,0,0,0-.509-.056A3.7,3.7,0,1,0,57.972,48V52.21H50.254a5.582,5.582,0,0,0-3.387-3.387V41.1l-1.879-5A3.68,3.68,0,0,0,41.528,33.7H27.221a3.68,3.68,0,0,0-3.461,2.406L22.6,39.189,21.881,41.1v8.153a5.42,5.42,0,0,0-2.776-.75,5.556,5.556,0,0,0-5.238,3.7H8v-3.7a3.7,3.7,0,0,0,1.407-7.126,3.622,3.622,0,0,1,1.731-.759l7.042-1.37,1.842-4.6A7.4,7.4,0,0,1,26.9,30H41.852a7.413,7.413,0,0,1,6.876,4.655l1.842,4.6Z" transform="translate(-8 -30)" fill="#ff826e"/>
        </g>
        <g id="Grupo_1172916" data-name="Grupo 1172916" transform="translate(19.434 35.101)">
          <path id="Trazado_1026656" data-name="Trazado 1026656" d="M23.888,39.995h3.739a.928.928,0,0,1,.925.925,2.565,2.565,0,0,1-.167.925,2.626,2.626,0,0,1-.648,1.036,2.77,2.77,0,0,1-1.962.814H23V41.846l.722-1.916Z" transform="translate(-23 -39.93)" fill="#ccd1d9"/>
        </g>
        <g id="Grupo_1172917" data-name="Grupo 1172917" transform="translate(30.539 29.613)">
          <path id="Trazado_1026657" data-name="Trazado 1026657" d="M47,36.406l1.879,5H35V34h8.542A3.68,3.68,0,0,1,47,36.406Z" transform="translate(-35 -34)" fill="#69d6f4"/>
        </g>
        <g id="Grupo_1172918" data-name="Grupo 1172918" transform="translate(20.155 29.613)">
          <path id="Trazado_1026658" data-name="Trazado 1026658" d="M34.163,41.4H28.444a2.565,2.565,0,0,0,.167-.925.928.928,0,0,0-.925-.925H23.947l-.167-.065,1.157-3.082A3.68,3.68,0,0,1,28.4,34h5.765Z" transform="translate(-23.78 -34)" fill="#69d6f4"/>
        </g>
        <g id="Grupo_1172919" data-name="Grupo 1172919" transform="translate(19.434 37.016)">
          <path id="Trazado_1026659" data-name="Trazado 1026659" d="M34.1,42V53.1H25.462A5.569,5.569,0,0,0,23,50.153v-6.3h2.776a2.77,2.77,0,0,0,1.962-.814A2.626,2.626,0,0,0,28.386,42H34.1Z" transform="translate(-23 -42)" fill="#fc6e51"/>
        </g>
        <g id="Grupo_1172920" data-name="Grupo 1172920" transform="translate(30.539 37.016)">
          <path id="Trazado_1026660" data-name="Trazado 1026660" d="M48.881,42v7.718A5.565,5.565,0,0,0,41.793,53.1H35V42Z" transform="translate(-35 -42)" fill="#fc6e51"/>
        </g>
        <g id="Grupo_1172921" data-name="Grupo 1172921" transform="translate(5.552 48.121)">
          <path id="Trazado_1026661" data-name="Trazado 1026661" d="M11.7,57.7A3.7,3.7,0,0,1,8,54h5.867a5.6,5.6,0,0,0,0,3.7Z" transform="translate(-8 -54)" fill="#aab2bd"/>
        </g>
        <g id="Grupo_1172922" data-name="Grupo 1172922" transform="translate(21.895 48.121)">
          <path id="Trazado_1026662" data-name="Trazado 1026662" d="M40.781,55.851A5.592,5.592,0,0,0,41.1,57.7H25.66a5.6,5.6,0,0,0,0-3.7H41.1A5.592,5.592,0,0,0,40.781,55.851Z" transform="translate(-25.66 -54)" fill="#aab2bd"/>
        </g>
        <g id="Grupo_1172923" data-name="Grupo 1172923" transform="translate(47.807 48.121)">
          <path id="Trazado_1026663" data-name="Trazado 1026663" d="M53.975,55.851A5.592,5.592,0,0,0,53.66,54h7.718a3.7,3.7,0,0,1-3.7,3.7H53.66A5.592,5.592,0,0,0,53.975,55.851Z" transform="translate(-53.66 -54)" fill="#aab2bd"/>
        </g>
        <g id="Grupo_1172924" data-name="Grupo 1172924" transform="translate(11.105 44.42)">
          <path id="Trazado_1026664" data-name="Trazado 1026664" d="M22.329,50.75A5.545,5.545,0,1,1,19.552,50,5.42,5.42,0,0,1,22.329,50.75Z" transform="translate(-14 -50)" fill="#838f9b"/>
        </g>
        <g id="Grupo_1172925" data-name="Grupo 1172925" transform="translate(37.016 44.42)">
          <path id="Trazado_1026665" data-name="Trazado 1026665" d="M52.79,53.7A5.543,5.543,0,1,1,49.4,50.315,5.592,5.592,0,0,1,52.79,53.7Z" transform="translate(-42 -50)" fill="#838f9b"/>
        </g>
        <g id="Grupo_1172926" data-name="Grupo 1172926" transform="translate(15.531 48.37)">
          <circle id="Elipse_11802" data-name="Elipse 11802" cx="1.759" cy="1.759" r="1.759" transform="translate(0 0)" fill="#ccd1d9"/>
        </g>
        <g id="Grupo_1172927" data-name="Grupo 1172927" transform="translate(40.16 48.37)">
          <circle id="Elipse_11803" data-name="Elipse 11803" cx="1.759" cy="1.759" r="1.759" transform="translate(0 0)" fill="#ccd1d9"/>
        </g>
      </g>
      <g id="Grupo_1172932" data-name="Grupo 1172932" transform="translate(1 1)">
        <g id="Grupo_1172929" data-name="Grupo 1172929" transform="translate(49.972 37.016)">
          <path id="Trazado_1026666" data-name="Trazado 1026666" d="M59.627,50.254a4.627,4.627,0,1,1,0-9.254,4.024,4.024,0,0,1,.562.049l-.179,1.844-.081-.011a2.191,2.191,0,0,0-.3-.031,2.776,2.776,0,1,0,0,5.552,2.727,2.727,0,0,0,1.385-.388l.932,1.6a4.561,4.561,0,0,1-2.317.639Z" transform="translate(-55 -41)"/>
        </g>
        <g id="Grupo_1172930" data-name="Grupo 1172930" transform="translate(44.42 11.105)">
          <path id="Trazado_1026667" data-name="Trazado 1026667" d="M53.627,22.254a4.627,4.627,0,0,1,0-9.254,3.9,3.9,0,0,1,.564.05l-.181,1.843-.079-.011a2.19,2.19,0,0,0-.3-.031,2.776,2.776,0,0,0,0,5.552,2.727,2.727,0,0,0,1.385-.388l.932,1.6A4.561,4.561,0,0,1,53.627,22.254Z" transform="translate(-49 -13)"/>
        </g>
        <g id="Grupo_1172931" data-name="Grupo 1172931">
          <path id="Trazado_1026668" data-name="Trazado 1026668" d="M47.776,53a2.776,2.776,0,1,0,2.776,2.776A2.78,2.78,0,0,0,47.776,53Zm0,3.7a.925.925,0,1,1,.925-.925A.927.927,0,0,1,47.776,56.7Z" transform="translate(-4.282 -4.879)"/>
          <path id="Trazado_1026669" data-name="Trazado 1026669" d="M19.776,53a2.776,2.776,0,1,0,2.776,2.776A2.78,2.78,0,0,0,19.776,53Zm0,3.7a.925.925,0,1,1,.925-.925A.927.927,0,0,1,19.776,56.7Z" transform="translate(-2.193 -4.879)"/>
          <path id="Trazado_1026670" data-name="Trazado 1026670" d="M54.871,37.343l-4.14-1.036-1.664-4.162a8.311,8.311,0,0,0-2.521-3.384H48.2a4.632,4.632,0,0,0,4.627-4.627V15.919a4.621,4.621,0,0,0-3.5-4.489l-4.14-1.036-1.665-4.16A8.289,8.289,0,0,0,35.781,1H20.82a8.29,8.29,0,0,0-7.734,5.235l-1.653,4.132-6.51,1.266A4.6,4.6,0,0,0,1,16.206v7.929a4.632,4.632,0,0,0,4.627,4.627H7.186a6.464,6.464,0,0,0,11.688,0h2.284a8.311,8.311,0,0,0-2.521,3.384l-1.653,4.132-6.51,1.265a4.6,4.6,0,0,0-3.922,4.574v7.929a4.632,4.632,0,0,0,4.627,4.627h1.559a6.464,6.464,0,0,0,11.688,0H38.65a6.464,6.464,0,0,0,11.688,0h3.41a4.632,4.632,0,0,0,4.627-4.627V41.832a4.621,4.621,0,0,0-3.5-4.489ZM38.016,25.986a.925.925,0,1,1,.925.925A.927.927,0,0,1,38.016,25.986Zm.925-2.776a2.78,2.78,0,0,0-2.776,2.776,2.745,2.745,0,0,0,.17.925H34.418a4.624,4.624,0,1,1,8.987.279,8.336,8.336,0,0,0-1.862-.263,2.741,2.741,0,0,0,.176-.941A2.78,2.78,0,0,0,38.942,23.21Zm-22.21-2.532V15.807h1.851a3.69,3.69,0,0,0,3.187-1.851h4.216V23.21H18.874A6.512,6.512,0,0,0,16.732,20.678ZM35.451,6.552a2.788,2.788,0,0,1,2.6,1.8L39.457,12.1H27.837V6.552ZM25.986,12.1h-3.7a1.853,1.853,0,0,0-1.851-1.851h-2.6l.713-1.9a2.788,2.788,0,0,1,2.6-1.8h4.838ZM16.732,13.2l.41-1.093h3.292a1.853,1.853,0,0,1-1.851,1.851H16.732Zm11.1.758h12.03v5.627A6.392,6.392,0,0,0,33.1,23.21H27.837ZM48.2,26.912H45.347a5.857,5.857,0,0,0,0-1.851H50.8A2.772,2.772,0,0,1,48.2,26.912ZM12.777,11.991,14.8,6.923A6.446,6.446,0,0,1,20.82,2.851H35.781a6.446,6.446,0,0,1,6.014,4.072l2.016,5.04,5.059,1.265a2.772,2.772,0,0,1,2.1,2.693V23.21H44.786a6.511,6.511,0,0,0-3.068-3.068V12.863L39.784,7.7a4.649,4.649,0,0,0-4.333-3h-14.3a4.649,4.649,0,0,0-4.333,3l-1.934,5.158v6.918A6.454,6.454,0,0,0,7.186,23.21H2.851V21.266a4.636,4.636,0,0,0,3.7-4.534A4.6,4.6,0,0,0,5.19,13.468c.018,0,.033-.009.051-.012ZM3.484,14.445a2.758,2.758,0,0,1-.633,4.893V16.206A2.748,2.748,0,0,1,3.484,14.445ZM5.627,26.912a2.772,2.772,0,0,1-2.606-1.851H6.627a5.821,5.821,0,0,0,0,1.851Zm7.4,3.7a4.627,4.627,0,1,1,4.627-4.627A4.632,4.632,0,0,1,13.03,30.613Zm6.4-3.7a5.821,5.821,0,0,0,0-1.851h13.1a5.681,5.681,0,0,0,0,1.851H19.434ZM18.329,37.9l2.028-5.068a6.446,6.446,0,0,1,6.014-4.072H41.332a6.447,6.447,0,0,1,6.015,4.072l2.016,5.04,5.059,1.265a2.772,2.772,0,0,1,2.1,2.693v7.289H50.338a6.511,6.511,0,0,0-3.068-3.068V38.774l-1.934-5.158a4.649,4.649,0,0,0-4.333-3H26.7a4.649,4.649,0,0,0-4.333,3l-1.934,5.158v6.918a6.454,6.454,0,0,0-7.695,3.429H8.4V47.177a4.615,4.615,0,0,0,2.339-7.8c.018,0,.033-.009.051-.012Zm3.955,8.687V41.718h1.851a3.69,3.69,0,0,0,3.187-1.851h4.216v9.254H24.427a6.512,6.512,0,0,0-2.142-2.532ZM41,32.464a2.788,2.788,0,0,1,2.6,1.8l1.407,3.751H33.389V32.464Zm-9.465,5.552h-3.7a1.853,1.853,0,0,0-1.851-1.851h-2.6l.713-1.9a2.788,2.788,0,0,1,2.6-1.8h4.838Zm-9.254,1.093.41-1.093h3.292a1.853,1.853,0,0,1-1.851,1.851H22.284Zm11.1.758H45.42v5.627a6.392,6.392,0,0,0-6.769,3.628H33.389Zm-24.353.49A2.758,2.758,0,0,1,8.4,45.249V42.118a2.748,2.748,0,0,1,.633-1.761ZM11.18,52.823a2.772,2.772,0,0,1-2.606-1.851h3.605a5.821,5.821,0,0,0,0,1.851Zm7.4,3.7A4.627,4.627,0,1,1,23.21,51.9,4.632,4.632,0,0,1,18.583,56.525Zm6.4-3.7a5.821,5.821,0,0,0,0-1.851h13.1a5.821,5.821,0,0,0,0,1.851Zm19.508,3.7A4.627,4.627,0,1,1,49.121,51.9,4.632,4.632,0,0,1,44.494,56.525Zm9.254-3.7H50.9a5.821,5.821,0,0,0,0-1.851h5.456A2.772,2.772,0,0,1,53.748,52.823Z" transform="translate(-1 -1)"/>
          <path id="Trazado_1026671" data-name="Trazado 1026671" d="M13.776,25a2.776,2.776,0,1,0,2.776,2.776A2.78,2.78,0,0,0,13.776,25Zm0,3.7a.925.925,0,1,1,.925-.925A.927.927,0,0,1,13.776,28.7Z" transform="translate(-1.746 -2.79)"/>
        </g>
      </g>
    </g>
  </g>
</svg>
