<svg xmlns="http://www.w3.org/2000/svg" xmlns:xlink="http://www.w3.org/1999/xlink" width="110" height="110" viewBox="0 0 110 110">
  <defs>
    <filter id="Trazado_982547" x="0" y="0" width="110" height="110" filterUnits="userSpaceOnUse">
      <feOffset dy="3" input="SourceAlpha"/>
      <feGaussianBlur stdDeviation="3" result="blur"/>
      <feFlood flood-opacity="0.161"/>
      <feComposite operator="in" in2="blur"/>
      <feComposite in="SourceGraphic"/>
    </filter>
  </defs>
  <g id="Grupo_1173933" data-name="Grupo 1173933" transform="translate(-1342.196 -7466.5)">
    <g id="Grupo_1173204" data-name="Grupo 1173204" transform="translate(1351.196 7472.5)">
      <g id="Grupo_1171898" data-name="Grupo 1171898" transform="translate(0 0)">
        <g id="Grupo_1164700" data-name="Grupo 1164700" transform="translate(0)">
          <g id="Grupo_1160931" data-name="Grupo 1160931" transform="translate(0 0)">
            <g id="Grupo_1160749" data-name="Grupo 1160749" transform="translate(0 0)">
              <g id="Grupo_1158891" data-name="Grupo 1158891" transform="translate(0 0)">
                <g id="Grupo_1157406" data-name="Grupo 1157406" transform="translate(0 0)">
                  <g id="Grupo_1155793" data-name="Grupo 1155793">
                    <g id="Grupo_1154704" data-name="Grupo 1154704">
                      <g id="Grupo_1150790" data-name="Grupo 1150790">
                        <g id="Grupo_1154214" data-name="Grupo 1154214">
                          <g id="Grupo_1152583" data-name="Grupo 1152583">
                            <g id="Grupo_1146973" data-name="Grupo 1146973">
                              <g id="Grupo_1146954" data-name="Grupo 1146954">
                                <g transform="matrix(1, 0, 0, 1, -9, -6)" filter="url(#Trazado_982547)">
                                  <g id="Trazado_982547-2" data-name="Trazado 982547" transform="translate(9 6)" fill="#e9f9fd">
                                    <path d="M 46.0000114440918 90.49989318847656 C 39.99188995361328 90.49989318847656 34.16427993774414 89.32353210449219 28.6790657043457 87.00347900390625 C 23.38021087646484 84.76226043701172 18.62105178833008 81.55343627929688 14.53375816345215 77.46615600585938 C 10.44647789001465 73.37887573242188 7.237651348114014 68.61971282958984 4.996424674987793 63.32086181640625 C 2.676371335983276 57.83566284179688 1.500011444091797 52.00806427001953 1.500011444091797 45.99994277954102 C 1.500011444091797 39.9918212890625 2.676371335983276 34.16422271728516 4.996424674987793 28.67902183532715 C 7.237651348114014 23.38016891479492 10.44647789001465 18.62100982666016 14.53375816345215 14.53372955322266 C 18.62105178833008 10.44644927978516 23.38021087646484 7.237622737884521 28.6790657043457 4.99640941619873 C 34.16427993774414 2.676356077194214 39.99188995361328 1.499996066093445 46.0000114440918 1.499996066093445 C 52.00813293457031 1.499996066093445 57.83574295043945 2.676356077194214 63.32095718383789 4.99640941619873 C 68.61981201171875 7.237622737884521 73.37898254394531 10.44644927978516 77.46626281738281 14.53372955322266 C 81.55355834960938 18.62100982666016 84.76237487792969 23.38016891479492 87.00360107421875 28.67902183532715 C 89.32365417480469 34.16422271728516 90.50001525878906 39.9918212890625 90.50001525878906 45.99994277954102 C 90.50001525878906 52.00806427001953 89.32365417480469 57.83566284179688 87.00360107421875 63.32086181640625 C 84.76237487792969 68.61971282958984 81.55355834960938 73.37887573242188 77.46626281738281 77.46615600585938 C 73.37898254394531 81.55343627929688 68.61981201171875 84.76226043701172 63.32095718383789 87.00347900390625 C 57.83574295043945 89.32353210449219 52.00813293457031 90.49989318847656 46.0000114440918 90.49989318847656 Z" stroke="none"/>
                                    <path d="M 46.0000114440918 3 C 40.1937255859375 3 34.56270980834961 4.136497497558594 29.26338195800781 6.377914428710938 C 24.14334106445312 8.543510437011719 19.54442596435547 11.64438629150391 15.59441375732422 15.59438323974609 C 11.6444091796875 19.54440307617188 8.543525695800781 24.14330291748047 6.377922058105469 29.26334381103516 C 4.136512756347656 34.56265640258789 3.000007629394531 40.19367218017578 3.000007629394531 45.99994277954102 C 3.000007629394531 51.80621337890625 4.136512756347656 57.43722915649414 6.377922058105469 62.73654174804688 C 8.543525695800781 67.85658264160156 11.6444091796875 72.45549011230469 15.59441375732422 76.40550231933594 C 19.54442596435547 80.35549926757812 24.14334106445312 83.45637512207031 29.26338195800781 85.62197113037109 C 34.56270980834961 87.86338806152344 40.1937255859375 88.99988555908203 46.0000114440918 88.99988555908203 C 51.80629730224609 88.99988555908203 57.43731307983398 87.86338806152344 62.73664093017578 85.62197113037109 C 67.85668182373047 83.45637512207031 72.45559692382812 80.35549926757812 76.40560913085938 76.40550231933594 C 80.35561370849609 72.45549011230469 83.45649719238281 67.85658264160156 85.62210083007812 62.73654174804688 C 87.86351013183594 57.43722915649414 89.00001525878906 51.80621337890625 89.00001525878906 45.99994277954102 C 89.00001525878906 40.19367218017578 87.86351013183594 34.56265640258789 85.62210083007812 29.26334381103516 C 83.45649719238281 24.14330291748047 80.35561370849609 19.54440307617188 76.40560913085938 15.59438323974609 C 72.45559692382812 11.64438629150391 67.85668182373047 8.543510437011719 62.73664093017578 6.377914428710938 C 57.43731307983398 4.136497497558594 51.80629730224609 3 46.0000114440918 3 M 46.0000114440918 0 C 71.40511322021484 0 92.00001525878906 20.59487152099609 92.00001525878906 45.99994277954102 C 92.00001525878906 71.40501403808594 71.40511322021484 91.99988555908203 46.0000114440918 91.99988555908203 C 20.59490966796875 91.99988555908203 7.62939453125e-06 71.40501403808594 7.62939453125e-06 45.99994277954102 C 7.62939453125e-06 20.59487152099609 20.59490966796875 0 46.0000114440918 0 Z" stroke="none" fill="#36ceef"/>
                                  </g>
                                </g>
                              </g>
                            </g>
                          </g>
                        </g>
                      </g>
                    </g>
                  </g>
                </g>
              </g>
            </g>
          </g>
        </g>
      </g>
    </g>
    <g id="Layer_x0020_1" transform="translate(1358.744 7487.668)">
      <path id="Trazado_1031080" data-name="Trazado 1031080" d="M35.752,31.162h-1.1a1.854,1.854,0,0,1-1.87-1.87v-1.76c-3.52,0-2.31-.11-5.61.77v7.04a.589.589,0,0,0,.55.55H42.682a.707.707,0,0,0,.55-.55V28.3c-3.41-.88-2.09-.77-5.61-.77v1.76A1.928,1.928,0,0,1,35.752,31.162Zm12.431,27.5H17.82a.986.986,0,0,1-.99-.99v-6.71H11.99a.986.986,0,0,1-.99-.99V3.99A.986.986,0,0,1,11.99,3H46.752a.986.986,0,0,1,.99.99V10.7h.99a4.883,4.883,0,0,1,4.84,4.84V33.362H63.914a.99.99,0,1,1,0,1.98h-.99v4.95a6.743,6.743,0,0,1-2.53,5.72,6.884,6.884,0,0,1,2.53,5.72v4.95c.66,0,1.98-.11,1.98.99a.986.986,0,0,1-.99.99Zm4.4-23.322h-1.54v4.95c0,2.42,1.1,4.29,3.08,4.84a.992.992,0,0,1,0,1.87c-1.98.55-3.08,2.31-3.08,4.73v4.95h9.9v-4.95c0-2.42-1.1-4.18-2.97-4.73a.96.96,0,0,1,0-1.87c1.87-.55,2.97-2.42,2.97-4.84v-4.95Zm-.99-1.98V15.541a2.912,2.912,0,0,0-2.86-2.86H18.811v44H49.063v-4.95a6.96,6.96,0,0,1,2.64-5.72,6.813,6.813,0,0,1-2.64-5.72v-4.95c-.66,0-1.87.22-1.87-.99a.986.986,0,0,1,.99-.99ZM12.98,48.983h3.85V11.691a.986.986,0,0,1,.99-.99H45.762V4.98H12.98Zm33.112-5.72H24.2a.994.994,0,0,1,0-1.98H46.092A.99.99,0,0,1,46.092,43.263Zm-7.04,3.63H24.2a.994.994,0,0,1,0-1.98H39.052A.99.99,0,0,1,39.052,46.893Zm-5.5,3.63H24.2a.994.994,0,0,1,0-1.98h9.351A.99.99,0,0,1,33.552,50.523Zm-3.74,3.63H24.2a.994.994,0,0,1,0-1.98h5.61A.99.99,0,0,1,29.811,54.153Zm-4.62-25.412c-.77.22-1.32.44-1.87.11a1.188,1.188,0,0,1-.33-.77v-2.42a5.986,5.986,0,0,1,5.94-5.94,4.348,4.348,0,0,1,4.29-4.51h3.96a4.261,4.261,0,0,1,4.18,4.51,6.01,6.01,0,0,1,6.05,5.94v2.42a.914.914,0,0,1-1.21.88l-1.1-.22v6.6a2.539,2.539,0,0,1-2.42,2.53H27.721a2.559,2.559,0,0,1-2.53-2.53Zm.66-2.2,3.85-.88c1.65,0,10.891-.11,11.221,0l4.51,1.1v-1.1a3.944,3.944,0,0,0-3.96-3.96H28.931a4.039,4.039,0,0,0-4.07,3.96v1.1Zm8.911.99v1.65h.88v-1.65Zm-3.85-7.811h8.581a2.38,2.38,0,0,0-2.31-2.53h-3.96A2.315,2.315,0,0,0,30.911,19.721Zm6.6,4.95h-4.62a.99.99,0,1,1,0-1.98h4.62A.994.994,0,0,1,37.512,24.671Z" transform="translate(0 0)" fill-rule="evenodd"/>
      <path id="Trazado_1031081" data-name="Trazado 1031081" d="M192,134.53h8.581a2.38,2.38,0,0,0-2.31-2.53h-3.96A2.315,2.315,0,0,0,192,134.53Z" transform="translate(-161.089 -114.809)" fill="#a64b1c" fill-rule="evenodd"/>
      <path id="Trazado_1031082" data-name="Trazado 1031082" d="M33.84,26.72H61.782V21H29V65h3.85V27.71A.986.986,0,0,1,33.84,26.72Z" transform="translate(-16.02 -16.02)" fill="#f3f3f3" fill-rule="evenodd"/>
      <path id="Trazado_1031083" data-name="Trazado 1031083" d="M111.922,91H82v44h30.252v-4.95a6.96,6.96,0,0,1,2.64-5.72,6.814,6.814,0,0,1-2.64-5.72v-4.95c-.66,0-1.87.22-1.87-.99a.986.986,0,0,1,.99-.99h3.41V93.86A2.912,2.912,0,0,0,111.922,91Zm-11.551,2.53a4.261,4.261,0,0,1,4.18,4.51,6.01,6.01,0,0,1,6.05,5.94v2.42a.914.914,0,0,1-1.21.88l-1.1-.22v6.6a2.539,2.539,0,0,1-2.42,2.53H90.911a2.559,2.559,0,0,1-2.53-2.53v-6.6c-.77.22-1.32.44-1.87.11a1.188,1.188,0,0,1-.33-.77v-2.42a5.986,5.986,0,0,1,5.94-5.94,4.348,4.348,0,0,1,4.29-4.51ZM87.39,119.6h21.891a.99.99,0,1,1,0,1.98H87.39A.994.994,0,0,1,87.39,119.6Zm0,3.63h14.851a.99.99,0,1,1,0,1.98H87.39A.994.994,0,0,1,87.39,123.232Zm0,3.63h9.351a.99.99,0,0,1,0,1.98H87.39A.994.994,0,0,1,87.39,126.862Zm0,3.63H93a.99.99,0,1,1,0,1.98H87.39A.994.994,0,0,1,87.39,130.493Z" transform="translate(-63.189 -78.319)" fill="#f3f3f3" fill-rule="evenodd"/>
      <path id="Trazado_1031084" data-name="Trazado 1031084" d="M153.611,173H141.07a4.039,4.039,0,0,0-4.07,3.96v1.1l.99-.22,3.85-.88c1.65,0,10.891-.11,11.221,0l4.51,1.1v-1.1A3.944,3.944,0,0,0,153.611,173Zm-3.96.99a.994.994,0,0,1,0,1.98h-4.62a.99.99,0,1,1,0-1.98Z" transform="translate(-112.139 -151.299)" fill="#a64b1c" fill-rule="evenodd"/>
      <path id="Trazado_1031085" data-name="Trazado 1031085" d="M174.061,226.734c-3.41-.88-2.09-.77-5.61-.77v1.76a1.928,1.928,0,0,1-1.87,1.87h-1.1a1.854,1.854,0,0,1-1.87-1.87v-1.76c-3.52,0-2.31-.11-5.61.77v7.04a.589.589,0,0,0,.55.55h14.961a.707.707,0,0,0,.55-.55Z" transform="translate(-130.829 -198.433)" fill="#a64b1c" fill-rule="evenodd"/>
      <path id="Trazado_1031086" data-name="Trazado 1031086" d="M227.88,227.65V226H227v1.65Z" transform="translate(-192.238 -198.468)" fill="#ffcf00" fill-rule="evenodd"/>
      <path id="Trazado_1031087" data-name="Trazado 1031087" d="M378.08,306.791a.992.992,0,0,1,0,1.87c-1.98.55-3.08,2.31-3.08,4.73v4.95h9.9v-4.95c0-2.42-1.1-4.18-2.97-4.73a.96.96,0,0,1,0-1.87c1.87-.55,2.97-2.42,2.97-4.84V297H375v4.95C375,304.37,376.1,306.241,378.08,306.791Z" transform="translate(-323.957 -261.658)" fill="#48e1ff" fill-rule="evenodd"/>
    </g>
  </g>
</svg>
