<svg xmlns="http://www.w3.org/2000/svg" xmlns:xlink="http://www.w3.org/1999/xlink" width="110" height="110" viewBox="0 0 110 110">
  <defs>
    <filter id="Trazado_982547" x="0" y="0" width="110" height="110" filterUnits="userSpaceOnUse">
      <feOffset dy="3" input="SourceAlpha"/>
      <feGaussianBlur stdDeviation="3" result="blur"/>
      <feFlood flood-opacity="0.161"/>
      <feComposite operator="in" in2="blur"/>
      <feComposite in="SourceGraphic"/>
    </filter>
  </defs>
  <g id="Grupo_1173926" data-name="Grupo 1173926" transform="translate(-1342.196 -7062.5)">
    <g id="Grupo_1173202" data-name="Grupo 1173202" transform="translate(1351.196 7068.5)">
      <g id="Grupo_1171898" data-name="Grupo 1171898" transform="translate(0 0)">
        <g id="Grupo_1164700" data-name="Grupo 1164700" transform="translate(0)">
          <g id="Grupo_1160931" data-name="Grupo 1160931" transform="translate(0 0)">
            <g id="Grupo_1160749" data-name="Grupo 1160749" transform="translate(0 0)">
              <g id="Grupo_1158891" data-name="Grupo 1158891" transform="translate(0 0)">
                <g id="Grupo_1157406" data-name="Grupo 1157406" transform="translate(0 0)">
                  <g id="Grupo_1155793" data-name="Grupo 1155793">
                    <g id="Grupo_1154704" data-name="Grupo 1154704">
                      <g id="Grupo_1150790" data-name="Grupo 1150790">
                        <g id="Grupo_1154214" data-name="Grupo 1154214">
                          <g id="Grupo_1152583" data-name="Grupo 1152583">
                            <g id="Grupo_1146973" data-name="Grupo 1146973">
                              <g id="Grupo_1146954" data-name="Grupo 1146954">
                                <g transform="matrix(1, 0, 0, 1, -9, -6)" filter="url(#Trazado_982547)">
                                  <g id="Trazado_982547-2" data-name="Trazado 982547" transform="translate(9 6)" fill="#e9f9fd">
                                    <path d="M 46.0000114440918 90.49989318847656 C 39.99188995361328 90.49989318847656 34.16427993774414 89.32353210449219 28.6790657043457 87.00347900390625 C 23.38021087646484 84.76226043701172 18.62105178833008 81.55343627929688 14.53375816345215 77.46615600585938 C 10.44647789001465 73.37887573242188 7.237651348114014 68.61971282958984 4.996424674987793 63.32086181640625 C 2.676371335983276 57.83566284179688 1.500011444091797 52.00806427001953 1.500011444091797 45.99994277954102 C 1.500011444091797 39.9918212890625 2.676371335983276 34.16422271728516 4.996424674987793 28.67902183532715 C 7.237651348114014 23.38016891479492 10.44647789001465 18.62100982666016 14.53375816345215 14.53372955322266 C 18.62105178833008 10.44644927978516 23.38021087646484 7.237622737884521 28.6790657043457 4.99640941619873 C 34.16427993774414 2.676356077194214 39.99188995361328 1.499996066093445 46.0000114440918 1.499996066093445 C 52.00813293457031 1.499996066093445 57.83574295043945 2.676356077194214 63.32095718383789 4.99640941619873 C 68.61981201171875 7.237622737884521 73.37898254394531 10.44644927978516 77.46626281738281 14.53372955322266 C 81.55355834960938 18.62100982666016 84.76237487792969 23.38016891479492 87.00360107421875 28.67902183532715 C 89.32365417480469 34.16422271728516 90.50001525878906 39.9918212890625 90.50001525878906 45.99994277954102 C 90.50001525878906 52.00806427001953 89.32365417480469 57.83566284179688 87.00360107421875 63.32086181640625 C 84.76237487792969 68.61971282958984 81.55355834960938 73.37887573242188 77.46626281738281 77.46615600585938 C 73.37898254394531 81.55343627929688 68.61981201171875 84.76226043701172 63.32095718383789 87.00347900390625 C 57.83574295043945 89.32353210449219 52.00813293457031 90.49989318847656 46.0000114440918 90.49989318847656 Z" stroke="none"/>
                                    <path d="M 46.0000114440918 3 C 40.1937255859375 3 34.56270980834961 4.136497497558594 29.26338195800781 6.377914428710938 C 24.14334106445312 8.543510437011719 19.54442596435547 11.64438629150391 15.59441375732422 15.59438323974609 C 11.6444091796875 19.54440307617188 8.543525695800781 24.14330291748047 6.377922058105469 29.26334381103516 C 4.136512756347656 34.56265640258789 3.000007629394531 40.19367218017578 3.000007629394531 45.99994277954102 C 3.000007629394531 51.80621337890625 4.136512756347656 57.43722915649414 6.377922058105469 62.73654174804688 C 8.543525695800781 67.85658264160156 11.6444091796875 72.45549011230469 15.59441375732422 76.40550231933594 C 19.54442596435547 80.35549926757812 24.14334106445312 83.45637512207031 29.26338195800781 85.62197113037109 C 34.56270980834961 87.86338806152344 40.1937255859375 88.99988555908203 46.0000114440918 88.99988555908203 C 51.80629730224609 88.99988555908203 57.43731307983398 87.86338806152344 62.73664093017578 85.62197113037109 C 67.85668182373047 83.45637512207031 72.45559692382812 80.35549926757812 76.40560913085938 76.40550231933594 C 80.35561370849609 72.45549011230469 83.45649719238281 67.85658264160156 85.62210083007812 62.73654174804688 C 87.86351013183594 57.43722915649414 89.00001525878906 51.80621337890625 89.00001525878906 45.99994277954102 C 89.00001525878906 40.19367218017578 87.86351013183594 34.56265640258789 85.62210083007812 29.26334381103516 C 83.45649719238281 24.14330291748047 80.35561370849609 19.54440307617188 76.40560913085938 15.59438323974609 C 72.45559692382812 11.64438629150391 67.85668182373047 8.543510437011719 62.73664093017578 6.377914428710938 C 57.43731307983398 4.136497497558594 51.80629730224609 3 46.0000114440918 3 M 46.0000114440918 0 C 71.40511322021484 0 92.00001525878906 20.59487152099609 92.00001525878906 45.99994277954102 C 92.00001525878906 71.40501403808594 71.40511322021484 91.99988555908203 46.0000114440918 91.99988555908203 C 20.59490966796875 91.99988555908203 7.62939453125e-06 71.40501403808594 7.62939453125e-06 45.99994277954102 C 7.62939453125e-06 20.59487152099609 20.59490966796875 0 46.0000114440918 0 Z" stroke="none" fill="#36ceef"/>
                                  </g>
                                </g>
                              </g>
                            </g>
                          </g>
                        </g>
                      </g>
                    </g>
                  </g>
                </g>
              </g>
            </g>
          </g>
        </g>
      </g>
    </g>
    <g id="funds_2494905" transform="translate(1367.633 7084.938)">
      <g id="Grupo_1173008" data-name="Grupo 1173008" transform="translate(12.056 16.663)">
        <path id="Trazado_1026844" data-name="Trazado 1026844" d="M13.232,27.214a7.371,7.371,0,1,1,14.278,0Z" transform="translate(-13 -18)" fill="#f7d881"/>
      </g>
      <g id="Grupo_1173009" data-name="Grupo 1173009" transform="translate(5.607 31.405)">
        <path id="Trazado_1026845" data-name="Trazado 1026845" d="M31.8,59.8H7.843A1.842,1.842,0,0,1,6,57.956V34H33.641V57.956A1.842,1.842,0,0,1,31.8,59.8Z" transform="translate(-6 -34)" fill="#8892a0"/>
      </g>
      <g id="Grupo_1173010" data-name="Grupo 1173010" transform="translate(5.607 31.405)">
        <path id="Trazado_1026846" data-name="Trazado 1026846" d="M6,34V54.155a15.4,15.4,0,0,0,5.528,1.037c9.712,0,17.751-9.2,19.136-21.192Z" transform="translate(-6 -34)" fill="#cfd3d9"/>
      </g>
      <g id="Grupo_1173011" data-name="Grupo 1173011" transform="translate(3.764 25.877)">
        <path id="Trazado_1026847" data-name="Trazado 1026847" d="M35.327,33.528H4V29.843A1.842,1.842,0,0,1,5.843,28H33.484a1.842,1.842,0,0,1,1.843,1.843Z" transform="translate(-4 -28)" fill="#444950"/>
      </g>
      <g id="Grupo_1173012" data-name="Grupo 1173012" transform="translate(44.305 38.776)">
        <path id="Trazado_1026848" data-name="Trazado 1026848" d="M48,42H59.057v3.686H48Z" transform="translate(-48 -42)" fill="#f7d881"/>
      </g>
      <g id="Grupo_1173013" data-name="Grupo 1173013" transform="translate(46.147 42.462)">
        <path id="Trazado_1026849" data-name="Trazado 1026849" d="M50,46H61.057v3.686H50Z" transform="translate(-50 -46)" fill="#f7d881"/>
      </g>
      <g id="Grupo_1173014" data-name="Grupo 1173014" transform="translate(44.305 46.147)">
        <path id="Trazado_1026850" data-name="Trazado 1026850" d="M48,50H59.057v3.686H48Z" transform="translate(-48 -50)" fill="#f7d881"/>
      </g>
      <g id="Grupo_1173015" data-name="Grupo 1173015" transform="translate(44.305 49.833)">
        <path id="Trazado_1026851" data-name="Trazado 1026851" d="M48,54H59.057v3.686H48Z" transform="translate(-48 -54)" fill="#f7d881"/>
      </g>
      <g id="Grupo_1173016" data-name="Grupo 1173016" transform="translate(46.147 53.518)">
        <path id="Trazado_1026852" data-name="Trazado 1026852" d="M50,58H61.057v3.686H50Z" transform="translate(-50 -58)" fill="#f7d881"/>
      </g>
      <g id="Grupo_1173017" data-name="Grupo 1173017" transform="translate(29.563 53.518)">
        <path id="Trazado_1026853" data-name="Trazado 1026853" d="M32,58H43.056v3.686H32Z" transform="translate(-32 -58)" fill="#f7d881"/>
      </g>
      <g id="Grupo_1173018" data-name="Grupo 1173018" transform="translate(27.72 49.833)">
        <path id="Trazado_1026854" data-name="Trazado 1026854" d="M30,54H41.057v3.686H30Z" transform="translate(-30 -54)" fill="#f7d881"/>
      </g>
      <g id="Grupo_1173019" data-name="Grupo 1173019" transform="translate(27.72 46.147)">
        <path id="Trazado_1026855" data-name="Trazado 1026855" d="M30,50H41.057v3.686H30Z" transform="translate(-30 -50)" fill="#f7d881"/>
      </g>
      <g id="Grupo_1173020" data-name="Grupo 1173020" transform="translate(29.563 42.462)">
        <path id="Trazado_1026856" data-name="Trazado 1026856" d="M32,46H43.056v3.686H32Z" transform="translate(-32 -46)" fill="#f7d881"/>
      </g>
      <g id="Grupo_1173021" data-name="Grupo 1173021" transform="translate(40.619 24.956)">
        <path id="Trazado_1026857" data-name="Trazado 1026857" d="M47.686,27v2.764H44l5.528,5.528,5.528-5.528H51.371V27Z" transform="translate(-44 -27)" fill="#8892a0"/>
      </g>
      <g id="Grupo_1173022" data-name="Grupo 1173022" transform="translate(1.921 1.921)">
        <path id="Trazado_1026858" data-name="Trazado 1026858" d="M0,0H5.528V12.9H0Z" transform="translate(5.528 12.899) rotate(180)" fill="#66acd7"/>
      </g>
      <g id="Grupo_1173023" data-name="Grupo 1173023" transform="translate(7.45 3.764)">
        <path id="Trazado_1026859" data-name="Trazado 1026859" d="M8,7.685h3.686v5.528l3.146,3.146a1.843,1.843,0,0,0,1.3.54h.158a1.842,1.842,0,0,0,1.843-1.843V14.9a1.843,1.843,0,0,0-.54-1.3l-2.224-2.224V9.528a1.842,1.842,0,0,1,1.843-1.843h5.528a1.842,1.842,0,0,1,1.843,1.843v1.843L22.361,13.6a1.843,1.843,0,0,0-.54,1.3v.158A1.842,1.842,0,0,0,23.663,16.9h.158a1.843,1.843,0,0,0,1.3-.54l3.146-3.146V7.685h7.371a1.843,1.843,0,1,0,0-3.685H8Z" transform="translate(-8 -4)" fill="#fadfb2"/>
      </g>
      <g id="Grupo_1173024" data-name="Grupo 1173024" transform="translate(4.685 31.405)">
        <path id="Trazado_1026860" data-name="Trazado 1026860" d="M27.113,60.72H7.764A2.768,2.768,0,0,1,5,57.956V34H6.843V57.956a.923.923,0,0,0,.921.921H27.113Z" transform="translate(-5 -34)"/>
      </g>
      <g id="Grupo_1173025" data-name="Grupo 1173025" transform="translate(32.327 31.405)">
        <path id="Trazado_1026861" data-name="Trazado 1026861" d="M35,34h1.843V45.057H35Z" transform="translate(-35 -34)"/>
      </g>
      <g id="Grupo_1173026" data-name="Grupo 1173026" transform="translate(2.843 24.956)">
        <path id="Trazado_1026862" data-name="Trazado 1026862" d="M35.248,34.371H3.921A.922.922,0,0,1,3,33.45V29.764A2.768,2.768,0,0,1,5.764,27H33.405a2.767,2.767,0,0,1,2.764,2.764V33.45A.922.922,0,0,1,35.248,34.371ZM4.843,32.528H34.327V29.764a.923.923,0,0,0-.921-.921H5.764a.923.923,0,0,0-.921.921Z" transform="translate(-3 -27)"/>
      </g>
      <g id="Grupo_1173030" data-name="Grupo 1173030" transform="translate(15.742 36.012)">
        <g id="Grupo_1173027" data-name="Grupo 1173027" transform="translate(0 1.843)">
          <path id="Trazado_1026863" data-name="Trazado 1026863" d="M20.686,53.9A3.689,3.689,0,0,1,17,50.214h1.843a1.843,1.843,0,1,0,1.843-1.843,3.686,3.686,0,1,1,3.685-3.686H22.528a1.843,1.843,0,1,0-1.843,1.843,3.686,3.686,0,0,1,0,7.371Z" transform="translate(-17 -41)"/>
        </g>
        <g id="Grupo_1173028" data-name="Grupo 1173028" transform="translate(2.764)">
          <path id="Trazado_1026864" data-name="Trazado 1026864" d="M20,39h1.843v2.764H20Z" transform="translate(-20 -39)"/>
        </g>
        <g id="Grupo_1173029" data-name="Grupo 1173029" transform="translate(2.764 13.821)">
          <path id="Trazado_1026865" data-name="Trazado 1026865" d="M20,54h1.843v2.764H20Z" transform="translate(-20 -54)"/>
        </g>
      </g>
      <g id="Grupo_1173031" data-name="Grupo 1173031" transform="translate(7.45 2.843)">
        <path id="Trazado_1026866" data-name="Trazado 1026866" d="M23.821,17.742h-.158A2.767,2.767,0,0,1,20.9,14.978V14.82a2.747,2.747,0,0,1,.81-1.955l1.954-1.954V9.45a.923.923,0,0,0-.921-.921H17.214a.923.923,0,0,0-.921.921v1.461l1.954,1.954a2.744,2.744,0,0,1,.81,1.955v.158a2.767,2.767,0,0,1-2.764,2.764h-.158a2.747,2.747,0,0,1-1.955-.81l-3.146-3.146a.919.919,0,0,1-.27-.651V8.528H8V6.686h3.686a.922.922,0,0,1,.921.921v5.147l2.876,2.876a.917.917,0,0,0,.652.27h.158a.923.923,0,0,0,.921-.921V14.82a.917.917,0,0,0-.27-.652L14.72,11.944a.919.919,0,0,1-.27-.651V9.45a2.767,2.767,0,0,1,2.764-2.764h5.528A2.767,2.767,0,0,1,25.506,9.45v1.843a.919.919,0,0,1-.27.651l-2.224,2.224a.917.917,0,0,0-.27.652v.158a.923.923,0,0,0,.921.921h.158a.917.917,0,0,0,.652-.27l2.876-2.876V7.607a.922.922,0,0,1,.921-.921h7.371a.921.921,0,1,0,0-1.843H8V3H35.641a2.764,2.764,0,0,1,0,5.528h-6.45v4.607a.919.919,0,0,1-.27.651l-3.146,3.146a2.744,2.744,0,0,1-1.955.81Z" transform="translate(-8 -3)"/>
      </g>
      <g id="Grupo_1173032" data-name="Grupo 1173032" transform="translate(1 1)">
        <path id="Trazado_1026867" data-name="Trazado 1026867" d="M7.45,15.742H1.921A.922.922,0,0,1,1,14.821V1.921A.922.922,0,0,1,1.921,1H7.45a.922.922,0,0,1,.921.921v12.9A.922.922,0,0,1,7.45,15.742ZM2.843,13.9H6.528V2.843H2.843Z" transform="translate(-1 -1)"/>
      </g>
      <g id="Grupo_1173033" data-name="Grupo 1173033" transform="translate(16.663 21.27)">
        <path id="Trazado_1026868" data-name="Trazado 1026868" d="M21.955,28.258,18.27,24.573A.921.921,0,0,1,18.921,23h4.607v1.843H21.146l2.113,2.113Z" transform="translate(-18 -23)"/>
      </g>
      <g id="Grupo_1173034" data-name="Grupo 1173034" transform="translate(18.506 19.427)">
        <path id="Trazado_1026869" data-name="Trazado 1026869" d="M20,21h1.843v2.764H20Z" transform="translate(-20 -21)"/>
      </g>
      <g id="Grupo_1173035" data-name="Grupo 1173035" transform="translate(11.135 15.742)">
        <path id="Trazado_1026870" data-name="Trazado 1026870" d="M12.262,27.365a8.292,8.292,0,1,1,16.061,0l-1.785-.459a6.449,6.449,0,1,0-12.493,0Z" transform="translate(-12 -17)"/>
      </g>
      <g id="Grupo_1173036" data-name="Grupo 1173036" transform="translate(45.226 52.597)">
        <path id="Trazado_1026871" data-name="Trazado 1026871" d="M60.978,62.528H49.921A.922.922,0,0,1,49,61.607V57.921A.922.922,0,0,1,49.921,57H60.978a.922.922,0,0,1,.921.921v3.686A.922.922,0,0,1,60.978,62.528ZM50.843,60.685h9.214V58.843H50.843Z" transform="translate(-49 -57)"/>
      </g>
      <g id="Grupo_1173037" data-name="Grupo 1173037" transform="translate(43.383 48.911)">
        <path id="Trazado_1026872" data-name="Trazado 1026872" d="M58.978,58.528H47.921A.922.922,0,0,1,47,57.607V53.921A.922.922,0,0,1,47.921,53H58.978a.922.922,0,0,1,.921.921v3.686A.922.922,0,0,1,58.978,58.528ZM48.843,56.686h9.214V54.843H48.843Z" transform="translate(-47 -53)"/>
      </g>
      <g id="Grupo_1173038" data-name="Grupo 1173038" transform="translate(28.641 52.597)">
        <path id="Trazado_1026873" data-name="Trazado 1026873" d="M42.978,62.528H31.921A.922.922,0,0,1,31,61.607V57.921A.922.922,0,0,1,31.921,57H42.978a.922.922,0,0,1,.921.921v3.686A.922.922,0,0,1,42.978,62.528ZM32.843,60.685h9.214V58.843H32.843Z" transform="translate(-31 -57)"/>
      </g>
      <g id="Grupo_1173039" data-name="Grupo 1173039" transform="translate(26.798 48.911)">
        <path id="Trazado_1026874" data-name="Trazado 1026874" d="M40.978,58.528H29.921A.922.922,0,0,1,29,57.607V53.921A.922.922,0,0,1,29.921,53H40.978a.922.922,0,0,1,.921.921v3.686A.922.922,0,0,1,40.978,58.528ZM30.843,56.686h9.214V54.843H30.843Z" transform="translate(-29 -53)"/>
      </g>
      <g id="Grupo_1173040" data-name="Grupo 1173040" transform="translate(26.798 45.226)">
        <path id="Trazado_1026875" data-name="Trazado 1026875" d="M40.978,54.528H29.921A.922.922,0,0,1,29,53.607V49.921A.922.922,0,0,1,29.921,49H40.978a.922.922,0,0,1,.921.921v3.686A.922.922,0,0,1,40.978,54.528ZM30.843,52.685h9.214V50.843H30.843Z" transform="translate(-29 -49)"/>
      </g>
      <g id="Grupo_1173041" data-name="Grupo 1173041" transform="translate(28.641 41.54)">
        <path id="Trazado_1026876" data-name="Trazado 1026876" d="M42.978,50.528H31.921A.922.922,0,0,1,31,49.607V45.921A.922.922,0,0,1,31.921,45H42.978a.922.922,0,0,1,.921.921v3.685A.922.922,0,0,1,42.978,50.528ZM32.843,48.685h9.214V46.843H32.843Z" transform="translate(-31 -45)"/>
      </g>
      <g id="Grupo_1173042" data-name="Grupo 1173042" transform="translate(43.383 45.226)">
        <path id="Trazado_1026877" data-name="Trazado 1026877" d="M58.978,54.528H47.921A.922.922,0,0,1,47,53.607V49.921A.922.922,0,0,1,47.921,49H58.978a.922.922,0,0,1,.921.921v3.686A.922.922,0,0,1,58.978,54.528ZM48.843,52.685h9.214V50.843H48.843Z" transform="translate(-47 -49)"/>
      </g>
      <g id="Grupo_1173043" data-name="Grupo 1173043" transform="translate(45.226 41.54)">
        <path id="Trazado_1026878" data-name="Trazado 1026878" d="M60.978,50.528H49.921A.922.922,0,0,1,49,49.607V45.921A.922.922,0,0,1,49.921,45H60.978a.922.922,0,0,1,.921.921v3.685A.922.922,0,0,1,60.978,50.528ZM50.843,48.685h9.214V46.843H50.843Z" transform="translate(-49 -45)"/>
      </g>
      <g id="Grupo_1173044" data-name="Grupo 1173044" transform="translate(43.383 37.855)">
        <path id="Trazado_1026879" data-name="Trazado 1026879" d="M58.978,46.528H47.921A.922.922,0,0,1,47,45.607V41.921A.922.922,0,0,1,47.921,41H58.978a.922.922,0,0,1,.921.921v3.686A.922.922,0,0,1,58.978,46.528ZM48.843,44.686h9.214V42.843H48.843Z" transform="translate(-47 -41)"/>
      </g>
      <g id="Grupo_1173045" data-name="Grupo 1173045" transform="translate(39.698 24.956)">
        <path id="Trazado_1026880" data-name="Trazado 1026880" d="M49.45,36.214a.919.919,0,0,1-.651-.27L43.27,30.416a.921.921,0,0,1,.651-1.573h2.764V27h1.843v2.764a.922.922,0,0,1-.921.921H46.146l3.3,3.3,3.3-3.3H51.292a.922.922,0,0,1-.921-.921V27h1.843v1.843h2.764a.921.921,0,0,1,.651,1.573L50.1,35.944A.919.919,0,0,1,49.45,36.214Z" transform="translate(-43 -27)"/>
      </g>
      <g id="Grupo_1173046" data-name="Grupo 1173046" transform="translate(47.069 21.27)">
        <path id="Trazado_1026881" data-name="Trazado 1026881" d="M51,23h1.843v1.843H51Z" transform="translate(-51 -23)"/>
      </g>
      <g id="Grupo_1173047" data-name="Grupo 1173047" transform="translate(47.069 17.585)">
        <path id="Trazado_1026882" data-name="Trazado 1026882" d="M51,19h1.843v1.843H51Z" transform="translate(-51 -19)"/>
      </g>
      <g id="Grupo_1173048" data-name="Grupo 1173048" transform="translate(47.069 13.899)">
        <path id="Trazado_1026883" data-name="Trazado 1026883" d="M51,15h1.843v1.843H51Z" transform="translate(-51 -15)"/>
      </g>
      <g id="Grupo_1173049" data-name="Grupo 1173049" transform="translate(43.383 21.27)">
        <path id="Trazado_1026884" data-name="Trazado 1026884" d="M47,23h1.843v1.843H47Z" transform="translate(-47 -23)"/>
      </g>
      <g id="Grupo_1173050" data-name="Grupo 1173050" transform="translate(43.383 17.585)">
        <path id="Trazado_1026885" data-name="Trazado 1026885" d="M47,19h1.843v1.843H47Z" transform="translate(-47 -19)"/>
      </g>
      <g id="Grupo_1173051" data-name="Grupo 1173051" transform="translate(43.383 13.899)">
        <path id="Trazado_1026886" data-name="Trazado 1026886" d="M47,15h1.843v1.843H47Z" transform="translate(-47 -15)"/>
      </g>
    </g>
  </g>
</svg>
