<svg xmlns="http://www.w3.org/2000/svg" xmlns:xlink="http://www.w3.org/1999/xlink" width="505" height="279" viewBox="0 0 505 279">
  <defs>
    <clipPath id="clip-path">
      <rect id="Rectángulo_415062" data-name="Rectángulo 415062" width="505" height="279" transform="translate(915 6742)" fill="#fff" stroke="#707070" stroke-width="1"/>
    </clipPath>
    <filter id="Rectángulo_415044" x="313.838" y="76.896" width="63.414" height="70.088" filterUnits="userSpaceOnUse">
      <feOffset dy="3" input="SourceAlpha"/>
      <feGaussianBlur stdDeviation="3" result="blur"/>
      <feFlood flood-opacity="0.161"/>
      <feComposite operator="in" in2="blur"/>
      <feComposite in="SourceGraphic"/>
    </filter>
    <filter id="Rectángulo_415048" x="313.838" y="9.718" width="63.414" height="70.088" filterUnits="userSpaceOnUse">
      <feOffset dy="3" input="SourceAlpha"/>
      <feGaussianBlur stdDeviation="3" result="blur-2"/>
      <feFlood flood-opacity="0.161"/>
      <feComposite operator="in" in2="blur-2"/>
      <feComposite in="SourceGraphic"/>
    </filter>
    <clipPath id="clip-path-2">
      <rect id="Rectángulo_415061" data-name="Rectángulo 415061" width="312.255" height="278.619" fill="none"/>
    </clipPath>
    <filter id="Trazado_1030797" x="110.802" y="14.173" width="188.495" height="131.983" filterUnits="userSpaceOnUse">
      <feOffset dy="3" input="SourceAlpha"/>
      <feGaussianBlur stdDeviation="3" result="blur-3"/>
      <feFlood flood-opacity="0.161"/>
      <feComposite operator="in" in2="blur-3"/>
      <feComposite in="SourceGraphic"/>
    </filter>
    <filter id="Trazado_1030827" x="92.573" y="243.572" width="319.11" height="39.904" filterUnits="userSpaceOnUse">
      <feOffset dy="3" input="SourceAlpha"/>
      <feGaussianBlur stdDeviation="3" result="blur-4"/>
      <feFlood flood-opacity="0.161"/>
      <feComposite operator="in" in2="blur-4"/>
      <feComposite in="SourceGraphic"/>
    </filter>
  </defs>
  <g id="Enmascarar_grupo_1098792" data-name="Enmascarar grupo 1098792" transform="translate(-915 -6742)" clip-path="url(#clip-path)">
    <g id="Grupo_1173902" data-name="Grupo 1173902" transform="translate(1011 6742.381)">
      <rect id="Rectángulo_415043" data-name="Rectángulo 415043" width="50.219" height="57.599" transform="translate(224.435 79.76)" fill="#ececec"/>
      <g transform="matrix(1, 0, 0, 1, -96, -0.38)" filter="url(#Rectángulo_415044)">
        <rect id="Rectángulo_415044-2" data-name="Rectángulo 415044" width="45.414" height="52.088" transform="translate(322.84 82.9)" fill="#f9f9f9"/>
      </g>
      <path id="Trazado_1030795" data-name="Trazado 1030795" d="M567.216,1076.5H521.8v52.088h1.725v-50.54h43.7Z" transform="translate(-294.965 -993.981)" fill="#e6e6e6"/>
      <rect id="Rectángulo_415045" data-name="Rectángulo 415045" width="14.319" height="23.953" transform="translate(251.127 96.583)" fill="#e6e6e6"/>
      <rect id="Rectángulo_415046" data-name="Rectángulo 415046" width="14.319" height="27.437" transform="translate(233.643 94.841)" fill="#e6e6e6"/>
      <rect id="Rectángulo_415047" data-name="Rectángulo 415047" width="50.219" height="57.599" transform="translate(224.435 12.582)" fill="#ececec"/>
      <g transform="matrix(1, 0, 0, 1, -96, -0.38)" filter="url(#Rectángulo_415048)">
        <rect id="Rectángulo_415048-2" data-name="Rectángulo 415048" width="45.414" height="52.088" transform="translate(322.84 15.72)" fill="#f9f9f9"/>
      </g>
      <path id="Trazado_1030796" data-name="Trazado 1030796" d="M567.216,200.094H521.8v52.088h1.725v-50.54h43.7Z" transform="translate(-294.965 -184.757)" fill="#e6e6e6"/>
      <rect id="Rectángulo_415049" data-name="Rectángulo 415049" width="14.319" height="23.953" transform="translate(242.385 29.405)" fill="#e6e6e6"/>
      <g id="Grupo_1173901" data-name="Grupo 1173901" transform="translate(0 0)">
        <g id="Grupo_1173900" data-name="Grupo 1173900" transform="translate(0 0)" clip-path="url(#clip-path-2)">
          <g transform="matrix(1, 0, 0, 1, -96, -0.38)" filter="url(#Trazado_1030797)">
            <path id="Trazado_1030797-2" data-name="Trazado 1030797" d="M1709.375,261.173a10.711,10.711,0,0,0-.208-2.961H1539.088a10.728,10.728,0,0,0-.208,2.961V369.234a10.728,10.728,0,0,0,.208,2.961h170.079a10.711,10.711,0,0,0,.208-2.961Z" transform="translate(-1419.08 -238.04)" fill="#f9f9f9"/>
          </g>
          <path id="Trazado_1030798" data-name="Trazado 1030798" d="M1693.5,167.022a3.251,3.251,0,0,0-.682-2.033,2.13,2.13,0,0,0-1.646-.842H1522.464a2.129,2.129,0,0,0-1.646.842,3.251,3.251,0,0,0-.682,2.033v4.306a3.251,3.251,0,0,0,.682,2.034,2.13,2.13,0,0,0,1.646.842h168.712a2.13,2.13,0,0,0,1.646-.842,3.252,3.252,0,0,0,.682-2.034Z" transform="translate(-1497.771 -151.564)" fill="#e6e6e6"/>
          <g id="Grupo_1173903" data-name="Grupo 1173903">
            <path id="Trazado_1030799" data-name="Trazado 1030799" d="M2160.915,400.276a.593.593,0,0,1,.009.5,1.276,1.276,0,0,1-.331.435,2.714,2.714,0,0,1-1.07.557,2.6,2.6,0,0,1-.609.052,2.681,2.681,0,0,1-.635-.078,3.1,3.1,0,0,1-.618-.209,2.873,2.873,0,0,1-.548-.357,1.837,1.837,0,0,1-.478-.6,3.306,3.306,0,0,1-.244-.757,4.692,4.692,0,0,1-.087-.8q0-.409.026-.766a3.259,3.259,0,0,1,.131-.67,3.348,3.348,0,0,1,.74-1.3,2.6,2.6,0,0,1,.626-.487,1.718,1.718,0,0,1,.6-.209,2.424,2.424,0,0,1,.678-.026,2.188,2.188,0,0,1,.653.148,1.554,1.554,0,0,1,.531.313,1.788,1.788,0,0,1,.287.339,1.522,1.522,0,0,1,.226.444.67.67,0,0,1,0,.426.429.429,0,0,1-.348.261.48.48,0,0,1-.218.017.6.6,0,0,1-.174-.078,1.1,1.1,0,0,1-.148-.139c-.046-.052-.09-.1-.131-.156a1.025,1.025,0,0,0-.487-.339,1.075,1.075,0,0,0-.556-.043,1.154,1.154,0,0,0-.513.226,1.172,1.172,0,0,0-.365.452,3.457,3.457,0,0,0-.226.652,3.673,3.673,0,0,0-.087.713,3.089,3.089,0,0,0,.061.7,1.71,1.71,0,0,0,.261.6,1.189,1.189,0,0,0,.339.339,1.409,1.409,0,0,0,.444.183,1.28,1.28,0,0,0,.469.017,1.407,1.407,0,0,0,.47-.157.913.913,0,0,0,.148-.1l.174-.139c.058-.046.116-.09.174-.131a.677.677,0,0,1,.2-.087.526.526,0,0,1,.339.009.473.473,0,0,1,.287.252" transform="translate(-2085.176 -365.221)" fill="#ccc"/>
            <path id="Trazado_1030800" data-name="Trazado 1030800" d="M2224.511,396.431a2.622,2.622,0,0,1,1.053-.191,1.874,1.874,0,0,1,.853.243,1.971,1.971,0,0,1,.635.565,3.123,3.123,0,0,1,.435.8,3.841,3.841,0,0,1,.2.7,4.423,4.423,0,0,1,.078.731,4.029,4.029,0,0,1-.026.7,3.534,3.534,0,0,1-.122.644,2.646,2.646,0,0,1-.122.365,2.9,2.9,0,0,1-.165.331,1.836,1.836,0,0,1-.565.609,2.17,2.17,0,0,1-.748.331,2.356,2.356,0,0,1-.574.07,2.489,2.489,0,0,1-1.14-.3,2.22,2.22,0,0,1-.479-.365,2.272,2.272,0,0,1-.444-.6,3.623,3.623,0,0,1-.27-.722,4.4,4.4,0,0,1-.122-.766,5.065,5.065,0,0,1,0-.731,4.022,4.022,0,0,1,.122-.687,3.249,3.249,0,0,1,.3-.7,2.81,2.81,0,0,1,.461-.609,1.818,1.818,0,0,1,.644-.417m2.036,3.723a3.3,3.3,0,0,0,.087-.922,3.465,3.465,0,0,0-.166-.966,1.934,1.934,0,0,0-.243-.487.971.971,0,0,0-.339-.331.875.875,0,0,0-.453-.113,1.351,1.351,0,0,0-.583.157,1.03,1.03,0,0,0-.331.261,1.57,1.57,0,0,0-.218.374,3.451,3.451,0,0,0-.131.435,2.959,2.959,0,0,0-.052.435,4.327,4.327,0,0,0-.009.478,3.655,3.655,0,0,0,.052.5,3.138,3.138,0,0,0,.139.47,1.4,1.4,0,0,0,.235.391,1.226,1.226,0,0,0,.522.365,1.117,1.117,0,0,0,.6.026,1.052,1.052,0,0,0,.73-.635,1.619,1.619,0,0,0,.156-.435" transform="translate(-2146.736 -365.864)" fill="#ccc"/>
            <path id="Trazado_1030801" data-name="Trazado 1030801" d="M2302.324,401.054c-.006.07-.014.142-.026.218a.8.8,0,0,1-.061.209.372.372,0,0,1-.113.156.364.364,0,0,1-.227.1.475.475,0,0,1-.235.026.79.79,0,0,1-.209-.061.544.544,0,0,1-.182-.183,1.092,1.092,0,0,1-.079-.235,1.2,1.2,0,0,1-.026-.252v-.922l-.009-1.331v-.357a1.451,1.451,0,0,0-.008-.148v-.331a2.979,2.979,0,0,0-.009-.357q-.339.565-.565.913a5.845,5.845,0,0,1-.374.531,1.141,1.141,0,0,1-.261.252.574.574,0,0,1-.235.07.239.239,0,0,1-.139-.026.913.913,0,0,1-.139-.087l-.122-.1a1.129,1.129,0,0,1-.087-.113q-.209-.261-.47-.626a8.029,8.029,0,0,1-.539-.887c0,.006,0,.1-.009.287v.7q0,.409-.009.887t-.008.879q0,.409-.009.687a1.538,1.538,0,0,1-.018.27.583.583,0,0,1-.07.278.571.571,0,0,1-.191.2.514.514,0,0,1-.27.087.657.657,0,0,1-.339-.087.45.45,0,0,1-.174-.2,1.106,1.106,0,0,1-.07-.244c-.006-.081-.012-.16-.018-.235v-.235l.009-.679.009-1.34v-1.166q0-.757.052-1.487a.8.8,0,0,1,.017-.174,1.379,1.379,0,0,1,.061-.165.5.5,0,0,1,.183-.209.532.532,0,0,1,.278-.078,211.207,211.207,0,0,0,.226.017.473.473,0,0,1,.3.209q.13.165.244.287a2,2,0,0,1,.147.191q.078.113.157.235c.052.081.1.159.148.235l.122.2q.226.365.4.67t.339.522a.868.868,0,0,0,.061-.07l.069-.1a.822.822,0,0,0,.07-.113.84.84,0,0,0,.052-.087q.086-.139.174-.27t.183-.287q.1-.157.208-.339l.261-.418c.041-.07.093-.154.157-.252a2.467,2.467,0,0,1,.218-.287,1.582,1.582,0,0,1,.252-.235.463.463,0,0,1,.279-.1.755.755,0,0,1,.122.009.634.634,0,0,1,.1.009.338.338,0,0,1,.2.1.484.484,0,0,1,.1.148,1.108,1.108,0,0,1,.044.191.789.789,0,0,1,.008.113.628.628,0,0,1,.009.1q0,.487.009.966t.009.966V399.3q.008.626.009,1.218,0,.122.009.261a2.077,2.077,0,0,1,0,.278" transform="translate(-2215.113 -365.164)" fill="#ccc"/>
            <path id="Trazado_1030802" data-name="Trazado 1030802" d="M2381.355,396.615a1.84,1.84,0,0,1,.487.731,1.906,1.906,0,0,1,.122.835,1.611,1.611,0,0,1-.252.739,1.352,1.352,0,0,1-.661.5,3.216,3.216,0,0,1-.687.209q-.339.061-.748.1-.183.017-.313.026t-.287.009h-.122a.517.517,0,0,0-.113.009v1.8c-.017.11-.041.223-.069.339a.392.392,0,0,1-.2.27.562.562,0,0,1-.235.061,1.175,1.175,0,0,1-.252-.009.679.679,0,0,1-.209-.061.383.383,0,0,1-.13-.174c-.023-.052-.047-.11-.07-.174a1.07,1.07,0,0,1-.026-.252v-4.81a.682.682,0,0,1,.009-.113l.017-.1a.443.443,0,0,0,.026-.1.455.455,0,0,1,.026-.1c.012-.029.023-.055.035-.078a.3.3,0,0,1,.061-.061.388.388,0,0,1,.13-.078.857.857,0,0,1,.279-.035h.017q.27-.017.6-.026a3.3,3.3,0,0,1,.548.009c.081.012.156.02.226.026s.136,0,.2.009l.209.017c.07.006.139.014.209.026s.11.02.157.026a1.448,1.448,0,0,1,.156.026l.148.035a.461.461,0,0,1,.156.061,1.143,1.143,0,0,1,.3.131c.081.052.166.11.252.174m-.522,1.435a.634.634,0,0,0-.087-.365.723.723,0,0,0-.252-.261,1.463,1.463,0,0,0-.374-.165,2.685,2.685,0,0,0-.418-.087h-.148c-.058-.006-.122-.009-.191-.009s-.137-.009-.2-.009-.1-.009-.139-.009a.548.548,0,0,0-.1-.009h-.139q.009.27.009.522v.531q-.008.156-.009.313v.3l.539-.009a4.507,4.507,0,0,0,.461-.026,2.127,2.127,0,0,0,.478-.1,1.047,1.047,0,0,0,.383-.226.588.588,0,0,0,.192-.391" transform="translate(-2289.498 -365.709)" fill="#ccc"/>
            <path id="Trazado_1030803" data-name="Trazado 1030803" d="M2447.971,401.857a.367.367,0,0,1,.018.13v.13a.328.328,0,0,1-.026.13.5.5,0,0,1-.3.27,1.243,1.243,0,0,1-.392.07q-.1.009-.2.009a1.269,1.269,0,0,0-.209.017h-.035q-.669.009-1.383,0-.174-.009-.392,0a2.09,2.09,0,0,1-.426-.009,1.161,1.161,0,0,1-.383-.1.488.488,0,0,1-.234-.27.58.58,0,0,1-.027-.078.457.457,0,0,1-.009-.087,3.916,3.916,0,0,1-.026-.583q.008-.287.009-.565l.017-1.261v-1.722q.009-.243.018-.539v-.043q.008-.087.009-.174a1.728,1.728,0,0,0,.009-.174.838.838,0,0,1,.1-.339.425.425,0,0,1,.183-.209.461.461,0,0,1,.27-.078.68.68,0,0,1,.113.009.693.693,0,0,1,.113.009.27.27,0,0,1,.1.035.558.558,0,0,1,.1.07.721.721,0,0,1,.1.148.741.741,0,0,1,.043.191c.006.041.012.078.018.113a.627.627,0,0,1,.009.1.325.325,0,0,0-.017.1v.252l-.035,4.1,1.722.017h.409a.807.807,0,0,1,.113.009.864.864,0,0,1,.122.009l.122.017a.711.711,0,0,1,.1.026.343.343,0,0,1,.156.087.4.4,0,0,1,.122.174" transform="translate(-2350.773 -366.002)" fill="#ccc"/>
            <path id="Trazado_1030804" data-name="Trazado 1030804" d="M2506.9,397.09l-.018,1.366h.348q.357-.009.635-.009t.617.009h.043c.07,0,.136,0,.2.009h.2a1.107,1.107,0,0,1,.2.035c.064.012.127.026.192.043a.593.593,0,0,1,.244.157.405.405,0,0,1,.087.252v.1a.249.249,0,0,1-.018.1.293.293,0,0,1-.113.174.262.262,0,0,1-.165.087,1.039,1.039,0,0,1-.226.044,1.16,1.16,0,0,1-.243.026h-.409l-1.609.009-.018,1.7,1.731.017h.539a.681.681,0,0,1,.113.009q.07.017.122.026a.354.354,0,0,1,.113.017.5.5,0,0,1,.174.1.415.415,0,0,1,.113.183.484.484,0,0,1,.009.1.262.262,0,0,1,0,.1.4.4,0,0,1-.087.252.467.467,0,0,1-.243.157,1.006,1.006,0,0,1-.4.078c-.064.006-.131.009-.2.009s-.137,0-.2.009h-.052q-.678.017-1.409,0-.174,0-.278-.009h-.583a.5.5,0,0,1-.331-.07.41.41,0,0,1-.148-.165.076.076,0,0,1-.026-.052.094.094,0,0,0-.017-.026.108.108,0,0,1-.018-.026.49.49,0,0,1-.026-.087.606.606,0,0,1-.009-.1l-.018-.087a.438.438,0,0,0-.009-.087v-.209a.282.282,0,0,0,.009-.07v-.678l.018-1.253v-1.714q.008-.244.017-.531v-.044c.006-.064.009-.122.009-.174s.008-.116.008-.174a.812.812,0,0,1,.1-.339,1.142,1.142,0,0,1,.07-.122.347.347,0,0,1,.113-.087.517.517,0,0,1,.27-.078.462.462,0,0,1,.1.009v-.009h.635c.069-.006.165-.009.287-.009q.348-.009.661-.009c.208,0,.424,0,.644.009h.035q.1.009.2.009t.2.009a.726.726,0,0,1,.191.026,1.185,1.185,0,0,1,.191.052.526.526,0,0,1,.244.148.449.449,0,0,1,.078.244v.1a.23.23,0,0,1-.017.087.316.316,0,0,1-.1.183q-.035.017-.078.044a.3.3,0,0,1-.087.044.655.655,0,0,1-.113.026.626.626,0,0,0-.1.009.546.546,0,0,1-.131.017h-.513l-1.739.009Z" transform="translate(-2407.795 -365.688)" fill="#ccc"/>
            <path id="Trazado_1030805" data-name="Trazado 1030805" d="M2570.543,396.262a.362.362,0,0,1,.1.235.792.792,0,0,1-.009.113.5.5,0,0,1-.009.1.417.417,0,0,1-.113.183.492.492,0,0,1-.192.078.9.9,0,0,1-.122.026,1.3,1.3,0,0,0-.13.026.875.875,0,0,1-.122.009h-.574q-.156.009-.313.009h-.3q.009.27.009.583t-.009.713q0,.409-.008.948v1.914a.772.772,0,0,0,.008.13v.07a.384.384,0,0,1-.008.07,1.405,1.405,0,0,0-.026.183.456.456,0,0,1-.008.087.69.69,0,0,1-.026.078c-.023.023-.035.041-.035.052l-.026.052a.445.445,0,0,1-.165.165.623.623,0,0,1-.426.044.453.453,0,0,1-.226-.078.535.535,0,0,1-.113-.157.492.492,0,0,1-.061-.183.521.521,0,0,1-.026-.165v-4.471h-.574l-.348-.017q-.165-.009-.226-.017l-.165-.026c-.069-.012-.127-.023-.174-.035a.61.61,0,0,1-.287-.165.381.381,0,0,1-.1-.252v-.1a.258.258,0,0,1,.017-.1.288.288,0,0,1,.139-.174.72.72,0,0,1,.1-.061.608.608,0,0,1,.148-.061,1.287,1.287,0,0,1,.261-.052,1.109,1.109,0,0,1,.139-.009h.722q.278,0,.583-.009.5-.009,1,0t1,.017c.075.006.148.014.217.026a.95.95,0,0,1,.209.061.694.694,0,0,1,.148.07.3.3,0,0,1,.113.1" transform="translate(-2463.229 -365.635)" fill="#ccc"/>
            <path id="Trazado_1030806" data-name="Trazado 1030806" d="M2639.895,397.09l-.017,1.366h.348q.357-.009.635-.009t.617.009h.043q.1,0,.2.009h.2a1.108,1.108,0,0,1,.2.035c.063.012.127.026.191.043a.59.59,0,0,1,.244.157.4.4,0,0,1,.087.252v.1a.259.259,0,0,1-.017.1.294.294,0,0,1-.113.174.261.261,0,0,1-.165.087,1.037,1.037,0,0,1-.226.044,1.162,1.162,0,0,1-.244.026h-.409l-1.609.009-.017,1.7,1.731.017h.539a.684.684,0,0,1,.113.009q.07.017.122.026a.352.352,0,0,1,.113.017.5.5,0,0,1,.174.1.419.419,0,0,1,.113.183.5.5,0,0,1,.009.1.273.273,0,0,1,0,.1.4.4,0,0,1-.087.252.465.465,0,0,1-.243.157,1,1,0,0,1-.4.078q-.1.009-.2.009t-.2.009h-.052q-.678.017-1.409,0c-.116,0-.209,0-.279-.009h-.583a.5.5,0,0,1-.331-.07.407.407,0,0,1-.148-.165.074.074,0,0,1-.026-.052.1.1,0,0,0-.018-.026.1.1,0,0,1-.017-.026.491.491,0,0,1-.026-.087.608.608,0,0,1-.009-.1c-.005-.029-.011-.058-.017-.087a.456.456,0,0,0-.008-.087v-.209a.294.294,0,0,0,.008-.07v-.678l.017-1.253v-1.714q.009-.244.018-.531v-.044c.005-.064.009-.122.009-.174a1.73,1.73,0,0,0,.009-.174.805.805,0,0,1,.1-.339,1.1,1.1,0,0,1,.07-.122.344.344,0,0,1,.113-.087.517.517,0,0,1,.27-.078.462.462,0,0,1,.1.009v-.009h.635q.1-.009.287-.009.348-.009.661-.009t.644.009h.035c.063.006.13.009.2.009s.136,0,.2.009a.725.725,0,0,1,.191.026,1.165,1.165,0,0,1,.191.052.523.523,0,0,1,.244.148.445.445,0,0,1,.078.244v.1a.234.234,0,0,1-.017.087.316.316,0,0,1-.1.183c-.023.012-.05.026-.079.044a.3.3,0,0,1-.087.044.658.658,0,0,1-.113.026.631.631,0,0,0-.1.009.54.54,0,0,1-.13.017h-.513l-1.74.009Z" transform="translate(-2530.598 -365.688)" fill="#ccc"/>
            <path id="Trazado_1030807" data-name="Trazado 1030807" d="M2705.579,397.974a4.079,4.079,0,0,1-.009.592q-.018.3-.061.592a3.512,3.512,0,0,1-.322.965,2.206,2.206,0,0,1-.687.8,2.757,2.757,0,0,1-1.07.479,7.7,7.7,0,0,1-1.192.148,3.184,3.184,0,0,1-.409.009,1.764,1.764,0,0,1-.392-.043.462.462,0,0,1-.235-.1.2.2,0,0,1-.07-.069.611.611,0,0,1-.044-.087.632.632,0,0,1-.043-.087.679.679,0,0,0-.026-.1q-.009-.043-.018-.078v-5.158a.325.325,0,0,1,.018-.1.78.78,0,0,1,.052-.2.288.288,0,0,1,.1-.148.331.331,0,0,1,.1-.061c.035-.017.067-.032.1-.044a.161.161,0,0,1,.1,0,.22.22,0,0,0,.13-.026l1.453.035a2.215,2.215,0,0,1,1.027.27,2.631,2.631,0,0,1,.774.626,2.974,2.974,0,0,1,.5.861,3.239,3.239,0,0,1,.218.931m-1.618,1.653a1.911,1.911,0,0,0,.243-.6,2.735,2.735,0,0,0,.07-.687,2.987,2.987,0,0,0-.1-.687,2.252,2.252,0,0,0-.244-.6,1,1,0,0,0-.313-.313,1.482,1.482,0,0,0-.426-.183,2.678,2.678,0,0,0-.5-.1q-.261-.026-.513-.026.009.252.009.487v.5q-.009.313-.009.609v2.349q.27-.009.513-.026a2.126,2.126,0,0,0,.478-.1,1.56,1.56,0,0,0,.426-.217,1.532,1.532,0,0,0,.365-.4" transform="translate(-2588.123 -364.955)" fill="#ccc"/>
            <path id="Trazado_1030808" data-name="Trazado 1030808" d="M2819.507,396.262a.361.361,0,0,1,.1.235.834.834,0,0,1-.009.113.483.483,0,0,1-.009.1.415.415,0,0,1-.113.183.486.486,0,0,1-.191.078.912.912,0,0,1-.122.026,1.282,1.282,0,0,0-.131.026.866.866,0,0,1-.122.009h-.574q-.156.009-.313.009h-.3q.008.27.008.583t-.008.713q0,.409-.009.948v1.914a.718.718,0,0,0,.009.13v.07a.367.367,0,0,1-.009.07,1.326,1.326,0,0,0-.026.183.456.456,0,0,1-.008.087.644.644,0,0,1-.026.078c-.023.023-.035.041-.035.052l-.026.052a.45.45,0,0,1-.165.165.625.625,0,0,1-.426.044.452.452,0,0,1-.226-.078.535.535,0,0,1-.113-.157.488.488,0,0,1-.061-.183.528.528,0,0,1-.026-.165v-4.471H2816l-.348-.017q-.166-.009-.226-.017l-.165-.026c-.07-.012-.128-.023-.175-.035a.6.6,0,0,1-.287-.165.381.381,0,0,1-.1-.252v-.1a.248.248,0,0,1,.018-.1.287.287,0,0,1,.139-.174.748.748,0,0,1,.1-.061.623.623,0,0,1,.148-.061,1.281,1.281,0,0,1,.261-.052,1.11,1.11,0,0,1,.139-.009h.722q.278,0,.583-.009.5-.009,1,0t1,.017c.075.006.148.014.218.026a.948.948,0,0,1,.209.061.7.7,0,0,1,.148.07.3.3,0,0,1,.113.1" transform="translate(-2693.109 -365.635)" fill="#ccc"/>
            <path id="Trazado_1030809" data-name="Trazado 1030809" d="M2878.284,401.613a.628.628,0,0,1,.009.1.533.533,0,0,1,.009.1.327.327,0,0,1-.061.191.464.464,0,0,1-.07.087.445.445,0,0,1-.1.061.712.712,0,0,1-.461.087.6.6,0,0,1-.217-.113q-.018-.017-.026-.017a.106.106,0,0,1-.017-.026l-.017-.017a.058.058,0,0,0-.026-.026.752.752,0,0,1-.07-.078l-.052-.087a.348.348,0,0,0-.044-.078.6.6,0,0,0-.043-.087.577.577,0,0,0-.035-.061.333.333,0,0,1-.026-.07.549.549,0,0,1-.043-.139l-.183-.426q-.6,0-1.2.009t-1.192-.009l-.183.426a.349.349,0,0,0-.026.07.159.159,0,0,1-.017.07l-.035.07a.466.466,0,0,1-.026.061l-.052.087c-.012.023-.026.049-.044.078a.605.605,0,0,1-.043.087.77.77,0,0,1-.069.078.057.057,0,0,0-.026.026l-.017.017a.106.106,0,0,1-.017.026c-.006,0-.014.006-.026.017a.6.6,0,0,1-.217.113.713.713,0,0,1-.461-.087.443.443,0,0,1-.1-.061.466.466,0,0,1-.07-.087.328.328,0,0,1-.061-.191v-.1l.018-.1a1.554,1.554,0,0,1,.043-.156l.026-.078,1.809-4.454.052-.139a.507.507,0,0,1,.044-.1.453.453,0,0,0,.043-.1,1.3,1.3,0,0,1,.1-.2.53.53,0,0,1,.061-.1l.07-.087a.372.372,0,0,1,.148-.113.826.826,0,0,1,.278-.043.853.853,0,0,1,.287.043.375.375,0,0,1,.148.113q.06.078.13.183a1.3,1.3,0,0,1,.1.2.453.453,0,0,0,.043.1.492.492,0,0,1,.044.1l.052.139,1.809,4.454s.008.026.026.078a1.554,1.554,0,0,1,.043.156m-2.061-2.131-.235-.522q-.113-.27-.244-.548l-.07-.156q-.035-.087-.07-.165-.026.078-.061.165l-.07.156q-.131.278-.252.548t-.226.522l-.157.383h1.54Z" transform="translate(-2746.858 -365.688)" fill="#ccc"/>
            <path id="Trazado_1030810" data-name="Trazado 1030810" d="M2956.724,399.228a1.224,1.224,0,0,1,.061.278,1.731,1.731,0,0,1,.026.3,1.882,1.882,0,0,1-.026.313,1.5,1.5,0,0,1-.052.261,1.578,1.578,0,0,1-.557.818,2.728,2.728,0,0,1-.957.47,3.185,3.185,0,0,1-1.1.1,2.461,2.461,0,0,1-1.009-.287,1.821,1.821,0,0,1-.478-.383,2.325,2.325,0,0,1-.34-.5.65.65,0,0,1-.07-.217.67.67,0,0,1,.026-.244.519.519,0,0,1,.113-.209.394.394,0,0,1,.218-.13.968.968,0,0,1,.191-.017.68.68,0,0,1,.217.035.5.5,0,0,1,.192.1.421.421,0,0,1,.139.174,1.224,1.224,0,0,0,.27.339,1.931,1.931,0,0,0,.383.244,1.513,1.513,0,0,0,.574.078,1.4,1.4,0,0,0,.531-.131,1.036,1.036,0,0,0,.391-.3.742.742,0,0,0,.148-.452.8.8,0,0,0-.061-.339.565.565,0,0,0-.174-.226.819.819,0,0,0-.261-.157,2.224,2.224,0,0,0-.33-.1,3.446,3.446,0,0,0-.426-.061q-.209-.017-.426-.043t-.426-.07a2.1,2.1,0,0,1-.409-.13,1.254,1.254,0,0,1-.609-.5,1.744,1.744,0,0,1-.252-.731,1.865,1.865,0,0,1,.1-.774,1.637,1.637,0,0,1,.417-.67,1.592,1.592,0,0,1,.661-.357,3.578,3.578,0,0,1,.861-.13,3.923,3.923,0,0,1,.522.017,3.509,3.509,0,0,1,.513.087,2.538,2.538,0,0,1,.461.157,1.567,1.567,0,0,1,.374.226,1.259,1.259,0,0,1,.226.235,1.061,1.061,0,0,1,.174.3.556.556,0,0,1,.035.3.349.349,0,0,1-.183.252.45.45,0,0,1-.27.078.7.7,0,0,1-.235-.078,1.893,1.893,0,0,1-.218-.157c-.07-.058-.133-.11-.191-.157a1.357,1.357,0,0,0-.583-.235,2.279,2.279,0,0,0-.652-.026,1.688,1.688,0,0,0-.356.087.926.926,0,0,0-.287.165.778.778,0,0,0-.183.261.709.709,0,0,0-.043.339.435.435,0,0,0,.078.235.672.672,0,0,0,.183.157,1.111,1.111,0,0,0,.244.1,2.083,2.083,0,0,0,.261.052q.391.052.783.078a2.529,2.529,0,0,1,.765.174,1.993,1.993,0,0,1,.652.4,1.4,1.4,0,0,1,.383.609" transform="translate(-2820.08 -365.243)" fill="#ccc"/>
            <path id="Trazado_1030811" data-name="Trazado 1030811" d="M3025.447,400.949a.279.279,0,0,1,.008.261.374.374,0,0,1-.148.209l-.1.078a.489.489,0,0,1-.1.044.363.363,0,0,1-.226.035.255.255,0,0,1-.1-.017.634.634,0,0,1-.087-.044q-.043-.026-.1-.052l-.087-.07-.1-.078a.486.486,0,0,1-.079-.078.961.961,0,0,1-.078-.087.987.987,0,0,0-.07-.078l-.1-.113-1.67-1.748.026,1.748v.078a.382.382,0,0,1-.009.078c-.006.023-.011.049-.017.078a1.363,1.363,0,0,1-.061.2.214.214,0,0,1-.052.087.664.664,0,0,1-.061.07.363.363,0,0,1-.226.1.517.517,0,0,1-.244.026.655.655,0,0,1-.218-.061.469.469,0,0,1-.157-.174.19.19,0,0,0-.026-.044.362.362,0,0,0-.018-.061.337.337,0,0,1-.052-.174c-.005-.035-.011-.067-.017-.1a.577.577,0,0,0-.009-.1.284.284,0,0,1-.009-.07v-.07a.392.392,0,0,0,.009-.07v-.078l-.009-.687-.009-1.279q0-.557-.026-1.2-.009-.313-.009-.557t.009-.548v-.035a1.01,1.01,0,0,0,.017-.183c0-.064,0-.125.009-.183a.841.841,0,0,1,.078-.348.425.425,0,0,1,.182-.209.343.343,0,0,1,.131-.052l.148-.035a.707.707,0,0,1,.113.009l.113.017a.427.427,0,0,1,.209.1.225.225,0,0,1,.044.061.3.3,0,0,1,.043.087.5.5,0,0,1,.061.2.655.655,0,0,1,.009.1.683.683,0,0,1,.009.113v.357l.009,1.061q.139-.122.27-.252t.27-.278q.235-.244.461-.47t.47-.461l.026-.026q.07-.07.139-.13l.148-.13a.706.706,0,0,1,.322-.209.431.431,0,0,1,.287-.061.488.488,0,0,1,.139.035.561.561,0,0,1,.131.07,1.071,1.071,0,0,0,.087.078.2.2,0,0,1,.07.07.287.287,0,0,1,.087.183.42.42,0,0,1-.035.174l-.052.087a.825.825,0,0,1-.061.087l-.078.1a1.046,1.046,0,0,1-.078.087.5.5,0,0,1-.078.078.954.954,0,0,0-.07.078l-.113.113-1.626,1.661q.13.131.269.278t.279.278c.087.087.168.171.243.252l.191.191q.235.244.452.487t.426.478l.026.026a1.575,1.575,0,0,1,.13.148c.041.046.078.093.113.139a.855.855,0,0,1,.183.322" transform="translate(-2883.809 -365.06)" fill="#ccc"/>
            <path id="Trazado_1030812" data-name="Trazado 1030812" d="M3090.288,399.228a1.212,1.212,0,0,1,.06.278,1.708,1.708,0,0,1,.027.3,1.856,1.856,0,0,1-.027.313,1.39,1.39,0,0,1-.052.261,1.578,1.578,0,0,1-.556.818,2.736,2.736,0,0,1-.957.47,3.186,3.186,0,0,1-1.1.1,2.465,2.465,0,0,1-1.009-.287,1.828,1.828,0,0,1-.478-.383,2.323,2.323,0,0,1-.339-.5.629.629,0,0,1-.07-.217.654.654,0,0,1,.026-.244.525.525,0,0,1,.113-.209.392.392,0,0,1,.218-.13.966.966,0,0,1,.191-.017.682.682,0,0,1,.217.035.5.5,0,0,1,.191.1.421.421,0,0,1,.139.174,1.229,1.229,0,0,0,.27.339,1.924,1.924,0,0,0,.383.244,1.511,1.511,0,0,0,.574.078,1.4,1.4,0,0,0,.531-.131,1.033,1.033,0,0,0,.391-.3.74.74,0,0,0,.148-.452.808.808,0,0,0-.061-.339.569.569,0,0,0-.174-.226.822.822,0,0,0-.261-.157,2.2,2.2,0,0,0-.331-.1,3.439,3.439,0,0,0-.426-.061q-.209-.017-.426-.043t-.426-.07a2.078,2.078,0,0,1-.409-.13,1.254,1.254,0,0,1-.609-.5,1.747,1.747,0,0,1-.252-.731,1.865,1.865,0,0,1,.1-.774,1.639,1.639,0,0,1,.417-.67,1.591,1.591,0,0,1,.661-.357,3.572,3.572,0,0,1,.861-.13,3.921,3.921,0,0,1,.522.017,3.514,3.514,0,0,1,.513.087,2.538,2.538,0,0,1,.461.157,1.56,1.56,0,0,1,.374.226,1.261,1.261,0,0,1,.227.235,1.066,1.066,0,0,1,.174.3.554.554,0,0,1,.035.3.349.349,0,0,1-.182.252.45.45,0,0,1-.27.078.7.7,0,0,1-.235-.078,1.89,1.89,0,0,1-.217-.157l-.191-.157a1.359,1.359,0,0,0-.583-.235,2.28,2.28,0,0,0-.652-.026,1.677,1.677,0,0,0-.356.087.926.926,0,0,0-.287.165.781.781,0,0,0-.183.261.718.718,0,0,0-.044.339.431.431,0,0,0,.079.235.668.668,0,0,0,.182.157,1.118,1.118,0,0,0,.244.1,2.091,2.091,0,0,0,.261.052q.391.052.783.078a2.527,2.527,0,0,1,.765.174,2,2,0,0,1,.653.4,1.4,1.4,0,0,1,.383.609" transform="translate(-2943.405 -365.243)" fill="#ccc"/>
          </g>
          <path id="Trazado_1030813" data-name="Trazado 1030813" d="M1743.777,776.664a.079.079,0,0,1,.079.079V796.26h20.275a.079.079,0,0,1,.079.079v.38a.079.079,0,0,1-.079.079h-20.275v18.111h20.275a.079.079,0,0,1,.079.079v.379a.079.079,0,0,1-.079.079h-20.275v7.32a.079.079,0,0,1-.079.079h-.38a.079.079,0,0,1-.079-.079v-7.32h-27.166v7.32a.079.079,0,0,1-.079.079h-.38a.079.079,0,0,1-.079-.079v-7.32h-27.167v7.32a.079.079,0,0,1-.079.079h-.38a.079.079,0,0,1-.079-.079v-7.32h-3.592a.079.079,0,0,1-.079-.079v-.379a.079.079,0,0,1,.079-.079h3.592V796.8h-3.592a.079.079,0,0,1-.079-.079v-.38a.079.079,0,0,1,.079-.079h3.592V776.743a.079.079,0,0,1,.079-.079h.38a.079.079,0,0,1,.079.079V796.26h27.167V776.743a.079.079,0,0,1,.079-.079h.38a.079.079,0,0,1,.079.079V796.26h27.166V776.743a.079.079,0,0,1,.079-.079Zm-.459,20.134h-27.166v18.111h27.166Zm-27.7,0h-27.167v18.111h27.167Z" transform="translate(-1581.056 -717.131)" fill="#b3b3b3"/>
          <path id="Trazado_1030814" data-name="Trazado 1030814" d="M1720.679,1097.149a.079.079,0,0,1,.079.079v.38a.079.079,0,0,1-.079.079h-15.173a.079.079,0,0,1-.079-.079v-.38a.079.079,0,0,1,.079-.079Zm0,3.108a.079.079,0,0,1,.079.079v.379a.079.079,0,0,1-.079.079h-15.173a.079.079,0,0,1-.079-.079v-.379a.079.079,0,0,1,.079-.079Zm0,3.108a.079.079,0,0,1,.079.079v.38a.079.079,0,0,1-.079.079h-15.173a.079.079,0,0,1-.079-.079v-.38a.079.079,0,0,1,.079-.079Zm0,3.108a.079.079,0,0,1,.079.079v.38a.079.079,0,0,1-.079.079h-15.173a.079.079,0,0,1-.079-.079v-.38a.079.079,0,0,1,.079-.079Z" transform="translate(-1539.228 -1013.05)" fill="#ccc"/>
          <path id="Trazado_1030815" data-name="Trazado 1030815" d="M2058.717,1097.149a.079.079,0,0,1,.079.079v.38a.079.079,0,0,1-.079.079h-15.173a.079.079,0,0,1-.079-.079v-.38a.079.079,0,0,1,.079-.079Zm0,3.108a.079.079,0,0,1,.079.079v.379a.079.079,0,0,1-.079.079h-15.173a.079.079,0,0,1-.079-.079v-.379a.079.079,0,0,1,.079-.079Zm0,3.108a.079.079,0,0,1,.079.079v.38a.079.079,0,0,1-.079.079h-15.173a.079.079,0,0,1-.079-.079v-.38a.079.079,0,0,1,.079-.079Zm0,3.108a.079.079,0,0,1,.079.079v.38a.079.079,0,0,1-.079.079h-15.173a.079.079,0,0,1-.079-.079v-.38a.079.079,0,0,1,.079-.079Z" transform="translate(-1903.177 -1013.05)" fill="#ccc"/>
          <path id="Trazado_1030816" data-name="Trazado 1030816" d="M2396.752,1097.149a.079.079,0,0,1,.079.079v.38a.079.079,0,0,1-.079.079h-15.173a.079.079,0,0,1-.079-.079v-.38a.079.079,0,0,1,.079-.079Zm0,3.108a.079.079,0,0,1,.079.079v.379a.079.079,0,0,1-.079.079h-15.173a.079.079,0,0,1-.079-.079v-.379a.079.079,0,0,1,.079-.079Zm0,3.108a.079.079,0,0,1,.079.079v.38a.079.079,0,0,1-.079.079h-15.173a.079.079,0,0,1-.079-.079v-.38a.079.079,0,0,1,.079-.079Zm0,3.108a.079.079,0,0,1,.079.079v.38a.079.079,0,0,1-.079.079h-15.173a.079.079,0,0,1-.079-.079v-.38a.079.079,0,0,1,.079-.079Z" transform="translate(-2267.123 -1013.05)" fill="#ccc"/>
          <path id="Trazado_1030817" data-name="Trazado 1030817" d="M1720.679,865.552a.079.079,0,0,1,.079.079v.38a.079.079,0,0,1-.079.079h-15.173a.079.079,0,0,1-.079-.079v-.38a.079.079,0,0,1,.079-.079Zm0,3.108a.079.079,0,0,1,.079.079v.38a.079.079,0,0,1-.079.079h-15.173a.079.079,0,0,1-.079-.079v-.38a.079.079,0,0,1,.079-.079Zm0,3.108a.079.079,0,0,1,.079.079v.38a.079.079,0,0,1-.079.079h-15.173a.079.079,0,0,1-.079-.079v-.38a.079.079,0,0,1,.079-.079Zm0,3.108a.079.079,0,0,1,.079.079v.38a.079.079,0,0,1-.079.079h-15.173a.079.079,0,0,1-.079-.079v-.38a.079.079,0,0,1,.079-.079Z" transform="translate(-1539.228 -799.206)" fill="#ccc"/>
          <path id="Trazado_1030818" data-name="Trazado 1030818" d="M2058.717,865.552a.079.079,0,0,1,.079.079v.38a.079.079,0,0,1-.079.079h-15.173a.079.079,0,0,1-.079-.079v-.38a.079.079,0,0,1,.079-.079Zm0,3.108a.079.079,0,0,1,.079.079v.38a.079.079,0,0,1-.079.079h-15.173a.079.079,0,0,1-.079-.079v-.38a.079.079,0,0,1,.079-.079Zm0,3.108a.079.079,0,0,1,.079.079v.38a.079.079,0,0,1-.079.079h-15.173a.079.079,0,0,1-.079-.079v-.38a.079.079,0,0,1,.079-.079Zm0,3.108a.079.079,0,0,1,.079.079v.38a.079.079,0,0,1-.079.079h-15.173a.079.079,0,0,1-.079-.079v-.38a.079.079,0,0,1,.079-.079Z" transform="translate(-1903.177 -799.206)" fill="#ccc"/>
          <path id="Trazado_1030819" data-name="Trazado 1030819" d="M2396.752,865.552a.079.079,0,0,1,.079.079v.38a.079.079,0,0,1-.079.079h-15.173a.079.079,0,0,1-.079-.079v-.38a.079.079,0,0,1,.079-.079Zm0,3.108a.079.079,0,0,1,.079.079v.38a.079.079,0,0,1-.079.079h-15.173a.079.079,0,0,1-.079-.079v-.38a.079.079,0,0,1,.079-.079Zm0,3.108a.079.079,0,0,1,.079.079v.38a.079.079,0,0,1-.079.079h-15.173a.079.079,0,0,1-.079-.079v-.38a.079.079,0,0,1,.079-.079Zm0,3.108a.079.079,0,0,1,.079.079v.38a.079.079,0,0,1-.079.079h-15.173a.079.079,0,0,1-.079-.079v-.38a.079.079,0,0,1,.079-.079Z" transform="translate(-2267.123 -799.206)" fill="#ccc"/>
          <path id="Trazado_1030820" data-name="Trazado 1030820" d="M1783.818,772.771a.226.226,0,0,0-.023-.171.53.53,0,0,0-.158-.162.492.492,0,0,0-.212-.1l0,0a.174.174,0,0,1-.041-.023l-.045-.027a2.409,2.409,0,0,1-.342-.36.012.012,0,0,1,0-.009s0-.008-.009-.013a.4.4,0,0,0-.225-.212.665.665,0,0,0-.311-.063.481.481,0,0,0-.266.086.342.342,0,0,0-.149.239.908.908,0,0,0,.122.306q-.027.059-.072.14a.184.184,0,0,0-.018.158q.117.239.239.477t.194.419l.14.329q.059.144.122.293.216.541.315.883a3.32,3.32,0,0,0,.2.549v.013h0a.259.259,0,0,0,.158.149.449.449,0,0,0,.234.036.393.393,0,0,0,.212-.076.207.207,0,0,0,.081-.194q-.014-.122-.036-.234t-.081-.423q-.108-.617-.414-1.738a.6.6,0,0,0,.252-.1.32.32,0,0,0,.14-.167" transform="translate(-1608.299 -712.479)" fill="#ccc"/>
          <path id="Trazado_1030821" data-name="Trazado 1030821" d="M2128.257,772.125q.049.194.378.288a.8.8,0,0,0,.531-.018.323.323,0,0,0,.158-.144.3.3,0,0,0-.014-.243,2.844,2.844,0,0,0-.486-.684.986.986,0,0,0-.189-.158,1.032,1.032,0,0,0-.32-.162,1.347,1.347,0,0,0-.409-.072,1.013,1.013,0,0,0-.77.27.638.638,0,0,0-.225.572,2.6,2.6,0,0,0,.658,1.207,5.353,5.353,0,0,0,.59.612q.328.293.626.576.126-.072.1-.122a.216.216,0,0,0-.144-.086,1.422,1.422,0,0,0-.293-.041,2.69,2.69,0,0,0-.347,0q-.41.023-.477.117a.175.175,0,0,0-.072.135.534.534,0,0,0,.009.216.693.693,0,0,0,.234.4,1.244,1.244,0,0,0,.626.18,3.665,3.665,0,0,0,.9.013.953.953,0,0,0,.3-.086q.112-.059.081-.144a.13.13,0,0,1,0-.126l.067-.095a.283.283,0,0,0-.009-.306,2.176,2.176,0,0,0-.248-.351q-.108-.117-.221-.252t-.266-.293l-.3-.311a6.923,6.923,0,0,1-.567-.671,1.776,1.776,0,0,1-.167-.293.661.661,0,0,1-.05-.3c.036.039.069.072.1.1a.634.634,0,0,1,.081.077.536.536,0,0,1,.135.2" transform="translate(-1980.587 -711.838)" fill="#ccc"/>
          <path id="Trazado_1030822" data-name="Trazado 1030822" d="M2470.209,773.441a.189.189,0,0,0,.153-.225.594.594,0,0,0-.212-.338,2.6,2.6,0,0,0-.207-.2q-.135-.117-.266-.243a1.352,1.352,0,0,1-.387-.5c.135.036.249.071.343.1s.172.053.239.068a.477.477,0,0,0,.171,0,.225.225,0,0,0,.117-.063.317.317,0,0,0,.068-.122.491.491,0,0,0,.023-.149.206.206,0,0,0-.167-.225.1.1,0,0,1-.067-.04.567.567,0,0,1-.05-.068.25.25,0,0,0-.162-.122c-.075-.027-.159-.059-.252-.095s-.2-.068-.3-.095a.774.774,0,0,0-.8.162.665.665,0,0,0-.167.581,1.5,1.5,0,0,0,.131.428,1.17,1.17,0,0,0,.211.257q.113.1.208.167l.2.153a.509.509,0,0,0-.36.18.671.671,0,0,0-.144.365,1.625,1.625,0,0,0,.266.964,1.817,1.817,0,0,0,1.491.68,1.137,1.137,0,0,0,.527-.068.374.374,0,0,0,.248-.252.328.328,0,0,0,0-.221.521.521,0,0,0-.1-.2.429.429,0,0,0-.176-.122.22.22,0,0,0-.194.009,1.557,1.557,0,0,1-.347.018,1.49,1.49,0,0,1-.432-.148.883.883,0,0,1-.342-.324.25.25,0,0,1-.045-.171c.009-.048.049-.073.122-.077s.163,0,.275,0a1.384,1.384,0,0,0,.382-.063" transform="translate(-2348.03 -711.983)" fill="#ccc"/>
          <path id="Trazado_1030823" data-name="Trazado 1030823" d="M2869.33,621.96a28.8,28.8,0,1,1-28.8,28.893l28.8-.1Z" transform="translate(-2803.604 -574.286)" fill="#ececec"/>
          <path id="Trazado_1030824" data-name="Trazado 1030824" d="M3270.916,598.474v28.794l-28.8.1q0-.048,0-.1a28.8,28.8,0,0,1,28.8-28.8" transform="translate(-3207.177 -552.6)" fill="#f60"/>
          <path id="Trazado_1030825" data-name="Trazado 1030825" d="M2866.144,1445.51a.36.36,0,0,1,.361.361v2.344a.36.36,0,0,1-.361.361h-2.391a.36.36,0,0,1-.361-.361v-2.344a.36.36,0,0,1,.361-.361Zm-6.434.718a.192.192,0,0,1,.192.192v1.246a.192.192,0,0,1-.192.192h-18.984a.191.191,0,0,1-.192-.192v-1.246a.191.191,0,0,1,.192-.192Z" transform="translate(-2771.983 -1334.708)" fill="#f60"/>
          <path id="Trazado_1030826" data-name="Trazado 1030826" d="M2887.479,1511.6a.36.36,0,0,1,.361.361v2.344a.36.36,0,0,1-.361.361h-2.391a.36.36,0,0,1-.361-.361v-2.344a.36.36,0,0,1,.361-.361Zm-6.434.718a.192.192,0,0,1,.192.192v1.246a.192.192,0,0,1-.192.192h-40.319a.192.192,0,0,1-.192-.192v-1.246a.192.192,0,0,1,.192-.192Z" transform="translate(-2793.318 -1395.732)" fill="#ececec"/>
          <g transform="matrix(1, 0, 0, 1, -96, -0.38)" filter="url(#Trazado_1030827)">
            <path id="Trazado_1030827-2" data-name="Trazado 1030827" d="M353.443,3250.94H97.216l-24.516,21.9h301.11Z" transform="translate(28.87 -3001.37)" fill="#ececec"/>
          </g>
          <rect id="Rectángulo_415050" data-name="Rectángulo 415050" width="301.11" height="6.971" transform="translate(5.573 271.095)" fill="#ccc"/>
          <path id="Trazado_1030828" data-name="Trazado 1030828" d="M2065.164,1887.938c-1.788,3.971-3.576,7.623-5.365,11l-18.47-7.49,5.013-11.779Z" transform="translate(-1909.381 -1735.586)" fill="#ffb380"/>
          <path id="Trazado_1030829" data-name="Trazado 1030829" d="M1438.981,754.569l3.27,8.223-6.814,17.9-18.651-1.272-3.222-15.345,8.486-8.907Z" transform="translate(-1238.349 -696.73)" fill="#ffb380"/>
          <path id="Trazado_1030830" data-name="Trazado 1030830" d="M1315.247,196.842v13.733h.1a5.045,5.045,0,1,1,0,10.09h-.1v3.224a14.97,14.97,0,0,1-9.147,13.825l1.853,10.483c-6.492,3.21-13.151,2.612-19.9,0l2.053-10.5a14.97,14.97,0,0,1-9.11-13.809v-3.255a5.045,5.045,0,1,1,0-10.026V196.842h34.247Z" transform="translate(-1105.894 -181.754)" fill="#ffb380"/>
          <path id="Trazado_1030831" data-name="Trazado 1030831" d="M1476.874,729.894c-5.538,1.7-10.919,1.908-16.077,0,5.984,3.272,11.165,2.339,16.077,0" transform="translate(-1276.592 -673.946)" fill="#f95"/>
          <path id="Trazado_1030832" data-name="Trazado 1030832" d="M1284.172,0a15.542,15.542,0,0,1,3.315.359,17.7,17.7,0,0,1,11.228,7.648,10.255,10.255,0,0,1,2.63,1.7,9.942,9.942,0,0,1,3.076,7.3,1.194,1.194,0,0,0,.383.983,2.416,2.416,0,0,1,1.172,2.663,2.974,2.974,0,0,1-.2,1.284,2.368,2.368,0,0,1-.862,1.013,11.64,11.64,0,0,1-1.467.809,11.747,11.747,0,0,0-1.547,5.557c-3.031-1.047-2.837,1.437-3.333,4.637-.291-3.194-1.933-4.379-1.834-9.661-3.277-.662-5.861-1.629-7.6-5.593a3.275,3.275,0,0,0-1.487-1.658c-2.908-1.714-5.882-1.755-9.153-.913-9.8.2-7.982,5.9-11.477,10.828.346,2.532-.855,4.37-.627,7-.846-2.186-.528-6.043-3.727-4.637.114-5.029-5.537-6.006-2.818-9.225,1.559-2.994-2.184-2.918-.82-5.841,1.855-3.975,6.714-3.415,8.71-7.071,3.689-6.758,7.2-4.874,9.116-3.369a5.409,5.409,0,0,0-3.082-1.84c-1.542-.288-3.34.175-4.971,2.293-.511.664-1.028,1.641-1.614,2.572a6.982,6.982,0,0,1-2.051,2.311,29.723,29.723,0,0,1-2.822,1.073,5.438,5.438,0,0,0-2.839,2.137.087.087,0,1,1-.151-.086,5.588,5.588,0,0,1,2.925-2.213c1.137-.458,2.26-.735,2.8-1.06a6.874,6.874,0,0,0,1.993-2.255c.581-.924,1.1-1.9,1.623-2.585a5.577,5.577,0,0,1,3.9-2.418,4.548,4.548,0,0,1,1.245.061,5.5,5.5,0,0,1,3.373,2.151l.074-.106A5.366,5.366,0,0,1,1280.857.51a10.459,10.459,0,0,1,3.1-.5l.211,0m0,.174a10.444,10.444,0,0,0-3.26.5,5.346,5.346,0,0,0-3.276,2.667c5.831-6.912,19.654,1.269,19.51,4.063.428.139.857.3,1.282.479A17.59,17.59,0,0,0,1287.449.533a15.371,15.371,0,0,0-3.278-.354m12.955,7.4c.616.388,1.231.777,1.825,1.181q-.172-.313-.358-.615a14.454,14.454,0,0,0-1.467-.565m1.75.7q.2.342.387.7c2.714,1.9,4.9,4.181,4.521,8.381.2.1.4.213.592.337a1.885,1.885,0,0,1-.131-.682,9.751,9.751,0,0,0-3.018-7.179,9.928,9.928,0,0,0-2.351-1.556m6.918,12.8a5.121,5.121,0,0,1-1.286,1.493,6.368,6.368,0,0,0-.832.87,8.93,8.93,0,0,0,1.138-.639,2.182,2.182,0,0,0,.8-.939,2.446,2.446,0,0,0,.178-.784" transform="translate(-1090.299 -0.004)" fill="#241c1c"/>
          <path id="Trazado_1030833" data-name="Trazado 1030833" d="M1301.359,300.626a.065.065,0,0,1,.05.032.065.065,0,0,1-.024.089,11.287,11.287,0,0,1-6.548,1.187.065.065,0,0,1-.056-.073.065.065,0,0,1,.073-.056,11.157,11.157,0,0,0,6.466-1.17.066.066,0,0,1,.039-.009" transform="translate(-1088.411 -277.582)" fill="#483e37"/>
          <path id="Trazado_1030834" data-name="Trazado 1030834" d="M1619.091,58.239a.065.065,0,0,1,.063.086c-.93,2.765-.045,7.26,1.225,10.926a.065.065,0,0,1-.09.08.066.066,0,0,1-.033-.037c-1.275-3.68-2.176-8.182-1.225-11.011a.065.065,0,0,1,.061-.045" transform="translate(-1432.199 -53.775)" fill="#483e37"/>
          <path id="Trazado_1030835" data-name="Trazado 1030835" d="M1399.927,35.9c3.981-.157,8.922,2.33,11.426,4.256a.065.065,0,0,1,.012.092.065.065,0,0,1-.043.025.065.065,0,0,1-.048-.013c-2.48-1.908-7.418-4.384-11.341-4.229a5.327,5.327,0,0,0-4.7,2.58c-1.041,1.777-1.419,4.617-.691,8.925a.065.065,0,1,1-.129.022c-.731-4.324-.357-7.2.707-9.013a5.47,5.47,0,0,1,4.811-2.644" transform="translate(-1205.979 -33.139)" fill="#483e37"/>
          <path id="Trazado_1030836" data-name="Trazado 1030836" d="M1316.491,67.571a5.93,5.93,0,0,1,2.77,1,4.95,4.95,0,0,1,2.188,3.007c.926,4.594,2.841,7.5,5.117,9.313a13.115,13.115,0,0,0,7.3,2.69.065.065,0,0,1-.009.13,13.246,13.246,0,0,1-7.369-2.718c-2.3-1.829-4.233-4.771-5.163-9.389a4.828,4.828,0,0,0-2.133-2.924,5.5,5.5,0,0,0-3.649-.956,3.951,3.951,0,0,0-3.118,2.324c-.732,1.471-1.043,3.722-.582,6.974a.065.065,0,0,1-.012.048.066.066,0,0,1-.043.025.065.065,0,0,1-.074-.056c-.464-3.268-.155-5.545.594-7.05a4.094,4.094,0,0,1,3.219-2.4,4.688,4.688,0,0,1,.968-.019" transform="translate(-1122.198 -62.376)" fill="#483e37"/>
          <path id="Trazado_1030837" data-name="Trazado 1030837" d="M1303.8,85.389l.012,0c4.181.955,5.8,3.314,7.214,5.59s2.61,4.46,5.984,5.154a.065.065,0,0,1,.041.028.065.065,0,0,1-.068.1c-3.421-.7-4.66-2.941-6.069-5.213s-2.989-4.586-7.132-5.532a.065.065,0,0,1,.017-.129" transform="translate(-1104.739 -78.843)" fill="#483e37"/>
          <path id="Trazado_1030838" data-name="Trazado 1030838" d="M1350.327,147.555a.065.065,0,0,1,.059.05,16.664,16.664,0,0,0,3.349,7.216,11.769,11.769,0,0,0,7.1,3.853.065.065,0,1,1-.023.128,11.91,11.91,0,0,1-7.178-3.9,16.788,16.788,0,0,1-3.377-7.271.065.065,0,0,1,.008-.049.064.064,0,0,1,.04-.029.063.063,0,0,1,.02,0" transform="translate(-1152.136 -136.244)" fill="#483e37"/>
          <path id="Trazado_1030839" data-name="Trazado 1030839" d="M1503.162,99.728a2.943,2.943,0,0,1,1.558.511,2.018,2.018,0,0,1,.983,1.528.065.065,0,0,1-.13,0,1.9,1.9,0,0,0-.926-1.421,2.74,2.74,0,0,0-2.044-.443,3.107,3.107,0,0,0-2.088,1.717,11.277,11.277,0,0,0-1.063,5.1.065.065,0,0,1-.13,0,11.393,11.393,0,0,1,1.079-5.162,3.245,3.245,0,0,1,2.177-1.782,2.647,2.647,0,0,1,.584-.048" transform="translate(-1308.375 -92.083)" fill="#483e37"/>
          <path id="Trazado_1030840" data-name="Trazado 1030840" d="M1661.725,102.453a5.167,5.167,0,0,1,3.634,1.627.065.065,0,1,1-.094.09,5.029,5.029,0,0,0-3.545-1.586,8.4,8.4,0,0,0-4.289,1.144,18.068,18.068,0,0,0-7.565,9.044.065.065,0,0,1-.12,0,.064.064,0,0,1,0-.05,18.187,18.187,0,0,1,7.623-9.109,8.53,8.53,0,0,1,4.357-1.16" transform="translate(-1479.578 -94.595)" fill="#483e37"/>
          <path id="Trazado_1030841" data-name="Trazado 1030841" d="M1636.845,134.857c2.54-.115,5.083,1.553,5.674,4.993a.065.065,0,0,1-.053.076.065.065,0,0,1-.076-.053c-.582-3.386-3.06-5-5.54-4.885s-4.963,1.95-5.544,5.525c-.7,4.31-1.087,7.5-2.076,10a.065.065,0,0,1-.121-.048c.979-2.469,1.367-5.656,2.068-9.968.59-3.625,3.126-5.519,5.667-5.634" transform="translate(-1455.14 -124.515)" fill="#483e37"/>
          <path id="Trazado_1030842" data-name="Trazado 1030842" d="M1675.809,166.481a.065.065,0,0,1,0,.13,5.935,5.935,0,0,0-5.643,3.743c-1.049,2.144-1.545,4.893-2.34,7.335a.065.065,0,0,1-.124-.04c.79-2.429,1.285-5.182,2.346-7.352a6.087,6.087,0,0,1,5.757-3.816" transform="translate(-1491.453 -153.72)" fill="#483e37"/>
          <path id="Trazado_1030843" data-name="Trazado 1030843" d="M1734.5,234.081a.064.064,0,0,1,.039.014.065.065,0,0,1,.012.091,13.656,13.656,0,0,0-2.575,5.617c-.178.778-.3,1.452-.458,1.99a1.925,1.925,0,0,1-.726,1.167,3.44,3.44,0,0,1-3.36-.112,7.392,7.392,0,0,1-1.1-.674.067.067,0,0,1,.1-.091,7.239,7.239,0,0,0,1.059.648,3.312,3.312,0,0,0,3.235.119,1.811,1.811,0,0,0,.669-1.094c.157-.526.276-1.2.456-1.982a13.8,13.8,0,0,1,2.6-5.667.065.065,0,0,1,.052-.025" transform="translate(-1554.631 -216.138)" fill="#483e37"/>
          <path id="Trazado_1030844" data-name="Trazado 1030844" d="M1762.976,143.117a.065.065,0,0,1,.041.117c-2.559,1.937-3.312,5.155-3.854,7.829a18.051,18.051,0,0,1-.861,3.374,2.236,2.236,0,0,1-.711.958,1.442,1.442,0,0,1-1.112.211.065.065,0,0,1-.027-.117.066.066,0,0,1,.049-.011,1.3,1.3,0,0,0,1.015-.189,2.119,2.119,0,0,0,.666-.9,18.142,18.142,0,0,0,.853-3.347c.543-2.677,1.3-5.936,3.9-7.907a.065.065,0,0,1,.037-.013" transform="translate(-1585.421 -132.147)" fill="#483e37"/>
          <path id="Trazado_1030845" data-name="Trazado 1030845" d="M1653.8,58.879a3.486,3.486,0,0,1,3.59,2.969l-.127.032a3.342,3.342,0,0,0-3.455-2.87,4.649,4.649,0,0,0-3.85,3.121l-.121-.048a4.778,4.778,0,0,1,3.963-3.2" transform="translate(-1471.603 -54.36)" fill="#483e37"/>
          <path id="Trazado_1030846" data-name="Trazado 1030846" d="M1540.544,416.1a.339.339,0,0,1,.341.407,8.205,8.205,0,0,0,.876,5.076,5.482,5.482,0,0,1,.667,1.865,2.259,2.259,0,0,1-.315,1.6,2.321,2.321,0,0,1-1.521.9,7.219,7.219,0,0,1-2.648-.081.339.339,0,1,1,.121-.667,6.632,6.632,0,0,0,2.394.082,1.621,1.621,0,0,0,1.095-.616,1.575,1.575,0,0,0,.2-1.13,4.876,4.876,0,0,0-.59-1.629,8.9,8.9,0,0,1-.945-5.537.339.339,0,0,1,.324-.272" transform="translate(-1348.065 -384.209)" fill="#f95"/>
          <path id="Trazado_1030847" data-name="Trazado 1030847" d="M1442.2,408.021a2.045,2.045,0,1,0-2.045,2.045,2.045,2.045,0,0,0,2.045-2.045" transform="translate(-1240.178 -374.857)" fill="#241f1c"/>
          <path id="Trazado_1030848" data-name="Trazado 1030848" d="M1420.706,365.566a9.552,9.552,0,0,1,3.406.382.509.509,0,0,1-.3.973,10.317,10.317,0,0,0-5.993.207.509.509,0,1,1-.281-.978,14.7,14.7,0,0,1,3.166-.584" transform="translate(-1220.846 -337.526)" fill="#241f1c"/>
          <path id="Trazado_1030849" data-name="Trazado 1030849" d="M1646.354,408.021a2.045,2.045,0,1,1,2.045,2.045,2.045,2.045,0,0,1-2.045-2.045" transform="translate(-1464.386 -374.857)" fill="#241f1c"/>
          <path id="Trazado_1030850" data-name="Trazado 1030850" d="M1629.183,365.566a14.7,14.7,0,0,1,3.166.584.509.509,0,0,1-.281.978,10.317,10.317,0,0,0-5.993-.207.509.509,0,0,1-.3-.973,9.552,9.552,0,0,1,3.406-.382" transform="translate(-1445.054 -337.526)" fill="#241f1c"/>
          <path id="Trazado_1030851" data-name="Trazado 1030851" d="M1526.579,571.834c-1.389,4.932-5.918,4.994-7.665,0a10.127,10.127,0,0,0,7.665,0" transform="translate(-1330.752 -528.002)" fill="#f55"/>
          <path id="Trazado_1030852" data-name="Trazado 1030852" d="M1526.579,571.835a7.931,7.931,0,0,1-.412,1.135c-1.3,1.216-5.193,1.091-6.709.106a8.468,8.468,0,0,1-.544-1.242,10.128,10.128,0,0,0,7.665,0" transform="translate(-1330.752 -528.003)" fill="#fff"/>
          <path id="Trazado_1030853" data-name="Trazado 1030853" d="M978.784,2546.177c-4.422,14.42-4.457,33.715-6.684,50.573l-66.118.031v-44.362l18.508-6.824,30.4-4.906Z" transform="translate(-735.974 -2345.939)" fill="#241c1c"/>
          <path id="Trazado_1030854" data-name="Trazado 1030854" d="M902.686,754.569l7.778,4.8c10.489,4.43,21.028,8.826,28.56,15.227a8.457,8.457,0,0,1,3.219,3.487c4.541,9.315,6.217,18.164,5.633,26.645.8,12.413,2.245,22.67,1.967,38.627.953,4.934-.51,5.974-1.609,7.6.2,4.219.3,8.229.387,12.213.009,1.8-.523,3.063-2.592,2.924l-3.428-1.01c1.16,10.8,3.223,21.608,5.052,32.413-1.676-1.355-6.5.185-10.173.662l-13.612,9.221c-8.065,7.892-18.572,9.229-29.819,8.581-1.073-6.869-2.146-12.647-3.219-17.972-2.755,8.874-1.566,12.352-3.756,19.313-7.925-1.436-11.059-3.949-15.862-9.279-.137-10.2.711-24.207.305-28.525-.279-3.18-.332-5.2-.443-7.84-.245-2.1.839-2.8.759-4.489l-5.369-35.794c-1.185,1.866-2.9,3.466-3.487,5.633.843.517,1.836.781,1.727,1.45-.211,1.3-.886,1.676-1.438,2.567a39.226,39.226,0,0,0-3.575,8.736,2.663,2.663,0,0,1-1.869.594c-4.374.366-10.965-1.976-20.394-9.024a1.153,1.153,0,0,1-.362-1.291l6.06-14.646c.095-.2.421-.206.606-.131,2.386-7.813,5.1-16.177,6.6-22.711-.5-3.839,1.188-4.761.948-8.282-.18-15.577,3.28-26.427,6.953-26.374a204.648,204.648,0,0,1,20.643-7.993,39.721,39.721,0,0,0,6.872-4.741c-7.035,17.207-2.863,23.042,2.641,24.074,7.968,1.493,18.909-8.768,14.29-24.669" transform="translate(-702.054 -696.73)" fill="#f60"/>
          <path id="Trazado_1030855" data-name="Trazado 1030855" d="M915.37,2128.628c-2.32,18.344-6.663,32.661-9.041,47.561-1.07,4.242,2.972,9.025,3.925,13.774.842,4.2-.694,8.464-1.788,12.652a30.141,30.141,0,0,0,.268,11.445c.553.576,1.351,1,.915,2.23-.354,1-4.572,1.094-6.5-2.543-2.866-5.395-4.323-10.143-3.934-13.323.038-.636-.847-.558-.939-.09-.192,4.855-1.366,9.015.089,14.753.312,2.178-2.919,1.83-3.711.581-2.363-4.094-2.678-10.763-2.1-18.553.227-4.875-2.5-5.062-6.3-3.532l.294-12.085c7.336-9.747,10.13-25.007,10.242-32.624.1-6.475-.717-13.762-.537-21.18a5.257,5.257,0,0,0,.855-1.834c5.521-3.174,11.01-2.524,16.531.608a5.22,5.22,0,0,0,1.739,2.159" transform="translate(-671.048 -1960.985)" fill="#ffb380"/>
          <path id="Trazado_1030856" data-name="Trazado 1030856" d="M974.2,3065.736a.108.108,0,0,1,.11.107c.074,6.567.034,13.188,3.349,17.64a.109.109,0,1,1-.174.13c-3.377-4.535-3.318-11.2-3.392-17.768a.108.108,0,0,1,.107-.109" transform="translate(-740.096 -2830.741)" fill="#f95"/>
          <path id="Trazado_1030857" data-name="Trazado 1030857" d="M975.1,3062.234a.108.108,0,0,1,.1.115c-.161,2.689-.033,4.4,0,6.451a.109.109,0,0,1-.184.08.11.11,0,0,1-.033-.077c-.029-2.046-.157-3.765,0-6.467a.108.108,0,0,1,.115-.1" transform="translate(-737.679 -2827.507)" fill="#f95"/>
          <path id="Trazado_1030858" data-name="Trazado 1030858" d="M963.4,3297.09s-1.407.774-2.26.4a1.182,1.182,0,0,1-.787-1.512c.35-.714,1.442-.544,2.085-.006a3.131,3.131,0,0,1,.962,1.123" transform="translate(-724.751 -3042.892)" fill="#fff"/>
          <path id="Trazado_1030859" data-name="Trazado 1030859" d="M1115.927,3290.214c-.232.575-2.108.431-2.537-.156a5.571,5.571,0,0,1,.224-1.743,1.092,1.092,0,0,1,1.933-.09,8.313,8.313,0,0,1,.38,1.99" transform="translate(-889.016 -3035.674)" fill="#fff"/>
          <path id="Trazado_1030860" data-name="Trazado 1030860" d="M873.47,2612.435c-.821,1.776-1.379,3.229-3.877,3.418.341-1.468.725-2.817,1.087-3.951,1.26-.07,2.265-.071,2.789.532" transform="translate(-627.871 -2411.666)" fill="#d45500"/>
          <path id="Trazado_1030861" data-name="Trazado 1030861" d="M1464.037,822.395c1.025,20.7-19.162,36.6-20.947,50.625.332-20.634-6.459-36.023,1.117-52.2-1.108,6.371,1.025,12.167,6.922,12.531,6.581.407,12.3-5.38,12.908-10.955" transform="translate(-1262.246 -757.901)" fill="#fff"/>
          <path id="Trazado_1030862" data-name="Trazado 1030862" d="M1665.522,1452.185a1.007,1.007,0,1,0-1.007,1.006,1.007,1.007,0,0,0,1.007-1.006" transform="translate(-1480.779 -1339.942)" fill="#fff"/>
          <path id="Trazado_1030863" data-name="Trazado 1030863" d="M1712.182,1695.887a.867.867,0,1,0-.855,1.011.943.943,0,0,0,.855-1.011" transform="translate(-1531.039 -1564.96)" fill="#fff"/>
          <path id="Trazado_1030864" data-name="Trazado 1030864" d="M1690.893,1943.182a.867.867,0,1,0-.855,1.011.943.943,0,0,0,.855-1.011" transform="translate(-1508.118 -1793.299)" fill="#fff"/>
          <path id="Trazado_1030865" data-name="Trazado 1030865" d="M1667.622,2190.477a.867.867,0,1,0-.855,1.011.943.943,0,0,0,.855-1.011" transform="translate(-1483.063 -2021.639)" fill="#fff"/>
          <path id="Trazado_1030866" data-name="Trazado 1030866" d="M1640.617,2437.772a.867.867,0,1,0-.855,1.011.943.943,0,0,0,.855-1.011" transform="translate(-1453.988 -2249.978)" fill="#fff"/>
          <path id="Trazado_1030867" data-name="Trazado 1030867" d="M877.256,1891.675c-1.363-14.99-10.041-8.9-15.245-8.092,7.038-1.09,13.575-3.662,15.245,8.092" transform="translate(-631.076 -1737.446)" fill="#d45500"/>
          <path id="Trazado_1030868" data-name="Trazado 1030868" d="M1000.8,1010.455c-11.292-4.815-21.722,30.4-17.793,36.928-2.255-8.208,6.547-38.794,17.793-36.928" transform="translate(-763.827 -932.586)" fill="#d45500"/>
          <path id="Trazado_1030869" data-name="Trazado 1030869" d="M1164.511,1465.771c-3.252-5.918-1.144-12.345-1.1-18.5-2.008-2.126-3.388-4.886-2.316-11.758-.453-3.189-.615-6.294.539-9.031-1.615,2.474-1.18,5.259-.954,9-.873,7.96.593,10.131,2.25,11.918.348,3.959-2.578,12.189,1.582,18.366" transform="translate(-941.204 -1317.144)" fill="#d45500"/>
          <path id="Trazado_1030870" data-name="Trazado 1030870" d="M1112.4,1329.669a26.692,26.692,0,0,0-7.759,14.367,43.157,43.157,0,0,1,7.759-14.367" transform="translate(-884.817 -1227.747)" fill="#d45500"/>
          <path id="Trazado_1030871" data-name="Trazado 1030871" d="M1152.023,1441.214c-1.573,2.675-2.307,6.232-4.718,8.025,2.3-2.6,2.994-5.42,4.718-8.025" transform="translate(-927.712 -1330.742)" fill="#d45500"/>
          <path id="Trazado_1030872" data-name="Trazado 1030872" d="M1078.814,1910.336c-2.53.781-6.548.644-6.775,2.2.8-1.228,4.458-.456,6.775-2.2" transform="translate(-848.733 -1763.905)" fill="#d45500"/>
          <path id="Trazado_1030873" data-name="Trazado 1030873" d="M978.644,1964.628a31.645,31.645,0,0,0-13.214,4.11c3.669-2.332,7.4-4.583,13.214-4.11" transform="translate(-740.391 -1813.976)" fill="#d45500"/>
          <path id="Trazado_1030874" data-name="Trazado 1030874" d="M1047.5,1996.316a15.388,15.388,0,0,1-7.6,4.56,53.438,53.438,0,0,0,7.6-4.56" transform="translate(-814.956 -1843.294)" fill="#d45500"/>
          <path id="Trazado_1030875" data-name="Trazado 1030875" d="M1021.891,1354.165c.551,9.9-1.421,17.185-7.064,20.655,5.054-4.044,6.5-11.884,7.064-20.655" transform="translate(-787.513 -1250.365)" fill="#d45500"/>
          <path id="Trazado_1030876" data-name="Trazado 1030876" d="M1135.463,1941.783a20.429,20.429,0,0,0,.168,5.365,3.061,3.061,0,0,0,.067,2.258c-.355,6.245-.389,11.71,1.587,12.294-2.035,0-2.54-3.735-2.028-12.2-.076-.743-.6-1.388-.005-2.393-.408-2.613-.223-4.351.212-5.32" transform="translate(-912.027 -1792.941)" fill="#d45500"/>
          <path id="Trazado_1030877" data-name="Trazado 1030877" d="M1352.178,1086.386a15.825,15.825,0,0,0-10.207-2.636c1.31,3.829-1.459,4.026-4.129,4.648-2.2.517-1.706,2.189-1.943,3.765-3.518,5.128-8.167,11.178-10.913,15.843,8.618-5.621,15.887-20.041,27.192-21.62" transform="translate(-1141.486 -1000.602)" fill="#d45500"/>
          <path id="Trazado_1030878" data-name="Trazado 1030878" d="M1317.475,817.229c.863,7.4,4.4,16.763,2.087,22.255,1.474-6.967-1.949-14.825-2.087-22.255" transform="translate(-1109.065 -754.587)" fill="#d45500"/>
          <path id="Trazado_1030879" data-name="Trazado 1030879" d="M1435.616,871.595c-.3,5.363,1.522,9.971-1.585,16.338,1.786-7.124,1.282-11.116,1.585-16.338" transform="translate(-1233.546 -804.785)" fill="#d45500"/>
          <path id="Trazado_1030880" data-name="Trazado 1030880" d="M1610.9,1501.839c2.8,28.377,7.249,53.113,7.932,86.142-1.607-28.844-7.55-60.989-7.932-86.142" transform="translate(-1430.052 -1386.72)" fill="#d45500"/>
          <path id="Trazado_1030881" data-name="Trazado 1030881" d="M1683.8,2282.1c5.482.4,8.922,5.016,12.7,8.941-4.015-3.511-7.679-7.881-12.7-8.941" transform="translate(-1513.31 -2107.177)" fill="#d45500"/>
          <path id="Trazado_1030882" data-name="Trazado 1030882" d="M1930.023,928.457c-4.741,11.706,5.2,48.067,8.226,63.479-3.3-20.361-11.151-50.433-8.226-63.479" transform="translate(-1773.838 -857.289)" fill="#d45500"/>
          <path id="Trazado_1030883" data-name="Trazado 1030883" d="M1993.5,1688.62c-7.323-1.064-14.353-4.132-19.245-11.744,2.109,6.707,11.974,11.6,19.245,11.744" transform="translate(-1832.577 -1548.34)" fill="#d45500"/>
          <path id="Trazado_1030884" data-name="Trazado 1030884" d="M2031.122,1119.7c-.6,5.516-1.466,11.065,4.57,15.762-2.9-2.807-5.631-5.931-4.57-15.762" transform="translate(-1879.094 -1033.874)" fill="#d45500"/>
          <path id="Trazado_1030885" data-name="Trazado 1030885" d="M2045.214,1081.175c-2.967,6.245-2.453,13.041,4.173,20.8-3.5-5.713-7.969-10.87-4.173-20.8" transform="translate(-1893.769 -998.301)" fill="#d45500"/>
          <path id="Trazado_1030886" data-name="Trazado 1030886" d="M2106.215,1380.588c-.058,5.24-.425,10.513,2.529,15.427-2.079-5.357-2.352-10.4-2.529-15.427" transform="translate(-1957.931 -1274.763)" fill="#d45500"/>
          <path id="Trazado_1030887" data-name="Trazado 1030887" d="M2026.162,1296.456c1.378,6.929,3.891,12.46,7.461,16.692a60.038,60.038,0,0,1-7.461-16.692" transform="translate(-1876.677 -1197.08)" fill="#d45500"/>
          <path id="Trazado_1030888" data-name="Trazado 1030888" d="M1952.875,1689.822c-2.973,2.856-5.862,5.75-7.2,9.366a80.882,80.882,0,0,1,7.2-9.366" transform="translate(-1789.76 -1560.293)" fill="#d45500"/>
          <path id="Trazado_1030889" data-name="Trazado 1030889" d="M1952.606,1773.225c-1.924,1.513-3.554,3.627-6.346,3.365,2.552-.248,4.342-2.021,6.346-3.365" transform="translate(-1789.536 -1637.303)" fill="#d45500"/>
          <path id="Trazado_1030890" data-name="Trazado 1030890" d="M1733.435,1043.935c-1.325-7.86-3.032-16.62-8.565-20.923-2.106-1.638-2.806-3.372-4.268-5.815a14.365,14.365,0,0,0,3.939,6.5c6.349,6.078,6.733,13.153,8.893,20.237" transform="translate(-1553.067 -939.227)" fill="#d45500"/>
          <path id="Trazado_1030891" data-name="Trazado 1030891" d="M1776.06,824.187c-2.65,4.847-7.09,10.073-9.294,14.795-.052-3.03,4.8-10.138,9.294-14.795" transform="translate(-1599.231 -761.011)" fill="#d45500"/>
          <path id="Trazado_1030892" data-name="Trazado 1030892" d="M1736.938,1033.387c1.888,3.778,1.844,9.107,2.84,13.777-.633-4.951-.315-10.5-2.84-13.777" transform="translate(-1560.663 -954.176)" fill="#d45500"/>
          <path id="Trazado_1030893" data-name="Trazado 1030893" d="M1735.833,899.558c-1.825,3.372-3.154,6.774-3.179,10.258-.5-2.692.291-5.986,3.179-10.258" transform="translate(-1556.379 -830.605)" fill="#d45500"/>
          <path id="Trazado_1030894" data-name="Trazado 1030894" d="M2433.387,1942.074l4,13.331-10.749,19.609L2413.82,1959.1l2.648-17.027Z" transform="translate(-2310.16 -1793.21)" fill="#ffb380"/>
          <path id="Trazado_1030895" data-name="Trazado 1030895" d="M2324.457,1374.724v13.733h.1a5.045,5.045,0,1,1,0,10.09h-.1v3.224a14.97,14.97,0,0,1-9.147,13.825l1.853,10.483c-6.492,3.21-13.151,2.612-19.9,0l2.053-10.5a14.97,14.97,0,0,1-9.11-13.809v-3.255a5.045,5.045,0,1,1,0-10.026v-13.764h34.247Z" transform="translate(-2192.463 -1269.348)" fill="#ffb380"/>
          <path id="Trazado_1030896" data-name="Trazado 1030896" d="M2486.084,1907.776c-5.539,1.7-10.919,1.908-16.077,0,5.984,3.272,11.164,2.339,16.077,0" transform="translate(-2363.16 -1761.541)" fill="#f95"/>
          <path id="Trazado_1030897" data-name="Trazado 1030897" d="M2549.753,1593.986a.34.34,0,0,1,.342.407,8.2,8.2,0,0,0,.875,5.076,5.482,5.482,0,0,1,.667,1.865,2.258,2.258,0,0,1-.315,1.6,2.321,2.321,0,0,1-1.521.9,7.228,7.228,0,0,1-2.648-.081.339.339,0,0,1,.121-.667,6.635,6.635,0,0,0,2.395.082,1.622,1.622,0,0,0,1.094-.616,1.575,1.575,0,0,0,.2-1.13,4.872,4.872,0,0,0-.59-1.629,8.906,8.906,0,0,1-.946-5.537.34.34,0,0,1,.324-.272" transform="translate(-2434.633 -1471.804)" fill="#f95"/>
          <path id="Trazado_1030898" data-name="Trazado 1030898" d="M2451.408,1585.9a2.045,2.045,0,1,0-2.045,2.045,2.045,2.045,0,0,0,2.045-2.045" transform="translate(-2326.745 -1462.453)" fill="#241f1c"/>
          <path id="Trazado_1030899" data-name="Trazado 1030899" d="M2429.916,1543.449a9.555,9.555,0,0,1,3.406.382.509.509,0,1,1-.3.973,10.318,10.318,0,0,0-5.993.207.509.509,0,1,1-.281-.978,14.7,14.7,0,0,1,3.166-.584" transform="translate(-2307.415 -1425.122)" fill="#241f1c"/>
          <path id="Trazado_1030900" data-name="Trazado 1030900" d="M2655.563,1585.9a2.045,2.045,0,1,1,2.045,2.045,2.045,2.045,0,0,1-2.045-2.045" transform="translate(-2550.953 -1462.453)" fill="#241f1c"/>
          <path id="Trazado_1030901" data-name="Trazado 1030901" d="M2638.393,1543.449a14.7,14.7,0,0,1,3.166.584.509.509,0,1,1-.281.978,10.318,10.318,0,0,0-5.993-.207.509.509,0,0,1-.3-.973,9.556,9.556,0,0,1,3.406-.382" transform="translate(-2531.622 -1425.122)" fill="#241f1c"/>
          <path id="Trazado_1030902" data-name="Trazado 1030902" d="M2535.788,1749.717c-1.389,4.932-5.918,4.994-7.665,0a10.128,10.128,0,0,0,7.665,0" transform="translate(-2417.319 -1615.598)" fill="#f55"/>
          <path id="Trazado_1030903" data-name="Trazado 1030903" d="M2535.788,1749.717a7.925,7.925,0,0,1-.412,1.136c-1.3,1.216-5.192,1.091-6.709.106a8.483,8.483,0,0,1-.544-1.242,10.128,10.128,0,0,0,7.665,0" transform="translate(-2417.319 -1615.598)" fill="#fff"/>
          <path id="Trazado_1030904" data-name="Trazado 1030904" d="M2313.7,1188.74c6.3.022,12.865,2.068,16.972,5.738a10.7,10.7,0,0,1,3.323,3.267,8.565,8.565,0,0,1,.27,9c-.024.079-.048.159-.074.238-.154,4.3.646,6.126-.266,10.677-2.443-.746-3.663,1.389-3.867,5.3-.323-2.618.64-7.531-.14-9.739-.322-.969-.437-.7-.369-1.858.163-3.295-.589-4.862-2.286-6.1a2.311,2.311,0,0,0-.7-.428,14.678,14.678,0,0,1-2.483,1.238,18.631,18.631,0,0,1-7.5,1.163c-5.012.467-10.335-.185-14.344-2.168-.983-.487-1.249-.624-2.073.172-1.4,1.5-2.137,2.609-2.086,6.124a3.214,3.214,0,0,1-.541,1.858c-1.128,2.341.177,5.322-.2,9.74-.181-2.322-.683-6.2-3.817-5.534a47.379,47.379,0,0,1-.443-11.41c-.065-4.89.894-7.291,1.985-8.456a3.048,3.048,0,0,1,2.331-1.037,10.288,10.288,0,0,1,.506-1.114,11.135,11.135,0,0,1,2.826-3.432c2.106-1.717,5.393-3.174,10.5-3.223.365,0,.742,0,1.126.012q.671-.029,1.348-.027m-3.382.19c-4.558.2-7.542,1.574-9.493,3.165a10.975,10.975,0,0,0-2.787,3.385c-.054.1-.1.2-.15.3,2.41-4.024,7.138-6.219,12.43-6.846m21.077,6.236a11.056,11.056,0,0,1,3.081,10.8,8.324,8.324,0,0,0-.61-8.141,10.456,10.456,0,0,0-2.471-2.661m-34.34,1.516a2.949,2.949,0,0,0-1.877.982c-.932.995-1.79,2.968-1.928,6.8.549-4.17,1.793-7.384,3.8-7.78m28.233,8.385a26.868,26.868,0,0,1-7.454,2.026,17.98,17.98,0,0,0,6.19-1.164,14.638,14.638,0,0,0,2.325-1.141c-.431-.095-.622.091-1.06.279" transform="translate(-2198.909 -1097.621)" fill="#241c1c"/>
          <path id="Trazado_1030905" data-name="Trazado 1030905" d="M2746.146,1292.631a.051.051,0,0,1,.051.048,9.729,9.729,0,0,0,1.767,4.751,6.43,6.43,0,0,0,1.394,1.478.054.054,0,0,1-.062.09,6.581,6.581,0,0,1-1.421-1.5,9.846,9.846,0,0,1-1.787-4.8.055.055,0,0,1,.048-.06h.009" transform="translate(-2647.62 -1193.548)" fill="#483737"/>
          <path id="Trazado_1030906" data-name="Trazado 1030906" d="M2315.367,1335.079a.054.054,0,0,1,.052.053.053.053,0,0,1-.015.039,12.283,12.283,0,0,1-6.6,3.236.053.053,0,0,1-.04-.011.054.054,0,0,1-.021-.036.057.057,0,0,1,.011-.04.055.055,0,0,1,.036-.021,12.2,12.2,0,0,0,6.531-3.2.055.055,0,0,1,.041-.017" transform="translate(-2180.135 -1232.742)" fill="#483737"/>
          <path id="Trazado_1030907" data-name="Trazado 1030907" d="M2314.953,1391.937a.055.055,0,0,1,.037.012,10.864,10.864,0,0,0,4.048,2.165,5.46,5.46,0,0,0,1.656.223.055.055,0,0,1,.04.013.054.054,0,0,1-.031.1,5.593,5.593,0,0,1-1.692-.226,10.976,10.976,0,0,1-4.088-2.186.055.055,0,0,1,.032-.1" transform="translate(-2185.939 -1285.242)" fill="#483737"/>
          <path id="Trazado_1030908" data-name="Trazado 1030908" d="M2387.769,1286.142a.058.058,0,0,1,.021,0,.054.054,0,0,1,.03.029.055.055,0,0,1,0,.042,14.962,14.962,0,0,1-3.4,5.544,8.324,8.324,0,0,1-5.368,2.354.054.054,0,0,1-.04-.013.054.054,0,0,1-.005-.077.054.054,0,0,1,.037-.018,8.205,8.205,0,0,0,5.3-2.323,14.862,14.862,0,0,0,3.373-5.505.055.055,0,0,1,.049-.035" transform="translate(-2257.925 -1187.557)" fill="#483737"/>
          <path id="Trazado_1030909" data-name="Trazado 1030909" d="M2415.926,1247.477a.052.052,0,0,1,.039.015.055.055,0,0,1,.017.038,9.963,9.963,0,0,1-3.126,7.3,15.01,15.01,0,0,1-6.539,3.782.054.054,0,0,1-.042-.005.053.053,0,0,1-.025-.033.054.054,0,0,1,.038-.066,14.91,14.91,0,0,0,6.491-3.754,9.849,9.849,0,0,0,3.094-7.216.055.055,0,0,1,.053-.055" transform="translate(-2288.173 -1151.855)" fill="#483737"/>
          <path id="Trazado_1030910" data-name="Trazado 1030910" d="M2622.3,1213.471a.054.054,0,0,1,.024.1,22.13,22.13,0,0,0-5.546,3.5,8.945,8.945,0,0,0-2.734,3.961,5.779,5.779,0,0,0,1,5.068.054.054,0,0,1-.054.084.056.056,0,0,1-.035-.023,5.9,5.9,0,0,1-1.013-5.16A9.041,9.041,0,0,1,2616.7,1217a22.206,22.206,0,0,1,5.578-3.521l.018,0" transform="translate(-2510.449 -1120.456)" fill="#483737"/>
          <path id="Trazado_1030911" data-name="Trazado 1030911" d="M2500.445,1214.119a.055.055,0,0,1,.042.022.056.056,0,0,1,.01.04.055.055,0,0,1-.022.036c-2.217,1.632-5.924,3.141-8.383,5.323a6.837,6.837,0,0,0-2.414,3.868,7.715,7.715,0,0,0,1.479,5.481.054.054,0,0,1-.092.058,7.825,7.825,0,0,1-1.5-5.558,6.95,6.95,0,0,1,2.449-3.93c2.481-2.2,6.194-3.714,8.39-5.33a.055.055,0,0,1,.035-.01" transform="translate(-2379.067 -1121.054)" fill="#483737"/>
          <path id="Trazado_1030912" data-name="Trazado 1030912" d="M2567.964,1209.391a.054.054,0,0,1,.055.068.053.053,0,0,1-.025.034,34.294,34.294,0,0,0-6.107,4.84,11.8,11.8,0,0,0-2.968,4.55,4.409,4.409,0,0,0,1.2,4.627.054.054,0,1,1-.077.076,4.533,4.533,0,0,1-1.231-4.734,11.881,11.881,0,0,1,2.994-4.595,34.32,34.32,0,0,1,6.129-4.857.053.053,0,0,1,.025-.008" transform="translate(-2451.888 -1116.689)" fill="#483737"/>
          <path id="Trazado_1030913" data-name="Trazado 1030913" d="M2428.462,1234.449a.053.053,0,0,1,.021,0,.054.054,0,0,1,.028.072c-.942,2.155-3.326,3.825-5.589,5.669s-4.405,3.857-4.9,6.675a.054.054,0,0,1-.107-.019c.5-2.862,2.667-4.893,4.934-6.74s4.634-3.516,5.558-5.629a.055.055,0,0,1,.051-.032" transform="translate(-2301.599 -1139.826)" fill="#483737"/>
          <path id="Trazado_1030914" data-name="Trazado 1030914" d="M2441.833,1223.873a.054.054,0,0,1,.046.073.055.055,0,0,1-.028.03,34.63,34.63,0,0,0-6.335,3.911,17.589,17.589,0,0,0-4.032,4.285,7.208,7.208,0,0,0-1.165,5.287.055.055,0,0,1-.043.064.054.054,0,0,1-.064-.043,7.321,7.321,0,0,1,1.179-5.365,17.672,17.672,0,0,1,4.058-4.313,34.7,34.7,0,0,1,6.357-3.925.053.053,0,0,1,.027,0" transform="translate(-2315.899 -1130.06)" fill="#483737"/>
          <path id="Trazado_1030915" data-name="Trazado 1030915" d="M2772.522,1328.956a.055.055,0,0,1,.055.054,4.956,4.956,0,0,0,2.6,4.356.055.055,0,0,1,.025.073.054.054,0,0,1-.073.025,5.083,5.083,0,0,1-2.662-4.453.055.055,0,0,1,.054-.054" transform="translate(-2675.467 -1227.089)" fill="#483737"/>
          <path id="Trazado_1030916" data-name="Trazado 1030916" d="M1851.932,1942.074c-1.2,13.715,4.534,20.177,9.794,28.7,5.788-8.8,10.071-17.873,7.126-28.7l7.881,5.857c9.631,4.414,20.389,6.8,31.067,13.9,2.387.705,4.483,4.606,6.393,10.551,1.91,2.188.4,3.118.313,5.5-.733,8.014.2,15.385.447,23.024.894,2.15,1.986,4.391,1.833,6.058.845,2.668,2.346,5.514,2.37,7.958l-24.276,2.526-14.692,24.979H1813.87c.463-3.381,2.245-6.6,3.577-9.869a6.444,6.444,0,0,1-.626-5.5c-.487-3.228-.833-5.9-1.207-8.673-2.6.048-1.859-3.494-1.341-6.8-.7-1.611-.8-4.4-.916-7.175-5.213-2.758-4.48-22.188.6-35.7,1.011-4.664,1.262-10.5,4.739-11.356,2.339-4.293,17.431-6.383,25.287-9.567Z" transform="translate(-1745.624 -1793.21)" fill="#483737"/>
          <path id="Trazado_1030917" data-name="Trazado 1030917" d="M1968.277,2199.727c-5.763-.308-9.141,5.476-10.352,16.8,1.158-5.012,3.273-15.525,10.352-16.8" transform="translate(-1806.101 -2031.102)" fill="#241c1c"/>
          <path id="Trazado_1030918" data-name="Trazado 1030918" d="M1886.86,2337.513c-.944,6.93-6.826,9.1-12.339,11.624,5.035-2.8,10.248-5.391,12.339-11.624" transform="translate(-1718.291 -2158.337)" fill="#241c1c"/>
          <path id="Trazado_1030919" data-name="Trazado 1030919" d="M1874.236,2396.129a13.612,13.612,0,0,1-4.381,5.477c1.786-.3,3.546-2.609,4.381-5.477" transform="translate(-1705.31 -2212.46)" fill="#241c1c"/>
          <path id="Trazado_1030920" data-name="Trazado 1030920" d="M1873.905,2586.3c-2.5-4.011-3.4-9.62-9.3-10.238,4.812,1.34,6.566,6.382,9.3,10.238" transform="translate(-1704.576 -2378.6)" fill="#241c1c"/>
          <path id="Trazado_1030921" data-name="Trazado 1030921" d="M1848.472,2700.6c-2.854-1.5-5.534-4.278-7.779-7.31Z" transform="translate(-1677.31 -2486.845)" fill="#241c1c"/>
          <path id="Trazado_1030922" data-name="Trazado 1030922" d="M2348.488,2018.479a40.778,40.778,0,0,1-1.413,24.508c1.566-7.324,2.044-13.105,1.413-24.508" transform="translate(-2217.379 -1863.758)" fill="#241c1c"/>
          <path id="Trazado_1030923" data-name="Trazado 1030923" d="M2747.053,2016.729c3.217,7.838,2.091,17.9,3.326,26.735-2.622-7.577-1.44-18.39-3.326-26.735" transform="translate(-2648.691 -1862.142)" fill="#241c1c"/>
          <path id="Trazado_1030924" data-name="Trazado 1030924" d="M2406.129,2266.474c-3.056-2.26-4.048-3.091-6.606-5.123-.937,2.1-3.482,3.562-5.861,4.405a18.21,18.21,0,0,0,.169,4.062c3.5-2.726,7.37-4.474,12.3-3.344" transform="translate(-2277.35 -2088.014)" fill="#241c1c"/>
          <path id="Trazado_1030925" data-name="Trazado 1030925" d="M2556.738,2290.64c2.373-2.3,5.257-4.861,8.7-6.215,1.307,1.822,3.84,2.977,5.5,2.654a45.226,45.226,0,0,1,.386,7.057c-3.273-6.877-6.9-9.223-14.586-3.5" transform="translate(-2455.051 -2109.319)" fill="#241c1c"/>
          <path id="Trazado_1030926" data-name="Trazado 1030926" d="M2501.458,2411.114c2.94,9.631,6.313,37.637,2.614,51.884,2.383-14.048-.6-40.473-2.614-51.884" transform="translate(-2385.184 -2226.297)" fill="#241c1c"/>
          <path id="Trazado_1030927" data-name="Trazado 1030927" d="M2487.822,2301.848a1.007,1.007,0,1,0-1.007,1.006,1.007,1.007,0,0,0,1.007-1.006" transform="translate(-2366.11 -2124.477)" fill="#fff"/>
          <path id="Trazado_1030928" data-name="Trazado 1030928" d="M2565.04,2446.5a.867.867,0,1,0-.855,1.011.943.943,0,0,0,.855-1.011" transform="translate(-2449.269 -2258.033)" fill="#fff"/>
          <path id="Trazado_1030929" data-name="Trazado 1030929" d="M2535.8,2693.791a.867.867,0,1,0-.855,1.011.943.943,0,0,0,.855-1.011" transform="translate(-2417.784 -2486.373)" fill="#fff"/>
          <path id="Trazado_1030930" data-name="Trazado 1030930" d="M2526.541,2941.087a.867.867,0,1,0-.855,1.011.942.942,0,0,0,.855-1.011" transform="translate(-2407.82 -2714.713)" fill="#fff"/>
          <path id="Trazado_1030931" data-name="Trazado 1030931" d="M2296.183,3003.723c13.679,4.743,27.4,8.86,41.41,7.9l-6.036,11.708c-11.053-.21-22.368.389-34.774.379-17.811.08-16.539-1.068-22.74-11.5,7.523-2.254,14.09-8.045,22.14-8.494" transform="translate(-2199.648 -2773.481)" fill="#ffb380"/>
          <path id="Trazado_1030932" data-name="Trazado 1030932" d="M1892.246,2283.539c-4.822-6.669-9.643-11.074-14.465-29.017a13.339,13.339,0,0,0-1.755-3.914c-4.153-6.444-10.018-11.918-15.044-17.866-.9-1.187-2.2-1.106-3.572-.759-9.548,1.638-14.91,6.5-18.276,12.888-.833,1.69,1.131,3.223,2.906,2.012,2.043-1.252,3.819-3.875,6.035-5.32-2.371,3.071-4.877,6.117-5.946,9.433-.325,1.5.5,2.967,2.435,2.6,1.059-.4,1.582-1.786,2.415-2.749-.018,1.434-.349,3.237,1.811,3.387,1.426.1,1.791-1.852,2.615-2.884.916-.827,1.832-1.758,2.748-2.711l.269.443c-.834,1.407-3.059,2.7-1.743,4.5.654.9,1.654,1.452,3.174.178l2.789-2.611c1.621.323,4.363.346,5.058,1.533,1.549,2.647,2.561,3.721,4.268,4.363,3.029,7.9,2.136,19.009,1.581,29.842Z" transform="translate(-1720.95 -2060.688)" fill="#ffb380"/>
          <path id="Trazado_1030933" data-name="Trazado 1030933" d="M2310.34,2299.268a.109.109,0,0,1,.049.205c-2.808,1.427-6.184,2.164-8.318,4.264a.109.109,0,0,1-.152-.155c2.2-2.163,5.6-2.894,8.372-4.3a.107.107,0,0,1,.05-.012" transform="translate(-2174.638 -2123.024)" fill="#f95"/>
          <path id="Trazado_1030934" data-name="Trazado 1030934" d="M2288.883,2348.343a.109.109,0,0,1,.058.2c-2.121,1.394-4.63,2.082-6.505,3.308a7.632,7.632,0,0,0-1.086,1.021c-.463.5-1,1.122-1.516,1.779a16.448,16.448,0,0,0-2.329,3.6.109.109,0,0,1-.056.062.111.111,0,0,1-.083,0,.109.109,0,0,1-.067-.138,16.231,16.231,0,0,1,2.364-3.667c.524-.661,1.06-1.289,1.528-1.792a7.47,7.47,0,0,1,1.127-1.054c1.918-1.254,4.423-1.94,6.5-3.309a.11.11,0,0,1,.061-.018" transform="translate(-2151.294 -2168.337)" fill="#f95"/>
          <path id="Trazado_1030935" data-name="Trazado 1030935" d="M2240.214,2404.454c1.761-1.609,4.769-2.686,7.333-3.951-2.421,1.438-5.319,2.692-7.065,4.393Z" transform="translate(-2107.01 -2216.5)" fill="#f95"/>
          <path id="Trazado_1030936" data-name="Trazado 1030936" d="M2211.106,2461.76a.109.109,0,0,1,.023.216,19.628,19.628,0,0,0-5.182,1.573.109.109,0,0,1-.148-.135.11.11,0,0,1,.056-.061,19.876,19.876,0,0,1,5.238-1.591h.013" transform="translate(-2068.044 -2273.061)" fill="#f95"/>
          <path id="Trazado_1030937" data-name="Trazado 1030937" d="M2494.261,2390.448s.924-1.38,1.52-1.576a1.134,1.134,0,0,1,1.352,1.375,7.852,7.852,0,0,1-1.185,1.677c-.685.111-1.534-.659-1.687-1.475" transform="translate(-2376.121 -2205.718)" fill="#fff"/>
          <path id="Trazado_1030938" data-name="Trazado 1030938" d="M2459.31,2479.346a3.216,3.216,0,0,1,.648-1.073c.749-.514,1.92.618,1.755,1.5a3.312,3.312,0,0,1-.737,1.218,2.146,2.146,0,0,1-1.666-1.643" transform="translate(-2337.985 -2288.189)" fill="#fff"/>
          <path id="Trazado_1030939" data-name="Trazado 1030939" d="M2410.051,2496.265a1.763,1.763,0,0,0,.235-.738,10.243,10.243,0,0,0-1.419-1.375c-.173-.171-.156.76-.156.76.113.541.573,1.364,1.341,1.352" transform="translate(-2282.668 -2302.951)" fill="#fff"/>
          <path id="Trazado_1030940" data-name="Trazado 1030940" d="M2836.216,2141.543c18.016,10.889,23.021,25.592,21.531,42.2-.234-23.4-10.738-32.992-21.531-42.2" transform="translate(-2763.141 -1977.389)" fill="#241c1c"/>
          <path id="Trazado_1030941" data-name="Trazado 1030941" d="M2777.182,2692.069c.854.476,1.585.695,2.067,1.6s2.4,5.3,2.135,8.035c-.159,1.654-2.462,6.133-3.71,6.411.948.682,3.248-2.15,4.151-5.89.7-2.894-1.63-7.994-2.123-8.822s-1.508-1.011-2.52-1.338" transform="translate(-2682.576 -2485.716)" fill="#241c1c"/>
          <path id="Trazado_1030942" data-name="Trazado 1030942" d="M2839.444,2466.065a103.034,103.034,0,0,0,18.967,17.324c-8.765-5.251-14.921-11.061-18.967-17.324" transform="translate(-2763.806 -2277.035)" fill="#241c1c"/>
          <path id="Trazado_1030943" data-name="Trazado 1030943" d="M3188.315,2702.361l.291-4.4-2.369,1.7a5.357,5.357,0,0,0,2.079,2.7" transform="translate(-3120.582 -2491.153)" fill="#241c1c"/>
          <path id="Trazado_1030944" data-name="Trazado 1030944" d="M2895.1,2675.064c-10.086-8.7-19.337-12.336-26.735-4.739,11.235-8.447,18.507.208,26.735,4.739" transform="translate(-2802.715 -2461.822)" fill="#241c1c"/>
          <path id="Trazado_1030945" data-name="Trazado 1030945" d="M2812.633,2901.453c-1.314,3.343,1.035,5.551,1.579,7.612.2-2.243-1.7-3.9-1.579-7.612" transform="translate(-2717.536 -2679.05)" fill="#241c1c"/>
          <path id="Trazado_1030946" data-name="Trazado 1030946" d="M2845.423,2777.054c-4.58-3.35-8.4-7.936-13.814-9.927,5.328,3.092,9.065,7.185,13.814,9.927" transform="translate(-2750.217 -2555.021)" fill="#241c1c"/>
          <path id="Trazado_1030947" data-name="Trazado 1030947" d="M3162.228,2923.633c-.4-.612-.66-1.467-1.655-1.06a1.578,1.578,0,0,0,1.655,1.06" transform="translate(-3092.238 -2698.454)" fill="#241c1c"/>
          <path id="Trazado_1030948" data-name="Trazado 1030948" d="M2934.965,2863.016c-7.088,1.394-17.981.309-20.521,4.663,3.354-3.065,13.674-3.112,20.521-4.663" transform="translate(-2846.109 -2643.559)" fill="#241c1c"/>
          <path id="Trazado_1030949" data-name="Trazado 1030949" d="M2814.272,3011.564c7.715-1.472,16.88-10.27,24.712-9.109-7.695.43-18.669,9.949-24.712,9.109" transform="translate(-2742.449 -2772.214)" fill="#241c1c"/>
          <path id="Trazado_1030950" data-name="Trazado 1030950" d="M2425.288,3277.117l-36.7,2.548c-1.314.108-1.364,1.412-.6,1.71l28.427,9.265a1.341,1.341,0,0,0,1.713-.465Z" transform="translate(-2296.038 -3025.919)" fill="#483737"/>
          <path id="Trazado_1030951" data-name="Trazado 1030951" d="M2476.477,3311.282l30.306,9.705-.4.733a1.341,1.341,0,0,1-1.714.466l-28.426-9.265a.868.868,0,0,1,.236-1.639" transform="translate(-2384.299 -3057.465)" fill="#241c1c"/>
          <path id="Trazado_1030952" data-name="Trazado 1030952" d="M1246.02,2837.176c.473-.71.307-1.566-.55-1.573l-76.649,3.919a2.239,2.239,0,0,0-2.15,1.486l-23.425,41.507c-.375.659-.141,1.428.759,1.391l76.34-6.681c.992-.131,1.377-.791,1.833-1.431Z" transform="translate(-1021.644 -2618.248)" fill="#483737"/>
          <path id="Trazado_1030953" data-name="Trazado 1030953" d="M1143.726,2883.886c-.008,0-.019,0-.027,0a.867.867,0,0,1-.244-.087.717.717,0,0,1-.184-.141.69.69,0,0,1-.123-.185.8.8,0,0,1-.063-.217.976.976,0,0,1,0-.239,1.2,1.2,0,0,1,.054-.25,1.4,1.4,0,0,1,.112-.25l23.425-41.507a5.844,5.844,0,0,1,.4-.631,2.731,2.731,0,0,1,.21-.251,1.994,1.994,0,0,1,.23-.208,1.721,1.721,0,0,1,.26-.164,1.839,1.839,0,0,1,.3-.121,2.356,2.356,0,0,1,.348-.077,3.386,3.386,0,0,1,.406-.033l76.649-3.919a1,1,0,0,1,.289.041.747.747,0,0,1,.225.108.665.665,0,0,1,.161.165.738.738,0,0,1,.1.209.923.923,0,0,1,.036.242,1.168,1.168,0,0,1-.023.238l-77.246,3.9a1.836,1.836,0,0,0-1.581,1.138Z" transform="translate(-1021.644 -2618.248)" fill="#241c1c"/>
          <path id="Trazado_1030954" data-name="Trazado 1030954" d="M311.821,3623.511a.435.435,0,0,1,0,.869H.435a.435.435,0,1,1,0-.869Z" transform="translate(0 -3345.761)" fill="#e6e6e6"/>
          <path id="Trazado_1030955" data-name="Trazado 1030955" d="M3445.649,2341.316c.5,6.422-.077,12.229-5.432,15.321a51.109,51.109,0,0,0-.124,9.648c2.042-6.64,6.8-9.065,14.086-7.574-3.75,5.24-7.933,9.313-14.025,8.228a47.558,47.558,0,0,0,2.973,12.176c1.969-6.958,6.773-9.519,14.211-8-3.772,5.271-7.981,9.359-14.132,8.208.357.947.726,1.875,1.1,2.793,1.278,3.145,2.6,6.179,3.607,9.479,2.013-6.765,6.791-9.244,14.136-7.741-3.743,5.23-7.916,9.3-13.988,8.235a37.8,37.8,0,0,1,1.2,15.978.179.179,0,1,1-.355-.045,39.464,39.464,0,0,0,.133-9.331c-5.554,2.654-10.668-.131-15.681-4.151,6.6-3.4,11.839-2.359,15.6,3.467a45.582,45.582,0,0,0-3.126-11.2c-5.62,2.794-10.787-.006-15.852-4.067,6.625-3.414,11.871-2.353,15.634,3.521-.534-1.332-1.089-2.657-1.637-4.006a69.485,69.485,0,0,1-2.84-8.115c-5.9,2.209-10.753-1.129-15.367-5.714,7.029-2.721,12.169-1.042,15.277,5.375a44.5,44.5,0,0,1-1.466-10.526c-6.279.119-9.749-4.626-12.585-10.468,7.335-.241,11.6,2.865,12.574,9.568a55.444,55.444,0,0,1,.308-5.9c-2.9-6.542-.862-11.56,5.775-15.163" transform="translate(-3412.386 -2161.849)" fill="#483e37"/>
          <path id="Trazado_1030956" data-name="Trazado 1030956" d="M3294.972,2461.507c-.434,5.538.066,10.545,4.684,13.211a44.107,44.107,0,0,1,.107,8.32c-1.761-5.725-5.865-7.817-12.147-6.531,3.234,4.519,6.84,8.03,12.094,7.095a41,41,0,0,1-2.563,10.5c-1.7-6-5.84-8.208-12.254-6.9,3.253,4.545,6.883,8.071,12.186,7.078-.308.816-.626,1.617-.948,2.408-1.1,2.712-2.243,5.329-3.11,8.174-1.736-5.833-5.855-7.971-12.19-6.675,3.227,4.51,6.826,8.016,12.062,7.1a32.592,32.592,0,0,0-1.033,13.778.154.154,0,0,0,.306-.039,34.01,34.01,0,0,1-.115-8.046c4.789,2.289,9.2-.113,13.522-3.58-5.695-2.935-10.209-2.034-13.452,2.99a39.274,39.274,0,0,1,2.7-9.661c4.846,2.409,9.3-.005,13.669-3.507-5.712-2.944-10.236-2.029-13.481,3.036.461-1.148.939-2.291,1.412-3.454a60.042,60.042,0,0,0,2.449-7c5.089,1.905,9.272-.974,13.251-4.928-6.061-2.346-10.493-.9-13.173,4.635a38.351,38.351,0,0,0,1.264-9.077c5.414.1,8.406-3.989,10.852-9.026-6.325-.208-10,2.47-10.843,8.251a47.748,47.748,0,0,0-.265-5.084c2.5-5.641.743-9.969-4.98-13.075" transform="translate(-3251.345 -2272.827)" fill="#483e37"/>
          <path id="Trazado_1030957" data-name="Trazado 1030957" d="M3400.679,3129.453h-20.107c-2.1,0-4.124,1.717-3.787,3.788l2.7,16.625c.336,2.071,1.689,3.788,3.787,3.788h14.86c2.1,0,3.47-1.713,3.788-3.788l2.544-16.625c.317-2.074-1.689-3.788-3.787-3.788" transform="translate(-3351.08 -2889.573)" fill="#f60"/>
          <path id="Trazado_1030958" data-name="Trazado 1030958" d="M2889.793,3134.117V3151.9a1.455,1.455,0,0,1-1.458,1.458h-18.021a1.455,1.455,0,0,1-1.458-1.458v-1.5a6.894,6.894,0,0,1,0-13.421v-2.862Zm-20.938,4.841a4.988,4.988,0,0,0,0,9.462Z" transform="translate(-2797.034 -2893.88)" fill="#f9f9f9"/>
          <path id="Trazado_1030959" data-name="Trazado 1030959" d="M2863.58,3116.114c0,.816,4.686,1.478,10.466,1.478s10.466-.662,10.466-1.478c0-.392-1.1-.767-3.066-1.044a63.479,63.479,0,0,0-14.8,0c-1.963.277-3.066.653-3.066,1.044" transform="translate(-2791.757 -2875.893)" fill="#e6e6e6"/>
          <path id="Trazado_1030960" data-name="Trazado 1030960" d="M1053.995,3223.611V3241.4a1.455,1.455,0,0,0,1.458,1.458h18.022a1.455,1.455,0,0,0,1.458-1.458v-1.5a6.894,6.894,0,0,0,0-13.422v-2.861Zm20.938,4.841a4.988,4.988,0,0,1,0,9.462Z" transform="translate(-848.784 -2976.514)" fill="#f9f9f9"/>
          <path id="Trazado_1030961" data-name="Trazado 1030961" d="M1144.305,3205.607c0,.816-4.686,1.477-10.466,1.477s-10.466-.661-10.466-1.477c0-.392,1.1-.767,3.065-1.045a63.518,63.518,0,0,1,14.8,0c1.963.277,3.065.653,3.065,1.045" transform="translate(-918.159 -2958.526)" fill="#e6e6e6"/>
          <path id="Trazado_1030962" data-name="Trazado 1030962" d="M366.325,3385.065a1.23,1.23,0,0,0-1.229-1.229H317.348a1.23,1.23,0,0,0-1.229,1.229v4.882a1.229,1.229,0,0,0,1.229,1.229H365.1a1.229,1.229,0,0,0,1.229-1.229Z" transform="translate(-78.302 -3124.457)" fill="#f9f9f9"/>
          <rect id="Rectángulo_415051" data-name="Rectángulo 415051" width="7.66" height="7.34" transform="translate(273.111 259.378)" fill="#ccc"/>
          <rect id="Rectángulo_415052" data-name="Rectángulo 415052" width="2.895" height="7.34" transform="translate(267.973 259.378)" fill="#ccc"/>
          <path id="Trazado_1030963" data-name="Trazado 1030963" d="M366.325,3289.305a1.229,1.229,0,0,0-1.229-1.229H317.348a1.229,1.229,0,0,0-1.229,1.229v4.882a1.229,1.229,0,0,0,1.229,1.229H365.1a1.229,1.229,0,0,0,1.229-1.229Z" transform="translate(-78.302 -3036.038)" fill="#f2f2f2"/>
          <rect id="Rectángulo_415053" data-name="Rectángulo 415053" width="7.66" height="7.34" transform="translate(247.421 252.038)" fill="#f60"/>
          <rect id="Rectángulo_415054" data-name="Rectángulo 415054" width="2.895" height="7.34" transform="translate(242.283 252.038)" fill="#f60"/>
          <rect id="Rectángulo_415055" data-name="Rectángulo 415055" width="2.895" height="7.34" transform="translate(257.881 252.038)" fill="#f60"/>
          <path id="Trazado_1030964" data-name="Trazado 1030964" d="M316.119,3193.545a1.229,1.229,0,0,1,1.229-1.229H365.1a1.229,1.229,0,0,1,1.229,1.229v4.882a1.229,1.229,0,0,1-1.229,1.229H317.348a1.229,1.229,0,0,1-1.229-1.229Z" transform="translate(-78.302 -2947.617)" fill="#f9f9f9"/>
          <rect id="Rectángulo_415056" data-name="Rectángulo 415056" width="7.66" height="7.34" transform="translate(245.07 244.698)" fill="#ccc"/>
          <rect id="Rectángulo_415057" data-name="Rectángulo 415057" width="2.895" height="7.34" transform="translate(254.973 244.698)" fill="#ccc"/>
          <path id="Trazado_1030965" data-name="Trazado 1030965" d="M316.119,3097.785a1.229,1.229,0,0,1,1.229-1.229H365.1a1.229,1.229,0,0,1,1.229,1.229v4.882a1.229,1.229,0,0,1-1.229,1.229H317.348a1.229,1.229,0,0,1-1.229-1.229Z" transform="translate(-78.302 -2859.198)" fill="#f2f2f2"/>
          <rect id="Rectángulo_415058" data-name="Rectángulo 415058" width="7.66" height="7.34" transform="translate(270.761 237.358)" fill="#f60"/>
          <rect id="Rectángulo_415059" data-name="Rectángulo 415059" width="2.895" height="7.34" transform="translate(280.664 237.358)" fill="#f60"/>
          <rect id="Rectángulo_415060" data-name="Rectángulo 415060" width="2.895" height="7.34" transform="translate(265.066 237.358)" fill="#f60"/>
        </g>
      </g>
    </g>
  </g>
</svg>
