<svg xmlns="http://www.w3.org/2000/svg" xmlns:xlink="http://www.w3.org/1999/xlink" width="110" height="110" viewBox="0 0 110 110">
  <defs>
    <filter id="Trazado_982547" x="0" y="0" width="110" height="110" filterUnits="userSpaceOnUse">
      <feOffset dy="3" input="SourceAlpha"/>
      <feGaussianBlur stdDeviation="3" result="blur"/>
      <feFlood flood-opacity="0.161"/>
      <feComposite operator="in" in2="blur"/>
      <feComposite in="SourceGraphic"/>
    </filter>
  </defs>
  <g id="Grupo_1173934" data-name="Grupo 1173934" transform="translate(-798 -7185.89)">
    <g id="Grupo_1173210" data-name="Grupo 1173210" transform="translate(807 7191.89)">
      <g id="Grupo_1171898" data-name="Grupo 1171898" transform="translate(0 0)">
        <g id="Grupo_1164700" data-name="Grupo 1164700" transform="translate(0 0)">
          <g id="Grupo_1160931" data-name="Grupo 1160931" transform="translate(0 0)">
            <g id="Grupo_1160749" data-name="Grupo 1160749">
              <g id="Grupo_1158891" data-name="Grupo 1158891">
                <g id="Grupo_1157406" data-name="Grupo 1157406">
                  <g id="Grupo_1155793" data-name="Grupo 1155793">
                    <g id="Grupo_1154704" data-name="Grupo 1154704">
                      <g id="Grupo_1150790" data-name="Grupo 1150790">
                        <g id="Grupo_1154214" data-name="Grupo 1154214">
                          <g id="Grupo_1152583" data-name="Grupo 1152583">
                            <g id="Grupo_1146973" data-name="Grupo 1146973">
                              <g id="Grupo_1146954" data-name="Grupo 1146954">
                                <g transform="matrix(1, 0, 0, 1, -9, -6)" filter="url(#Trazado_982547)">
                                  <g id="Trazado_982547-2" data-name="Trazado 982547" transform="translate(9 6)" fill="#e9f9fd">
                                    <path d="M 46.0000114440918 90.49988555908203 C 39.99188995361328 90.49988555908203 34.16427993774414 89.32352447509766 28.6790657043457 87.00347137451172 C 23.38021087646484 84.76226043701172 18.62105178833008 81.55342864990234 14.53375816345215 77.46615600585938 C 10.44647789001465 73.37887573242188 7.237651348114014 68.61971282958984 4.996424674987793 63.32085800170898 C 2.676371335983276 57.83565902709961 1.500011444091797 52.00806045532227 1.500011444091797 45.99993896484375 C 1.500011444091797 39.99181747436523 2.676371335983276 34.16421890258789 4.996424674987793 28.67901802062988 C 7.237651348114014 23.38017845153809 10.44647789001465 18.62101936340332 14.53375816345215 14.53373908996582 C 18.62105178833008 10.44645881652832 23.38021087646484 7.237632274627686 28.6790657043457 4.996418952941895 C 34.16427993774414 2.676365613937378 39.99188995361328 1.500005602836609 46.0000114440918 1.500005602836609 C 52.00813293457031 1.500005602836609 57.83574295043945 2.676365613937378 63.32095718383789 4.996418952941895 C 68.61981201171875 7.237632274627686 73.37898254394531 10.44645881652832 77.46626281738281 14.53373908996582 C 81.55355834960938 18.62101936340332 84.76237487792969 23.38017845153809 87.00360107421875 28.67901802062988 C 89.32365417480469 34.16421890258789 90.50001525878906 39.99181747436523 90.50001525878906 45.99993896484375 C 90.50001525878906 52.00806045532227 89.32365417480469 57.83565902709961 87.00360107421875 63.32085800170898 C 84.76237487792969 68.61971282958984 81.55355834960938 73.37887573242188 77.46626281738281 77.46615600585938 C 73.37898254394531 81.55342864990234 68.61981201171875 84.76226043701172 63.32095718383789 87.00347137451172 C 57.83574295043945 89.32352447509766 52.00813293457031 90.49988555908203 46.0000114440918 90.49988555908203 Z" stroke="none"/>
                                    <path d="M 46.0000114440918 2.999992370605469 C 40.1937255859375 2.999992370605469 34.56270980834961 4.136497497558594 29.26339721679688 6.377906799316406 C 24.14334106445312 8.543510437011719 19.54442596435547 11.64437866210938 15.59441375732422 15.59439849853516 C 11.6444091796875 19.54439544677734 8.543525695800781 24.14329528808594 6.377922058105469 29.26335144042969 C 4.136512756347656 34.56266784667969 3.000007629394531 40.19366836547852 3.000007629394531 45.99993896484375 C 3.000007629394531 51.80620956420898 4.136512756347656 57.43722534179688 6.377922058105469 62.73654174804688 C 8.543525695800781 67.85658264160156 11.6444091796875 72.45548248291016 15.59441375732422 76.40549468994141 C 19.54442596435547 80.35549926757812 24.14334106445312 83.45636749267578 29.26338195800781 85.62196350097656 C 34.56270980834961 87.86338043212891 40.1937255859375 88.9998779296875 46.0000114440918 88.9998779296875 C 51.80629730224609 88.9998779296875 57.43731307983398 87.86338043212891 62.73664093017578 85.62196350097656 C 67.85668182373047 83.45636749267578 72.45559692382812 80.35549926757812 76.40560913085938 76.40549468994141 C 80.35561370849609 72.45548248291016 83.45649719238281 67.85658264160156 85.62210083007812 62.73654174804688 C 87.86351013183594 57.43722534179688 89.00001525878906 51.80620956420898 89.00001525878906 45.99993896484375 C 89.00001525878906 40.19366836547852 87.86351013183594 34.56266784667969 85.62210083007812 29.26335144042969 C 83.45649719238281 24.14329528808594 80.35561370849609 19.54439544677734 76.40560913085938 15.59439849853516 C 72.45559692382812 11.64437866210938 67.85668182373047 8.543510437011719 62.73662567138672 6.377906799316406 C 57.43731307983398 4.136497497558594 51.80629730224609 2.999992370605469 46.0000114440918 2.999992370605469 M 46.0000114440918 -7.62939453125e-06 C 71.40511322021484 -7.62939453125e-06 92.00001525878906 20.59487915039062 92.00001525878906 45.99993896484375 C 92.00001525878906 71.40501403808594 71.40511322021484 91.99988555908203 46.0000114440918 91.99988555908203 C 20.59490966796875 91.99988555908203 7.62939453125e-06 71.40501403808594 7.62939453125e-06 45.99993896484375 C 7.62939453125e-06 20.59487915039062 20.59490966796875 -7.62939453125e-06 46.0000114440918 -7.62939453125e-06 Z" stroke="none" fill="#36ceef"/>
                                  </g>
                                </g>
                              </g>
                            </g>
                          </g>
                        </g>
                      </g>
                    </g>
                  </g>
                </g>
              </g>
            </g>
          </g>
        </g>
      </g>
    </g>
    <g id="contract_11357455" transform="translate(821.996 7199.036)">
      <g id="Grupo_1173879" data-name="Grupo 1173879" transform="translate(0.5 61.626)">
        <path id="Trazado_1030768" data-name="Trazado 1030768" d="M8.415,446.73l-3.959,6.637L.5,446.73Z" transform="translate(-0.5 -446.73)" fill="#fed9a8" fill-rule="evenodd"/>
      </g>
      <g id="Grupo_1173880" data-name="Grupo 1173880" transform="translate(3.589 61.626)">
        <path id="Trazado_1030769" data-name="Trazado 1030769" d="M31.2,446.73l-2.82,4.727-1.14,1.91-.867-1.459,3.086-5.178Z" transform="translate(-26.377 -446.73)" fill="#f4c892" fill-rule="evenodd"/>
      </g>
      <g id="Grupo_1173885" data-name="Grupo 1173885" transform="translate(1.216 42.549)">
        <g id="Grupo_1173881" data-name="Grupo 1173881" transform="translate(0 0)">
          <path id="Trazado_1030770" data-name="Trazado 1030770" d="M6.5,290.9a3.958,3.958,0,0,1,7.915,0v15.121l-3.959,6.637L6.5,306.023Z" transform="translate(-6.5 -286.946)" fill="#ffb123" fill-rule="evenodd"/>
        </g>
        <g id="Grupo_1173882" data-name="Grupo 1173882" transform="translate(3.089 0)">
          <path id="Trazado_1030771" data-name="Trazado 1030771" d="M32.377,287.042a4.094,4.094,0,0,1,.866-.1A3.969,3.969,0,0,1,37.2,290.9v15.121l-3.959,6.637-.866-1.46,3.086-5.178V290.9A3.973,3.973,0,0,0,32.377,287.042Z" transform="translate(-32.377 -286.946)" fill="#ff901d" fill-rule="evenodd"/>
        </g>
        <g id="Grupo_1173883" data-name="Grupo 1173883" transform="translate(0 0)">
          <path id="Trazado_1030772" data-name="Trazado 1030772" d="M9.014,287.219A3.975,3.975,0,0,0,6.5,290.9v1.225h7.915V290.9a3.969,3.969,0,0,0-3.959-3.956,3.9,3.9,0,0,0-1.442.273Z" transform="translate(-6.5 -286.946)" fill="#ef5350" fill-rule="evenodd"/>
        </g>
        <g id="Grupo_1173884" data-name="Grupo 1173884" transform="translate(3.089)">
          <path id="Trazado_1030773" data-name="Trazado 1030773" d="M35.462,292.125H37.2V290.9a.922.922,0,0,0,0-.1.992.992,0,0,0,0-.1.929.929,0,0,0-.007-.1.961.961,0,0,0-.007-.1c0-.035-.007-.067-.011-.1s-.011-.067-.014-.1-.011-.064-.018-.1a.9.9,0,0,0-.018-.1v0l-.021-.1c-.007-.028-.014-.06-.025-.092a.946.946,0,0,0-.025-.1,2557.431,2557.431,0,0,0-.057-.185c-.011-.032-.021-.06-.032-.092s-.025-.06-.036-.089-.025-.06-.035-.089-.025-.06-.039-.089-.028-.06-.043-.089l-.043-.085-.043-.085c-.018-.028-.032-.053-.046-.082s-.035-.057-.05-.082-.035-.057-.05-.082-.035-.053-.053-.082l-.057-.078-.053-.075c-.021-.025-.039-.053-.06-.078a.58.58,0,0,0-.06-.071c-.018-.025-.039-.05-.06-.075-.043-.046-.085-.1-.128-.138-.021-.025-.043-.046-.067-.071s-.043-.043-.067-.064l-.067-.067-.071-.06-.075-.064c-.025-.018-.05-.039-.075-.06s-.05-.035-.075-.057l-.078-.057c-.025-.018-.05-.035-.078-.053l-.078-.053-.082-.05-.082-.05c-.028-.014-.057-.032-.085-.046s-.053-.028-.082-.046-.057-.028-.089-.043-.057-.025-.085-.039a1.925,1.925,0,0,0-.178-.075.92.92,0,0,0-.089-.035l-.092-.032-.092-.032c-.032-.007-.064-.018-.092-.025s-.064-.018-.1-.028l-.1-.021-.1-.021a13658.894,13658.894,0,0,0-.192-.036c-.035,0-.067-.011-.1-.014l-.1-.011-.1-.011c-.035,0-.067,0-.1,0v0a.986.986,0,0,1-.1,0h-.213l-.007,0h-.074l-.014,0h-.043a4.385,4.385,0,0,0-.618.089,3.973,3.973,0,0,1,3.086,3.86v1.225Z" transform="translate(-32.376 -286.944)" fill="#d90d17" fill-rule="evenodd"/>
        </g>
      </g>
      <g id="Grupo_1173886" data-name="Grupo 1173886" transform="translate(3.012 10.32)">
        <path id="Trazado_1030774" data-name="Trazado 1030774" d="M22.52,30.125q13.548-6.487,27.1-12.971a2.1,2.1,0,0,1,2.665,1.219Q61.5,37.634,70.727,56.9A2.094,2.094,0,0,1,70,59.738L42.908,72.71a2.092,2.092,0,0,1-2.665-1.216L21.8,32.966a2.1,2.1,0,0,1,.723-2.841Z" transform="translate(-21.54 -17)" fill="#d4c4b0" fill-rule="evenodd"/>
      </g>
      <g id="Grupo_1173889" data-name="Grupo 1173889" transform="translate(13.234 14.583)">
        <g id="Grupo_1173887" data-name="Grupo 1173887" transform="translate(0 0)">
          <path id="Trazado_1030775" data-name="Trazado 1030775" d="M109.087,52.7h24.031l8.815,8.815V96.58A1.94,1.94,0,0,1,140,98.512H109.087a1.938,1.938,0,0,1-1.932-1.932V54.633a1.938,1.938,0,0,1,1.932-1.932Z" transform="translate(-107.155 -52.701)" fill="#fdf6ec" fill-rule="evenodd"/>
        </g>
        <g id="Grupo_1173888" data-name="Grupo 1173888" transform="translate(25.963 0)">
          <path id="Trazado_1030776" data-name="Trazado 1030776" d="M333.434,61.516h-8.815V52.7Z" transform="translate(-324.619 -52.701)" fill="#d4c4b0" fill-rule="evenodd"/>
        </g>
      </g>
      <g id="Grupo_1173894" data-name="Grupo 1173894" transform="translate(24.683 27.847)">
        <g id="Grupo_1173890" data-name="Grupo 1173890" transform="translate(4.037 2.63)">
          <path id="Trazado_1030777" data-name="Trazado 1030777" d="M249.824,188.585l-1.991-1.695a4.234,4.234,0,0,0-3.1-1.047l-4.676.267-3.184,9.7,1.432.125c2.679,2.585,4.346,6.049,8.419,7.424.85.288,1.706.527,2.3-.157a1.674,1.674,0,0,0-.158-2.328l-.9-.8,2.71,2.4a1.615,1.615,0,0,0,2.3-.157,1.674,1.674,0,0,0-.158-2.329l1.52,1.342a1.615,1.615,0,0,0,2.3-.157,1.674,1.674,0,0,0-.158-2.328l1.72,1.52a1.654,1.654,0,0,0,2.3-.16,1.635,1.635,0,0,0-.158-2.328Z" transform="translate(-236.873 -185.835)" fill="#ffcebf" fill-rule="evenodd"/>
        </g>
        <g id="Grupo_1173891" data-name="Grupo 1173891" transform="translate(10.735 1.546)">
          <path id="Trazado_1030778" data-name="Trazado 1030778" d="M297.238,178.225l-3.778,4.394a2.044,2.044,0,0,0,.19,2.848,1.977,1.977,0,0,0,2.809-.192l2.222-2.588a3.246,3.246,0,0,1,3.574.58l7.475,6.608,4.073-.63-.319-7.537-3.093-2.026s-4.831-.178-6.642-2.012c-.994-1.011-2.745-1.05-4.234-.766a3.829,3.829,0,0,0-2.275,1.321Z" transform="translate(-292.972 -176.751)" fill="#f5c2b3" fill-rule="evenodd"/>
        </g>
        <g id="Grupo_1173892" data-name="Grupo 1173892" transform="translate(27.757 1.563)">
          <path id="Trazado_1030779" data-name="Trazado 1030779" d="M440.746,176.9l3.448,12.269-5.2,1.5L435.543,178.4Z" transform="translate(-435.543 -176.898)" fill="#464e6e" fill-rule="evenodd"/>
        </g>
        <g id="Grupo_1173893" data-name="Grupo 1173893">
          <path id="Trazado_1030780" data-name="Trazado 1030780" d="M206.507,163.806l-3.451,12.269,5.2,1.5,3.448-12.266Z" transform="translate(-203.056 -163.806)" fill="#464e6e" fill-rule="evenodd"/>
        </g>
      </g>
      <g id="Grupo_1173895" data-name="Grupo 1173895" transform="translate(12.78 13.842)">
        <path id="Trazado_1030781" data-name="Trazado 1030781" d="M105.347,46.5h1.69a2,2,0,0,0-1.992,1.992v43.26a2,2,0,0,0,1.992,1.992h-1.69a2,2,0,0,1-1.992-1.992V48.488a2,2,0,0,1,1.992-1.992Z" transform="translate(-103.355 -46.496)" fill="#f5eada" fill-rule="evenodd"/>
      </g>
      <path id="Trazado_1030782" data-name="Trazado 1030782" d="M31.435,21.8H17.207a.853.853,0,0,1,0-1.705H31.435a.853.853,0,0,1,0,1.705ZM25.174,25.28a.853.853,0,0,0-.853-.853H17.207a.853.853,0,0,0,0,1.705h7.114A.853.853,0,0,0,25.174,25.28Zm-.252,8.661a.853.853,0,0,0-.853-.853H17.207a.853.853,0,0,0,0,1.705h6.862A.853.853,0,0,0,24.922,33.941ZM22.6,37.417H17.207a.853.853,0,0,0,0,1.705H22.6a.853.853,0,0,0,0-1.705Zm2.327,4.332H17.207a.853.853,0,0,0,0,1.705h7.718a.853.853,0,0,0,0-1.705Zm7.884,4.329h-15.6a.853.853,0,0,0,0,1.705h15.6a.853.853,0,0,0,0-1.705Zm11.426,4.328H17.207a.853.853,0,0,0,0,1.705H44.235a.853.853,0,0,0,0-1.705Zm-.584,4.564c-1.267,1.191-2.475.622-4.341-.406-1.771-.976-4.2-2.311-6.081.559a.853.853,0,1,0,1.425.936c.935-1.424,1.748-1.15,3.833,0A7.968,7.968,0,0,0,42.16,57.34a3.774,3.774,0,0,0,2.659-1.128.853.853,0,1,0-1.168-1.242ZM60.89,42.383l-5.112,1.46a.853.853,0,0,1-1.054-.586l-.123-.43-1.363.208a2.486,2.486,0,0,1,.069.5,2.267,2.267,0,0,1-.658,1.7,2.651,2.651,0,0,1-1.406.745L53.119,49.9a3.33,3.33,0,0,1,.245,2.254,2.6,2.6,0,0,1-1.371,1.728l-2.987,1.431v3.212a2.792,2.792,0,0,1-2.789,2.789H36.465l-11.634,5.57a2.456,2.456,0,0,1-1.066.24,2.7,2.7,0,0,1-.9-.157,3.3,3.3,0,0,1-1.844-1.7l-1.891-3.951H15.226a2.792,2.792,0,0,1-2.789-2.789V20.345L4.392,24.2a.912.912,0,0,0-.455.612,1.647,1.647,0,0,0,.131,1.1l7.787,16.265a.853.853,0,1,1-1.538.736L2.53,26.639a3.33,3.33,0,0,1-.245-2.253,2.6,2.6,0,0,1,1.371-1.728l8.78-4.2V16.478a2.792,2.792,0,0,1,2.789-2.789h7.166l8.427-4.034a2.553,2.553,0,0,1,1.965-.083,3.3,3.3,0,0,1,1.844,1.7l1.156,2.415h3.533a.853.853,0,0,1,.6.25l8.837,8.837a.853.853,0,0,1,.25.6v5.644a.853.853,0,1,1-1.705,0V24.231H39.316a.853.853,0,0,1-.853-.853V15.394H15.226a1.085,1.085,0,0,0-1.084,1.084V58.525a1.085,1.085,0,0,0,1.084,1.084H46.216A1.085,1.085,0,0,0,47.3,58.525V48.843a.853.853,0,1,1,1.705,0v4.58l2.251-1.079a.912.912,0,0,0,.455-.612,1.647,1.647,0,0,0-.131-1.1l-2.374-4.958a2.457,2.457,0,0,1-3.5.9,2.453,2.453,0,0,1-3.873.9l-.019-.017a2.44,2.44,0,0,1-.4.639,2.059,2.059,0,0,1-1.627.724,4.927,4.927,0,0,1-1.545-.32c-3.046-1.014-4.8-3.083-6.5-5.084-.388-.458-.765-.9-1.151-1.327a.849.849,0,0,1-.855.238l-5.116-1.457a.853.853,0,0,1-.586-1.054l3.393-11.9a.853.853,0,0,1,1.053-.586L33.6,28.792a.853.853,0,0,1,.586,1.054L34.142,30l2.368-.133a5.078,5.078,0,0,1,2.589.515,4.6,4.6,0,0,1,2.59-1.413c1.24-.234,3.53-.419,4.922.974.966.966,3.215,1.424,4.77,1.607l-.052-.183a.853.853,0,0,1,.586-1.054l5.116-1.457a.853.853,0,0,1,1.053.586l3.39,11.892a.853.853,0,0,1-.586,1.054ZM40.169,22.526h5.926L40.169,16.6ZM26.341,13.689h7.553l-.8-1.679a1.59,1.59,0,0,0-.873-.83.863.863,0,0,0-.661.013Zm6.176,47.625H21.021l1.539,3.215a1.59,1.59,0,0,0,.873.83.863.863,0,0,0,.661-.013Zm-3.127-20.86.045-.16,0-.014L32.311,30.2l-3.472-.989L25.913,39.464ZM51.6,43.6a.816.816,0,0,0-.273-.576L43.982,36.61c-.016-.014-.031-.028-.046-.043a2.2,2.2,0,0,0-2.428-.411l-2.022,2.319a2.809,2.809,0,0,1-4.233-3.692l2.662-3.053a3.483,3.483,0,0,0-1.309-.164l-2.958.166-2.431,8.531c.654.664,1.252,1.368,1.832,2.052,1.616,1.906,3.142,3.706,5.736,4.57.934.313,1.186.277,1.345.094a.751.751,0,0,0-.056-1.04l-.9-.785-.01-.01-2.078-1.813a.853.853,0,1,1,1.121-1.285l2.972,2.592h0l.031.027,1.75,1.526a.748.748,0,0,0,1.054-.072.749.749,0,0,0-.073-1.052h0L40.06,41.68A.853.853,0,0,1,41.182,40.4l3.88,3.386h0l1.493,1.3a.733.733,0,0,0,.541.181.749.749,0,0,0,.515-.255.75.75,0,0,0-.071-1.047l0,0c-.013-.012-.025-.024-.038-.036l-4.681-4.082a.853.853,0,0,1,1.121-1.285l4.719,4.115c.014.012.026.025.039.038l1.2,1.046a.85.85,0,0,1,.473.41.814.814,0,0,0,1.072-.133A.578.578,0,0,0,51.6,43.6Zm2.526-2.422-2.244-7.866c-1.441-.119-4.881-.566-6.479-2.163-.87-.87-2.669-.642-3.4-.5a2.939,2.939,0,0,0-1.753,1L36.538,35.9A1.1,1.1,0,0,0,38.2,37.354l2.185-2.506a.853.853,0,0,1,.387-.253,4.044,4.044,0,0,1,4.352.75l7.029,6.131Zm5.473-.2L56.679,30.725l-3.475.99.151.529,0,.007,2.675,9.376c0,.013.008.026.011.039l.087.3ZM9.9,46.292v14.7a.852.852,0,0,1-.12.437L5.93,67.878a.853.853,0,0,1-.732.416h0a.853.853,0,0,1-.732-.416L.62,61.426A.853.853,0,0,1,.5,60.99v-14.7a4.7,4.7,0,0,1,9.4,0Zm-7.694,0v.335H8.194v-.335a2.994,2.994,0,0,0-5.989,0ZM8.194,60.137V48.332H2.205V60.137Zm-.649,1.705H2.853L5.2,65.777Z" transform="translate(0 0)"/>
    </g>
  </g>
</svg>
