<svg xmlns="http://www.w3.org/2000/svg" xmlns:xlink="http://www.w3.org/1999/xlink" width="110" height="110" viewBox="0 0 110 110">
  <defs>
    <filter id="Trazado_982547" x="0" y="0" width="110" height="110" filterUnits="userSpaceOnUse">
      <feOffset dy="3" input="SourceAlpha"/>
      <feGaussianBlur stdDeviation="3" result="blur"/>
      <feFlood flood-opacity="0.161"/>
      <feComposite operator="in" in2="blur"/>
      <feComposite in="SourceGraphic"/>
    </filter>
  </defs>
  <g id="Grupo_1173937" data-name="Grupo 1173937" transform="translate(-1113 -7185.89)">
    <g id="Grupo_1173212" data-name="Grupo 1173212" transform="translate(1122 7191.89)">
      <g id="Grupo_1171898" data-name="Grupo 1171898" transform="translate(0 0)">
        <g id="Grupo_1164700" data-name="Grupo 1164700" transform="translate(0 0)">
          <g id="Grupo_1160931" data-name="Grupo 1160931" transform="translate(0 0)">
            <g id="Grupo_1160749" data-name="Grupo 1160749">
              <g id="Grupo_1158891" data-name="Grupo 1158891">
                <g id="Grupo_1157406" data-name="Grupo 1157406">
                  <g id="Grupo_1155793" data-name="Grupo 1155793">
                    <g id="Grupo_1154704" data-name="Grupo 1154704">
                      <g id="Grupo_1150790" data-name="Grupo 1150790">
                        <g id="Grupo_1154214" data-name="Grupo 1154214">
                          <g id="Grupo_1152583" data-name="Grupo 1152583">
                            <g id="Grupo_1146973" data-name="Grupo 1146973">
                              <g id="Grupo_1146954" data-name="Grupo 1146954">
                                <g transform="matrix(1, 0, 0, 1, -9, -6)" filter="url(#Trazado_982547)">
                                  <g id="Trazado_982547-2" data-name="Trazado 982547" transform="translate(9 6)" fill="#e9f9fd">
                                    <path d="M 46.0000114440918 90.49988555908203 C 39.99188995361328 90.49988555908203 34.16427993774414 89.32352447509766 28.6790657043457 87.00347137451172 C 23.38021087646484 84.76226043701172 18.62105178833008 81.55342864990234 14.53375816345215 77.46615600585938 C 10.44647789001465 73.37887573242188 7.237651348114014 68.61971282958984 4.996424674987793 63.32085800170898 C 2.676371335983276 57.83565902709961 1.500011444091797 52.00806045532227 1.500011444091797 45.99993896484375 C 1.500011444091797 39.99181747436523 2.676371335983276 34.16421890258789 4.996424674987793 28.67901802062988 C 7.237651348114014 23.38017845153809 10.44647789001465 18.62101936340332 14.53375816345215 14.53373908996582 C 18.62105178833008 10.44645881652832 23.38021087646484 7.237632274627686 28.6790657043457 4.996418952941895 C 34.16427993774414 2.676365613937378 39.99188995361328 1.500005602836609 46.0000114440918 1.500005602836609 C 52.00813293457031 1.500005602836609 57.83574295043945 2.676365613937378 63.32095718383789 4.996418952941895 C 68.61981201171875 7.237632274627686 73.37898254394531 10.44645881652832 77.46626281738281 14.53373908996582 C 81.55355834960938 18.62101936340332 84.76237487792969 23.38017845153809 87.00360107421875 28.67901802062988 C 89.32365417480469 34.16421890258789 90.50001525878906 39.99181747436523 90.50001525878906 45.99993896484375 C 90.50001525878906 52.00806045532227 89.32365417480469 57.83565902709961 87.00360107421875 63.32085800170898 C 84.76237487792969 68.61971282958984 81.55355834960938 73.37887573242188 77.46626281738281 77.46615600585938 C 73.37898254394531 81.55342864990234 68.61981201171875 84.76226043701172 63.32095718383789 87.00347137451172 C 57.83574295043945 89.32352447509766 52.00813293457031 90.49988555908203 46.0000114440918 90.49988555908203 Z" stroke="none"/>
                                    <path d="M 46.0000114440918 2.999992370605469 C 40.1937255859375 2.999992370605469 34.56270980834961 4.136497497558594 29.26339721679688 6.377906799316406 C 24.14334106445312 8.543510437011719 19.54442596435547 11.64437866210938 15.59441375732422 15.59439849853516 C 11.6444091796875 19.54439544677734 8.543525695800781 24.14329528808594 6.377922058105469 29.26335144042969 C 4.136512756347656 34.56266784667969 3.000007629394531 40.19366836547852 3.000007629394531 45.99993896484375 C 3.000007629394531 51.80620956420898 4.136512756347656 57.43722534179688 6.377922058105469 62.73654174804688 C 8.543525695800781 67.85658264160156 11.6444091796875 72.45548248291016 15.59441375732422 76.40549468994141 C 19.54442596435547 80.35549926757812 24.14334106445312 83.45636749267578 29.26338195800781 85.62196350097656 C 34.56270980834961 87.86338043212891 40.1937255859375 88.9998779296875 46.0000114440918 88.9998779296875 C 51.80629730224609 88.9998779296875 57.43731307983398 87.86338043212891 62.73664093017578 85.62196350097656 C 67.85668182373047 83.45636749267578 72.45559692382812 80.35549926757812 76.40560913085938 76.40549468994141 C 80.35561370849609 72.45548248291016 83.45649719238281 67.85658264160156 85.62210083007812 62.73654174804688 C 87.86351013183594 57.43722534179688 89.00001525878906 51.80620956420898 89.00001525878906 45.99993896484375 C 89.00001525878906 40.19366836547852 87.86351013183594 34.56266784667969 85.62210083007812 29.26335144042969 C 83.45649719238281 24.14329528808594 80.35561370849609 19.54439544677734 76.40560913085938 15.59439849853516 C 72.45559692382812 11.64437866210938 67.85668182373047 8.543510437011719 62.73662567138672 6.377906799316406 C 57.43731307983398 4.136497497558594 51.80629730224609 2.999992370605469 46.0000114440918 2.999992370605469 M 46.0000114440918 -7.62939453125e-06 C 71.40511322021484 -7.62939453125e-06 92.00001525878906 20.59487915039062 92.00001525878906 45.99993896484375 C 92.00001525878906 71.40501403808594 71.40511322021484 91.99988555908203 46.0000114440918 91.99988555908203 C 20.59490966796875 91.99988555908203 7.62939453125e-06 71.40501403808594 7.62939453125e-06 45.99993896484375 C 7.62939453125e-06 20.59487915039062 20.59490966796875 -7.62939453125e-06 46.0000114440918 -7.62939453125e-06 Z" stroke="none" fill="#36ceef"/>
                                  </g>
                                </g>
                              </g>
                            </g>
                          </g>
                        </g>
                      </g>
                    </g>
                  </g>
                </g>
              </g>
            </g>
          </g>
        </g>
      </g>
    </g>
    <g id="_x37_1_Delivery_Person_with_Clipboard" transform="translate(1131.198 7201.58)">
      <g id="Grupo_1173936" data-name="Grupo 1173936" transform="translate(6.017 6.027)">
        <path id="Trazado_1031088" data-name="Trazado 1031088" d="M54.958,228.96v5.447H19.093V228.96A10.927,10.927,0,0,1,30.02,218.033H44.031A10.927,10.927,0,0,1,54.958,228.96Z" transform="translate(-17.509 -192.349)" fill="#fc575b"/>
        <path id="Trazado_1031089" data-name="Trazado 1031089" d="M106.9,232.905v5.448H78.191a87.549,87.549,0,0,0,21.185-15.83A10.922,10.922,0,0,1,106.9,232.905Z" transform="translate(-69.447 -196.296)" fill="#fff" opacity="0.4"/>
        <path id="Trazado_1031090" data-name="Trazado 1031090" d="M146.917,160.925v6.858a3.23,3.23,0,1,1-6.459,0v-6.858Z" transform="translate(-124.171 -142.16)" fill="#e9cd84"/>
        <path id="Trazado_1031091" data-name="Trazado 1031091" d="M79.435,280.777V264.949a2.708,2.708,0,0,1,2.708-2.708H97.971a2.708,2.708,0,0,1,2.708,2.708v15.828a2.708,2.708,0,0,1-2.708,2.708H82.143a2.708,2.708,0,0,1-2.708-2.708Z" transform="translate(-70.541 -231.202)" fill="#65cef8"/>
        <path id="Trazado_1031092" data-name="Trazado 1031092" d="M106.392,271.252v15.83a2.707,2.707,0,0,1-2.711,2.706H87.857a2.694,2.694,0,0,1-1.923-.8,63.85,63.85,0,0,0,19.732-19.577A2.677,2.677,0,0,1,106.392,271.252Z" transform="translate(-76.252 -237.504)" fill="#fff" opacity="0.4"/>
        <path id="Trazado_1031093" data-name="Trazado 1031093" d="M148.949,262.241v6.873l-2.9-1.966-2.9,1.966v-6.873Z" transform="translate(-126.527 -231.202)" fill="#efe9e5"/>
        <g id="Grupo_1173935" data-name="Grupo 1173935" transform="translate(0.739 10.807)">
          <path id="Trazado_1031094" data-name="Trazado 1031094" d="M251.551,333.09v4.764h-7.345a2.382,2.382,0,0,1,0-4.764h7.345Z" transform="translate(-213.996 -304.275)" fill="#e9cd84"/>
          <path id="Trazado_1031095" data-name="Trazado 1031095" d="M12.114,333.973v4.764h7.345a2.382,2.382,0,1,0,0-4.764H12.114Z" transform="translate(-12.114 -305.051)" fill="#e9cd84"/>
          <path id="Trazado_1031096" data-name="Trazado 1031096" d="M120.692,95.237V99.4a7.423,7.423,0,0,1-14.845,0V95.237Z" transform="translate(-94.492 -95.237)" fill="#e9cd84"/>
        </g>
        <path id="Trazado_1031097" data-name="Trazado 1031097" d="M119.863,22.193H104.9V19.6a7.48,7.48,0,0,1,14.93-.664v.017C119.834,19,119.866,22.411,119.863,22.193Z" transform="translate(-92.924 -11.385)" fill="#fc575b"/>
        <path id="Trazado_1031098" data-name="Trazado 1031098" d="M119.87,26.117H104.911V24.524a26.249,26.249,0,0,0,10.273-7.933,7.472,7.472,0,0,1,4.655,6.273v.016C119.839,22.921,119.87,25.905,119.87,26.117Z" transform="translate(-92.93 -15.311)" fill="#fff" opacity="0.4"/>
        <path id="Trazado_1031099" data-name="Trazado 1031099" d="M302.96,238.8v27.709a2.086,2.086,0,0,1-2.086,2.086H277.9a2.086,2.086,0,0,1-2.086-2.086V238.8a2.086,2.086,0,0,1,2.086-2.086h22.976A2.086,2.086,0,0,1,302.96,238.8Z" transform="translate(-243.127 -208.772)" fill="#e9cd84"/>
        <path id="Trazado_1031100" data-name="Trazado 1031100" d="M299.753,285.568V261.832a1.172,1.172,0,0,1,1.172-1.172h19a1.172,1.172,0,0,1,1.172,1.172v23.735a1.172,1.172,0,0,1-1.172,1.172h-19A1.172,1.172,0,0,1,299.753,285.568Z" transform="translate(-264.168 -229.812)" fill="#efe9e5"/>
        <path id="Trazado_1031101" data-name="Trazado 1031101" d="M321.1,261.826v23.736a1.169,1.169,0,0,1-1.169,1.169H300.929a1.169,1.169,0,0,1-1.169-1.169v-.07a18.82,18.82,0,0,0,17.813-24.841h2.362A1.171,1.171,0,0,1,321.1,261.826Z" transform="translate(-264.174 -229.804)" fill="#fff" opacity="0.4"/>
        <path id="Trazado_1031102" data-name="Trazado 1031102" d="M347.8,203.454v4.621a.747.747,0,0,1-.749.749H335.737a.747.747,0,0,1-.749-.749v-4.621a.747.747,0,0,1,.749-.749h2.349a.962.962,0,0,1-.014-.169c0-1.416,1.489-2.567,3.321-2.567s3.321,1.15,3.321,2.567a.959.959,0,0,1-.015.169h2.349A.747.747,0,0,1,347.8,203.454Z" transform="translate(-295.134 -176.474)" fill="#c87848"/>
        <path id="Trazado_1031103" data-name="Trazado 1031103" d="M347.816,213.44v4.625a.752.752,0,0,1-.751.75H335.751a.747.747,0,0,1-.745-.75v-2.513a6.385,6.385,0,0,0,9.337-4.218,2.093,2.093,0,0,1,.384,1.193.818.818,0,0,1-.012.169h2.35A.748.748,0,0,1,347.816,213.44Z" transform="translate(-295.15 -186.462)" fill="#fff" opacity="0.4"/>
        <path id="Trazado_1031104" data-name="Trazado 1031104" d="M63.761,33.237H59.419v-.23a1.49,1.49,0,0,0-1.488-1.488H56.275a4.291,4.291,0,0,0-8,0H46.62a1.49,1.49,0,0,0-1.488,1.488v.23H40.787a2.8,2.8,0,0,0-1.137.243,10.358,10.358,0,0,0-6.442-2.492c-.6-.033-.691-.013-3.708-.019V28.128A8.164,8.164,0,0,0,33.695,21c0-.362.01-7.034-.033-7.487a8.218,8.218,0,0,0-16.4.728V16.1H13.091a.739.739,0,1,0,0,1.477h4.282V21a8.164,8.164,0,0,0,4.193,7.125V30.97H18.528A11.679,11.679,0,0,0,6.862,42.636v2.328H6.756a.739.739,0,0,0-.739.739v4.764a.739.739,0,0,0,.739.739H14.1c.024,0,.047-.007.072-.007v4.4A3.451,3.451,0,0,0,17.62,59.05H33.447A3.451,3.451,0,0,0,36.894,55.6V51.091c.024,0,.047.007.072.007h1v12.67a2.828,2.828,0,0,0,2.824,2.825H63.761a2.828,2.828,0,0,0,2.824-2.825V52.211a.739.739,0,1,0-1.477,0V63.769a1.348,1.348,0,0,1-1.347,1.347H40.787a1.349,1.349,0,0,1-1.347-1.347V36.062a1.349,1.349,0,0,1,1.347-1.347h4.345v1.421H42.774a1.913,1.913,0,0,0-1.911,1.911V61.782a1.913,1.913,0,0,0,1.911,1.911h19a1.914,1.914,0,0,0,1.911-1.911V38.047a1.914,1.914,0,0,0-1.911-1.911H59.419V34.715h4.342a1.349,1.349,0,0,1,1.347,1.347v9.531a.739.739,0,0,0,1.477,0V36.062a2.828,2.828,0,0,0-2.824-2.825ZM18.735,14.243a6.742,6.742,0,0,1,13.453-.638c0,.045.014,1.545.023,2.49H18.735ZM18.85,21V17.573H32.218V21A6.684,6.684,0,0,1,18.85,21Zm6.684,8.161a8.124,8.124,0,0,0,2.491-.392V31.65a2.491,2.491,0,1,1-4.982,0V28.772A8.128,8.128,0,0,0,25.534,29.164ZM8.34,42.636A10.2,10.2,0,0,1,18.528,32.447h3.117a3.968,3.968,0,0,0,7.775,0c3.131.005,3.194-.012,3.705.017a8.947,8.947,0,0,1,5.345,1.99,2.8,2.8,0,0,0-.508,1.608v8.8h-1c-.025,0-.047.007-.072.007v-5.09a3.451,3.451,0,0,0-3.447-3.447H17.62a3.451,3.451,0,0,0-3.447,3.447v5.2c-.024,0-.047-.007-.072-.007H8.34ZM23.367,37.8H27.7v4.743l-1.752-1.185a.739.739,0,0,0-.828,0l-1.752,1.185ZM7.494,49.728V46.441H14.1a1.643,1.643,0,0,1,0,3.287H7.494ZM35.417,55.6a1.972,1.972,0,0,1-1.97,1.97H17.62a1.972,1.972,0,0,1-1.97-1.97V50.777a3.093,3.093,0,0,0,0-5.386V39.775a1.972,1.972,0,0,1,1.97-1.97h4.27v6.135a.739.739,0,0,0,1.153.612l2.491-1.686,2.491,1.686a.739.739,0,0,0,1.153-.612V37.8h4.27a1.972,1.972,0,0,1,1.97,1.97v5.511a3.092,3.092,0,0,0,0,5.385Zm1.549-5.981a1.643,1.643,0,1,1,0-3.287h1v3.287h-1ZM46.62,33h2.349a.755.755,0,0,0,.565-.284.781.781,0,0,0,.159-.624c0-.991,1.183-1.828,2.582-1.828s2.583.837,2.58,1.867a.739.739,0,0,0,.727.869h2.349c.008,0,.011,0,.011.011l-.011,4.632-11.322-.011Zm15.157,4.616a.434.434,0,0,1,.434.434V61.782a.434.434,0,0,1-.434.434h-19a.434.434,0,0,1-.434-.434V38.047a.434.434,0,0,1,.434-.434h2.358v.016a1.49,1.49,0,0,0,1.488,1.488H57.931a1.49,1.49,0,0,0,1.488-1.488v-.016Z" transform="translate(-6.017 -6.027)"/>
        <path id="Trazado_1031105" data-name="Trazado 1031105" d="M348.523,299.183H337.659a.739.739,0,1,0,0,1.477h10.865a.739.739,0,0,0,0-1.477Z" transform="translate(-296.832 -263.668)"/>
        <path id="Trazado_1031106" data-name="Trazado 1031106" d="M348.523,341.2H337.659a.739.739,0,1,0,0,1.477h10.865a.739.739,0,1,0,0-1.477Z" transform="translate(-296.832 -300.591)"/>
        <path id="Trazado_1031107" data-name="Trazado 1031107" d="M348.523,383.206H337.659a.739.739,0,1,0,0,1.477h10.865a.739.739,0,0,0,0-1.477Z" transform="translate(-296.832 -337.512)"/>
        <path id="Trazado_1031108" data-name="Trazado 1031108" d="M348.523,425.218H337.659a.739.739,0,1,0,0,1.477h10.865a.739.739,0,1,0,0-1.477Z" transform="translate(-296.832 -374.435)"/>
      </g>
    </g>
  </g>
</svg>
