<svg xmlns="http://www.w3.org/2000/svg" xmlns:xlink="http://www.w3.org/1999/xlink" width="110" height="110" viewBox="0 0 110 110">
  <defs>
    <filter id="Trazado_982547" x="0" y="0" width="110" height="110" filterUnits="userSpaceOnUse">
      <feOffset dy="3" input="SourceAlpha"/>
      <feGaussianBlur stdDeviation="3" result="blur"/>
      <feFlood flood-opacity="0.161"/>
      <feComposite operator="in" in2="blur"/>
      <feComposite in="SourceGraphic"/>
    </filter>
  </defs>
  <g id="Grupo_1173983" data-name="Grupo 1173983" transform="translate(740 -7515.89)">
    <g id="Grupo_1173217" data-name="Grupo 1173217" transform="translate(-731 7521.89)">
      <g id="Grupo_1171898" data-name="Grupo 1171898" transform="translate(0 0)">
        <g id="Grupo_1164700" data-name="Grupo 1164700" transform="translate(0 0)">
          <g id="Grupo_1160931" data-name="Grupo 1160931" transform="translate(0 0)">
            <g id="Grupo_1160749" data-name="Grupo 1160749" transform="translate(0 0)">
              <g id="Grupo_1158891" data-name="Grupo 1158891" transform="translate(0 0)">
                <g id="Grupo_1157406" data-name="Grupo 1157406" transform="translate(0 0)">
                  <g id="Grupo_1155793" data-name="Grupo 1155793">
                    <g id="Grupo_1154704" data-name="Grupo 1154704">
                      <g id="Grupo_1150790" data-name="Grupo 1150790">
                        <g id="Grupo_1154214" data-name="Grupo 1154214">
                          <g id="Grupo_1152583" data-name="Grupo 1152583">
                            <g id="Grupo_1146973" data-name="Grupo 1146973">
                              <g id="Grupo_1146954" data-name="Grupo 1146954">
                                <g transform="matrix(1, 0, 0, 1, -9, -6)" filter="url(#Trazado_982547)">
                                  <g id="Trazado_982547-2" data-name="Trazado 982547" transform="translate(9 6)" fill="#e9f9fd">
                                    <path d="M 46.0000114440918 90.49988555908203 C 39.99188995361328 90.49988555908203 34.16427993774414 89.32352447509766 28.6790657043457 87.00347137451172 C 23.38021087646484 84.76226043701172 18.62105178833008 81.55342864990234 14.53375816345215 77.46615600585938 C 10.44647789001465 73.37887573242188 7.237651348114014 68.61971282958984 4.996424674987793 63.32085800170898 C 2.676371335983276 57.83565902709961 1.500011444091797 52.00806045532227 1.500011444091797 45.99993896484375 C 1.500011444091797 39.99181747436523 2.676371335983276 34.16421890258789 4.996424674987793 28.67901802062988 C 7.237651348114014 23.38017845153809 10.44647789001465 18.62101936340332 14.53375816345215 14.53373908996582 C 18.62105178833008 10.44645881652832 23.38021087646484 7.237632274627686 28.6790657043457 4.996418952941895 C 34.16427993774414 2.676365613937378 39.99188995361328 1.500005602836609 46.0000114440918 1.500005602836609 C 52.00813293457031 1.500005602836609 57.83574295043945 2.676365613937378 63.32095718383789 4.996418952941895 C 68.61981201171875 7.237632274627686 73.37898254394531 10.44645881652832 77.46626281738281 14.53373908996582 C 81.55355834960938 18.62101936340332 84.76237487792969 23.38017845153809 87.00360107421875 28.67901802062988 C 89.32365417480469 34.16421890258789 90.50001525878906 39.99181747436523 90.50001525878906 45.99993896484375 C 90.50001525878906 52.00806045532227 89.32365417480469 57.83565902709961 87.00360107421875 63.32085800170898 C 84.76237487792969 68.61971282958984 81.55355834960938 73.37887573242188 77.46626281738281 77.46615600585938 C 73.37898254394531 81.55342864990234 68.61981201171875 84.76226043701172 63.32095718383789 87.00347137451172 C 57.83574295043945 89.32352447509766 52.00813293457031 90.49988555908203 46.0000114440918 90.49988555908203 Z" stroke="none"/>
                                    <path d="M 46.0000114440918 2.999992370605469 C 40.1937255859375 2.999992370605469 34.56270980834961 4.136497497558594 29.26339721679688 6.377906799316406 C 24.14334106445312 8.543510437011719 19.54442596435547 11.64437866210938 15.59441375732422 15.59439849853516 C 11.6444091796875 19.54439544677734 8.543525695800781 24.14329528808594 6.377922058105469 29.26335144042969 C 4.136512756347656 34.56266784667969 3.000007629394531 40.19366836547852 3.000007629394531 45.99993896484375 C 3.000007629394531 51.80620956420898 4.136512756347656 57.43722534179688 6.377922058105469 62.73654174804688 C 8.543525695800781 67.85658264160156 11.6444091796875 72.45548248291016 15.59441375732422 76.40549468994141 C 19.54442596435547 80.35549926757812 24.14334106445312 83.45636749267578 29.26338195800781 85.62196350097656 C 34.56270980834961 87.86338043212891 40.1937255859375 88.9998779296875 46.0000114440918 88.9998779296875 C 51.80629730224609 88.9998779296875 57.43731307983398 87.86338043212891 62.73664093017578 85.62196350097656 C 67.85668182373047 83.45636749267578 72.45559692382812 80.35549926757812 76.40560913085938 76.40549468994141 C 80.35561370849609 72.45548248291016 83.45649719238281 67.85658264160156 85.62210083007812 62.73654174804688 C 87.86351013183594 57.43722534179688 89.00001525878906 51.80620956420898 89.00001525878906 45.99993896484375 C 89.00001525878906 40.19366836547852 87.86351013183594 34.56266784667969 85.62210083007812 29.26335144042969 C 83.45649719238281 24.14329528808594 80.35561370849609 19.54439544677734 76.40560913085938 15.59439849853516 C 72.45559692382812 11.64437866210938 67.85668182373047 8.543510437011719 62.73662567138672 6.377906799316406 C 57.43731307983398 4.136497497558594 51.80629730224609 2.999992370605469 46.0000114440918 2.999992370605469 M 46.0000114440918 -7.62939453125e-06 C 71.40511322021484 -7.62939453125e-06 92.00001525878906 20.59487915039062 92.00001525878906 45.99993896484375 C 92.00001525878906 71.40501403808594 71.40511322021484 91.99988555908203 46.0000114440918 91.99988555908203 C 20.59490966796875 91.99988555908203 7.62939453125e-06 71.40501403808594 7.62939453125e-06 45.99993896484375 C 7.62939453125e-06 20.59487915039062 20.59490966796875 -7.62939453125e-06 46.0000114440918 -7.62939453125e-06 Z" stroke="none" fill="#36ceef"/>
                                  </g>
                                </g>
                              </g>
                            </g>
                          </g>
                        </g>
                      </g>
                    </g>
                  </g>
                </g>
              </g>
            </g>
          </g>
        </g>
      </g>
    </g>
    <g id="response_18325261_1_" data-name="response_18325261 (1)" transform="translate(-717.066 7536.217)">
      <path id="Trazado_1031223" data-name="Trazado 1031223" d="M311.082,139.316h10.837a.611.611,0,0,1,.611.611v1.7a.611.611,0,0,1-.611.611H311.082a.611.611,0,0,1-.611-.611v-1.7a.611.611,0,0,1,.611-.611Z" transform="translate(-272.947 -120.408)" fill="#c3c3c9"/>
      <path id="Trazado_1031224" data-name="Trazado 1031224" d="M328.167,66.723h8.187v-6.2a2.727,2.727,0,0,0-2.719-2.719h-2.749a2.727,2.727,0,0,0-2.719,2.719v6.2Z" transform="translate(-288.707 -47.815)" fill="#ff6969" fill-rule="evenodd"/>
      <path id="Trazado_1031225" data-name="Trazado 1031225" d="M246.48,372.4a14.961,14.961,0,0,0-14.9,13.6h29.8A14.961,14.961,0,0,0,246.48,372.4Z" transform="translate(-202.687 -327.997)" fill="#4eb1fc" fill-rule="evenodd"/>
      <path id="Trazado_1031226" data-name="Trazado 1031226" d="M303.083,284.215a7.125,7.125,0,1,0,13.366,0Z" transform="translate(-265.973 -249.456)" fill="#ffcec0" fill-rule="evenodd"/>
      <path id="Trazado_1031227" data-name="Trazado 1031227" d="M296.522,214.32v-.791a7.794,7.794,0,1,1,15.588,0v.791H296.522Z" transform="translate(-260.524 -179.561)" fill="#ffcb1f" fill-rule="evenodd"/>
      <path id="Trazado_1031228" data-name="Trazado 1031228" d="M293.362,380.132a5.884,5.884,0,0,1-9.935,0,14.944,14.944,0,0,0-4.782,2.77v9.986h19.5V382.9A14.943,14.943,0,0,0,293.362,380.132Z" transform="translate(-244.601 -334.88)" fill="#ffcb1f" fill-rule="evenodd"/>
      <rect id="Rect치ngulo_415063" data-name="Rect치ngulo 415063" width="17.9" height="2.057" rx="1.029" transform="translate(34.843 33.968)" fill="#ffeb87"/>
      <g id="Grupo_1173982" data-name="Grupo 1173982" transform="translate(5.089 4.432)">
        <path id="Trazado_1031229" data-name="Trazado 1031229" d="M66.756,6.981H47.219a2.613,2.613,0,0,0-2.6,2.6V23.642a2.613,2.613,0,0,0,2.6,2.6H61.128l4.3,4.91v-4.91h1.33a2.613,2.613,0,0,0,2.6-2.6V9.586a2.613,2.613,0,0,0-2.6-2.6Z" transform="translate(-41.261 -6.981)" fill="#85caff" fill-rule="evenodd"/>
        <path id="Trazado_1031230" data-name="Trazado 1031230" d="M80.554,32.887c7.556.7,10.037,7.252,10.829,10.128a.238.238,0,0,1-.411.217C87.967,39.706,84,37.494,80.337,37.393l-.113,2.348a.4.4,0,0,1-.639.3l-6.608-4.954A.4.4,0,0,1,73,34.428l7.06-4.407a.4.4,0,0,1,.611.358l-.121,2.508Z" transform="translate(-66.378 -27.445)" fill="#fff" fill-rule="evenodd"/>
        <path id="Trazado_1031231" data-name="Trazado 1031231" d="M28.861,372.4a14.961,14.961,0,0,0-14.9,13.6h29.8a14.961,14.961,0,0,0-14.9-13.6Z" transform="translate(-13.963 -332.429)" fill="#85caff" fill-rule="evenodd"/>
        <path id="Trazado_1031232" data-name="Trazado 1031232" d="M85.464,284.215a7.125,7.125,0,1,0,13.366,0H85.464Z" transform="translate(-77.249 -253.888)" fill="#ffcec0" fill-rule="evenodd"/>
        <path id="Trazado_1031233" data-name="Trazado 1031233" d="M78.9,214.32v-.791a7.794,7.794,0,1,1,15.588,0v.791Z" transform="translate(-71.799 -183.993)" fill="#ffcb1f" fill-rule="evenodd"/>
        <path id="Trazado_1031234" data-name="Trazado 1031234" d="M75.741,380.132a5.884,5.884,0,0,1-9.936,0,14.943,14.943,0,0,0-4.782,2.77v9.986h19.5V382.9a14.943,14.943,0,0,0-4.782-2.77Z" transform="translate(-55.875 -339.312)" fill="#ffcb1f" fill-rule="evenodd"/>
      </g>
      <rect id="Rect치ngulo_415064" data-name="Rect치ngulo 415064" width="17.9" height="2.057" rx="1.029" transform="translate(11.037 33.968)" fill="#ffeb87"/>
      <path id="Trazado_1031235" data-name="Trazado 1031235" d="M34.646,9.881a.766.766,0,0,1,1.046-.28l1.2.694a.765.765,0,1,1-.765,1.326l-1.2-.693a.765.765,0,0,1-.28-1.046ZM42.7,6.938V5.551a.766.766,0,1,1,1.531,0V6.938a.766.766,0,1,1-1.531,0ZM37.92,6.893a.766.766,0,1,1,1.326-.765l.694,1.2a.766.766,0,1,1-1.326.766ZM49.768,11.34a.764.764,0,0,1,.28-1.046l1.2-.694a.766.766,0,1,1,.766,1.326l-1.2.693a.765.765,0,0,1-1.046-.28ZM47,7.329l.694-1.2a.766.766,0,1,1,1.326.765l-.694,1.2A.765.765,0,1,1,47,7.329ZM37.939,20H49v1.521H37.939Zm2.022-7.238a2.076,2.076,0,0,1,2.074-2.074h2.871a2.076,2.076,0,0,1,2.074,2.074v5.707H44.236V14.975a.766.766,0,1,0-1.531,0v3.491H39.961V12.759Zm-3.553,7.11v1.777a1.4,1.4,0,0,0,1.4,1.4H49.13a1.4,1.4,0,0,0,1.4-1.4V19.87a1.406,1.406,0,0,0-1.4-1.4h-.618V12.759a3.61,3.61,0,0,0-3.606-3.606H42.035a3.61,3.61,0,0,0-3.606,3.606v5.707h-.618A1.4,1.4,0,0,0,36.408,19.87ZM18.263,8.481l-.088,1.809a.767.767,0,0,0,.695.8c5.357.5,8.051,4.18,9.386,7.328a15.153,15.153,0,0,0-9.512-4.35h-.021a.766.766,0,0,0-.765.728l-.08,1.66-5.63-4.22,6.014-3.754ZM10.9,13.14l6.608,4.954a1.166,1.166,0,0,0,1.864-.876l.076-1.568c3.208.351,6.642,2.371,9.326,5.519a.994.994,0,0,0,.76.353,1.008,1.008,0,0,0,.473-.118,1,1,0,0,0,.5-1.153c-.982-3.567-3.677-9.573-10.768-10.6l.086-1.8a1.165,1.165,0,0,0-1.781-1.045l-7.06,4.408A1.165,1.165,0,0,0,10.9,13.14ZM8.884,7.491V21.545a1.842,1.842,0,0,0,1.839,1.84H24.632a.765.765,0,0,1,.576.261l2.956,3.377V24.151a.766.766,0,0,1,.766-.766h1.33a1.842,1.842,0,0,0,1.839-1.84V7.491a1.842,1.842,0,0,0-1.839-1.84H10.723a1.841,1.841,0,0,0-1.839,1.84Zm1.839,17.426H24.285l4.068,4.648a.766.766,0,0,0,.576.261.739.739,0,0,0,.269-.049.765.765,0,0,0,.5-.717V24.917h.564a3.375,3.375,0,0,0,3.37-3.372V7.491a3.374,3.374,0,0,0-3.37-3.372H10.723a3.375,3.375,0,0,0-3.37,3.372V21.545a3.375,3.375,0,0,0,3.37,3.372ZM18.9,31.435H17.637V29.9H18.9V28.644h1.532V29.9h1.26v1.532h-1.26v1.26H18.9Zm23.81,0H41.446V29.9H42.7V28.644h1.531V29.9H45.5v1.532H44.236v1.26H42.7ZM53.985,57.7V50.247A14.113,14.113,0,0,1,57.506,57.7Zm-23.809,0V50.247a14.053,14.053,0,0,1,2.78,4.565v.061h.023A14.311,14.311,0,0,1,33.7,57.7Zm-19.5,0V55.639H28.644V57.7H10.678Zm-1.531-7.45V57.7H5.627a14.118,14.118,0,0,1,3.519-7.45ZM13.3,37.689c0-.147.007-.294.016-.442H26c.011.148.018.3.018.442a6.359,6.359,0,1,1-12.717,0Zm-1.826-2.236a.266.266,0,0,1,.263-.263H27.582a.263.263,0,1,1,0,.525H11.741a.266.266,0,0,1-.263-.263ZM19.662,27.4a7.037,7.037,0,0,1,6.986,6.261H12.677A7.036,7.036,0,0,1,19.662,27.4ZM10.678,53.37H28.645v.737H10.678V53.37Zm5.332-7.276a14.505,14.505,0,0,1,7.3,0,5.3,5.3,0,0,1-3.651,1.577A5.305,5.305,0,0,1,16.01,46.094ZM19.653,49.2a6.879,6.879,0,0,1-5.235-2.589A14.131,14.131,0,0,0,10.678,48.8v3.042H28.645V48.8a14.113,14.113,0,0,0-3.738-2.184A6.88,6.88,0,0,1,19.672,49.2h-.019Zm13.3,1.084c-.145.161-.288.327-.427.5q.221.313.427.639Zm4.157-12.6c0-.147.006-.294.016-.442H49.812c.011.148.016.3.016.442a6.358,6.358,0,1,1-12.716,0Zm-1.826-2.236a.266.266,0,0,1,.263-.263H51.392a.263.263,0,0,1,0,.525H35.55A.266.266,0,0,1,35.287,35.452ZM43.471,27.4a7.036,7.036,0,0,0-6.985,6.261H50.455A7.036,7.036,0,0,0,43.471,27.4Zm8.984,26.71H34.487V53.37H52.454ZM39.821,46.1a14.468,14.468,0,0,1,7.3,0,5.015,5.015,0,0,1-7.3,0ZM43.461,49.2a6.883,6.883,0,0,1-5.231-2.584,14.036,14.036,0,0,0-3.743,2.206v3.014H52.454V48.8a14.14,14.14,0,0,0-3.738-2.184A6.882,6.882,0,0,1,43.481,49.2h-.02ZM35.242,57.7a15.715,15.715,0,0,0-.42-2.057H52.454V57.7Zm23.888.7a.766.766,0,0,1-.762.835H4.765A.767.767,0,0,1,4,58.392a15.732,15.732,0,0,1,11.81-13.82,7.9,7.9,0,0,1-4.04-6.884c0-.147.005-.294.013-.442h-.044a1.793,1.793,0,0,1-.611-3.479,8.557,8.557,0,0,1,17.063,0,1.793,1.793,0,0,1-.611,3.479h-.045c.008.148.014.3.014.442a7.9,7.9,0,0,1-4.041,6.884A15.671,15.671,0,0,1,30.3,48.238a15.926,15.926,0,0,1,1.27,1.308,15.579,15.579,0,0,1,8.048-4.978,7.893,7.893,0,0,1-4.033-6.88c0-.147.005-.294.013-.442H35.55a1.793,1.793,0,0,1-.611-3.479,8.557,8.557,0,0,1,17.063,0,1.793,1.793,0,0,1-.61,3.479h-.046c.008.148.013.3.013.442a7.894,7.894,0,0,1-4.04,6.884,15.731,15.731,0,0,1,11.81,13.82Z" transform="translate(0)" fill="#242222" fill-rule="evenodd"/>
    </g>
  </g>
</svg>
