<svg xmlns="http://www.w3.org/2000/svg" xmlns:xlink="http://www.w3.org/1999/xlink" width="110" height="110" viewBox="0 0 110 110">
  <defs>
    <filter id="Trazado_982547" x="0" y="0" width="110" height="110" filterUnits="userSpaceOnUse">
      <feOffset dy="3" input="SourceAlpha"/>
      <feGaussianBlur stdDeviation="3" result="blur"/>
      <feFlood flood-opacity="0.161"/>
      <feComposite operator="in" in2="blur"/>
      <feComposite in="SourceGraphic"/>
    </filter>
  </defs>
  <g id="Grupo_1173985" data-name="Grupo 1173985" transform="translate(1393 -7954.891)">
    <g id="Grupo_1173218" data-name="Grupo 1173218" transform="translate(-1384 7960.891)">
      <g id="Grupo_1171898" data-name="Grupo 1171898" transform="translate(0 0)">
        <g id="Grupo_1164700" data-name="Grupo 1164700" transform="translate(0 0)">
          <g id="Grupo_1160931" data-name="Grupo 1160931" transform="translate(0 0)">
            <g id="Grupo_1160749" data-name="Grupo 1160749" transform="translate(0 0)">
              <g id="Grupo_1158891" data-name="Grupo 1158891" transform="translate(0 0)">
                <g id="Grupo_1157406" data-name="Grupo 1157406" transform="translate(0 0)">
                  <g id="Grupo_1155793" data-name="Grupo 1155793">
                    <g id="Grupo_1154704" data-name="Grupo 1154704">
                      <g id="Grupo_1150790" data-name="Grupo 1150790">
                        <g id="Grupo_1154214" data-name="Grupo 1154214">
                          <g id="Grupo_1152583" data-name="Grupo 1152583">
                            <g id="Grupo_1146973" data-name="Grupo 1146973">
                              <g id="Grupo_1146954" data-name="Grupo 1146954">
                                <g transform="matrix(1, 0, 0, 1, -9, -6)" filter="url(#Trazado_982547)">
                                  <g id="Trazado_982547-2" data-name="Trazado 982547" transform="translate(9 6)" fill="#e9f9fd">
                                    <path d="M 46.0000114440918 90.49988555908203 C 39.99188995361328 90.49988555908203 34.16427993774414 89.32352447509766 28.6790657043457 87.00347137451172 C 23.38021087646484 84.76226043701172 18.62105178833008 81.55342864990234 14.53375816345215 77.46615600585938 C 10.44647789001465 73.37887573242188 7.237651348114014 68.61971282958984 4.996424674987793 63.32085800170898 C 2.676371335983276 57.83565902709961 1.500011444091797 52.00806045532227 1.500011444091797 45.99993896484375 C 1.500011444091797 39.99181747436523 2.676371335983276 34.16421890258789 4.996424674987793 28.67901802062988 C 7.237651348114014 23.38017845153809 10.44647789001465 18.62101936340332 14.53375816345215 14.53373908996582 C 18.62105178833008 10.44645881652832 23.38021087646484 7.237632274627686 28.6790657043457 4.996418952941895 C 34.16427993774414 2.676365613937378 39.99188995361328 1.500005602836609 46.0000114440918 1.500005602836609 C 52.00813293457031 1.500005602836609 57.83574295043945 2.676365613937378 63.32095718383789 4.996418952941895 C 68.61981201171875 7.237632274627686 73.37898254394531 10.44645881652832 77.46626281738281 14.53373908996582 C 81.55355834960938 18.62101936340332 84.76237487792969 23.38017845153809 87.00360107421875 28.67901802062988 C 89.32365417480469 34.16421890258789 90.50001525878906 39.99181747436523 90.50001525878906 45.99993896484375 C 90.50001525878906 52.00806045532227 89.32365417480469 57.83565902709961 87.00360107421875 63.32085800170898 C 84.76237487792969 68.61971282958984 81.55355834960938 73.37887573242188 77.46626281738281 77.46615600585938 C 73.37898254394531 81.55342864990234 68.61981201171875 84.76226043701172 63.32095718383789 87.00347137451172 C 57.83574295043945 89.32352447509766 52.00813293457031 90.49988555908203 46.0000114440918 90.49988555908203 Z" stroke="none"/>
                                    <path d="M 46.0000114440918 2.999992370605469 C 40.1937255859375 2.999992370605469 34.56270980834961 4.136497497558594 29.26339721679688 6.377906799316406 C 24.14334106445312 8.543510437011719 19.54442596435547 11.64437866210938 15.59441375732422 15.59439849853516 C 11.6444091796875 19.54439544677734 8.543525695800781 24.14329528808594 6.377922058105469 29.26335144042969 C 4.136512756347656 34.56266784667969 3.000007629394531 40.19366836547852 3.000007629394531 45.99993896484375 C 3.000007629394531 51.80620956420898 4.136512756347656 57.43722534179688 6.377922058105469 62.73654174804688 C 8.543525695800781 67.85658264160156 11.6444091796875 72.45548248291016 15.59441375732422 76.40549468994141 C 19.54442596435547 80.35549926757812 24.14334106445312 83.45636749267578 29.26338195800781 85.62196350097656 C 34.56270980834961 87.86338043212891 40.1937255859375 88.9998779296875 46.0000114440918 88.9998779296875 C 51.80629730224609 88.9998779296875 57.43731307983398 87.86338043212891 62.73664093017578 85.62196350097656 C 67.85668182373047 83.45636749267578 72.45559692382812 80.35549926757812 76.40560913085938 76.40549468994141 C 80.35561370849609 72.45548248291016 83.45649719238281 67.85658264160156 85.62210083007812 62.73654174804688 C 87.86351013183594 57.43722534179688 89.00001525878906 51.80620956420898 89.00001525878906 45.99993896484375 C 89.00001525878906 40.19366836547852 87.86351013183594 34.56266784667969 85.62210083007812 29.26335144042969 C 83.45649719238281 24.14329528808594 80.35561370849609 19.54439544677734 76.40560913085938 15.59439849853516 C 72.45559692382812 11.64437866210938 67.85668182373047 8.543510437011719 62.73662567138672 6.377906799316406 C 57.43731307983398 4.136497497558594 51.80629730224609 2.999992370605469 46.0000114440918 2.999992370605469 M 46.0000114440918 -7.62939453125e-06 C 71.40511322021484 -7.62939453125e-06 92.00001525878906 20.59487915039062 92.00001525878906 45.99993896484375 C 92.00001525878906 71.40501403808594 71.40511322021484 91.99988555908203 46.0000114440918 91.99988555908203 C 20.59490966796875 91.99988555908203 7.62939453125e-06 71.40501403808594 7.62939453125e-06 45.99993896484375 C 7.62939453125e-06 20.59487915039062 20.59490966796875 -7.62939453125e-06 46.0000114440918 -7.62939453125e-06 Z" stroke="none" fill="#36ceef"/>
                                  </g>
                                </g>
                              </g>
                            </g>
                          </g>
                        </g>
                      </g>
                    </g>
                  </g>
                </g>
              </g>
            </g>
          </g>
        </g>
      </g>
    </g>
    <g id="Page-1" transform="translate(-1361.174 7972.222)">
      <g id="_004---Pregnant-Woman" data-name="004---Pregnant-Woman" transform="translate(-0.012 0)">
        <path id="Shape" d="M8.678,63.091a22.944,22.944,0,0,1,2.2-9.3C5.807,50.961,2,45.809,2,37.5A16.543,16.543,0,0,1,9.814,22.74a2.585,2.585,0,0,0-.022.289,8.514,8.514,0,0,1,5.564,2.226,68.849,68.849,0,0,0,18.362,6.488,19.5,19.5,0,0,0,1.669,9.092c4.451,8.9,6.677,22.256,6.677,22.256Z" transform="translate(-0.875 2.566)" fill="#02a9f4"/>
        <path id="Shape-2" data-name="Shape" d="M34.692,40.835a19.5,19.5,0,0,1-1.669-9.092,68.848,68.848,0,0,1-18.362-6.488A8.514,8.514,0,0,0,9.1,23.029a2.585,2.585,0,0,1,.022-.289c-.328.209-.654.437-.98.675a8.724,8.724,0,0,1,3.184,1.84,68.849,68.849,0,0,0,18.362,6.488,19.5,19.5,0,0,0,1.669,9.092c4.451,8.9,6.677,22.256,6.677,22.256h3.338S39.143,49.737,34.692,40.835Z" transform="translate(-0.181 2.566)" fill="#0377bc"/>
        <path id="Shape-3" data-name="Shape" d="M41.272,35.5a72.556,72.556,0,0,1-8.346-1.3,68.848,68.848,0,0,1-18.362-6.488A8.514,8.514,0,0,0,9,25.482a2.585,2.585,0,0,1,.022-.289,3.977,3.977,0,0,1,2.2-3.049,5.9,5.9,0,0,1,3.862-.389.158.158,0,0,1,.067.022c2.27.445,4.707,1.758,7.2,2.593,2.582.857,7.178.389,11.184,1.68C32.57,21.342,31.7,12.585,34.595,1h2.17c3.372,0,5.687,3.75,5.62,6.677C42.385,13.241,43.5,26.595,41.272,35.5Z" transform="translate(-0.084 0.113)" fill="#ffe0b2"/>
        <path id="Shape-4" data-name="Shape" d="M39.793,7.677C39.86,4.75,37.545,1,34.174,1H32c-.012.051-.022.1-.036.15,2.745.718,4.546,3.942,4.487,6.527,0,5.484,1.075,18.529-1.026,27.428,2.028.3,3.252.393,3.252.393C40.906,26.595,39.793,13.241,39.793,7.677Z" transform="translate(2.507 0.113)" fill="#dfc49c"/>
        <path id="Shape-5" data-name="Shape" d="M33.439,26.05c-4.006-1.291-8.6-.823-11.184-1.68-2.493-.835-4.93-2.148-7.2-2.593a.158.158,0,0,0-.067-.022C8.768,19.673,8.222,11.961,13.353,9.9a11.413,11.413,0,0,0,2.07-1.079A29.5,29.5,0,0,0,23.368,9.9c6.677,0,6.677-8.9,6.677-8.9H34.5C31.6,12.585,32.471,21.342,33.439,26.05Z" transform="translate(0.015 0.113)" fill="#02a9f4"/>
        <path id="Shape-6" data-name="Shape" d="M32.538,1H29.2A57.513,57.513,0,0,0,28,25.314a19.714,19.714,0,0,1,3.481.736C30.513,21.342,29.645,12.585,32.538,1Z" transform="translate(1.973 0.113)" fill="#0377bc"/>
        <path id="Shape-7" data-name="Shape" d="M29.483,1s0,8.9-6.677,8.9A29.5,29.5,0,0,1,14.86,8.823a21.366,21.366,0,0,0,6.221-6.744A2.241,2.241,0,0,1,22.995,1Z" transform="translate(0.577 0.113)" fill="#ffe0b2"/>
        <path id="Shape-8" data-name="Shape" d="M14.79,35.4A4.577,4.577,0,0,1,18.685,33a3.973,3.973,0,0,1,3.895,4.182c0,3.136-3.17,5.212-7.79,9.172C10.171,42.394,7,40.318,7,37.182A3.973,3.973,0,0,1,10.9,33,4.577,4.577,0,0,1,14.79,35.4Z" transform="translate(-0.31 3.723)" fill="#e91e63"/>
        <g id="Grupo_1173984" data-name="Grupo 1173984">
          <path id="Shape-9" data-name="Shape" d="M9.555,56.791a24.527,24.527,0,0,0-1.876,8.866A1.113,1.113,0,0,0,8.791,66.77H42.176a1.113,1.113,0,0,0,1.1-1.3c-.091-.556-2.3-13.621-6.778-22.569a17.234,17.234,0,0,1-1.525-7.219,68.688,68.688,0,0,0,7.122,1.035l.083,0a1.113,1.113,0,0,0,1.079-.842c1.793-7.168,1.468-17.092,1.253-23.659-.057-1.747-.111-3.263-.111-4.407A8.457,8.457,0,0,0,42.011,1.94,6.019,6.019,0,0,0,37.669,0H24.557A3.317,3.317,0,0,0,21.7,1.615,20.307,20.307,0,0,1,15.817,8a10.29,10.29,0,0,1-1.874.978,6.577,6.577,0,0,0-4.178,6.486,7.84,7.84,0,0,0,2.547,5.507,6.1,6.1,0,0,0-.681.29,5.019,5.019,0,0,0-2.705,3.375A17.649,17.649,0,0,0,1,40.062C1,49.3,5.458,54.218,9.555,56.791ZM23.6,2.766a1.113,1.113,0,0,1,.954-.541h5.3C29.629,4.381,28.636,8.9,24.371,8.9a28.89,28.89,0,0,1-5.406-.513A24.7,24.7,0,0,0,23.6,2.766ZM11.99,15.393a4.34,4.34,0,0,1,2.772-4.34,12.463,12.463,0,0,0,1.824-.926,30.793,30.793,0,0,0,7.79,1c5.554,0,7.419-5.316,7.734-8.9H34.1A59.307,59.307,0,0,0,33.042,24.65a38.6,38.6,0,0,0-5.217-.642,19.756,19.756,0,0,1-4.21-.582c-.935-.312-1.892-.7-2.809-1.084A25.618,25.618,0,0,0,16.314,20.8a6.016,6.016,0,0,1-4.323-5.407Zm.637,7.86a4.738,4.738,0,0,1,3.07-.31,1.182,1.182,0,0,0,.282.057,25.039,25.039,0,0,1,3.973,1.4c.957.394,1.946.8,2.955,1.138a20.991,20.991,0,0,0,4.747.689c3.17.237,6.766.505,9.4,2.484a1.113,1.113,0,1,0,1.335-1.781,11.78,11.78,0,0,0-2.976-1.584,56.253,56.253,0,0,1,.966-23.121h1.286A3.9,3.9,0,0,1,40.424,3.5,6.343,6.343,0,0,1,42.176,7.79c0,1.188.05,2.73.111,4.5.2,6.156.5,15.318-.969,22.111-3.371-.377-15.1-2.022-25.193-7.494a9.826,9.826,0,0,0-4.844-2.318,2.863,2.863,0,0,1,1.347-1.335Zm-2.74,3.455H9.9a7.473,7.473,0,0,1,4.777,1.9,1.147,1.147,0,0,0,.254.19,68.932,68.932,0,0,0,17.782,6.419A19.731,19.731,0,0,0,34.5,43.9c3.531,7.051,5.663,17.1,6.343,20.647H9.961a22.25,22.25,0,0,1,1.558-6.677,25.666,25.666,0,0,0,11.01,2.393,27.783,27.783,0,0,0,3.083-.171,1.113,1.113,0,1,0-.247-2.212,23.675,23.675,0,0,1-13.824-2.492C7.746,53.27,3.227,48.9,3.227,40.062c0-5.794,2.258-10.272,6.66-13.354Z" transform="translate(-0.988 0)"/>
          <path id="Shape-10" data-name="Shape" d="M12.168,45.617c.632.527,1.3,1.089,2.011,1.695a1.113,1.113,0,0,0,1.447,0c.707-.605,1.379-1.167,2.011-1.695,3.721-3.1,6.17-5.148,6.17-8.322A5.1,5.1,0,0,0,18.8,32,5.349,5.349,0,0,0,14.9,33.675,5.349,5.349,0,0,0,11.008,32,5.1,5.1,0,0,0,6,37.295C6,40.469,8.449,42.516,12.168,45.617Zm-1.16-11.391a3.441,3.441,0,0,1,2.9,1.794,1.113,1.113,0,0,0,.986.606H14.9a1.12,1.12,0,0,0,.99-.606,3.44,3.44,0,0,1,2.9-1.794,2.872,2.872,0,0,1,2.782,3.069c0,2.132-2.02,3.819-5.367,6.614-.42.351-.857.714-1.31,1.1-.453-.383-.89-.747-1.31-1.1-3.347-2.794-5.367-4.481-5.367-6.614a2.872,2.872,0,0,1,2.782-3.069Z" transform="translate(-0.423 3.61)"/>
        </g>
      </g>
    </g>
  </g>
</svg>
