<svg xmlns="http://www.w3.org/2000/svg" xmlns:xlink="http://www.w3.org/1999/xlink" width="110" height="110" viewBox="0 0 110 110">
  <defs>
    <filter id="Trazado_982547" x="0" y="0" width="110" height="110" filterUnits="userSpaceOnUse">
      <feOffset dy="3" input="SourceAlpha"/>
      <feGaussianBlur stdDeviation="3" result="blur"/>
      <feFlood flood-opacity="0.161"/>
      <feComposite operator="in" in2="blur"/>
      <feComposite in="SourceGraphic"/>
    </filter>
  </defs>
  <g id="Grupo_1174023" data-name="Grupo 1174023" transform="translate(-1113.608 -8548.391)">
    <g id="Grupo_1173223" data-name="Grupo 1173223" transform="translate(1122.608 8554.391)">
      <g id="Grupo_1171898" data-name="Grupo 1171898" transform="translate(0 0)">
        <g id="Grupo_1164700" data-name="Grupo 1164700" transform="translate(0 0)">
          <g id="Grupo_1160931" data-name="Grupo 1160931">
            <g id="Grupo_1160749" data-name="Grupo 1160749">
              <g id="Grupo_1158891" data-name="Grupo 1158891">
                <g id="Grupo_1157406" data-name="Grupo 1157406">
                  <g id="Grupo_1155793" data-name="Grupo 1155793">
                    <g id="Grupo_1154704" data-name="Grupo 1154704">
                      <g id="Grupo_1150790" data-name="Grupo 1150790">
                        <g id="Grupo_1154214" data-name="Grupo 1154214">
                          <g id="Grupo_1152583" data-name="Grupo 1152583">
                            <g id="Grupo_1146973" data-name="Grupo 1146973">
                              <g id="Grupo_1146954" data-name="Grupo 1146954">
                                <g transform="matrix(1, 0, 0, 1, -9, -6)" filter="url(#Trazado_982547)">
                                  <g id="Trazado_982547-2" data-name="Trazado 982547" transform="translate(9 6)" fill="#e9f9fd">
                                    <path d="M 46.0000114440918 90.49988555908203 C 39.99188995361328 90.49988555908203 34.16427993774414 89.32352447509766 28.6790657043457 87.00347137451172 C 23.38021087646484 84.76226043701172 18.62105178833008 81.55342864990234 14.53375816345215 77.46615600585938 C 10.44647789001465 73.37887573242188 7.237651348114014 68.61971282958984 4.996424674987793 63.32085800170898 C 2.676371335983276 57.83565902709961 1.500011444091797 52.00806045532227 1.500011444091797 45.99993896484375 C 1.500011444091797 39.99181747436523 2.676371335983276 34.16421890258789 4.996424674987793 28.67901802062988 C 7.237651348114014 23.38017845153809 10.44647789001465 18.62101936340332 14.53375816345215 14.53373908996582 C 18.62105178833008 10.44645881652832 23.38021087646484 7.237632274627686 28.6790657043457 4.996418952941895 C 34.16427993774414 2.676365613937378 39.99188995361328 1.500005602836609 46.0000114440918 1.500005602836609 C 52.00813293457031 1.500005602836609 57.83574295043945 2.676365613937378 63.32095718383789 4.996418952941895 C 68.61981201171875 7.237632274627686 73.37898254394531 10.44645881652832 77.46626281738281 14.53373908996582 C 81.55355834960938 18.62101936340332 84.76237487792969 23.38017845153809 87.00360107421875 28.67901802062988 C 89.32365417480469 34.16421890258789 90.50001525878906 39.99181747436523 90.50001525878906 45.99993896484375 C 90.50001525878906 52.00806045532227 89.32365417480469 57.83565902709961 87.00360107421875 63.32085800170898 C 84.76237487792969 68.61971282958984 81.55355834960938 73.37887573242188 77.46626281738281 77.46615600585938 C 73.37898254394531 81.55342864990234 68.61981201171875 84.76226043701172 63.32095718383789 87.00347137451172 C 57.83574295043945 89.32352447509766 52.00813293457031 90.49988555908203 46.0000114440918 90.49988555908203 Z" stroke="none"/>
                                    <path d="M 46.0000114440918 2.999992370605469 C 40.1937255859375 2.999992370605469 34.56270980834961 4.136497497558594 29.26339721679688 6.377906799316406 C 24.14334106445312 8.543510437011719 19.54442596435547 11.64437866210938 15.59441375732422 15.59439849853516 C 11.6444091796875 19.54439544677734 8.543525695800781 24.14329528808594 6.377922058105469 29.26335144042969 C 4.136512756347656 34.56266784667969 3.000007629394531 40.19366836547852 3.000007629394531 45.99993896484375 C 3.000007629394531 51.80620956420898 4.136512756347656 57.43722534179688 6.377922058105469 62.73654174804688 C 8.543525695800781 67.85658264160156 11.6444091796875 72.45548248291016 15.59441375732422 76.40549468994141 C 19.54442596435547 80.35549926757812 24.14334106445312 83.45636749267578 29.26338195800781 85.62196350097656 C 34.56270980834961 87.86338043212891 40.1937255859375 88.9998779296875 46.0000114440918 88.9998779296875 C 51.80629730224609 88.9998779296875 57.43731307983398 87.86338043212891 62.73664093017578 85.62196350097656 C 67.85668182373047 83.45636749267578 72.45559692382812 80.35549926757812 76.40560913085938 76.40549468994141 C 80.35561370849609 72.45548248291016 83.45649719238281 67.85658264160156 85.62210083007812 62.73654174804688 C 87.86351013183594 57.43722534179688 89.00001525878906 51.80620956420898 89.00001525878906 45.99993896484375 C 89.00001525878906 40.19366836547852 87.86351013183594 34.56266784667969 85.62210083007812 29.26335144042969 C 83.45649719238281 24.14329528808594 80.35561370849609 19.54439544677734 76.40560913085938 15.59439849853516 C 72.45559692382812 11.64437866210938 67.85668182373047 8.543510437011719 62.73662567138672 6.377906799316406 C 57.43731307983398 4.136497497558594 51.80629730224609 2.999992370605469 46.0000114440918 2.999992370605469 M 46.0000114440918 -7.62939453125e-06 C 71.40511322021484 -7.62939453125e-06 92.00001525878906 20.59487915039062 92.00001525878906 45.99993896484375 C 92.00001525878906 71.40501403808594 71.40511322021484 91.99988555908203 46.0000114440918 91.99988555908203 C 20.59490966796875 91.99988555908203 7.62939453125e-06 71.40501403808594 7.62939453125e-06 45.99993896484375 C 7.62939453125e-06 20.59487915039062 20.59490966796875 -7.62939453125e-06 46.0000114440918 -7.62939453125e-06 Z" stroke="none" fill="#36ceef"/>
                                  </g>
                                </g>
                              </g>
                            </g>
                          </g>
                        </g>
                      </g>
                    </g>
                  </g>
                </g>
              </g>
            </g>
          </g>
        </g>
      </g>
    </g>
    <g id="pay-day_18274299" transform="translate(1138.502 8572.588)">
      <g id="Grupo_1174022" data-name="Grupo 1174022" transform="translate(1.332 1.331)">
        <g id="Grupo_1173987" data-name="Grupo 1173987" transform="translate(0 3.82)">
          <path id="Trazado_1031249" data-name="Trazado 1031249" d="M9.945,40.629H41.92a2.27,2.27,0,0,1,2.264,2.264V69.331a2.268,2.268,0,0,1-2.264,2.26H9.945a2.268,2.268,0,0,1-2.264-2.26V42.893a2.27,2.27,0,0,1,2.264-2.264Z" transform="translate(-7.681 -40.629)" fill="#e3f5ff" fill-rule="evenodd"/>
        </g>
        <g id="Grupo_1173988" data-name="Grupo 1173988" transform="translate(31.759 3.82)">
          <path id="Trazado_1031250" data-name="Trazado 1031250" d="M281.754,40.629h2.48a2.27,2.27,0,0,1,2.264,2.264V69.331a2.268,2.268,0,0,1-2.264,2.26h-2.48a2.267,2.267,0,0,0,2.26-2.26V42.893A2.27,2.27,0,0,0,281.754,40.629Z" transform="translate(-281.754 -40.629)" fill="#c4d3e4" fill-rule="evenodd"/>
        </g>
        <g id="Grupo_1173989" data-name="Grupo 1173989" transform="translate(2.915 28.463)">
          <path id="Trazado_1031251" data-name="Trazado 1031251" d="M42.57,253.3a10.653,10.653,0,0,1,9.732,6.319H32.841A10.651,10.651,0,0,1,42.57,253.3Z" transform="translate(-32.841 -253.3)" fill="#c4d3e4" fill-rule="evenodd"/>
        </g>
        <g id="Grupo_1173990" data-name="Grupo 1173990" transform="translate(0 3.82)">
          <path id="Trazado_1031252" data-name="Trazado 1031252" d="M9.945,40.629H41.92a2.27,2.27,0,0,1,2.264,2.264v6.63H7.681v-6.63A2.27,2.27,0,0,1,9.945,40.629Z" transform="translate(-7.681 -40.629)" fill="#6ba7ff" fill-rule="evenodd"/>
        </g>
        <g id="Grupo_1173991" data-name="Grupo 1173991" transform="translate(5.991)">
          <path id="Trazado_1031253" data-name="Trazado 1031253" d="M60.283,7.667h3.128a.9.9,0,0,1,.9.9v6.561a.9.9,0,0,1-.9.9H60.283a.9.9,0,0,1-.9-.9V8.568A.9.9,0,0,1,60.283,7.667Z" transform="translate(-59.385 -7.667)" fill="#ec5a6e" fill-rule="evenodd"/>
        </g>
        <g id="Grupo_1173992" data-name="Grupo 1173992" transform="translate(15.789)">
          <path id="Trazado_1031254" data-name="Trazado 1031254" d="M144.837,7.667h3.128a.9.9,0,0,1,.9.9v6.561a.9.9,0,0,1-.9.9h-3.128a.9.9,0,0,1-.9-.9V8.568A.9.9,0,0,1,144.837,7.667Z" transform="translate(-143.939 -7.667)" fill="#ec5a6e" fill-rule="evenodd"/>
        </g>
        <g id="Grupo_1173993" data-name="Grupo 1173993" transform="translate(25.587)">
          <path id="Trazado_1031255" data-name="Trazado 1031255" d="M229.392,7.667h3.128a.9.9,0,0,1,.9.9v6.561a.9.9,0,0,1-.9.9h-3.128a.9.9,0,0,1-.9-.9V8.568A.9.9,0,0,1,229.392,7.667Z" transform="translate(-228.494 -7.667)" fill="#ec5a6e" fill-rule="evenodd"/>
        </g>
        <g id="Grupo_1173994" data-name="Grupo 1173994" transform="translate(4.049 15.796)">
          <path id="Trazado_1031256" data-name="Trazado 1031256" d="M43.287,143.982h4.668a.668.668,0,0,1,.665.668v4.665a.668.668,0,0,1-.665.668H43.287a.668.668,0,0,1-.665-.668V144.65A.668.668,0,0,1,43.287,143.982Z" transform="translate(-42.622 -143.982)" fill="#6ba7ff" fill-rule="evenodd"/>
        </g>
        <g id="Grupo_1173995" data-name="Grupo 1173995" transform="translate(15.252 15.796)">
          <path id="Trazado_1031257" data-name="Trazado 1031257" d="M139.968,143.982h4.668a.668.668,0,0,1,.665.668v4.665a.668.668,0,0,1-.665.668h-4.668a.668.668,0,0,1-.665-.668V144.65A.668.668,0,0,1,139.968,143.982Z" transform="translate(-139.303 -143.982)" fill="#6ba7ff" fill-rule="evenodd"/>
        </g>
        <g id="Grupo_1173996" data-name="Grupo 1173996" transform="translate(26.455 15.796)">
          <path id="Trazado_1031258" data-name="Trazado 1031258" d="M236.65,143.982h4.668a.668.668,0,0,1,.665.668v4.665a.668.668,0,0,1-.665.668H236.65a.668.668,0,0,1-.665-.668V144.65A.668.668,0,0,1,236.65,143.982Z" transform="translate(-235.985 -143.982)" fill="#6ba7ff" fill-rule="evenodd"/>
        </g>
        <g id="Grupo_1173997" data-name="Grupo 1173997" transform="translate(4.049 25.698)">
          <path id="Trazado_1031259" data-name="Trazado 1031259" d="M43.287,229.441h4.668a.668.668,0,0,1,.665.668v4.665a.668.668,0,0,1-.665.668H43.287a.668.668,0,0,1-.665-.668v-4.665A.668.668,0,0,1,43.287,229.441Z" transform="translate(-42.622 -229.441)" fill="#6ba7ff" fill-rule="evenodd"/>
        </g>
        <g id="Grupo_1173998" data-name="Grupo 1173998" transform="translate(15.252 25.698)">
          <path id="Trazado_1031260" data-name="Trazado 1031260" d="M139.968,229.441h4.668a.668.668,0,0,1,.665.668v4.665a.668.668,0,0,1-.665.668h-4.668a.668.668,0,0,1-.665-.668v-4.665A.668.668,0,0,1,139.968,229.441Z" transform="translate(-139.303 -229.441)" fill="#6ba7ff" fill-rule="evenodd"/>
        </g>
        <g id="Grupo_1173999" data-name="Grupo 1173999" transform="translate(24.293 25.99)">
          <path id="Trazado_1031261" data-name="Trazado 1031261" d="M217.328,231.957h33.256v17.981H217.328Z" transform="translate(-217.328 -231.957)" fill="#396" fill-rule="evenodd"/>
        </g>
        <g id="Grupo_1174000" data-name="Grupo 1174000" transform="translate(25.482 27.179)">
          <path id="Trazado_1031262" data-name="Trazado 1031262" d="M227.589,242.219h30.878v15.6H227.589Z" transform="translate(-227.589 -242.219)" fill="#6c9" fill-rule="evenodd"/>
        </g>
        <g id="Grupo_1174001" data-name="Grupo 1174001" transform="translate(27.474 28.81)">
          <path id="Trazado_1031263" data-name="Trazado 1031263" d="M268.536,268.639H248.01a3.111,3.111,0,0,0-3.233-2.974v-6.4a3.11,3.11,0,0,0,3.233-2.971h20.526a3.11,3.11,0,0,0,3.233,2.971v6.4A3.111,3.111,0,0,0,268.536,268.639Z" transform="translate(-244.777 -256.296)" fill="#396" fill-rule="evenodd"/>
        </g>
        <g id="Grupo_1174002" data-name="Grupo 1174002" transform="translate(45.334 24.283)">
          <path id="Trazado_1031264" data-name="Trazado 1031264" d="M403.1,219.328v2.824a2.1,2.1,0,1,1-4.2,0v-2.824a2.1,2.1,0,0,1,4.2,0Z" transform="translate(-398.902 -217.228)" fill="#ffaa7b" fill-rule="evenodd"/>
        </g>
        <g id="Grupo_1174003" data-name="Grupo 1174003" transform="translate(41.131 23.16)">
          <path id="Trazado_1031265" data-name="Trazado 1031265" d="M366.836,209.635v2.824a2.1,2.1,0,0,1-4.2,0v-2.824a2.1,2.1,0,1,1,4.2,0Z" transform="translate(-362.633 -207.532)" fill="#ffaa7b" fill-rule="evenodd"/>
        </g>
        <g id="Grupo_1174004" data-name="Grupo 1174004" transform="translate(36.928 23.481)">
          <path id="Trazado_1031266" data-name="Trazado 1031266" d="M330.566,212.405v2.824a2.1,2.1,0,0,1-4.2,0v-2.824a2.1,2.1,0,1,1,4.2,0Z" transform="translate(-326.363 -210.302)" fill="#ffaa7b" fill-rule="evenodd"/>
        </g>
        <g id="Grupo_1174005" data-name="Grupo 1174005" transform="translate(32.725 24.028)">
          <path id="Trazado_1031267" data-name="Trazado 1031267" d="M294.3,217.123v2.824a2.1,2.1,0,1,1-4.2,0v-2.824a2.1,2.1,0,0,1,4.2,0Z" transform="translate(-290.093 -215.023)" fill="#ffaa7b" fill-rule="evenodd"/>
        </g>
        <g id="Grupo_1174006" data-name="Grupo 1174006" transform="translate(27.864 33.803)">
          <path id="Trazado_1031268" data-name="Trazado 1031268" d="M270.717,301.694v7.262a1.976,1.976,0,0,1-.318,1.1l-4.052,6.427v.724l-3.807,3.449L251.7,317.2v-.826a23.863,23.863,0,0,1-3.561-6.83h12.225a1.877,1.877,0,0,0,1.671-.97,7.527,7.527,0,0,1,4.055-2.958v-3.928a2.313,2.313,0,0,1,4.625,0Z" transform="translate(-248.14 -299.381)" fill="#ffc7ab" fill-rule="evenodd"/>
        </g>
        <g id="Grupo_1174007" data-name="Grupo 1174007" transform="translate(15.252 28.784)">
          <path id="Trazado_1031269" data-name="Trazado 1031269" d="M139.3,256.07a10.653,10.653,0,0,1,5.038,2.915h-4.373a.668.668,0,0,1-.665-.668V256.07Z" transform="translate(-139.303 -256.07)" fill="#4888e8" fill-rule="evenodd"/>
        </g>
        <g id="Grupo_1174008" data-name="Grupo 1174008" transform="translate(5.002 28.784)">
          <path id="Trazado_1031270" data-name="Trazado 1031270" d="M50.848,258.985a10.631,10.631,0,0,1,5.045-2.915v2.247a.668.668,0,0,1-.665.668Z" transform="translate(-50.848 -256.07)" fill="#4888e8" fill-rule="evenodd"/>
        </g>
        <g id="Grupo_1174009" data-name="Grupo 1174009" transform="translate(3.502 29.967)">
          <path id="Trazado_1031271" data-name="Trazado 1031271" d="M47.044,284.565a9.144,9.144,0,1,0-9.143-9.146A9.163,9.163,0,0,0,47.044,284.565Z" transform="translate(-37.901 -266.276)" fill="#f0ae42" fill-rule="evenodd"/>
        </g>
        <g id="Grupo_1174010" data-name="Grupo 1174010" transform="translate(4.566 31.031)">
          <path id="Trazado_1031272" data-name="Trazado 1031272" d="M55.167,291.619a8.078,8.078,0,1,0-8.078-8.078A8.09,8.09,0,0,0,55.167,291.619Z" transform="translate(-47.089 -275.463)" fill="#fedb41" fill-rule="evenodd"/>
        </g>
        <g id="Grupo_1174011" data-name="Grupo 1174011" transform="translate(31.759 3.82)">
          <path id="Trazado_1031273" data-name="Trazado 1031273" d="M281.754,40.629h2.48a2.27,2.27,0,0,1,2.264,2.264v6.63h-2.483v-6.63A2.27,2.27,0,0,0,281.754,40.629Z" transform="translate(-281.754 -40.629)" fill="#4888e8" fill-rule="evenodd"/>
        </g>
        <g id="Grupo_1174012" data-name="Grupo 1174012" transform="translate(29.587 15.796)">
          <path id="Trazado_1031274" data-name="Trazado 1031274" d="M263.011,143.982h2.2a.668.668,0,0,1,.665.668v4.665a.668.668,0,0,1-.665.668h-2.2a.671.671,0,0,0,.668-.668V144.65A.671.671,0,0,0,263.011,143.982Z" transform="translate(-263.011 -143.982)" fill="#4888e8" fill-rule="evenodd"/>
        </g>
        <g id="Grupo_1174013" data-name="Grupo 1174013" transform="translate(18.384 15.796)">
          <path id="Trazado_1031275" data-name="Trazado 1031275" d="M166.329,143.982h2.2a.668.668,0,0,1,.665.668v4.665a.668.668,0,0,1-.665.668h-2.2a.671.671,0,0,0,.668-.668V144.65A.671.671,0,0,0,166.329,143.982Z" transform="translate(-166.329 -143.982)" fill="#4888e8" fill-rule="evenodd"/>
        </g>
        <g id="Grupo_1174014" data-name="Grupo 1174014" transform="translate(7.181 15.796)">
          <path id="Trazado_1031276" data-name="Trazado 1031276" d="M69.648,143.982h2.2a.668.668,0,0,1,.665.668v4.665a.668.668,0,0,1-.665.668h-2.2a.671.671,0,0,0,.668-.668V144.65A.671.671,0,0,0,69.648,143.982Z" transform="translate(-69.648 -143.982)" fill="#4888e8" fill-rule="evenodd"/>
        </g>
        <g id="Grupo_1174015" data-name="Grupo 1174015" transform="translate(46.916 24.283)">
          <path id="Trazado_1031277" data-name="Trazado 1031277" d="M415.178,219.328v2.824a2.1,2.1,0,0,1-2.621,2.037,2.109,2.109,0,0,0,1.582-2.038v-2.824a2.108,2.108,0,0,0-1.582-2.034,2.1,2.1,0,0,1,2.621,2.034Z" transform="translate(-412.557 -217.228)" fill="#ed8c57" fill-rule="evenodd"/>
        </g>
        <g id="Grupo_1174016" data-name="Grupo 1174016" transform="translate(42.713 23.16)">
          <path id="Trazado_1031278" data-name="Trazado 1031278" d="M378.909,209.636v2.824a2.1,2.1,0,0,1-2.621,2.034,2.107,2.107,0,0,0,1.582-2.034v-2.824a2.111,2.111,0,0,0-1.582-2.038,2.1,2.1,0,0,1,2.621,2.037Z" transform="translate(-376.288 -207.533)" fill="#ed8c57" fill-rule="evenodd"/>
        </g>
        <g id="Grupo_1174017" data-name="Grupo 1174017" transform="translate(38.51 23.481)">
          <path id="Trazado_1031279" data-name="Trazado 1031279" d="M342.638,212.407v2.824a2.1,2.1,0,0,1-2.621,2.034,2.107,2.107,0,0,0,1.582-2.034v-2.824a2.108,2.108,0,0,0-1.582-2.037,2.1,2.1,0,0,1,2.621,2.037Z" transform="translate(-340.017 -210.304)" fill="#ed8c57" fill-rule="evenodd"/>
        </g>
        <g id="Grupo_1174018" data-name="Grupo 1174018" transform="translate(34.307 24.028)">
          <path id="Trazado_1031280" data-name="Trazado 1031280" d="M306.368,217.123v2.824a2.1,2.1,0,0,1-2.621,2.038,2.111,2.111,0,0,0,1.582-2.038v-2.824a2.108,2.108,0,0,0-1.582-2.034,2.1,2.1,0,0,1,2.621,2.034Z" transform="translate(-303.747 -215.023)" fill="#ed8c57" fill-rule="evenodd"/>
        </g>
        <g id="Grupo_1174019" data-name="Grupo 1174019" transform="translate(41.386 33.803)">
          <path id="Trazado_1031281" data-name="Trazado 1031281" d="M373.891,301.692v7.262a1.976,1.976,0,0,1-.318,1.1l-4.052,6.427v.724l-3.807,3.449-.878-.278,3.5-3.171v-.724l4.052-6.427a1.95,1.95,0,0,0,.318-1.1v-7.262a2.32,2.32,0,0,0-1.72-2.234,2.354,2.354,0,0,1,.593-.079A2.321,2.321,0,0,1,373.891,301.692Z" transform="translate(-364.837 -299.379)" fill="#ffaa7b" fill-rule="evenodd"/>
        </g>
        <g id="Grupo_1174020" data-name="Grupo 1174020" transform="translate(31.441 51.626)">
          <path id="Trazado_1031282" data-name="Trazado 1031282" d="M279.012,453.194h14.63v5.926h-14.63Z" transform="translate(-279.012 -453.194)" fill="#6ba7ff" fill-rule="evenodd"/>
        </g>
        <g id="Grupo_1174021" data-name="Grupo 1174021" transform="translate(44.885 51.626)">
          <path id="Trazado_1031283" data-name="Trazado 1031283" d="M395.029,453.194h1.186v5.926h-1.186Z" transform="translate(-395.029 -453.194)" fill="#4888e8" fill-rule="evenodd"/>
        </g>
      </g>
      <path id="Trazado_1031284" data-name="Trazado 1031284" d="M6.027,23.934H10.7a1.479,1.479,0,0,0,1.475-1.478V17.784A1.477,1.477,0,0,0,10.7,16.309H6.027a1.477,1.477,0,0,0-1.475,1.475v4.672a1.479,1.479,0,0,0,1.475,1.478Zm.144-6.006h4.383v4.386H6.172Zm11.068,6.006h4.672a1.479,1.479,0,0,0,1.475-1.478V17.784a1.477,1.477,0,0,0-1.475-1.475H17.239a1.477,1.477,0,0,0-1.475,1.475v4.672A1.479,1.479,0,0,0,17.239,23.934Zm.144-6.006h4.383v4.386H17.383Zm15.739,6.006A1.479,1.479,0,0,0,34.6,22.456V17.784a1.477,1.477,0,0,0-1.475-1.475H28.451a1.479,1.479,0,0,0-1.479,1.475v4.672a1.48,1.48,0,0,0,1.479,1.478Zm-4.531-6.006h4.386v4.386H28.592ZM4.552,27.695a1.477,1.477,0,0,1,1.475-1.475H10.7a1.477,1.477,0,0,1,1.475,1.475v.993a.81.81,0,1,1-1.619,0v-.849H6.172v4.186a.81.81,0,1,1-1.619,0V27.695Zm11.212,0a1.477,1.477,0,0,1,1.475-1.475h4.672a1.477,1.477,0,0,1,1.475,1.475v4.337a.81.81,0,1,1-1.619,0V27.839H17.383v.852a.81.81,0,0,1-1.619,0v-1ZM58.9,26.511H51.433a2.91,2.91,0,0,0-4.255-1.226,2.911,2.911,0,0,0-4.859-.534,2.907,2.907,0,0,0-3.669-.188V7.4a3.079,3.079,0,0,0-3.075-3.075H32.654V2.209A1.712,1.712,0,0,0,30.942.5H27.815a1.71,1.71,0,0,0-1.708,1.708V4.324H22.848V2.209A1.71,1.71,0,0,0,21.14.5H18.009A1.71,1.71,0,0,0,16.3,2.209V4.324H13.043V2.209A1.71,1.71,0,0,0,11.335.5H8.2A1.71,1.71,0,0,0,6.5,2.209V4.324H3.575A3.079,3.079,0,0,0,.5,7.4V33.858a3.086,3.086,0,0,0,2,2.876.81.81,0,0,0,.567-1.517,1.459,1.459,0,0,1-.946-1.359V14.84H37.03v9.836a2.911,2.911,0,0,0-3.621,1.835H25.622a.81.81,0,0,0-.81.81V45.315a.81.81,0,0,0,.81.81h2.991a24.671,24.671,0,0,0,3.337,6.288v.381a.81.81,0,0,0,.017.166c0,.006,0,.011,0,.017V58.9a.81.81,0,0,0,.81.81H47.416a.81.81,0,0,0,.81-.81V52.483l3.931-6.232c.026-.042.05-.084.074-.126H58.9a.81.81,0,0,0,.81-.81V27.321a.81.81,0,0,0-.81-.81ZM49.475,34.33a3.128,3.128,0,0,0-3.124,3.124v3.383a11.971,11.971,0,0,0-1.659.846H32.757a3.94,3.94,0,0,0-3.142-2.9V33.85a3.941,3.941,0,0,0,3.142-2.9h.571a2.911,2.911,0,0,0,5.194,1.039,2.907,2.907,0,0,0,4.1-.411,2.9,2.9,0,0,0,3.554.268,2.911,2.911,0,0,0,5.486-.9h.2a3.941,3.941,0,0,0,3.142,2.9v4.935A4.1,4.1,0,0,0,52.6,40.2v-2.75a3.128,3.128,0,0,0-3.124-3.124Zm-.7-7.907a1.3,1.3,0,0,1,1.266,1.022c0,.017.005.034.009.05a1.285,1.285,0,0,1,.02.22V30.54a1.293,1.293,0,1,1-2.586,0V27.714a1.293,1.293,0,0,1,1.292-1.292Zm-5.5.167a1.293,1.293,0,0,1,2.587,0v2.826a1.293,1.293,0,1,1-2.587,0V26.59Zm-4.206.321a1.293,1.293,0,0,1,2.586,0v2.826a1.293,1.293,0,1,1-2.586,0V26.911Zm-11.35-24.7a.092.092,0,0,1,.089-.089h3.127a.1.1,0,0,1,.092.089v6.57a.093.093,0,0,1-.092.089H27.815a.09.09,0,0,1-.089-.089Zm-9.805,0a.092.092,0,0,1,.089-.089H21.14a.1.1,0,0,1,.088.089v6.57a.092.092,0,0,1-.088.089H18.01a.09.09,0,0,1-.089-.089Zm-9.805,0A.092.092,0,0,1,8.2,2.12h3.131a.092.092,0,0,1,.089.089v6.57a.09.09,0,0,1-.089.089H8.2a.09.09,0,0,1-.089-.089Zm-6,11.012V7.4A1.457,1.457,0,0,1,3.575,5.943H6.5V8.779A1.71,1.71,0,0,0,8.2,10.487h3.131a1.71,1.71,0,0,0,1.708-1.708V5.943H16.3V8.779a1.71,1.71,0,0,0,1.708,1.708H21.14a1.71,1.71,0,0,0,1.708-1.708V5.943h3.259V8.779a1.71,1.71,0,0,0,1.708,1.708h3.127a1.712,1.712,0,0,0,1.711-1.708V5.943h2.921A1.457,1.457,0,0,1,37.03,7.4v5.822ZM36.162,26.164a1.3,1.3,0,0,1,1.295,1.295v2.826a1.293,1.293,0,0,1-2.586,0V27.458A1.3,1.3,0,0,1,36.162,26.164Zm-9.73,1.967H33.25v1.2h-1.21a.81.81,0,0,0-.81.81,2.31,2.31,0,0,1-2.426,2.167.81.81,0,0,0-.81.81v6.4a.81.81,0,0,0,.81.81,2.309,2.309,0,0,1,2.426,2.164.81.81,0,0,0,.81.81H42.83a5.32,5.32,0,0,0-.432.642,1.058,1.058,0,0,1-.777.547.343.343,0,0,1-.191.013h-15ZM46.606,58.094H33.585V53.787H46.606Zm.125-6.277a.808.808,0,0,0-.119.35H33.568v-.016a.809.809,0,0,0-.156-.477,23.7,23.7,0,0,1-3.077-5.548H41.43a1.756,1.756,0,0,1,.438-.032,2.661,2.661,0,0,0,1.938-1.347,6.7,6.7,0,0,1,3.644-2.6.81.81,0,0,0,.521-.756V37.454a1.5,1.5,0,1,1,3.009,0v7.265a1.246,1.246,0,0,1-.045.344l-.007.022a1.255,1.255,0,0,1-.141.3Zm11.362-7.311H52.6V43.3a.809.809,0,0,0,.793-.809,2.309,2.309,0,0,1,2.426-2.164.81.81,0,0,0,.81-.81v-6.4a.81.81,0,0,0-.81-.81,2.31,2.31,0,0,1-2.426-2.167.81.81,0,0,0-.81-.81h-.888v-1.2h6.4ZM13.964,30.488a9.963,9.963,0,1,0,9.963,9.963,9.972,9.972,0,0,0-9.963-9.963Zm0,18.306a8.343,8.343,0,1,1,8.343-8.343A8.351,8.351,0,0,1,13.964,48.794ZM16,38.323a.81.81,0,1,0,1.619,0,3.17,3.17,0,0,0-2.849-2.864V34.314a.81.81,0,1,0-1.619,0v1.145a3.168,3.168,0,0,0-2.846,2.864,3.169,3.169,0,0,0,2.846,2.864v2.591c-.707-.211-1.226-.682-1.226-1.2a.81.81,0,1,0-1.619,0,3.169,3.169,0,0,0,2.846,2.864v1.145a.81.81,0,1,0,1.619,0V45.442a3.17,3.17,0,0,0,2.849-2.864,3.17,3.17,0,0,0-2.849-2.864v-2.6C15.49,37.325,16,37.793,16,38.323Zm-4.075,0c0-.518.519-.988,1.226-1.2v2.4C12.447,39.311,11.928,38.841,11.928,38.323ZM16,42.578c0,.53-.514,1-1.229,1.2V41.374C15.49,41.581,16,42.049,16,42.578Z"/>
    </g>
  </g>
</svg>
