<svg xmlns="http://www.w3.org/2000/svg" xmlns:xlink="http://www.w3.org/1999/xlink" width="110" height="110" viewBox="0 0 110 110">
  <defs>
    <filter id="Trazado_982547" x="0" y="0" width="110" height="110" filterUnits="userSpaceOnUse">
      <feOffset dy="3" input="SourceAlpha"/>
      <feGaussianBlur stdDeviation="3" result="blur"/>
      <feFlood flood-opacity="0.161"/>
      <feComposite operator="in" in2="blur"/>
      <feComposite in="SourceGraphic"/>
    </filter>
  </defs>
  <g id="Grupo_1174083" data-name="Grupo 1174083" transform="translate(1393 -8974.391)">
    <g id="Grupo_1173228" data-name="Grupo 1173228" transform="translate(-1384 8980.391)">
      <g id="Grupo_1171898" data-name="Grupo 1171898" transform="translate(0 0)">
        <g id="Grupo_1164700" data-name="Grupo 1164700" transform="translate(0 0)">
          <g id="Grupo_1160931" data-name="Grupo 1160931" transform="translate(0 0)">
            <g id="Grupo_1160749" data-name="Grupo 1160749" transform="translate(0 0)">
              <g id="Grupo_1158891" data-name="Grupo 1158891" transform="translate(0 0)">
                <g id="Grupo_1157406" data-name="Grupo 1157406" transform="translate(0 0)">
                  <g id="Grupo_1155793" data-name="Grupo 1155793">
                    <g id="Grupo_1154704" data-name="Grupo 1154704">
                      <g id="Grupo_1150790" data-name="Grupo 1150790">
                        <g id="Grupo_1154214" data-name="Grupo 1154214">
                          <g id="Grupo_1152583" data-name="Grupo 1152583">
                            <g id="Grupo_1146973" data-name="Grupo 1146973">
                              <g id="Grupo_1146954" data-name="Grupo 1146954">
                                <g transform="matrix(1, 0, 0, 1, -9, -6)" filter="url(#Trazado_982547)">
                                  <g id="Trazado_982547-2" data-name="Trazado 982547" transform="translate(9 6)" fill="#e9f9fd">
                                    <path d="M 46.0000114440918 90.49988555908203 C 39.99188995361328 90.49988555908203 34.16427993774414 89.32352447509766 28.6790657043457 87.00347137451172 C 23.38021087646484 84.76226043701172 18.62105178833008 81.55342864990234 14.53375816345215 77.46615600585938 C 10.44647789001465 73.37887573242188 7.237651348114014 68.61971282958984 4.996424674987793 63.32085800170898 C 2.676371335983276 57.83565902709961 1.500011444091797 52.00806045532227 1.500011444091797 45.99993896484375 C 1.500011444091797 39.99181747436523 2.676371335983276 34.16421890258789 4.996424674987793 28.67901802062988 C 7.237651348114014 23.38017845153809 10.44647789001465 18.62101936340332 14.53375816345215 14.53373908996582 C 18.62105178833008 10.44645881652832 23.38021087646484 7.237632274627686 28.6790657043457 4.996418952941895 C 34.16427993774414 2.676365613937378 39.99188995361328 1.500005602836609 46.0000114440918 1.500005602836609 C 52.00813293457031 1.500005602836609 57.83574295043945 2.676365613937378 63.32095718383789 4.996418952941895 C 68.61981201171875 7.237632274627686 73.37898254394531 10.44645881652832 77.46626281738281 14.53373908996582 C 81.55355834960938 18.62101936340332 84.76237487792969 23.38017845153809 87.00360107421875 28.67901802062988 C 89.32365417480469 34.16421890258789 90.50001525878906 39.99181747436523 90.50001525878906 45.99993896484375 C 90.50001525878906 52.00806045532227 89.32365417480469 57.83565902709961 87.00360107421875 63.32085800170898 C 84.76237487792969 68.61971282958984 81.55355834960938 73.37887573242188 77.46626281738281 77.46615600585938 C 73.37898254394531 81.55342864990234 68.61981201171875 84.76226043701172 63.32095718383789 87.00347137451172 C 57.83574295043945 89.32352447509766 52.00813293457031 90.49988555908203 46.0000114440918 90.49988555908203 Z" stroke="none"/>
                                    <path d="M 46.0000114440918 2.999992370605469 C 40.1937255859375 2.999992370605469 34.56270980834961 4.136497497558594 29.26339721679688 6.377906799316406 C 24.14334106445312 8.543510437011719 19.54442596435547 11.64437866210938 15.59441375732422 15.59439849853516 C 11.6444091796875 19.54439544677734 8.543525695800781 24.14329528808594 6.377922058105469 29.26335144042969 C 4.136512756347656 34.56266784667969 3.000007629394531 40.19366836547852 3.000007629394531 45.99993896484375 C 3.000007629394531 51.80620956420898 4.136512756347656 57.43722534179688 6.377922058105469 62.73654174804688 C 8.543525695800781 67.85658264160156 11.6444091796875 72.45548248291016 15.59441375732422 76.40549468994141 C 19.54442596435547 80.35549926757812 24.14334106445312 83.45636749267578 29.26338195800781 85.62196350097656 C 34.56270980834961 87.86338043212891 40.1937255859375 88.9998779296875 46.0000114440918 88.9998779296875 C 51.80629730224609 88.9998779296875 57.43731307983398 87.86338043212891 62.73664093017578 85.62196350097656 C 67.85668182373047 83.45636749267578 72.45559692382812 80.35549926757812 76.40560913085938 76.40549468994141 C 80.35561370849609 72.45548248291016 83.45649719238281 67.85658264160156 85.62210083007812 62.73654174804688 C 87.86351013183594 57.43722534179688 89.00001525878906 51.80620956420898 89.00001525878906 45.99993896484375 C 89.00001525878906 40.19366836547852 87.86351013183594 34.56266784667969 85.62210083007812 29.26335144042969 C 83.45649719238281 24.14329528808594 80.35561370849609 19.54439544677734 76.40560913085938 15.59439849853516 C 72.45559692382812 11.64437866210938 67.85668182373047 8.543510437011719 62.73662567138672 6.377906799316406 C 57.43731307983398 4.136497497558594 51.80629730224609 2.999992370605469 46.0000114440918 2.999992370605469 M 46.0000114440918 -7.62939453125e-06 C 71.40511322021484 -7.62939453125e-06 92.00001525878906 20.59487915039062 92.00001525878906 45.99993896484375 C 92.00001525878906 71.40501403808594 71.40511322021484 91.99988555908203 46.0000114440918 91.99988555908203 C 20.59490966796875 91.99988555908203 7.62939453125e-06 71.40501403808594 7.62939453125e-06 45.99993896484375 C 7.62939453125e-06 20.59487915039062 20.59490966796875 -7.62939453125e-06 46.0000114440918 -7.62939453125e-06 Z" stroke="none" fill="#36ceef"/>
                                  </g>
                                </g>
                              </g>
                            </g>
                          </g>
                        </g>
                      </g>
                    </g>
                  </g>
                </g>
              </g>
            </g>
          </g>
        </g>
      </g>
    </g>
    <g id="crowdfunding_17621125" transform="translate(-1379.538 8981.243)">
      <g id="Grupo_1174082" data-name="Grupo 1174082" transform="translate(10.038 14.636)">
        <path id="Trazado_1031371" data-name="Trazado 1031371" d="M175.319,170.31c0,7.8-6.327,7.8-14.131,7.8s-14.131,0-14.131-7.8c0-11.53,10.534-20.18,10.534-20.18a8.957,8.957,0,0,1-1.862-5.788l1.817-1.2,1.817,1.2,1.817-1.2,1.816,1.2,1.816-1.2,1.816,1.2c.159,2.381-.357,4.387-1.961,5.788,0,0,10.652,8.65,10.652,20.18Z" transform="translate(-130.187 -127.374)" fill="#94e671"/>
        <path id="Trazado_1031372" data-name="Trazado 1031372" d="M36.047,334.7l6.782,12.863-2.766,1.47a2.192,2.192,0,0,1-2.965-.907l-4.724-8.991a2.192,2.192,0,0,1,.907-2.965l2.766-1.47Zm48.5-3.891c-4.153,2.28-9.72,5.1-9.72,5.1-5.932-3.6-15.1-6.115-20.288-7.343a11.6,11.6,0,0,0-7.42.7l-5.26,2.474,6.81,13.056c2.4-1.348,1.016-.355,10.321,3.236,11.469,4.426,19.782-4.429,29.06-10.451,4.7-3.054.843-9.164-3.5-6.778Z" transform="translate(-30.156 -288.478)" fill="#ffd9b3" fill-rule="evenodd"/>
        <g id="Grupo_1174081" data-name="Grupo 1174081" transform="translate(0)">
          <path id="Trazado_1031373" data-name="Trazado 1031373" d="M71.909,362.623,69,364.181a1.579,1.579,0,0,1-2.138-.645l-7.111-13.375a1.579,1.579,0,0,1,.645-2.138l2.905-1.558a1.579,1.579,0,0,1,2.138.645l7.111,13.375A1.579,1.579,0,0,1,71.909,362.623Z" transform="translate(-54.045 -304.163)" fill="#6cf"/>
          <path id="Trazado_1031374" data-name="Trazado 1031374" d="M49.979,28.471H52.4l-4.178,6.14L43.6,28.471h2.419V21.6h3.958v6.875Zm16.48,8.466,4.861-4.861-2.8-2.8L63.66,34.138l-1.71-1.71-1.077,7.607,7.3-1.388-1.71-1.71Zm5.667,13.681V48.2l-6.14,4.618,6.14,4.178V54.576H79V50.617Zm-48.251,0H17v3.958h6.875v2.419l6.14-4.618L23.875,48.2Zm8.466-16.48-4.861-4.861-2.8,2.8,4.861,4.861-1.71,1.71,7.607,1.077-1.388-7.3-1.71,1.71Z" transform="translate(-17 -21.596)" fill="#6cf"/>
        </g>
      </g>
      <path id="Trazado_1031375" data-name="Trazado 1031375" d="M72.039,42.62H66.2V41.239a1.038,1.038,0,0,0-1.661-.829L58.4,45.028a1.038,1.038,0,0,0,.04,1.687l6.14,4.178a1.038,1.038,0,0,0,1.621-.858V48.654h5.838a1.038,1.038,0,0,0,1.038-1.038V43.658a1.038,1.038,0,0,0-1.038-1.038ZM71,46.579H65.163a1.038,1.038,0,0,0-1.038,1.038v.458l-3.32-2.259,3.32-2.5v.34A1.038,1.038,0,0,0,65.163,44.7H71ZM53.911,34.113a1.032,1.032,0,0,0,.194-.018l7.3-1.388a1.038,1.038,0,0,0,.54-1.753l-.977-.977,4.128-4.128a1.038,1.038,0,0,0,0-1.468l-2.8-2.8a1.038,1.038,0,0,0-1.468,0L56.7,25.711l-.977-.977a1.038,1.038,0,0,0-1.761.588L52.884,32.93a1.038,1.038,0,0,0,1.027,1.183Zm1.813-6.441.24.24a1.038,1.038,0,0,0,1.468,0l4.128-4.128,1.331,1.331-4.128,4.128a1.038,1.038,0,0,0,0,1.468l.324.324-3.945.75.582-4.113ZM21.112,29.977l-.977.977a1.038,1.038,0,0,0,.588,1.761l7.607,1.077A1.038,1.038,0,0,0,29.5,32.571l-1.387-7.3a1.038,1.038,0,0,0-1.753-.54l-.977.977-4.128-4.128a1.038,1.038,0,0,0-1.468,0l-2.8,2.8a1.038,1.038,0,0,0,0,1.468l4.128,4.128Zm-.6-6.193,4.128,4.128a1.038,1.038,0,0,0,1.468,0l.324-.324.75,3.945-4.113-.582.241-.241a1.038,1.038,0,0,0,0-1.467l-4.128-4.128,1.331-1.331Zm19.912,4.491a1.038,1.038,0,0,0,.829.414h.025a1.038,1.038,0,0,0,.833-.454l4.178-6.14a1.038,1.038,0,0,0-.858-1.621H44.055V14.637A1.038,1.038,0,0,0,43.017,13.6H39.059a1.038,1.038,0,0,0-1.038,1.038v5.838H36.64a1.038,1.038,0,0,0-.829,1.661l4.618,6.14Zm-1.37-5.726A1.038,1.038,0,0,0,40.1,21.512V15.674H41.98v5.838a1.038,1.038,0,0,0,1.038,1.038h.458l-2.259,3.32-2.5-3.32ZM15.875,50.035a1.038,1.038,0,0,0,1.661.829l6.14-4.618a1.038,1.038,0,0,0-.04-1.687L17.5,40.381a1.038,1.038,0,0,0-1.621.858V42.62H10.038A1.038,1.038,0,0,0,9,43.658v3.958a1.038,1.038,0,0,0,1.038,1.038h5.838v1.381Zm-4.8-3.456V44.7h5.838a1.038,1.038,0,0,0,1.038-1.038V43.2l3.32,2.259-3.32,2.5v-.34a1.038,1.038,0,0,0-1.038-1.038Zm52.85,9.476C61.4,57.441,59.75,58.289,58,59.186l-1.366.7c.065-.666.1-1.419.1-2.266,0-4.946-2.008-10.159-5.806-15.074a38.475,38.475,0,0,0-4.9-5.243,8.152,8.152,0,0,0,1.487-5.771,1.038,1.038,0,0,0-.462-.8l-1.816-1.2a1.038,1.038,0,0,0-1.146,0l-1.244.823L41.6,29.537a1.038,1.038,0,0,0-1.146,0l-1.244.824-1.244-.824a1.038,1.038,0,0,0-1.146,0l-1.817,1.2a1.037,1.037,0,0,0-.464.823,9.816,9.816,0,0,0,1.529,5.655,37.16,37.16,0,0,0-4.279,4.719,28.275,28.275,0,0,0-5.718,12.779l-4.05,1.9a2.613,2.613,0,0,0-3.217-.6L15.9,57.582A2.622,2.622,0,0,0,14.572,60.4l-1.9,1.008a3.23,3.23,0,0,0-1.339,4.364l4.726,9a3.232,3.232,0,0,0,4.368,1.337l1.933-1.027a2.628,2.628,0,0,0,1.89.8,2.6,2.6,0,0,0,1.232-.31l2.905-1.558a2.616,2.616,0,0,0,1.371-2.521.636.636,0,0,1,.255-.07,6.4,6.4,0,0,1,1.44.632,69.845,69.845,0,0,0,7.036,3.11,17.967,17.967,0,0,0,6.527,1.264c6.885,0,12.737-4.21,18.44-8.313,1.64-1.18,3.337-2.4,5.031-3.5,3-1.945,3.1-4.939,1.929-6.9a4.706,4.706,0,0,0-6.5-1.66ZM37.4,31.646l1.244.824a1.038,1.038,0,0,0,1.146,0l1.244-.824,1.244.823a1.038,1.038,0,0,0,1.146,0l1.244-.823.8.532A5.534,5.534,0,0,1,44.1,36.355H37.983a7.791,7.791,0,0,1-1.372-4.189l.784-.519Zm.432,6.784h6.319c1.66,1.393,10.511,9.287,10.511,19.193a16.277,16.277,0,0,1-.232,3.082,55.739,55.739,0,0,0-8.967-3.889,4.112,4.112,0,0,0,.225-3.008c-.586-1.841-2.414-3.1-5.015-3.457a2.285,2.285,0,0,1-2.028-1.382,1.789,1.789,0,0,1,.408-1.814,2.945,2.945,0,0,1,2.205-.793,3.093,3.093,0,0,1,2.289,1.162,1.038,1.038,0,1,0,1.611-1.308,5.143,5.143,0,0,0-3.078-1.842V42.709a1.038,1.038,0,1,0-2.075,0V44.4a4.794,4.794,0,0,0-2.441,1.309,3.882,3.882,0,0,0-.881,3.936,4.3,4.3,0,0,0,3.709,2.762c1.776.243,2.986.983,3.319,2.03a2.057,2.057,0,0,1-.243,1.714c-3.35-1.075-6.521-1.894-8.807-2.435a12.716,12.716,0,0,0-6.329.135c1.64-8.071,8.095-14.171,9.5-15.42ZM19.457,74.272A1.155,1.155,0,0,1,17.9,73.8l-4.726-9a1.155,1.155,0,0,1,.478-1.562l1.8-.956L21.3,73.292l-1.844.98Zm7.954-2.09h0L24.506,73.74a.542.542,0,0,1-.732-.218L16.661,60.144a.543.543,0,0,1,.221-.734l2.905-1.558a.539.539,0,0,1,.255-.064.546.546,0,0,1,.157.023.536.536,0,0,1,.319.259l7.113,13.378a.542.542,0,0,1-.221.733Zm39.952-9.31C65.627,64,63.91,65.234,62.25,66.429c-7.294,5.247-14.182,10.2-23.008,6.8A67.846,67.846,0,0,1,32.395,70.2c-1.648-.834-2.257-1.1-3.407-.623l-5.928-11.15,4.371-2.056a10.615,10.615,0,0,1,6.748-.637c4.892,1.157,13.911,3.607,19.773,7.091a3.645,3.645,0,0,1-1.423,1.909c-2.23,1.488-10-.123-14.374-1.487a1.038,1.038,0,0,0-.619,1.981,62.5,62.5,0,0,0,6.445,1.579,30.541,30.541,0,0,0,5.462.6,7.669,7.669,0,0,0,4.237-.946,5.2,5.2,0,0,0,2.358-3.813c0-.036-.006-.07-.008-.1,1.089-.571,2.017-1.048,2.919-1.511,1.762-.9,3.425-1.759,5.975-3.158a2.626,2.626,0,0,1,3.717.905c.648,1.084.7,2.807-1.278,4.093Z"/>
    </g>
  </g>
</svg>
