<svg xmlns="http://www.w3.org/2000/svg" xmlns:xlink="http://www.w3.org/1999/xlink" width="110" height="110" viewBox="0 0 110 110">
  <defs>
    <filter id="Trazado_982547" x="0" y="0" width="110" height="110" filterUnits="userSpaceOnUse">
      <feOffset dy="3" input="SourceAlpha"/>
      <feGaussianBlur stdDeviation="3" result="blur"/>
      <feFlood flood-opacity="0.161"/>
      <feComposite operator="in" in2="blur"/>
      <feComposite in="SourceGraphic"/>
    </filter>
  </defs>
  <g id="Grupo_1174088" data-name="Grupo 1174088" transform="translate(1073 -8974.391)">
    <g id="Grupo_1173229" data-name="Grupo 1173229" transform="translate(-1064 8980.391)">
      <g id="Grupo_1171898" data-name="Grupo 1171898" transform="translate(0 0)">
        <g id="Grupo_1164700" data-name="Grupo 1164700" transform="translate(0 0)">
          <g id="Grupo_1160931" data-name="Grupo 1160931" transform="translate(0 0)">
            <g id="Grupo_1160749" data-name="Grupo 1160749" transform="translate(0 0)">
              <g id="Grupo_1158891" data-name="Grupo 1158891" transform="translate(0 0)">
                <g id="Grupo_1157406" data-name="Grupo 1157406" transform="translate(0 0)">
                  <g id="Grupo_1155793" data-name="Grupo 1155793">
                    <g id="Grupo_1154704" data-name="Grupo 1154704">
                      <g id="Grupo_1150790" data-name="Grupo 1150790">
                        <g id="Grupo_1154214" data-name="Grupo 1154214">
                          <g id="Grupo_1152583" data-name="Grupo 1152583">
                            <g id="Grupo_1146973" data-name="Grupo 1146973">
                              <g id="Grupo_1146954" data-name="Grupo 1146954">
                                <g transform="matrix(1, 0, 0, 1, -9, -6)" filter="url(#Trazado_982547)">
                                  <g id="Trazado_982547-2" data-name="Trazado 982547" transform="translate(9 6)" fill="#e9f9fd">
                                    <path d="M 46.0000114440918 90.49988555908203 C 39.99188995361328 90.49988555908203 34.16427993774414 89.32352447509766 28.6790657043457 87.00347137451172 C 23.38021087646484 84.76226043701172 18.62105178833008 81.55342864990234 14.53375816345215 77.46615600585938 C 10.44647789001465 73.37887573242188 7.237651348114014 68.61971282958984 4.996424674987793 63.32085800170898 C 2.676371335983276 57.83565902709961 1.500011444091797 52.00806045532227 1.500011444091797 45.99993896484375 C 1.500011444091797 39.99181747436523 2.676371335983276 34.16421890258789 4.996424674987793 28.67901802062988 C 7.237651348114014 23.38017845153809 10.44647789001465 18.62101936340332 14.53375816345215 14.53373908996582 C 18.62105178833008 10.44645881652832 23.38021087646484 7.237632274627686 28.6790657043457 4.996418952941895 C 34.16427993774414 2.676365613937378 39.99188995361328 1.500005602836609 46.0000114440918 1.500005602836609 C 52.00813293457031 1.500005602836609 57.83574295043945 2.676365613937378 63.32095718383789 4.996418952941895 C 68.61981201171875 7.237632274627686 73.37898254394531 10.44645881652832 77.46626281738281 14.53373908996582 C 81.55355834960938 18.62101936340332 84.76237487792969 23.38017845153809 87.00360107421875 28.67901802062988 C 89.32365417480469 34.16421890258789 90.50001525878906 39.99181747436523 90.50001525878906 45.99993896484375 C 90.50001525878906 52.00806045532227 89.32365417480469 57.83565902709961 87.00360107421875 63.32085800170898 C 84.76237487792969 68.61971282958984 81.55355834960938 73.37887573242188 77.46626281738281 77.46615600585938 C 73.37898254394531 81.55342864990234 68.61981201171875 84.76226043701172 63.32095718383789 87.00347137451172 C 57.83574295043945 89.32352447509766 52.00813293457031 90.49988555908203 46.0000114440918 90.49988555908203 Z" stroke="none"/>
                                    <path d="M 46.0000114440918 2.999992370605469 C 40.1937255859375 2.999992370605469 34.56270980834961 4.136497497558594 29.26339721679688 6.377906799316406 C 24.14334106445312 8.543510437011719 19.54442596435547 11.64437866210938 15.59441375732422 15.59439849853516 C 11.6444091796875 19.54439544677734 8.543525695800781 24.14329528808594 6.377922058105469 29.26335144042969 C 4.136512756347656 34.56266784667969 3.000007629394531 40.19366836547852 3.000007629394531 45.99993896484375 C 3.000007629394531 51.80620956420898 4.136512756347656 57.43722534179688 6.377922058105469 62.73654174804688 C 8.543525695800781 67.85658264160156 11.6444091796875 72.45548248291016 15.59441375732422 76.40549468994141 C 19.54442596435547 80.35549926757812 24.14334106445312 83.45636749267578 29.26338195800781 85.62196350097656 C 34.56270980834961 87.86338043212891 40.1937255859375 88.9998779296875 46.0000114440918 88.9998779296875 C 51.80629730224609 88.9998779296875 57.43731307983398 87.86338043212891 62.73664093017578 85.62196350097656 C 67.85668182373047 83.45636749267578 72.45559692382812 80.35549926757812 76.40560913085938 76.40549468994141 C 80.35561370849609 72.45548248291016 83.45649719238281 67.85658264160156 85.62210083007812 62.73654174804688 C 87.86351013183594 57.43722534179688 89.00001525878906 51.80620956420898 89.00001525878906 45.99993896484375 C 89.00001525878906 40.19366836547852 87.86351013183594 34.56266784667969 85.62210083007812 29.26335144042969 C 83.45649719238281 24.14329528808594 80.35561370849609 19.54439544677734 76.40560913085938 15.59439849853516 C 72.45559692382812 11.64437866210938 67.85668182373047 8.543510437011719 62.73662567138672 6.377906799316406 C 57.43731307983398 4.136497497558594 51.80629730224609 2.999992370605469 46.0000114440918 2.999992370605469 M 46.0000114440918 -7.62939453125e-06 C 71.40511322021484 -7.62939453125e-06 92.00001525878906 20.59487915039062 92.00001525878906 45.99993896484375 C 92.00001525878906 71.40501403808594 71.40511322021484 91.99988555908203 46.0000114440918 91.99988555908203 C 20.59490966796875 91.99988555908203 7.62939453125e-06 71.40501403808594 7.62939453125e-06 45.99993896484375 C 7.62939453125e-06 20.59487915039062 20.59490966796875 -7.62939453125e-06 46.0000114440918 -7.62939453125e-06 Z" stroke="none" fill="#36ceef"/>
                                  </g>
                                </g>
                              </g>
                            </g>
                          </g>
                        </g>
                      </g>
                    </g>
                  </g>
                </g>
              </g>
            </g>
          </g>
        </g>
      </g>
    </g>
    <g id="workplace_11442757" transform="translate(-1056.542 8996.083)">
      <g id="Grupo_1174087" data-name="Grupo 1174087" transform="translate(10.66 1.694)">
        <g id="Grupo_1174084" data-name="Grupo 1174084" transform="translate(0 0)">
          <path id="Trazado_1031376" data-name="Trazado 1031376" d="M55.584,205.92a18.924,18.924,0,0,0-37.848,0Z" transform="translate(-17.736 -166.312)" fill="#64b5f6" fill-rule="evenodd"/>
          <path id="Trazado_1031377" data-name="Trazado 1031377" d="M135.8,193.067a18.771,18.771,0,0,0-3.75-1.356L120.44,213.182h7.241Z" transform="translate(-108.637 -170.485)" fill="#ddd" fill-rule="evenodd"/>
          <path id="Trazado_1031378" data-name="Trazado 1031378" d="M18.239,314.039a18.8,18.8,0,0,0-.5,4.324v1.621a1.471,1.471,0,0,0,1.468,1.468H36.78a3.706,3.706,0,0,0,0-7.413Z" transform="translate(-17.737 -278.755)" fill="#ffd6bd" fill-rule="evenodd"/>
          <circle id="Elipse_11861" data-name="Elipse 11861" cx="10.228" cy="10.228" r="10.228" transform="matrix(1, -0.022, 0.022, 1, 8.479, 0.45)" fill="#ffd6bd"/>
          <path id="Trazado_1031379" data-name="Trazado 1031379" d="M100.462,196.452a18.882,18.882,0,0,0-3.52,1.681l2.7,19.246h7.241Z" transform="translate(-87.839 -174.682)" fill="#eff4f7" fill-rule="evenodd"/>
        </g>
        <g id="Grupo_1174085" data-name="Grupo 1174085" transform="translate(22.698 33.609)">
          <path id="Trazado_1031380" data-name="Trazado 1031380" d="M247.308,327.375V345.13a2.435,2.435,0,0,1-2.428,2.428H217.671a2.435,2.435,0,0,1-2.428-2.428v-17.3Z" transform="translate(-215.243 -324.167)" fill="#c97629" fill-rule="evenodd"/>
          <path id="Trazado_1031381" data-name="Trazado 1031381" d="M336.061,377.025v5.719a.754.754,0,0,1-.751.751h-4.077a.753.753,0,0,1-.751-.751v-5.087Z" transform="translate(-317.238 -368.111)" fill="#b06328" fill-rule="evenodd"/>
          <path id="Trazado_1031382" data-name="Trazado 1031382" d="M216.668,299.462h29.215a1.429,1.429,0,0,1,1.425,1.425v7.22a3.381,3.381,0,0,1-3.371,3.371H218.614a3.381,3.381,0,0,1-3.371-3.371v-7.22a1.429,1.429,0,0,1,1.425-1.425Z" transform="translate(-215.243 -299.462)" fill="#da8c36" fill-rule="evenodd"/>
          <path id="Trazado_1031383" data-name="Trazado 1031383" d="M278.451,335.01H295.06a.526.526,0,0,1,.524.524v2.8a.526.526,0,0,1-.524.524H278.451a.526.526,0,0,1-.524-.524v-2.8A.526.526,0,0,1,278.451,335.01Z" transform="translate(-270.723 -330.925)" fill="#c97629" fill-rule="evenodd"/>
        </g>
        <g id="Grupo_1174086" data-name="Grupo 1174086" transform="translate(32.901 0.228)">
          <path id="Trazado_1031384" data-name="Trazado 1031384" d="M325.885,12.683c-8.275-4.909-13.588-4.909-21.863,0v9.435a9.134,9.134,0,0,0,3.942,7.689l6.989,5.023,6.989-5.023a9.134,9.134,0,0,0,3.943-7.689V12.683Z" transform="translate(-304.022 -9.001)" fill="#3cbe52" fill-rule="evenodd"/>
          <path id="Trazado_1031385" data-name="Trazado 1031385" d="M345.908,37.47c-5.972-3.235-9.915-3.235-15.887,0v7.7a6.153,6.153,0,0,0,2.7,5.262l5.245,3.77,5.245-3.77a6.154,6.154,0,0,0,2.7-5.263Z" transform="translate(-327.033 -32.051)" fill="#72d561" fill-rule="evenodd"/>
          <path id="Trazado_1031386" data-name="Trazado 1031386" d="M360.4,71.95a1.184,1.184,0,0,1,1.674,1.674l-5.7,5.7a1.185,1.185,0,0,1-1.809-.161L352.1,76.072a1.182,1.182,0,0,1,1.85-1.471l1.678,2.112Z" transform="translate(-346.351 -64.408)" fill="#eff4f7" fill-rule="evenodd"/>
        </g>
      </g>
      <path id="Trazado_1031387" data-name="Trazado 1031387" d="M42.787,40.024H55.993V42.6H42.787Zm-.919,4.412H56.913a.919.919,0,0,0,.919-.919V39.1a.92.92,0,0,0-.919-.919H41.868a.92.92,0,0,0-.92.919v4.412A.919.919,0,0,0,41.868,44.436ZM63,57.774H35.786a1.51,1.51,0,0,1-1.509-1.508v-8.8a4.271,4.271,0,0,0,2.453.773h8.363v2.231a1.586,1.586,0,0,0,1.584,1.585H52.1a1.586,1.586,0,0,0,1.584-1.585V48.239h8.364a4.263,4.263,0,0,0,2.451-.773v8.8A1.511,1.511,0,0,1,63,57.774ZM30.358,43.389,28.672,37.9H29.7a2.816,2.816,0,0,1,2.735,2.263v1.049A2.823,2.823,0,0,1,30.358,43.389Zm-18.778-.467V41.3A17.988,17.988,0,0,1,11.9,37.9h8.72l.783,5.575H12.128A.55.55,0,0,1,11.579,42.922Zm7.473-16.215,1.313,9.351H12.358A18.072,18.072,0,0,1,19.053,26.707ZM20.276,12.15a9.308,9.308,0,1,1,9.308,9.308A9.318,9.318,0,0,1,20.276,12.15ZM43.653,30.081a2.83,2.83,0,0,0-1.49,2.492v1.81H34.782c-.017,0-.034,0-.051,0L38.3,25.55a18.03,18.03,0,0,1,5.358,4.531Zm10.136,1.5a.992.992,0,0,1,.991.991v1.81h-6.6a19.817,19.817,0,0,0-1.3-2.8Zm-9.041.031a18.047,18.047,0,0,1,1.45,2.769H44v-1.81a.992.992,0,0,1,.747-.959ZM28.073,35.945l.036.113H29.7a4.634,4.634,0,0,1,2.158.53L36.639,24.74a17.874,17.874,0,0,0-2.105-.749ZM24.423,24.051a18.027,18.027,0,0,1,8.251-.487l-5.359,9.913Zm-3.667,1.564,2.506,17.857h5.2L22.69,24.67a17.88,17.88,0,0,0-1.934.945ZM46.931,48.239v1.976H51.85V48.239ZM64.5,36.727A.512.512,0,0,0,64,36.222H34.782a.513.513,0,0,0-.506.506v7.224A2.456,2.456,0,0,0,36.729,46.4H62.052A2.454,2.454,0,0,0,64.5,43.949V36.727Zm1.839,0A2.347,2.347,0,0,0,64,34.383H56.619v-1.81a2.833,2.833,0,0,0-2.829-2.829H45.7a20.04,20.04,0,0,0-4.426-4.454A19.743,19.743,0,0,0,34.6,22.1a11.147,11.147,0,1,0-10.036,0A19.937,19.937,0,0,0,9.741,41.3v1.62a2.39,2.39,0,0,0,2.387,2.388H29.7a4.61,4.61,0,0,0,2.735-.893V56.266a3.351,3.351,0,0,0,3.348,3.347H63a3.35,3.35,0,0,0,3.347-3.347ZM49.977,12.821a.26.26,0,0,1,.1-.176.253.253,0,0,1,.162-.057l.031,0a.259.259,0,0,1,.176.1L52.122,14.8a.92.92,0,0,0,1.37.078l4.764-4.764a.265.265,0,0,1,.375,0,.264.264,0,0,1,0,.374l-5.7,5.7a.258.258,0,0,1-.21.076.262.262,0,0,1-.2-.113.449.449,0,0,0-.035-.046l-2.457-3.092a.26.26,0,0,1-.055-.193Zm1.058,4.41-2.442-3.073a2.1,2.1,0,1,1,3.289-2.615l1.038,1.306,4.035-4.035a2.1,2.1,0,0,1,2.974,2.974l-5.7,5.7a2.1,2.1,0,0,1-1.485.616c-.062,0-.124,0-.186-.008a2.1,2.1,0,0,1-1.523-.865Zm10.48-9.337v7.145A5.231,5.231,0,0,1,59.2,19.555l-4.708,3.384-4.708-3.384a5.23,5.23,0,0,1-2.316-4.516V7.894c5.252-2.737,8.8-2.737,14.048,0ZM46.11,6.533c6.267-3.395,10.5-3.4,16.764,0a.919.919,0,0,1,.481.808v7.7a7.045,7.045,0,0,1-3.082,6.008l-5.245,3.77a.922.922,0,0,1-1.074,0l-5.245-3.77a7.046,7.046,0,0,1-3.081-6.008v-7.7A.92.92,0,0,1,46.11,6.533ZM64.5,15.039a8.243,8.243,0,0,1-3.559,6.942l-6.453,4.638L48.04,21.981a8.242,8.242,0,0,1-3.56-6.942V6.131c7.6-4.4,12.421-4.4,20.024,0Zm1.39-10.226C61.45,2.178,57.935,1,54.492,1s-6.959,1.176-11.4,3.81a.92.92,0,0,0-.45.791v9.435a10.015,10.015,0,0,0,4.326,8.435L53.955,28.5a.92.92,0,0,0,1.074,0l6.989-5.023a10.016,10.016,0,0,0,4.325-8.435V5.6a.921.921,0,0,0-.449-.791Z" fill-rule="evenodd"/>
    </g>
  </g>
</svg>
