<svg xmlns="http://www.w3.org/2000/svg" xmlns:xlink="http://www.w3.org/1999/xlink" width="108" height="108" viewBox="0 0 108 108">
  <defs>
    <filter id="Trazado_904820" x="0" y="0" width="108" height="108" filterUnits="userSpaceOnUse">
      <feOffset dy="3" input="SourceAlpha"/>
      <feGaussianBlur stdDeviation="3" result="blur"/>
      <feFlood flood-opacity="0.161"/>
      <feComposite operator="in" in2="blur"/>
      <feComposite in="SourceGraphic"/>
    </filter>
  </defs>
  <g id="Grupo_1173232" data-name="Grupo 1173232" transform="translate(9 6)">
    <g id="Grupo_1171910" data-name="Grupo 1171910" transform="translate(0 0)">
      <g id="Grupo_1167341" data-name="Grupo 1167341" transform="translate(0)">
        <g id="Grupo_1166792" data-name="Grupo 1166792" transform="translate(0)">
          <g transform="matrix(1, 0, 0, 1, -9, -6)" filter="url(#Trazado_904820)">
            <g id="Trazado_904820-2" data-name="Trazado 904820" transform="translate(9 6)" fill="#fff4e6">
              <path d="M 44.99999618530273 88.50003051757812 C 39.12687301635742 88.50003051757812 33.43022155761719 87.35010528564453 28.06829643249512 85.08219909667969 C 22.88852119445801 82.89134216308594 18.23629570007324 79.75461578369141 14.24084663391113 75.75916290283203 C 10.24540901184082 71.76371765136719 7.108683586120605 67.11150360107422 4.917821407318115 61.93172836303711 C 2.649921178817749 56.56978988647461 1.499996185302734 50.87313842773438 1.499996185302734 45.00001525878906 C 1.499996185302734 39.12689208984375 2.649921178817749 33.43024063110352 4.917821407318115 28.06831550598145 C 7.108683586120605 22.88854026794434 10.24540901184082 18.23631477355957 14.24084663391113 14.24086570739746 C 18.23629570007324 10.24541568756104 22.88852119445801 7.10869026184082 28.06829643249512 4.917840480804443 C 33.43022155761719 2.649927854537964 39.12687301635742 1.50000274181366 44.99999618530273 1.50000274181366 C 50.87311935424805 1.50000274181366 56.56977081298828 2.649927854537964 61.93169784545898 4.917840480804443 C 67.11147308349609 7.10869026184082 71.76369476318359 10.24541568756104 75.75914764404297 14.24086570739746 C 79.75458526611328 18.23631477355957 82.89131164550781 22.88854026794434 85.08216857910156 28.06831550598145 C 87.35007476806641 33.43024063110352 88.5 39.12689208984375 88.5 45.00001525878906 C 88.5 50.87313842773438 87.35007476806641 56.56978988647461 85.08216857910156 61.93172836303711 C 82.89131164550781 67.11150360107422 79.75458526611328 71.76371765136719 75.75914764404297 75.75916290283203 C 71.76369476318359 79.75461578369141 67.11147308349609 82.89134216308594 61.93169784545898 85.08219909667969 C 56.56977081298828 87.35010528564453 50.87311935424805 88.50003051757812 44.99999618530273 88.50003051757812 Z" stroke="none"/>
              <path d="M 44.99999618530273 3 C 39.32870864868164 3 33.82865142822266 4.110061645507812 28.65262603759766 6.299346923828125 C 23.65165710449219 8.414573669433594 19.15968322753906 11.44334411621094 15.301513671875 15.301513671875 C 11.44333648681641 19.15968322753906 8.414566040039062 23.65165710449219 6.299339294433594 28.65262985229492 C 4.110054016113281 33.82867050170898 2.999992370605469 39.32872772216797 2.999992370605469 45.00001525878906 C 2.999992370605469 50.67130279541016 4.110054016113281 56.17136001586914 6.299339294433594 61.34738922119141 C 8.414566040039062 66.34837341308594 11.44333648681641 70.84033203125 15.301513671875 74.69850158691406 C 19.15968322753906 78.55668640136719 23.65165710449219 81.58545684814453 28.65262603759766 83.70068359375 C 33.82865142822266 85.88996887207031 39.32870864868164 87.00003051757812 44.99999618530273 87.00003051757812 C 50.67128372192383 87.00003051757812 56.17134094238281 85.88996887207031 61.34736633300781 83.70068359375 C 66.34834289550781 81.58545684814453 70.84030914306641 78.55668640136719 74.69847869873047 74.69850158691406 C 78.55665588378906 70.84033203125 81.58542633056641 66.34837341308594 83.70065307617188 61.34738922119141 C 85.88993835449219 56.17136001586914 87 50.67130279541016 87 45.00001525878906 C 87 39.32872772216797 85.88993835449219 33.82867050170898 83.70065307617188 28.65262985229492 C 81.58542633056641 23.65165710449219 78.55665588378906 19.15968322753906 74.69847869873047 15.301513671875 C 70.84030914306641 11.44334411621094 66.34834289550781 8.414573669433594 61.34736633300781 6.299346923828125 C 56.17134094238281 4.110061645507812 50.67128372192383 3 44.99999618530273 3 M 44.99999618530273 0 C 69.85281372070312 0 90 20.14718627929688 90 45.00001525878906 C 90 69.85282897949219 69.85281372070312 90.00003051757812 44.99999618530273 90.00003051757812 C 20.14717864990234 90.00003051757812 -7.62939453125e-06 69.85282897949219 -7.62939453125e-06 45.00001525878906 C -7.62939453125e-06 20.14718627929688 20.14717864990234 0 44.99999618530273 0 Z" stroke="none" fill="#ff9d1c"/>
            </g>
          </g>
        </g>
      </g>
    </g>
    <g id="planning_1045581" transform="translate(5.891 16.506)">
      <path id="Trazado_1031443" data-name="Trazado 1031443" d="M46.481,48.142A13.547,13.547,0,0,1,60.028,34.595V18.134L49.7,7.5h-27V61.689H60.028A13.547,13.547,0,0,1,46.481,48.142Z" transform="translate(-6.682 -6.682)" fill="#fff5cc"/>
      <g id="Grupo_1174095" data-name="Grupo 1174095" transform="translate(23.306 14.912)">
        <rect id="Rectángulo_415077" data-name="Rectángulo 415077" width="6.117" height="6.297" fill="#ffc477"/>
        <rect id="Rectángulo_415078" data-name="Rectángulo 415078" width="6.117" height="6.297" transform="translate(0 11.529)" fill="#ffc477"/>
        <rect id="Rectángulo_415079" data-name="Rectángulo 415079" width="6.117" height="6.297" transform="translate(0 23.057)" fill="#ffc477"/>
      </g>
      <path id="Trazado_1031444" data-name="Trazado 1031444" d="M270.322,7.5V18.134H280.65Z" transform="translate(-227.305 -6.682)" fill="#ffe477"/>
      <g id="Grupo_1174096" data-name="Grupo 1174096" transform="translate(20.035 14.912)">
        <rect id="Rectángulo_415080" data-name="Rectángulo 415080" width="6.117" height="6.297" fill="#c2fb3b"/>
        <rect id="Rectángulo_415081" data-name="Rectángulo 415081" width="6.117" height="6.297" transform="translate(0 11.529)" fill="#c2fb3b"/>
      </g>
      <rect id="Rectángulo_415082" data-name="Rectángulo 415082" width="6.117" height="6.297" transform="translate(20.035 37.969)" fill="#ff7956"/>
      <circle id="Elipse_11868" data-name="Elipse 11868" cx="13.547" cy="13.547" r="13.547" transform="translate(39.799 27.912)" fill="#57a4ff"/>
      <circle id="Elipse_11869" data-name="Elipse 11869" cx="10.248" cy="10.248" r="10.248" transform="translate(46.369 31.212)" fill="#006df0"/>
      <circle id="Elipse_11870" data-name="Elipse 11870" cx="10.248" cy="10.248" r="10.248" transform="translate(43.098 31.212)" fill="#fff"/>
      <g id="Grupo_1174097" data-name="Grupo 1174097" transform="translate(43.098 31.212)">
        <circle id="Elipse_11871" data-name="Elipse 11871" cx="1.408" cy="1.408" r="1.408" transform="translate(10.475 8.839)" fill="#e0e0e2"/>
        <path id="Trazado_1031445" data-name="Trazado 1031445" d="M274.332,296.51a10.25,10.25,0,0,1,8.612-10.118,10.248,10.248,0,1,0,0,20.236A10.25,10.25,0,0,1,274.332,296.51Z" transform="translate(-271.061 -286.262)" fill="#e0e0e2"/>
      </g>
      <circle id="Elipse_11872" data-name="Elipse 11872" cx="1.408" cy="1.408" r="1.408" transform="translate(51.937 40.051)" fill="#ffe477"/>
      <rect id="Rectángulo_415083" data-name="Rectángulo 415083" width="3.271" height="54.189" transform="translate(16.019 0.818)" fill="#ffc477"/>
      <path id="Trazado_1031446" data-name="Trazado 1031446" d="M270.322,7.5V18.134h3.271V10.868Z" transform="translate(-227.305 -6.682)" fill="#ffb655"/>
      <g id="Grupo_1174098" data-name="Grupo 1174098" transform="translate(20.035 14.912)">
        <rect id="Rectángulo_415084" data-name="Rectángulo 415084" width="3.271" height="6.297" fill="#91dc5a"/>
        <rect id="Rectángulo_415085" data-name="Rectángulo 415085" width="3.271" height="6.297" transform="translate(0 11.529)" fill="#91dc5a"/>
      </g>
      <rect id="Rectángulo_415086" data-name="Rectángulo 415086" width="3.271" height="6.297" transform="translate(20.035 37.969)" fill="#ff3f62"/>
      <path id="Trazado_1031447" data-name="Trazado 1031447" d="M244.07,269.547a13.55,13.55,0,0,1,11.912-13.45,13.547,13.547,0,1,0,0,26.9A13.55,13.55,0,0,1,244.07,269.547Z" transform="translate(-201.001 -228.088)" fill="#006df0"/>
      <path id="Trazado_1031448" data-name="Trazado 1031448" d="M270.7,44.045h-6.24V37.5h-1.635v8.181H270.7Z" transform="translate(-220.622 -33.411)"/>
      <g id="Grupo_1174099" data-name="Grupo 1174099" transform="translate(27.26 3.653)">
        <rect id="Rectángulo_415087" data-name="Rectángulo 415087" width="1.635" height="1.635" transform="translate(11.24)" fill="#fff"/>
        <rect id="Rectángulo_415088" data-name="Rectángulo 415088" width="1.635" height="1.635" transform="translate(8.514)" fill="#fff"/>
        <rect id="Rectángulo_415089" data-name="Rectángulo 415089" width="7.424" height="1.635" fill="#fff"/>
      </g>
      <rect id="Rectángulo_415090" data-name="Rectángulo 415090" width="14.783" height="1.635" transform="translate(28.587 15.622)"/>
      <rect id="Rectángulo_415091" data-name="Rectángulo 415091" width="1.635" height="1.635" transform="translate(44.46 15.622)"/>
      <rect id="Rectángulo_415092" data-name="Rectángulo 415092" width="1.635" height="1.635" transform="translate(47.186 15.622)"/>
      <rect id="Rectángulo_415093" data-name="Rectángulo 415093" width="1.635" height="1.635" transform="translate(28.587 18.866)"/>
      <rect id="Rectángulo_415094" data-name="Rectángulo 415094" width="1.635" height="1.635" transform="translate(36.764 18.866)"/>
      <rect id="Rectángulo_415095" data-name="Rectángulo 415095" width="1.635" height="1.635" transform="translate(31.313 18.866)"/>
      <rect id="Rectángulo_415096" data-name="Rectángulo 415096" width="1.635" height="1.635" transform="translate(34.038 18.866)"/>
      <rect id="Rectángulo_415097" data-name="Rectángulo 415097" width="1.635" height="1.635" transform="translate(43.587 27.15)"/>
      <rect id="Rectángulo_415098" data-name="Rectángulo 415098" width="11.185" height="1.635" transform="translate(28.587 27.15)"/>
      <rect id="Rectángulo_415099" data-name="Rectángulo 415099" width="1.635" height="1.635" transform="translate(40.862 27.15)"/>
      <rect id="Rectángulo_415100" data-name="Rectángulo 415100" width="12.627" height="1.635" transform="translate(28.587 30.394)"/>
      <rect id="Rectángulo_415101" data-name="Rectángulo 415101" width="9.031" height="1.635" transform="translate(28.587 38.679)"/>
      <rect id="Rectángulo_415102" data-name="Rectángulo 415102" width="1.635" height="1.635" transform="translate(34.038 41.923)"/>
      <rect id="Rectángulo_415103" data-name="Rectángulo 415103" width="1.635" height="1.635" transform="translate(28.587 41.923)"/>
      <rect id="Rectángulo_415104" data-name="Rectángulo 415104" width="1.635" height="1.635" transform="translate(31.313 41.923)"/>
      <path id="Trazado_1031449" data-name="Trazado 1031449" d="M52.036,137.207h7.752v-3.164H58.152v1.529H53.671v-4.662h3.015v-1.635H52.036Z" transform="translate(-32.819 -115.179)"/>
      <path id="Trazado_1031450" data-name="Trazado 1031450" d="M59.788,340.743H52.036v7.933h7.752Zm-1.635,6.3H53.671v-4.662h4.481Z" transform="translate(-32.819 -303.591)"/>
      <path id="Trazado_1031451" data-name="Trazado 1031451" d="M70.841,117.821l-1.273,1.027,1.91,2.368,6.341-6.591-1.179-1.134-5.055,5.254Z" transform="translate(-48.439 -101.117)"/>
      <path id="Trazado_1031452" data-name="Trazado 1031452" d="M59.788,239.777H58.152v1.529H53.671v-4.662h3.015v-1.635H52.036v7.933h7.752Z" transform="translate(-32.819 -209.385)"/>
      <path id="Trazado_1031453" data-name="Trazado 1031453" d="M76.641,219.226l-5.055,5.254-.745-.924-1.273,1.027,1.91,2.368,6.341-6.591Z" transform="translate(-48.439 -195.323)"/>
      <path id="Trazado_1031454" data-name="Trazado 1031454" d="M247.664,248.5a14.365,14.365,0,1,0,14.365,14.365A14.381,14.381,0,0,0,247.664,248.5Zm0,27.094a12.729,12.729,0,1,1,12.729-12.729A12.744,12.744,0,0,1,247.664,275.594Z" transform="translate(-194.318 -221.405)"/>
      <path id="Trazado_1031455" data-name="Trazado 1031455" d="M274.626,278.762a11.065,11.065,0,1,0,11.065,11.065A11.078,11.078,0,0,0,274.626,278.762Zm.818,20.46v-1.335h-1.635v1.335a9.445,9.445,0,0,1-8.576-8.576h1.335V289.01h-1.335a9.445,9.445,0,0,1,8.576-8.576v1.335h1.635v-1.335a9.445,9.445,0,0,1,8.576,8.576h-1.335v1.636h1.335A9.445,9.445,0,0,1,275.444,299.222Z" transform="translate(-221.281 -248.368)"/>
      <path id="Trazado_1031456" data-name="Trazado 1031456" d="M294.256,400.231l-1.546.533a8.421,8.421,0,0,0,5.122,5.157l.544-1.542A6.772,6.772,0,0,1,294.256,400.231Z" transform="translate(-247.251 -356.593)"/>
      <path id="Trazado_1031457" data-name="Trazado 1031457" d="M416.193,335.452l-1.324.96a6.711,6.711,0,0,1,1.175,2.783l1.612-.278A8.354,8.354,0,0,0,416.193,335.452Z" transform="translate(-356.091 -298.877)"/>
      <path id="Trazado_1031458" data-name="Trazado 1031458" d="M380.547,306.186a8.3,8.3,0,0,0-1.713-.586l-.357,1.6a6.66,6.66,0,0,1,1.375.47Z" transform="translate(-323.667 -272.28)"/>
      <path id="Trazado_1031459" data-name="Trazado 1031459" d="M401.146,317.551a8.412,8.412,0,0,0-1.392-1.154l-.9,1.364a6.769,6.769,0,0,1,1.121.929Z" transform="translate(-341.821 -281.9)"/>
      <path id="Trazado_1031460" data-name="Trazado 1031460" d="M344.62,362.877h3.389v-1.635H344.62a2.223,2.223,0,0,0-4.137,0H339.8v1.635h.685a2.235,2.235,0,0,0,1.251,1.251V365.3h1.635v-1.175A2.235,2.235,0,0,0,344.62,362.877Zm-2.068-1.408a.591.591,0,1,1-.591.591A.591.591,0,0,1,342.552,361.469Z" transform="translate(-289.206 -320.6)"/>
      <rect id="Rectángulo_415105" data-name="Rectángulo 415105" width="1.635" height="3.998" transform="translate(52.528 34.418)"/>
      <rect id="Rectángulo_415106" data-name="Rectángulo 415106" width="7.36" height="1.635" transform="translate(19.082 51.463)"/>
      <rect id="Rectángulo_415107" data-name="Rectángulo 415107" width="1.635" height="1.635" transform="translate(58.336 44.194)"/>
      <rect id="Rectángulo_415108" data-name="Rectángulo 415108" width="1.635" height="1.635" transform="translate(55.61 44.194)"/>
      <path id="Trazado_1031461" data-name="Trazado 1031461" d="M16.836,1.635H42.672l9.856,10.148V25.732h1.635V11.12L43.363,0H15.2V55.825H45.365V54.189H16.836Z" transform="translate(0)"/>
    </g>
  </g>
</svg>
